<svg xmlns="http://www.w3.org/2000/svg" width="750" height="270" viewBox="0 0 198.44 71.44"><g transform="translate(0 -225.56)"><rect style="opacity:1;fill:#d986eb;fill-opacity:1;" width="57.5" height="69" x="1.36" y="226.87" ry="0"/><path style="opacity:1;fill:#b664c6;fill-opacity:1;" d="M1.36 261.37h57.5v34.5H1.36z"/><path style="fill:#fff;fill-opacity:1;stroke:none;stroke-width:1.64789629" d="M147.88 121.13c-6.86 0-13.19 5.38-13.19 18.4 0 11.29 5.6 16.4 12.18 16.4 5.75 0 10.55-4.32 10.55-11.02 0-7.01-4-10.39-9.8-10.39-2.43 0-5.33 1.48-7.29 3.96.27-9.28 3.7-12.4 7.91-12.4 2 0 4.12 1.06 5.33 2.54l3.27-3.7c-2-2.1-4.9-3.8-8.97-3.8zm-73.2.63-1 16.56 2.9 1.84c2-1.31 3.22-1.9 5.38-1.9 3.69 0 6.17 2.27 6.17 6.28 0 4.06-2.74 6.43-6.49 6.43-3.37 0-5.85-1.68-7.85-3.58l-2.8 3.9a15.4 15.4 0 0 0 11.44 4.64c6.17 0 11.82-4.22 11.82-11.55 0-7.22-4.8-10.49-10.55-10.49-1.74 0-3 .42-4.43 1.1l.69-8.11H92.6v-5.12H74.68zm39.92 7.91a3.95 3.95 0 0 0-3.96 4.11 3.96 3.96 0 0 0 3.96 4.12c2.21 0 3.9-1.74 3.9-4.12 0-2.37-1.69-4.1-3.9-4.1zm31.9 9.28c3.33 0 5.28 2 5.28 5.96 0 4.11-2.22 6.38-5.01 6.38-3.27 0-5.65-2.53-6.28-8.49 1.9-2.8 4.12-3.85 6.01-3.85zm-31.9 8.76a3.96 3.96 0 0 0-3.96 4.1 3.96 3.96 0 0 0 3.96 4.12c2.21 0 3.9-1.74 3.9-4.11s-1.69-4.11-3.9-4.11z" transform="matrix(.26458 0 0 .26458 0 225.56)"/><path style="font-style:normal;font-variant:normal;font-weight:600;font-stretch:normal;font-size:11.28888893px;line-height:1;font-family:'Source Sans 3';-inkscape-font-specification:'Source Sans 3 Semi-Bold';text-align:center;letter-spacing:0;word-spacing:0;text-anchor:middle;fill:CanvasText;fill-opacity:1;stroke:none;stroke-width:.99999994" d="M533.3 5.24v30.12h3.87l.43-2.22h.13c1.75 1.75 3.8 2.73 5.72 2.73 4.65 0 8.96-4.13 8.96-11.34 0-6.45-3.03-10.63-8.28-10.63-2.13 0-4.31 1.07-6.06 2.6l.13-3.5V5.24h-4.9zm96.76 0v30.12h4.9V20.73c1.75-1.71 2.95-2.6 4.78-2.6 2.3 0 3.29 1.28 3.29 4.73v12.5h4.9V22.22c0-5.29-1.96-8.32-6.44-8.32-2.85 0-4.95 1.5-6.7 3.16l.17-4.06V5.24h-4.9zm63.83 0V29.9c0 3.67 1.28 5.89 4.78 5.89 1.15 0 2-.17 2.6-.43l-.64-3.67c-.34.09-.51.09-.73.09-.55 0-1.1-.39-1.1-1.62V5.24h-4.91zm48.38 0v7.6l.17 3.37c-1.62-1.41-3.11-2.31-5.5-2.31-4.57 0-8.88 4.18-8.88 11 0 6.92 3.38 10.98 8.62 10.98 2.26 0 4.4-1.24 5.93-2.78h.18l.34 2.26h4.05V5.24h-4.9zM519.6 13.9c-3.33 0-6.32 1.24-8.62 2.69l1.79 3.33c1.88-1.11 3.84-1.97 5.89-1.97 2.81 0 3.75 1.8 3.84 3.93-8.62.94-12.38 3.16-12.38 7.85 0 3.67 2.57 6.14 6.23 6.14 2.48 0 4.53-1.2 6.49-2.81h.17l.34 2.3h4.05V23c0-5.89-2.6-9.09-7.8-9.09zm77.44 0c-4.95 0-9.73 4.14-9.73 10.97 0 7 4.52 11 10.4 11 2.65 0 5.21-.85 7.17-2.21l-1.7-3.16a8.8 8.8 0 0 1-4.87 1.45c-2.9 0-5.5-1.7-6.05-5.55h13.14c.17-.77.25-1.62.25-2.56 0-5.8-2.9-9.94-8.61-9.94zm22.44 0c-5.6 0-10.5 4.01-10.5 11 0 6.96 4.4 10.98 10.2 10.98 2.6 0 5-1.03 6.74-2.65l-2-3.03a6.42 6.42 0 0 1-4.27 1.66c-3.33 0-5.63-2.77-5.63-6.95 0-4.23 2.39-7 5.71-7 1.5 0 2.6.56 3.55 1.37l2.34-3.03a8.57 8.57 0 0 0-6.14-2.35zm41.09 0c-4.7 0-7.6 2.6-7.6 6.27 0 3.33 2.82 5.04 5.85 6.15 2.3.85 4.4 1.58 4.4 3.32 0 1.46-1.08 2.52-3.34 2.52-2.17 0-4.1-.64-5.93-2.17l-2.17 2.81a11.7 11.7 0 0 0 7.93 3.08c5.3 0 8.15-2.9 8.15-6.5 0-3.66-2.86-5.28-6.1-6.4-2.65-.89-4.18-1.53-4.18-3.06 0-1.28.98-2.3 3.11-2.3 1.67 0 3.2.5 4.7 1.57l2.17-2.77a10.8 10.8 0 0 0-7-2.52zm20 0c-4.94 0-9.72 4.14-9.72 10.97 0 7 4.52 11 10.4 11h.01c2.65 0 5.2-.85 7.17-2.21l-1.7-3.16a8.8 8.8 0 0 1-4.87 1.45c-2.9 0-5.5-1.7-6.06-5.55h13.14c.17-.77.26-1.62.26-2.56 0-5.8-2.9-9.94-8.62-9.94zm36.31 0c-2.85 0-4.99 1.5-6.86 3.33h-.17l-.35-2.82h-4.05v20.95h4.9V20.73c1.76-1.71 2.95-2.6 4.79-2.6 2.3 0 3.28 1.28 3.28 4.73v12.5h4.9V22.22c0-5.29-1.96-8.32-6.44-8.32zm-161.92.51 5.55 20.95h6.06l2.14-9.73c.42-1.87.76-3.58 1.1-6.31h.17c.35 2.73.69 4.44 1.11 6.31l2.14 9.73h6.27l5.33-20.95h-4.7l-2.47 10.88c-.42 1.88-.68 3.76-1.06 6.23h-.17a66.89 66.89 0 0 0-1.24-6.23l-2.65-10.88h-5.12l-2.55 10.88a88.4 88.4 0 0 0-1.16 6.23h-.17a58.4 58.4 0 0 0-1.07-6.23L560 14.41h-5.04zm42.16 3.37c2.82 0 4.18 1.88 4.18 4.87h-8.96c.6-3.72 2.73-4.87 4.78-4.87zm83.54 0c2.82 0 4.18 1.88 4.18 4.87h-8.96c.6-3.72 2.73-4.87 4.78-4.87zm-137.85.17c3.15 0 4.52 2.48 4.52 6.66 0 4.74-2.13 7.21-4.9 7.21a6.54 6.54 0 0 1-4.23-1.75V20.3c1.62-1.58 3.07-2.35 4.6-2.35zm195.2 0c1.4 0 2.81.47 4.26 1.75v9.77c-1.4 1.63-2.77 2.35-4.4 2.35-3.02 0-4.73-2.43-4.73-6.95 0-4.4 2.18-6.92 4.87-6.92zM522.5 25.3v4.44c-1.54 1.45-2.9 2.13-4.61 2.13-1.7 0-2.99-.68-2.99-2.47 0-2.13 1.88-3.41 7.6-4.1z" transform="matrix(.26458 0 0 .26458 0 225.56)"/><path style="opacity:1;fill:#b664c6;fill-opacity:1;" transform="rotate(90)" d="M226.87-119.29h57.5v34.5h-57.5z"/><path style="opacity:1;fill:#839;fill-opacity:1;" transform="rotate(90)" d="M226.87-119.29h28.75v34.5h-28.75z"/><path style="opacity:1;fill:#839;fill-opacity:1;" d="M130.83 261.37h28.75v34.5h-28.75z"/><path style="opacity:1;fill:#75008f;fill-opacity:1;" d="M130.83 278.62h28.75v17.25h-28.75z"/><path style="opacity:1;fill:#75008e;fill-opacity:1;" transform="rotate(90)" d="M247.73-197.27h28.75v17.25h-28.75z"/><path style="fill:#828282;fill-opacity:1;" d="m62.23 280.78 1.52 7.53c4.78-.95 8.12-2.75 10.96-5.9l3.44 3.18 1.26-12.35-11.71 1.09 3.28 3.6c-2.5 2.16-4.49 2.97-8.75 2.85z"/><path style="fill:#828282;fill-opacity:1;" d="m123.74 248.5 2.3-7.33c4.66 1.46 7.78 3.6 10.28 7.05l3.76-2.8-.07 12.42-11.53-2.34 3.64-3.23c-2.24-2.41-4.14-3.43-8.38-3.77zM164.97 288.75l1.51 7.53c4.79-.95 8.12-2.76 10.97-5.9l3.44 3.18 1.26-12.36-11.72 1.1 3.29 3.59c-2.5 2.16-4.49 2.97-8.75 2.86z"/><path style="fill:#fff;fill-opacity:1;stroke:none;stroke-width:1.64789629" d="M352.28 94.84c-4 0-7.22 1.69-10.07 4.22l3.11 3.74c2.06-1.9 4.11-3.16 6.75-3.16 3.06 0 4.96 1.69 4.96 4.48 0 3.11-2.16 5.38-8.76 5.38v4.43c7.65 0 9.86 2.21 9.86 5.7 0 3.16-2.53 5.06-6.17 5.06-3.37 0-5.95-1.64-7.96-3.7l-2.9 3.9c2.37 2.64 5.96 4.75 11.4 4.75 6.43 0 11.75-3.58 11.75-9.7 0-4.43-3-7.28-6.96-8.33v-.21c3.64-1.43 5.85-3.96 5.85-7.7 0-5.7-4.43-8.86-10.86-8.86zm55.16.63-1 16.56 2.9 1.85c2-1.32 3.21-1.9 5.37-1.9 3.7 0 6.17 2.26 6.17 6.27 0 4.06-2.74 6.44-6.48 6.44-3.38 0-5.85-1.7-7.86-3.59l-2.8 3.9a15.39 15.39 0 0 0 11.45 4.64c6.17 0 11.81-4.22 11.81-11.55 0-7.22-4.8-10.49-10.54-10.49-1.75 0-3.01.42-4.43 1.1l.68-8.11h12.66v-5.12h-17.93zm-22.73 7.91a3.96 3.96 0 0 0-3.95 4.12 3.96 3.96 0 0 0 3.95 4.1c2.22 0 3.9-1.73 3.9-4.1 0-2.38-1.68-4.12-3.9-4.12zm0 18.04a3.96 3.96 0 0 0-3.95 4.1 3.96 3.96 0 0 0 3.95 4.12c2.22 0 3.9-1.74 3.9-4.11s-1.68-4.11-3.9-4.11zM578.56 184.28c-6.86 0-13.18 5.38-13.18 18.4 0 11.29 5.59 16.4 12.18 16.4 5.74 0 10.54-4.32 10.54-11.02 0-7.01-4-10.39-9.8-10.39-2.43 0-5.33 1.48-7.28 3.96.26-9.28 3.69-12.4 7.9-12.4 2.01 0 4.12 1.06 5.33 2.54l3.27-3.7c-2-2.1-4.9-3.8-8.96-3.8zm-69.17.63-1 16.56 2.9 1.84c2-1.31 3.22-1.9 5.38-1.9 3.7 0 6.17 2.27 6.17 6.28 0 4.06-2.74 6.43-6.49 6.43-3.37 0-5.85-1.68-7.85-3.58l-2.8 3.9a15.4 15.4 0 0 0 11.44 4.64c6.17 0 11.82-4.22 11.82-11.55 0-7.22-4.8-10.5-10.55-10.5-1.74 0-3 .43-4.43 1.12l.69-8.12h12.65v-5.12h-17.93zm37.9 7.91a3.96 3.96 0 0 0-3.95 4.11 3.96 3.96 0 0 0 3.96 4.12c2.21 0 3.9-1.74 3.9-4.12 0-2.37-1.69-4.11-3.9-4.11zm29.9 9.28c3.32 0 5.27 2 5.27 5.96 0 4.11-2.21 6.38-5 6.38-3.28 0-5.65-2.53-6.28-8.49 1.9-2.8 4.1-3.85 6-3.85zm-29.9 8.75a3.96 3.96 0 0 0-3.95 4.12 3.96 3.96 0 0 0 3.96 4.11c2.21 0 3.9-1.74 3.9-4.11 0-2.38-1.69-4.12-3.9-4.12z" transform="matrix(.26458 0 0 .26458 0 225.56)"/><path style="fill:#fff;fill-opacity:1;" d="M695.18 119.25c-3.24 0-5.84 1.37-8.14 3.42l2.51 3.03c1.66-1.54 3.33-2.57 5.46-2.57 2.48 0 4.01 1.37 4.01 3.63 0 2.52-1.75 4.35-7.08 4.35v3.59c6.19 0 7.98 1.8 7.98 4.6 0 2.57-2.05 4.1-5 4.1-2.72 0-4.81-1.32-6.44-2.99l-2.34 3.16c1.92 2.14 4.82 3.84 9.21 3.84 5.2 0 9.52-2.9 9.52-7.85 0-3.58-2.43-5.89-5.63-6.74v-.17c2.94-1.15 4.73-3.2 4.73-6.23 0-4.6-3.58-7.17-8.79-7.17zm27.57.51-.81 13.4 2.34 1.5c1.62-1.07 2.6-1.54 4.35-1.54 3 0 5 1.83 5 5.08 0 3.28-2.22 5.2-5.25 5.2-2.73 0-4.74-1.36-6.36-2.9l-2.26 3.16c2 2 4.86 3.75 9.26 3.75 4.99 0 9.56-3.41 9.56-9.34 0-5.85-3.89-8.5-8.54-8.5-1.4 0-2.43.35-3.58.9l.55-6.57h10.24v-4.14h-14.5zm-9.86 6.4a3.2 3.2 0 0 0-3.2 3.33 3.2 3.2 0 0 0 3.2 3.33c1.8 0 3.16-1.4 3.16-3.33 0-1.92-1.37-3.33-3.16-3.33zm0 14.6a3.2 3.2 0 0 0-3.2 3.32 3.2 3.2 0 0 0 3.2 3.33c1.8 0 3.16-1.4 3.16-3.33 0-1.92-1.37-3.32-3.16-3.32z" transform="matrix(.26458 0 0 .26458 0 225.56)"/></g></svg>