<svg xmlns="http://www.w3.org/2000/svg" width="750" height="270" viewBox="0 0 198.44 71.44"><g transform="translate(0 -225.56)"><rect style="opacity:1;fill:#66e352;fill-opacity:1;" width="48.94" height="69.21" x="1.36" y="226.87" ry="0"/><path style="opacity:1;fill:#3bac28;fill-opacity:1;" d="M1.36 261.47H50.3v34.61H1.36z"/><path style="opacity:1;vector-effect:none;fill:#3bac28;fill-opacity:1;" transform="rotate(90)" d="M226.87-112.43h48.94v34.61h-48.94z"/><path style="opacity:1;vector-effect:none;fill:#281;fill-opacity:1;" transform="rotate(90)" d="M226.87-112.43h24.39v34.61h-24.39z"/><path style="opacity:1;vector-effect:none;fill:#281;fill-opacity:1;" d="M127.83 261.47h24.39v34.61h-24.39z"/><path style="opacity:1;vector-effect:none;fill:#060;fill-opacity:1;" d="M127.83 278.77h24.39v17.3h-24.39z"/><path style="opacity:1;vector-effect:none;fill:#060;fill-opacity:1;" transform="rotate(-90)" d="M-281.8 180.61h24.39v17.3h-24.39z"/><path d="M6.38 257.53v9.12H8.9c2.7 0 4.36-1.57 4.36-4.6 0-3.02-1.65-4.52-4.44-4.52zm8.72 0v9.12h1.62v-9.12zm3.93 0v9.12h1.55v-3.99c0-1.03-.11-2.15-.22-3.1h.05c.28.73.62 1.46.95 2.07l2.74 5.02h1.77v-9.12h-1.55v3.99c0 1 .11 2.12.2 3.1h-.06c-.28-.73-.59-1.46-.92-2.07l-2.74-5.02zm13.74 0-2.97 9.12h1.65l.71-2.47h3.07l.71 2.47h1.7l-2.97-9.12zm8.14.08c-1.06 0-1.91.45-2.67 1.12l.83.99c.54-.5 1.09-.84 1.78-.84.81 0 1.31.45 1.31 1.19 0 .82-.57 1.42-2.31 1.42v1.17c2.02 0 2.6.59 2.6 1.5 0 .85-.66 1.35-1.63 1.35a2.9 2.9 0 0 1-2.1-.98l-.77 1.03c.63.7 1.58 1.26 3.01 1.26 1.7 0 3.12-.95 3.12-2.57 0-1.17-.8-1.92-1.85-2.2v-.06c.97-.37 1.55-1.04 1.55-2.03 0-1.51-1.17-2.35-2.87-2.35zm-7.24 1.17h.05c.27 1 .53 2.05.83 3.02l.32 1.11h-2.33l.32-1.11c.3-.97.56-2 .8-3.02zM8 258.84h.7c1.85 0 2.9.98 2.9 3.2 0 2.25-1.05 3.3-2.9 3.3H8Z" style="fill:#fff;fill-opacity:1;"/><path d="m90.73 247-2.97 9.12h1.64l.71-2.47h3.07l.72 2.47h1.7L92.63 247zm8.6.25-3.51 5.5v1.08h3.92v2.3h1.5v-2.3h1.12v-1.24h-1.11v-5.34zm-7.7 1h.05c.26 1 .53 2.06.82 3.02l.32 1.11H90.5l.32-1.11c.3-.96.56-2 .81-3.02zm8.12.5h.06a40.6 40.6 0 0 0-.07 1.83v2.01h-2.33l1.62-2.47c.25-.47.5-.92.72-1.38z" style="fill:#fff;fill-opacity:1;"/><path d="m135.89 274.34-2.97 9.12h1.64l.71-2.47h3.07l.71 2.47h1.7l-2.97-9.12zm6.15.25-.26 4.38.76.49c.53-.35.85-.5 1.43-.5.97 0 1.63.6 1.63 1.65 0 1.08-.73 1.7-1.72 1.7-.9 0-1.55-.44-2.08-.94l-.74 1.03c.66.66 1.6 1.23 3.03 1.23 1.63 0 3.13-1.12 3.13-3.06 0-1.9-1.27-2.77-2.8-2.77-.45 0-.79.1-1.17.29l.19-2.15h3.34v-1.35zm-5.26 1h.06c.26 1 .53 2.05.82 3.02l.32 1.11h-2.33l.32-1.11c.3-.97.56-2 .81-3.02zM185.28 264.2l-2.98 9.13h1.65l.71-2.47h3.07l.71 2.47h1.7l-2.97-9.13zm8.94.09c-1.81 0-3.49 1.42-3.49 4.87 0 2.98 1.48 4.34 3.22 4.34 1.53 0 2.8-1.15 2.8-2.92 0-1.86-1.07-2.75-2.6-2.75-.64 0-1.4.4-1.93 1.05.07-2.46.98-3.28 2.1-3.28.53 0 1.09.28 1.4.67l.87-.98c-.53-.56-1.3-1-2.37-1zm-8.05 1.17h.05c.27 1 .54 2.05.83 3.01l.32 1.12h-2.33l.32-1.12c.3-.96.56-2 .8-3.01zm7.69 3.54c.88 0 1.4.53 1.4 1.58 0 1.09-.6 1.69-1.33 1.69-.87 0-1.5-.67-1.66-2.25.5-.74 1.08-1.02 1.59-1.02z" style="fill:#fff;fill-opacity:1;"/><path style="fill:#828282;fill-opacity:1;" d="m54.82 283.36 1.51 7.53c4.79-.95 8.12-2.76 10.97-5.9l3.44 3.18L72 275.8l-11.72 1.1 3.29 3.59c-2.5 2.16-4.49 2.97-8.75 2.86z"/><path style="fill:CanvasText;fill-opacity:1;" d="M677.88 3.98c-1.74 0-2.94 1.11-2.94 2.78 0 1.7 1.2 2.81 2.94 2.81 1.75 0 2.95-1.1 2.95-2.81 0-1.67-1.2-2.78-2.95-2.78zm-35.62.09v24.66c0 3.67 1.28 5.89 4.78 5.89 1.15 0 2-.17 2.6-.43l-.64-3.67a2.5 2.5 0 0 1-.73.09c-.55 0-1.1-.39-1.1-1.63V4.07h-4.91zm64.08 0v30.12h4.91V19.55c1.75-1.7 2.94-2.6 4.78-2.6 2.3 0 3.28 1.28 3.28 4.74v12.5h4.91V21.05c0-5.3-1.96-8.32-6.44-8.32-2.86 0-4.95 1.5-6.7 3.15l.17-4.05V4.07h-4.9zm-78.72 8.66c-4.4 0-8.27 2.69-8.27 7.5a7.08 7.08 0 0 0 2.73 5.56v.17c-1.2.85-2.3 2.26-2.3 3.88 0 1.7.8 2.81 1.87 3.5v.17c-1.92 1.2-2.99 2.73-2.99 4.48 0 3.67 3.72 5.46 8.7 5.46 6.83 0 11.18-3.24 11.18-7.38 0-3.63-2.64-5.17-7.67-5.17h-3.72c-2.56 0-3.41-.72-3.41-1.92 0-.93.38-1.45 1.02-2 .94.38 1.97.55 2.86.55 4.44 0 7.94-2.47 7.94-7.08 0-1.45-.51-2.56-1.28-3.41v-.17h3.93v-3.63h-7.51a9.44 9.44 0 0 0-3.08-.51zm34.52 0c-4.95 0-9.73 4.14-9.73 10.96 0 7 4.52 11.01 10.41 11.01 2.65 0 5.2-.85 7.17-2.22l-1.7-3.15a8.8 8.8 0 0 1-4.87 1.45c-2.9 0-5.5-1.71-6.06-5.55h13.14c.17-.77.26-1.62.26-2.56 0-5.8-2.9-9.94-8.62-9.94zm33.62 0c-5.59 0-10.5 4-10.5 11 0 6.96 4.4 10.97 10.2 10.97 2.6 0 5-1.02 6.74-2.64l-2-3.03a6.43 6.43 0 0 1-4.27 1.66c-3.33 0-5.63-2.77-5.63-6.95 0-4.23 2.39-7 5.72-7 1.5 0 2.6.55 3.54 1.36l2.35-3.03a8.57 8.57 0 0 0-6.15-2.34zm-20.3.51v20.95h4.9V13.24h-4.9zm-47.84 2.86c2.05 0 3.63 1.5 3.63 4.14 0 2.69-1.62 4.22-3.63 4.22-2.04 0-3.67-1.53-3.67-4.22 0-2.65 1.63-4.14 3.67-4.14zm34.6.51c2.82 0 4.19 1.88 4.19 4.86h-8.96c.6-3.7 2.73-4.86 4.77-4.86zM624.38 34.5c.81.21 1.7.3 2.86.3h2.86c2.39 0 3.7.47 3.7 2.09 0 1.79-2.3 3.37-5.67 3.37-3.32 0-5.37-1.11-5.37-2.99 0-.98.51-1.92 1.62-2.77zM606.5 50.96a18.23 18.23 0 0 1-6.27 2.22v3.07h4.99V74.1h-6.06v4h16.34v-4h-5.33V50.96h-3.67zm50.69 0a18.23 18.23 0 0 1-6.28 2.22v3.07h5V74.1h-6.06v4h16.34v-4h-5.33V50.96h-3.67zm34.64 0-10.75 16.81v3.33h11.99v7h4.6v-7h3.42v-3.8h-3.41V50.96h-5.85zm20.87 0a18.25 18.25 0 0 1-6.28 2.22v3.07h5V74.1h-6.06v4h16.34v-4h-5.34V50.96h-3.66zm-19.59 4.57h.17a124.1 124.1 0 0 0-.21 5.63v6.14h-7.13l4.95-7.55c.77-1.45 1.54-2.81 2.22-4.22zm-60.8 1.83a3.2 3.2 0 0 0-3.2 3.33 3.2 3.2 0 0 0 3.2 3.33c1.8 0 3.16-1.41 3.16-3.33 0-1.92-1.37-3.33-3.16-3.33zm0 14.6a3.2 3.2 0 0 0-3.2 3.32 3.2 3.2 0 0 0 3.2 3.33c1.8 0 3.16-1.4 3.16-3.33 0-1.92-1.37-3.33-3.16-3.33zm42.33 0c-1.8 0-3.29 1.19-3.29 3.02 0 1.92 1.5 3.03 3.16 3.03h.38c.05 2.14-1.53 4.1-4.3 5.17l1.06 2.68c4.22-1.45 6.65-4.69 6.65-8.87 0-3.16-1.36-5.04-3.66-5.04zm53.45 2.49c-1.06 0-1.92.83-1.92 2.05 0 1.15.86 1.98 1.92 1.98 1.02 0 1.88-.83 1.88-1.98 0-1.22-.86-2.05-1.88-2.05zm7.96 0c-1.05 0-1.92.83-1.92 2.05 0 1.15.87 1.98 1.92 1.98 1.03 0 1.9-.83 1.9-1.98 0-1.22-.87-2.05-1.9-2.05zm7.97 0c-1.05 0-1.92.83-1.92 2.05 0 1.15.87 1.98 1.92 1.98 1.03 0 1.89-.83 1.89-1.98 0-1.22-.86-2.05-1.89-2.05z" transform="matrix(.26458 0 0 .26458 0 225.56)" aria-label="gleich 1 : 1,41..."/><path style="fill:#828282;fill-opacity:1;" d="m117.38 243.66 2.31-7.33c4.66 1.46 7.78 3.61 10.27 7.05l3.76-2.8-.06 12.42-11.54-2.34 3.65-3.22c-2.25-2.42-4.14-3.44-8.39-3.78zM158.09 287.09l1.51 7.53c4.79-.95 8.12-2.76 10.97-5.9l3.44 3.18 1.26-12.36-11.72 1.1 3.28 3.59c-2.5 2.16-4.48 2.97-8.74 2.86z"/></g></svg>