<?xml version="1.0" encoding="UTF-8" standalone="no"?><svg xmlns="http://www.w3.org/2000/svg" xmlns:xlink="http://www.w3.org/1999/xlink" width="340" height="180" preserveAspectRatio="xMidYMid meet" version="1.1"><defs><filter id="b" width="1.02" height="1.02" x="-.01" y="-.01" color-interpolation-filters="sRGB"><feGaussianBlur stdDeviation="1.51"/></filter><filter id="j" width="1.28" height="1.21" x="-.14" y="-.11" color-interpolation-filters="sRGB"><feGaussianBlur stdDeviation=".49"/></filter><filter id="c" width="1.26" height="1.22" x="-.13" y="-.11" color-interpolation-filters="sRGB"><feGaussianBlur stdDeviation=".19"/></filter></defs><use width="100%" height="100%" x="0" y="0" filter="url(#b)" opacity=".3" transform="translate(5.75 -133.71)" xlink:href="#a"/><g transform="translate(4.75 -134.71)"><path fill="none" stroke="#3465a4" stroke-opacity=".5" stroke-width="1.5" d="M125.94 266.75h85.03V148H12v118.75h6.53" color="#000" color-rendering="auto" image-rendering="auto" shape-rendering="auto" solid-color="#000" style="isolation:auto;mix-blend-mode:normal"/><g id="a" fill="#fff" stroke="#000" transform="translate(2 -6)"><path d="M186.5 202.5a9 9 0 0 0-9 9 9 9 0 0 0 9 9 9 9 0 0 0 9-9 9 9 0 0 0-9-9zm0 3.5a5.5 5.5 0 0 1 5.5 5.5 5.5 5.5 0 0 1-.57 2.43l-7.36-7.36a5.5 5.5 0 0 1 2.43-.57zm-4.93 3.07l7.36 7.36a5.5 5.5 0 0 1-2.43.57 5.5 5.5 0 0 1-5.5-5.5 5.5 5.5 0 0 1 .57-2.43z"/><path id="e" d="M64 204.5h2l.5.5.5-.5h2c.5-.01.5 0 .5.5v1c0 .5 0 .5-.5.5h-1.5v11H69c.5 0 .5 0 .5.5v1c0 .5 0 .5-.5.5h-2l-.5-.5-.5.5h-2c-.5 0-.5 0-.5-.5v-1c0-.5 0-.5.5-.5h1.5v-11H64c-.5 0-.5 0-.5-.5v-1c0-.5 0-.5.5-.5z"/><path d="M105.5 210.5H99c-.5 0-.5 0-.5.5v1c0 .5 0 .5.5.5h6.5v6.5c0 .5 0 .5.5.5h1c.5 0 .5 0 .5-.5v-6.5h6.5c.5 0 .5 0 .5-.5v-1c0-.5 0-.5-.5-.5h-6.5V204c0-.5 0-.5-.5-.5h-1c-.5 0-.5 0-.5.5zM305 201.5c-.5 0-.5 0-.5.5v6l.5.5h2l.5-.5v-6c0-.5 0-.5-.5-.5zm-8 8c-.5 0-.5 0-.5.5v2c0 .5 0 .5.5.5h6l.5-.5v-2l-.5-.5zm12 0l-.5.5v2l.5.5h6c.5 0 .5 0 .5-.5v-2c0-.5 0-.5-.5-.5zm-4 4l-.5.5v6c0 .5 0 .5.5.5h2c.5 0 .5 0 .5-.5v-6l-.5-.5z"/><path fill="#fff" stroke="#000" stroke-width="1" d="M264.5 209.5H260c-.5 0-.5 0-.5.5v4c0 .5 0 .5.5.5h4.5v4.5c0 .5 0 .5.5.5h4c.5 0 .5 0 .5-.5v-4.5h4.5c.5 0 .5 0 .5-.5v-4c0-.5 0-.5-.5-.5h-4.5V205c0-.5 0-.5-.5-.5h-4c-.5 0-.5 0-.5.5z"/><path d="M303.66 251.5l-3.9 3.9c-.35.35-.35.35 0 .7l2.13 2.13c.35.36.35.36.7 0l3.9-3.9 3.9 3.9c.36.36.36.36.71 0l2.13-2.12c.35-.36.35-.36 0-.71l-3.9-3.9 3.9-3.9c.35-.35.35-.35 0-.7l-2.13-2.13c-.35-.36-.35-.36-.7 0l-3.9 3.9-3.9-3.9c-.36-.36-.36-.36-.71 0l-2.13 2.12c-.35.36-.35.36 0 .71z"/><path id="i" d="M145.5 244.5c-1 0-1 0-.5.5l2.5 2.5-5 5-2.5-2.5c-.5-.5-.5-.5-.5.5v8h8c1 0 1 0 .5-.5l-2.5-2.5 5-5 2.5 2.5c.5.5.5.5.5-.5v-8z"/><path id="h" d="M72 255c.46-.5.5-.5-.5-.5h-3v-6h3c1 0 .96 0 .5-.5l-5.5-6-5.5 6c-.46.5-.5.5.5.5h3v6h-3c-1 0-.96 0-.5.5l5.5 6z"/><path id="f" d="M188 179.5c.5 0 .5 0 .5-.5v-9.5h3c1 0 .96 0 .5-.5l-5.5-6-5.5 6c-.46.5-.5.5.5.5h3v9.5c0 .5 0 .5.5.5z"/><g id="g"><path d="M22 447l-5 4.5 5 4.5c.5.45.5.5.5-.5v-2h3v-4h-3v-2c0-1 0-1-.5-.5zm8.5.5v2h-3v4h3v2c0 1 0 .95.5.5l5-4.5-5-4.5c-.5-.5-.5-.5-.5.5z" transform="translate(240 -160)"/><path stroke="#010101" d="M27.5 444v15m-2 0v-15" transform="translate(240 -160)"/></g><path d="M31.5 253.5v1.5c0 .5.5.5 1.5-.5l3-3-3-3c-1-1-1.5-1-1.5-.5v1.5h-3v-3H30c.5 0 .5-.5-.5-1.5l-3-3-3 3c-1 1-1 1.5-.5 1.5h1.5v3h-3V248c0-.5-.5-.5-1.5.5l-3 3 3 3c1 1 1.5 1 1.5.5v-1.5h3v3H23c-.5 0-.5.5.5 1.5l3 3 3-3c1-1 1-1.5.5-1.5h-1.5v-3zM148 202.5c2.34.13 3.26 1.5 4 3l-10.5 14-4 1v-4zM138 216c1.96.02 3.19 1.22 4 3M145.78 205.3c1.96.02 3.19 1.22 4 3M217.71 259.49c.5-.5.8-2 .8-3l8-8 3 3-8 8c-1 0-2.5.3-3 .8z"/><path fill="#aaa" stroke="#010101" d="M224 246l8 8-1.5-1.5s0-2 1-3 3-1 3-3-1-3-3-3-2 2-3 3-3 1-3 1z"/><path stroke="#666" d="M68.46 288.67c3-1 1.87-3.67 4.2-3.5" filter="url(#c)" opacity=".6" transform="matrix(0 -1 -1 0 518.39 318.5)"/><path d="M267 241.5c-3.04 0-5.5 1.69-5.5 5 0 1.66 2.5 2.5 3.61 5.5h3.78c1.11-3 3.61-3.84 3.61-5.5 0-3.31-2.46-5-5.5-5zm-2 3a.5 1 0 0 1 .5 1 .5 1 0 0 1-.5 1 .5 1 0 0 1-.5-1 .5 1 0 0 1 .5-1zm4 0a.5 1 0 0 1 .5 1 .5 1 0 0 1-.5 1 .5 1 0 0 1-.5-1 .5 1 0 0 1 .5-1zm-8 7.5l-1 2 5 2.5-5 2.5 1 2 6-3.5 6 3.5 1-2-5-2.5 5-2.5-1-2-6 3.5-6-3.5z"/><path id="d" d="M25.88 178.74l-2.38-5.24h5l-11-11v16L21 175l2.1 4.85z"/><use width="100%" height="100%" x="0" y="0" transform="matrix(-1 0 0 1 86 120)" xlink:href="#d"/><path d="M28.5 300.5v-5L33 297l-6-14-6 14 4.5-1.5v5zM152 293.5c-.5 0-.5 0-.5.5v2.5H149c-.5 0-.5 0-.5.5v2c0 .5 0 .5.5.5h2.5v2.5c0 .5 0 .5.5.5h2c.5 0 .5 0 .5-.5v-2.5h2.5c.5 0 .5 0 .5-.5v-2c0-.5 0-.5-.5-.5h-2.5V294c0-.5 0-.5-.5-.5h-2z"/><path d="M270.5 169.5v3h3c.5 0 .5 0 .5.5-1 1-2.5 2-2.5 3v4c0 .5 0 .5.5.5h2c.5 0 .5 0 .5-.5v-3.5c0-1 3-1.5 3-4s-1.5-3-4-3zM271.5 177.5h3" transform="translate(-200)"/><path d="M235 171.5c-1.5 0-2.5 1-2.5 2.5v1.5c0 .38.06.72.18 1.03a2.36 2.36 0 0 0-2.42.68l-1.06 1.06c-1.06 1.06-1.06 2.47 0 3.53 1.06 1.07 2.47 1.07 3.53 0l1.06-1.06c.84-.84 1-1.9.52-2.83.21.05.44.09.69.09 1.5 0 2.5-1 2.5-2.5V174c0-1.5-1-2.5-2.5-2.5z" transform="translate(-41 120)"/><path d="M235 176c-.25 0-.5-.29-.5-.64v-1.22c0-.35.25-.64.5-.64s.5.29.5.64v1.22c0 .35-.25.64-.5.64zM230.62 179.65l.86-.86c.25-.25.64-.28.8-.1.18.18.16.56-.1.8l-.85.87c-.26.25-.64.28-.81.1-.18-.18-.15-.56.1-.81z" transform="translate(-41 120)"/><path stroke="#fff" stroke-linecap="round" stroke-width="1.2" d="M194 295.4l-3.1 3.7"/><path d="M312.5 174.5a4 4 0 1 0 0 8 4 4 0 0 0 0-8z" transform="rotate(-90 332.5 278.5)"/><path d="M312.5 36.75a1.75 1.75 0 0 0-1.75 1.75l1.75-1.75zm1.75 1.75l-1.75 1.75a1.75 1.75 0 0 0 1.75-1.75z" transform="rotate(-90 402.5 208.5)"/><path d="M109.89 296.5c-.39 0-.39 0-.39.33v5.34c0 .33 0 .33.39.33h6.22c.4 0 .4 0 .4-.33v-5.34c0-.33 0-.33-.4-.33zM109.89 298.5h6.22M109.89 300.5h6.22M17.5 215c0 2 2.25 3.5 3.25 3.5h9.5c1 0 2.25-1.5 2.25-3.5v-4c0-2-.75-2.5-1.75-2.5H29.5c0-1-.5-1-1.5-1h-1.5c0-1-.5-1-1.5-1h-1.5V204c0-.5 0-1.5-1.5-1.5s-1.5 1.03-1.5 1.5v5.5h-2s-1 1-1 2z"/><path stroke-linecap="round" d="M23.5 206.5v3M26.5 207.5v2M29.5 208.5v2M20.5 209.5v3"/><use width="100%" height="100%" x="0" y="0" transform="translate(80 120)" xlink:href="#d"/><use width="100%" height="100%" x="0" y="0" transform="translate(120 120)" xlink:href="#d"/><use width="100%" height="100%" x="0" y="0" transform="translate(160 120)" xlink:href="#d"/><use width="100%" height="100%" x="0" y="0" transform="translate(40)" xlink:href="#d"/><use width="100%" height="100%" x="0" y="0" transform="translate(200 120)" xlink:href="#d"/><use width="100%" height="100%" x="0" y="0" transform="rotate(-90 146.5 131.5)" xlink:href="#e"/><use width="100%" height="100%" x="0" y="0" transform="rotate(90 206.4 191.6)" xlink:href="#f"/><use width="100%" height="100%" x="0" y="0" transform="rotate(180 226.5 171.5)" xlink:href="#f"/><use width="100%" height="100%" x="0" y="0" transform="rotate(-90 246.5 111.5)" xlink:href="#f"/><use width="100%" height="100%" x="0" y="0" transform="rotate(-90 286.5 271.5)" xlink:href="#g"/><use width="100%" height="100%" x="0" y="0" transform="rotate(-90 86.5 231.5)" xlink:href="#h"/><use width="100%" height="100%" x="0" y="0" transform="rotate(-90 166.5 231.5)" xlink:href="#i"/><path d="M103.5 174.5h5l-11-11v16l3.5-3.5 2.1 4.85 2.78-1.1z"/><g fill="#fff" stroke="#000"><path d="M33 578l1-7-6-1-8 8 7 1 1-6-8-8-1 7 6 1 8-8-7-1-1 6z" transform="translate(120 -399)"/></g><path stroke-miterlimit="4" stroke-width=".7" d="M111 176l1-4 4 1-5 5-4-1 1-4 5 5-1 4-4-1 5-5 4 1-1 4z"/><path fill-rule="evenodd" d="M138.5 219.22v-.53l.6.38z"/><path stroke="#666" d="M142 216.64l8.5-11.29" filter="url(#j)" opacity=".6"/></g><text x="21.19" y="269.78" fill="#3465a4" font-size="13.75" line-height="110%" xml:space="preserve"><tspan x="21.19" y="269.78" fill="#3465a4" font-family="'Source Sans Pro', 'Open Sans', Segoe, sans-serif">auch für Windows</tspan></text></g></svg>