<?xml version="1.0" encoding="UTF-8" standalone="no"?><svg xmlns="http://www.w3.org/2000/svg" xmlns:xlink="http://www.w3.org/1999/xlink" width="340" height="180" version="1.1"><defs><filter id="b" width="1" height="1" x="0" y="0" color-interpolation-filters="sRGB"><feGaussianBlur stdDeviation="1.5"/></filter></defs><use width="100%" height="100%" x="0" y="0" filter="url(#b)" opacity=".3" transform="translate(5.8 -293.5)" xlink:href="#a"/><g transform="translate(4.8 -294.5)"><g id="a" fill="#fff" stroke="#000" transform="translate(2 -6)"><use width="100%" height="100%" x="0" y="0" transform="translate(40)" xlink:href="#c"/><use width="100%" height="100%" x="0" y="0" transform="translate(80)" xlink:href="#c"/><use width="100%" height="100%" x="0" y="0" transform="translate(120)" xlink:href="#c"/><use width="100%" height="100%" x="0" y="0" transform="translate(200)" xlink:href="#c"/><use width="100%" height="100%" x="0" y="0" transform="translate(160)" xlink:href="#c"/><path d="M96.5 361.5v20h20v-20zm3 3h6v2h2v-2h6v6h-2v2h2v6h-6v-2h-2v2h-6v-6h2v-2h-2z"/><path id="e" d="M25.5 447.5H19c-.5 0-.5 0-.5-.5v-2c0-.5 0-.5.5-.5h16c.5 0 .5 0 .5.5v2c0 .5 0 .5-.5.5h-6.5V459c0 .5 0 .5-.5.5h-2c-.5 0-.5 0-.5-.5z"/><path id="d" d="M179 363.5c-.5 0-.5 0-.5.5v2c0 .5 0 .5.5.5h6.5L180 372c-.5.5-.5.5.5.5h4v7.5c0 .5 0 .5.5.5h3c.5 0 .5 0 .5-.5v-7.5h4c1 0 1 0 .5-.5l-5.5-5.5h6.5c.5 0 .5 0 .5-.5v-2c0-.5 0-.5-.5-.5z"/><path id="f" d="M179 403.5c-.5 0-.5 0-.5.5v2c0 .5 0 .5.5.5h12.5V418c0 .5 0 .5.5.5h2c.5 0 .5 0 .5-.5v-14c0-.5 0-.5-.5-.5h-15zm1.5 5c-1 0-1 0-.5.5l3 3-5 5c-.5.5-.5.5 0 1l2 2c.5.5.5.5 1 0l5-5 3 3c.5.5.5.5.5-.5v-9h-9z"/><path d="M145 369.5c-.5 0-.5 0-.5.5v4c0 .5 0 .5.5.5h4c.5 0 .5 0 .5-.5v-4c0-.5 0-.5-.5-.5zM306.5 322l-3 3c-1 1-1 1.5-.5 1.5h7c.5 0 .5-.5-.5-1.5l-3-3zm-5.2 5.7c-.3 0-.7.2-1.3.8l-3 3 3 3c1 1 1.5 1 1.5.5v-7c0-.2 0-.3-.2-.3zm10.4 0c-.1 0-.2.1-.2.3v7c0 .5.5.5 1.5-.5l3-3-3-3c-.6-.6-1-.9-1.3-.8zm-8.7 8.8c-.5 0-.5.5.5 1.5l3 3 3-3c.6-.6.9-1 .8-1.3 0-.1-.1-.2-.3-.2h-7z"/><g id="h"><path d="M110.5 293.5l4.5 4.5c.5.5.5.5 0 1l-1 1c-.5.5-.5.5-1 0l-4.5-4.5z" transform="translate(-79.5 80.5)"/><path d="M105 282.5a7.5 7.5 0 1 0 0 15 7.5 7.5 0 0 0 0-15zm0 2.5a5 5 0 1 1 0 10 5 5 0 0 1 0-10z" transform="translate(-79.5 80.5)"/></g><path d="M108.5 332.5v7h3v-2l3 3 2-2-3-3h2v-3z"/><path d="M57.5 214c0 2 2.5 3.5 3.5 3.5h9c2 0 2.5-2.5 2.5-4.5v-7c0-2-.8-2.5-1.8-2.5h-1.2c0-1-.5-1-1.5-1h-1.5c0-1-.5-1-1.5-1s-1.5 0-1.5 1h-2c-1 0-1 .5-1 1v4h-2s-1 1-1 2z" transform="translate(-40 121)"/><path stroke-linecap="round" d="M63.5 202.5v6M66.5 202.5v6M69.5 203.5v6M60.5 207.5v4.5" transform="translate(-40 121)"/><path d="M312.5 174.5a4 4 0 1 0 0 8 4 4 0 0 0 0-8z" transform="rotate(-90 351 298)"/><path d="M312.5 36.8a1.8 1.8 0 0 0-1.8 1.7l1.8-1.8zm1.8 1.7l-1.8 1.8a1.8 1.8 0 0 0 1.8-1.8z" transform="rotate(-90 421 228)"/><path d="M270.5 169.5v3h3c.5 0 .5 0 .5.5-1 1-2.5 2-2.5 3v4c0 .5 0 .5.5.5h2c.5 0 .5 0 .5-.5v-3.5c0-1 3-1.5 3-4s-1.5-3-4-3zM271.5 177.5h3" transform="translate(-2 162)"/><path d="M235 171.5c-1.5 0-2.5 1-2.5 2.5v1.5c0 .4 0 .7.2 1-.8-.2-1.7 0-2.4.7l-1.1 1c-1 1.1-1 2.5 0 3.6 1 1 2.5 1 3.5 0l1-1c1-.9 1-2 .6-2.9l.7.1c1.5 0 2.5-1 2.5-2.5V174c0-1.5-1-2.5-2.5-2.5z" transform="translate(-42 159)"/><path d="M235 176c-.3 0-.5-.3-.5-.6V174c0-.3.3-.6.5-.6s.5.3.5.6v1.3c0 .3-.3.6-.5.6zM230.6 179.7l.9-1c.2-.2.6-.2.8 0 .2.2.1.6-.1.8l-.9.9c-.2.2-.6.2-.8 0-.2-.1-.1-.5.1-.8z" transform="translate(-42 159)"/><path stroke="#fff" stroke-linecap="round" stroke-width="1.2" d="M193 334.4l-3.1 3.7"/><path d="M152 332.5c-.5 0-.5 0-.5.5v2.5H149c-.5 0-.5 0-.5.5v2c0 .5 0 .5.5.5h2.5v2.5c0 .5 0 .5.5.5h2c.5 0 .5 0 .5-.5v-2.5h2.5c.5 0 .5 0 .5-.5v-2c0-.5 0-.5-.5-.5h-2.5V333c0-.5 0-.5-.5-.5h-2z"/><g id="c"><path d="M57.5 214c0 2 2.3 3.5 3.3 3.5h9.5c1 0 2.2-1.5 2.2-3.5v-4c0-2-.8-2.5-1.8-2.5h-1.2c0-1-.5-1-1.5-1h-1.5c0-1-.5-1-1.5-1s-1.5 0-1.5 1h-2c-1 0-1 .5-1 1v2h-2s-1 1-1 2z" transform="translate(0 120)"/><path stroke-linecap="round" d="M63.5 206.5v2M66.5 206.5v2M69.5 207.5v2M60.5 209.5v3" transform="translate(0 120)"/></g><use width="100%" height="100%" x="0" y="0" xlink:href="#d"/><use width="100%" height="100%" x="0" y="0" xlink:href="#e"/><use width="100%" height="100%" x="0" y="0" transform="rotate(90 207 392)" xlink:href="#d"/><use width="100%" height="100%" x="0" y="0" transform="rotate(90 47 472)" xlink:href="#e"/><use width="100%" height="100%" x="0" y="0" transform="rotate(180 226.5 372)" xlink:href="#d"/><use width="100%" height="100%" x="0" y="0" transform="rotate(180 67 452)" xlink:href="#e"/><use width="100%" height="100%" x="0" y="0" transform="rotate(-90 246.5 311.5)" xlink:href="#d"/><use width="100%" height="100%" x="0" y="0" transform="rotate(-90 87 392)" xlink:href="#e"/><use width="100%" height="100%" x="0" y="0" transform="matrix(1 0 0 -1 40 822.9)" xlink:href="#f"/><path id="g" d="M34.5 405c0-.5 0-.5-.5-.5H19c-.5 0-.5 0-.5.5v2c0 .5 0 .5.5.5h12.5V419c0 .5 0 .5.5.5h2c.5 0 .5 0 .5-.5z"/><use width="100%" height="100%" x="0" y="0" transform="rotate(180 226.5 411.5)" xlink:href="#f"/><use width="100%" height="100%" x="0" y="0" transform="matrix(-1 0 0 1 493 0)" xlink:href="#f"/><use width="100%" height="100%" x="0" y="0" xlink:href="#g"/><use width="100%" height="100%" x="0" y="0" transform="matrix(1 0 0 -1 40 824)" xlink:href="#g"/><use width="100%" height="100%" x="0" y="0" transform="rotate(180 67 412)" xlink:href="#g"/><use width="100%" height="100%" x="0" y="0" transform="matrix(-1 0 0 1 174 0)" xlink:href="#g"/><path d="M25 367.5c-.5 0-.5 0-.5.5v1.5H23c-.5 0-.5 0-.5.5v1c0 .5 0 .5.5.5h1.5v1.5c0 .5 0 .5.5.5h1c.5 0 .5 0 .5-.5v-1.5H28c.5 0 .5 0 .5-.5v-1c0-.5 0-.5-.5-.5h-1.5V368c0-.5 0-.5-.5-.5z"/><use width="100%" height="100%" x="0" y="0" transform="translate(40)" xlink:href="#h"/><path d="M63 369.5c-.5 0-.5 0-.5.5v1c0 .5 0 .5.5.5h5c.5 0 .5 0 .5-.5v-1c0-.5 0-.5-.5-.5z"/><circle cx="306.5" cy="331.5" r="3"/></g></g></svg>