<?xml version="1.0" encoding="UTF-8" standalone="no"?><svg xmlns="http://www.w3.org/2000/svg" xmlns:xlink="http://www.w3.org/1999/xlink" width="340" height="180" version="1.1"><defs><filter id="b" width="1" height="1" x="0" y="0" color-interpolation-filters="sRGB"><feGaussianBlur stdDeviation="1.5"/></filter><filter id="j" width="1.3" height="1.2" x="-.1" y="-.1" color-interpolation-filters="sRGB"><feGaussianBlur stdDeviation=".5"/></filter><filter id="d" width="1.3" height="1.2" x="-.1" y="-.1" color-interpolation-filters="sRGB"><feGaussianBlur stdDeviation=".2"/></filter></defs><use width="100%" height="100%" x="0" y="0" filter="url(#b)" opacity=".3" transform="translate(8 -139.5)" xlink:href="#a"/><g transform="translate(7 -140.5)"><g id="a" stroke="#fff"><path d="M306.5 202.5a9 9 0 0 0-9 9 9 9 0 0 0 9 9 9 9 0 0 0 9-9 9 9 0 0 0-9-9zm0 3.5a5.5 5.5 0 0 1 5.5 5.5 5.5 5.5 0 0 1-.6 2.4l-7.3-7.3a5.5 5.5 0 0 1 2.4-.6zm-5 3l7.4 7.4a5.5 5.5 0 0 1-2.4.6 5.5 5.5 0 0 1-5.5-5.5 5.5 5.5 0 0 1 .6-2.4z"/><use width="100%" height="100%" x="0" y="0" transform="translate(40)" xlink:href="#c"/><use width="100%" height="100%" x="0" y="0" transform="translate(80)" xlink:href="#c"/><path d="M24 244.5h2l.5.5.5-.5h2c.5 0 .5 0 .5.5v1c0 .5 0 .5-.5.5h-1.5v11H29c.5 0 .5 0 .5.5v1c0 .5 0 .5-.5.5h-2l-.5-.5-.5.5h-2c-.5 0-.5 0-.5-.5v-1c0-.5 0-.5.5-.5h1.5v-11H24c-.5 0-.5 0-.5-.5v-1c0-.5 0-.5.5-.5zM65.5 250.5H59c-.5 0-.5 0-.5.5v1c0 .5 0 .5.5.5h6.5v6.5c0 .5 0 .5.5.5h1c.5 0 .5 0 .5-.5v-6.5H74c.5 0 .5 0 .5-.5v-1c0-.5 0-.5-.5-.5h-6.5V244c0-.5 0-.5-.5-.5h-1c-.5 0-.5 0-.5.5zM263.7 211.5l-4 3.9c-.3.4-.3.4 0 .7l2.2 2.1c.3.4.3.4.7 0l3.9-3.9 3.9 4c.3.3.3.3.7 0l2.1-2.2c.4-.3.4-.3 0-.7l-3.9-3.9 4-3.9c.3-.4.3-.4 0-.7l-2.2-2.1c-.4-.4-.4-.4-.7 0l-3.9 3.9-3.9-4c-.4-.3-.4-.3-.7 0l-2.1 2.2c-.4.3-.4.3 0 .7z"/><path id="f" d="M19 283.5c-.5 0-.5 0-.5.5v2c0 .5 0 .5.5.5h6.5L20 292c-.5.5-.5.5.5.5h4v7.5c0 .5 0 .5.5.5h3c.5 0 .5 0 .5-.5v-7.5h4c1 0 1 0 .5-.5l-5.5-5.5H34c.5 0 .5 0 .5-.5v-2c0-.5 0-.5-.5-.5z"/><path id="h" d="M99 283.5c-.5 0-.5 0-.5.5v2c0 .5 0 .5.5.5h12.5V298c0 .5 0 .5.5.5h2c.5 0 .5 0 .5-.5v-14c0-.5 0-.5-.5-.5H99zm1.5 5c-1 0-1 0-.5.5l3 3-5 5c-.5.5-.5.5 0 1l2 2c.5.5.5.5 1 0l5-5 3 3c.5.5.5.5.5-.5v-9h-9z"/><path d="M305.5 284.5c-1 0-1 0-.5.5l2.5 2.5-5 5-2.5-2.5c-.5-.5-.5-.5-.5.5v8h8c1 0 1 0 .5-.5l-2.5-2.5 5-5 2.5 2.5c.5.5.5.5.5-.5v-8zM272 295c.5-.5.5-.5-.5-.5h-3v-6h3c1 0 1 0 .5-.5l-5.5-6-5.5 6c-.5.5-.5.5.5.5h3v6h-3c-1 0-1 0-.5.5l5.5 6z"/><g id="g"><path d="M22 447l-5 4.5 5 4.5c.5.5.5.5.5-.5v-2h3v-4h-3v-2c0-1 0-1-.5-.5zm8.5.5v2h-3v4h3v2c0 1 0 1 .5.5l5-4.5-5-4.5c-.5-.5-.5-.5-.5.5z" transform="translate(240 -280)"/><path stroke="#010101" d="M27.5 444v15m-2 0v-15" transform="translate(240 -280)"/></g><path d="M271.5 253.5v1.5c0 .5.5.5 1.5-.5l3-3-3-3c-1-1-1.5-1-1.5-.5v1.5h-3v-3h1.5c.5 0 .5-.5-.5-1.5l-3-3-3 3c-1 1-1 1.5-.5 1.5h1.5v3h-3V248c0-.5-.5-.5-1.5.5l-3 3 3 3c1 1 1.5 1 1.5.5v-1.5h3v3H263c-.5 0-.5.5.5 1.5l3 3 3-3c1-1 1-1.5.5-1.5h-1.5v-3zM306.5 242l-3 3c-1 1-1 1.5-.5 1.5h7c.5 0 .5-.5-.5-1.5l-3-3zm-5.2 5.7c-.3 0-.7.2-1.3.8l-3 3 3 3c1 1 1.5 1 1.5.5v-7c0-.2 0-.3-.2-.3zm10.4 0c-.1 0-.2.1-.2.3v7c0 .5.5.5 1.5-.5l3-3-3-3c-.6-.6-1-.9-1.3-.8zm-8.7 8.8c-.5 0-.5.5.5 1.5l3 3 3-3c.6-.6.9-1 .8-1.3 0-.1-.1-.2-.3-.2h-7z"/><g id="i"><path d="M110.5 293.5l4.5 4.5c.5.5.5.5 0 1l-1 1c-.5.5-.5.5-1 0l-4.5-4.5z" transform="translate(80.5 -39.5)"/><path d="M105 282.5a7.5 7.5 0 1 0 0 15 7.5 7.5 0 0 0 0-15zm0 2.5a5 5 0 1 1 0 10 5 5 0 0 1 0-10z" transform="translate(80.5 -39.5)"/></g><path d="M110 242.5c2.3.1 3.3 1.5 4 3l-10.5 14-4 1v-4zM100 256c2 0 3.2 1.2 4 3M107.8 245.3c2 0 3.2 1.2 4 3M137.7 259.5c.5-.5.8-2 .8-3l8-8 3 3-8 8c-1 0-2.5.3-3 .8z"/><path fill="#aaa" stroke="#010101" d="M144 246l8 8-1.5-1.5s0-2 1-3 3-1 3-3-1-3-3-3-2 2-3 3-3 1-3 1z"/><path stroke="#666" d="M68.5 288.7c3-1 1.8-3.7 4.2-3.5" filter="url(#d)" opacity=".6" transform="matrix(0 -1 -1 0 438.4 318.5)"/><path d="M227 201.5c-3 0-5.5 1.7-5.5 5 0 1.7 2.5 2.5 3.6 5.5h3.8c1.1-3 3.6-3.8 3.6-5.5 0-3.3-2.5-5-5.5-5zm-2 3a.5 1 0 0 1 .5 1 .5 1 0 0 1-.5 1 .5 1 0 0 1-.5-1 .5 1 0 0 1 .5-1zm4 0a.5 1 0 0 1 .5 1 .5 1 0 0 1-.5 1 .5 1 0 0 1-.5-1 .5 1 0 0 1 .5-1zm-8 7.5l-1 2 5 2.5-5 2.5 1 2 6-3.5 6 3.5 1-2-5-2.5 5-2.5-1-2-6 3.5-6-3.5z"/><path id="e" d="M27.9 178.7l-2.4-5.2h5l-11-11v16L23 175l2.1 4.8z"/><use width="100%" height="100%" x="0" y="0" transform="matrix(-1 0 0 1 128 0)" xlink:href="#e"/><path d="M66.5 180.5v-5L71 177l-6-14-6 14 4.5-1.5v5zM152 173.5c-.5 0-.5 0-.5.5v2.5H149c-.5 0-.5 0-.5.5v2c0 .5 0 .5.5.5h2.5v2.5c0 .5 0 .5.5.5h2c.5 0 .5 0 .5-.5v-2.5h2.5c.5 0 .5 0 .5-.5v-2c0-.5 0-.5-.5-.5h-2.5V174c0-.5 0-.5-.5-.5h-2z"/><path d="M270.5 169.5v3h3c.5 0 .5 0 .5.5-1 1-2.5 2-2.5 3v4c0 .5 0 .5.5.5h2c.5 0 .5 0 .5-.5v-3.5c0-1 3-1.5 3-4s-1.5-3-4-3zM271.5 177.5h3" transform="translate(-80)"/><path d="M312.5 174.5a4 4 0 1 0 0 8 4 4 0 0 0 0-8z" transform="rotate(-90 272.5 218.5)"/><path d="M312.5 36.8a1.8 1.8 0 0 0-1.8 1.7l1.8-1.8zm1.8 1.7l-1.8 1.8a1.8 1.8 0 0 0 1.8-1.8z" transform="rotate(-90 342.5 148.5)"/><path d="M148.5 212.5v7h3v-2l3 3 2-2-3-3h2v-3zM17.5 215c0 2 2.3 3.5 3.3 3.5h9.4c1 0 2.3-1.5 2.3-3.5v-4c0-2-.8-2.5-1.8-2.5h-1.2c0-1-.5-1-1.5-1h-1.5c0-1-.5-1-1.5-1h-1.5V204c0-.5 0-1.5-1.5-1.5s-1.5 1-1.5 1.5v5.5h-2s-1 1-1 2z"/><path stroke-linecap="round" d="M23.5 206.5v3M26.5 207.5v2M29.5 208.5v2M20.5 209.5v3"/><path d="M57.5 214c0 2 2.5 3.5 3.5 3.5h9c2 0 2.5-2.5 2.5-4.5v-7c0-2-.8-2.5-1.8-2.5h-1.2c0-1-.5-1-1.5-1h-1.5c0-1-.5-1-1.5-1s-1.5 0-1.5 1h-2c-1 0-1 .5-1 1v4h-2s-1 1-1 2z" transform="translate(0 1)"/><path stroke-linecap="round" d="M63.5 202.5v6M66.5 202.5v6M69.5 203.5v6M60.5 207.5v4.5" transform="translate(0 1)"/><path d="M235 171.5c-1.5 0-2.5 1-2.5 2.5v1.5c0 .4 0 .7.2 1-.8-.2-1.7 0-2.4.7l-1.1 1c-1 1.1-1 2.5 0 3.6 1 1 2.5 1 3.5 0l1-1c1-.9 1-2 .6-2.9l.7.1c1.5 0 2.5-1 2.5-2.5V174c0-1.5-1-2.5-2.5-2.5z" transform="translate(-42 39)"/><path d="M235 176c-.3 0-.5-.3-.5-.6V174c0-.3.3-.6.5-.6s.5.3.5.6v1.3c0 .3-.3.6-.5.6zM230.6 179.7l.9-1c.2-.2.6-.2.8 0 .2.2.1.6-.1.8l-.9.9c-.2.2-.6.2-.8 0-.2-.1-.1-.5.1-.8z" transform="translate(-42 39)"/><path stroke="#000" stroke-linecap="round" stroke-width="1.2" d="M193 214.4l-3.1 3.7"/><use width="100%" height="100%" x="0" y="0" transform="translate(118)" xlink:href="#e"/><use width="100%" height="100%" x="0" y="0" transform="translate(158)" xlink:href="#e"/><use width="100%" height="100%" x="0" y="0" transform="translate(198)" xlink:href="#e"/><g id="c"><path d="M57.5 214c0 2 2.3 3.5 3.3 3.5h9.5c1 0 2.2-1.5 2.2-3.5v-4c0-2-.8-2.5-1.8-2.5h-1.2c0-1-.5-1-1.5-1h-1.5c0-1-.5-1-1.5-1s-1.5 0-1.5 1h-2c-1 0-1 .5-1 1v2h-2s-1 1-1 2z" transform="translate(40)"/><path stroke-linecap="round" d="M63.5 206.5v2M66.5 206.5v2M69.5 207.5v2M60.5 209.5v3" transform="translate(40)"/></g><path d="M185 283.5c-.5 0-.5 0-.5.5v9.5h-3c-1 0-1 0-.5.5l5.5 6 5.5-6c.5-.5.5-.5-.5-.5h-3V284c0-.5 0-.5-.5-.5zM234.5 290c0-.5 0-.5-.5-.5h-9.5v-3c0-1 0-1-.5-.5l-6 5.5 6 5.5c.5.5.5.5.5-.5v-3h9.5c.5 0 .5 0 .5-.5z"/><use width="100%" height="100%" x="0" y="0" xlink:href="#f"/><use width="100%" height="100%" x="0" y="0" transform="rotate(90 47 312)" xlink:href="#f"/><use width="100%" height="100%" x="0" y="0" transform="rotate(-90 286.5 151.5)" xlink:href="#g"/><use width="100%" height="100%" x="0" y="0" transform="matrix(1 0 0 -1 40 582.9)" xlink:href="#h"/><path d="M185 247.5c-.5 0-.5 0-.5.5v1.5H183c-.5 0-.5 0-.5.5v1c0 .5 0 .5.5.5h1.5v1.5c0 .5 0 .5.5.5h1c.5 0 .5 0 .5-.5v-1.5h1.5c.5 0 .5 0 .5-.5v-1c0-.5 0-.5-.5-.5h-1.5V248c0-.5 0-.5-.5-.5z"/><use width="100%" height="100%" x="0" y="0" transform="translate(40)" xlink:href="#i"/><path d="M223 249.5c-.5 0-.5 0-.5.5v1c0 .5 0 .5.5.5h5c.5 0 .5 0 .5-.5v-1c0-.5 0-.5-.5-.5z"/><circle cx="306.5" cy="251.5" r="3"/><path fill-rule="evenodd" stroke="#aaa" d="M100.5 259.2v-.5l.6.4z"/><path stroke="#666" d="M104 256.6l8.5-11.2" filter="url(#j)" opacity=".6"/></g></g></svg>