<svg xmlns="http://www.w3.org/2000/svg" width="750" height="270" viewBox="0 0 198.4 71.4"><g transform="translate(0 -225.6)"><rect style="opacity:1;fill:#de9530;fill-opacity:1;" width="42.3" height="63.5" x=".8" y="229.6" ry="0"/><rect style="opacity:1;fill:#ca4e74;fill-opacity:1;" width="44.8" x="53.3" y="231.7" ry="0" height="59.1"/><rect style="opacity:1;fill:#37cc8e;fill-opacity:1;" width="40.7" height="65.9" x="157.2" y="228.3" ry="0"/><rect style="opacity:1;fill:#649ec6;fill-opacity:1;" width="38.8" height="69" x="108.2" y="226.8" ry="0"/><path style="fill:#fff;fill-opacity:1;" d="M471.7 86.1v18h4.4v-6h25.3v-4a20 20 0 0 1-2.4-6.8h-3.4v5.5h-19.5V86h-4.4zm188.7.6a20 20 0 0 1-6.9 2.5v3.3h5.5V112h-6.7v4.4h18V112h-6V86.7h-4zm28.2 7c-2 0-3.5 1.6-3.5 3.7 0 2 1.5 3.6 3.5 3.6s3.4-1.5 3.4-3.6-1.4-3.7-3.4-3.7zm-203 15c-10 0-14.4 5-14.4 10.8 0 5 3.8 9.3 9.7 9.3 6.2 0 9.2-3.6 9.2-8.7 0-2.1-1.3-4.7-3.5-6.4 8.2.2 11 3.2 11 7 0 1.7-1 3.6-2.3 4.7l3.3 2.9c1.9-1.8 3.4-4.4 3.4-8 0-6-4.8-11.6-16.3-11.6zm203 1c-2 0-3.5 1.5-3.5 3.6s1.5 3.7 3.5 3.7 3.4-1.6 3.4-3.7c0-2-1.4-3.6-3.4-3.6zm-205.8 4.1c2.5 1.7 3.4 3.7 3.4 5.3 0 3-1.8 4.7-5.3 4.7-3.6 0-5.6-2-5.6-4.4 0-3 2.2-5 7.5-5.6zM57 119.6c-4 0-6.7 1.7-9.4 4.7l2.9 2.9c1.6-1.8 3.5-3.4 5.8-3.4 3.2 0 4.9 2 4.9 5.2 0 4.5-5.3 9.9-13.5 17.5v3.3h20.1v-4.5h-7.7l-5 .3c6.2-6.3 11.3-11.4 11.3-17 0-5.4-3.7-9-9.4-9zm55.4 0c-3.5 0-6.4 1.5-8.9 3.7l2.8 3.3c1.8-1.6 3.6-2.8 6-2.8 2.6 0 4.3 1.5 4.3 4 0 2.8-1.9 4.8-7.7 4.8v3.9c6.7 0 8.7 2 8.7 5 0 2.8-2.2 4.5-5.5 4.5-3 0-5.2-1.4-7-3.3l-2.6 3.5c2.1 2.3 5.3 4.2 10.1 4.2 5.7 0 10.4-3.2 10.4-8.6 0-4-2.7-6.4-6.2-7.4v-.1c3.3-1.3 5.2-3.5 5.2-6.9 0-5-3.9-7.8-9.6-7.8zm146.2 0c-3.5 0-6.4 1.5-8.9 3.7l2.8 3.3c1.8-1.6 3.6-2.8 6-2.8 2.6 0 4.3 1.5 4.3 4 0 2.8-1.9 4.8-7.7 4.8v3.9c6.7 0 8.7 2 8.7 5 0 2.8-2.2 4.5-5.5 4.5-3 0-5.2-1.4-7-3.3l-2.6 3.5c2.1 2.3 5.3 4.2 10.1 4.2 5.7 0 10.4-3.2 10.4-8.6 0-4-2.6-6.4-6.1-7.4v-.1c3.2-1.3 5.1-3.5 5.1-6.9 0-5-3.9-7.8-9.6-7.8zm57 .6L304 138.5v3.7H317v7.6h5v-7.6h3.8V138H322v-17.8h-6.4zm1.4 5h.2l-.2 6.1v6.7h-7.8l5.4-8.2 2.4-4.6zm-231.3 2c-2 0-3.5 1.5-3.5 3.6s1.5 3.6 3.5 3.6 3.4-1.5 3.4-3.6-1.5-3.6-3.4-3.6zm201.6 0c-2 0-3.5 1.5-3.5 3.6s1.6 3.6 3.5 3.6c2 0 3.5-1.5 3.5-3.6s-1.5-3.6-3.5-3.6zm187.5 15.6a3.5 3.5 0 0 0-3.6 3.5c0 2 1.5 3.5 3.6 3.5s3.6-1.5 3.6-3.5-1.5-3.5-3.6-3.5zm16 0a3.5 3.5 0 0 0-3.7 3.5c0 2 1.6 3.5 3.7 3.5a3.5 3.5 0 1 0 0-7zm-405.1.3c-2 0-3.5 1.6-3.5 3.7 0 2 1.5 3.6 3.5 3.6s3.4-1.5 3.4-3.6-1.5-3.7-3.4-3.7zm201.6 0c-2 0-3.5 1.6-3.5 3.7 0 2 1.6 3.6 3.5 3.6 2 0 3.5-1.5 3.5-3.6s-1.5-3.7-3.5-3.7zm380.8 1.4c-6 0-11.6 4.8-11.6 16.3 0 10 5 14.5 10.7 14.5 5.1 0 9.4-3.8 9.4-9.7 0-6.2-3.6-9.2-8.7-9.2a8.8 8.8 0 0 0-6.4 3.5c.2-8.2 3.2-11 7-11 1.7 0 3.6 1 4.7 2.2l2.9-3.2a10.6 10.6 0 0 0-8-3.4zm46.3 0c-5.1 0-9 3.1-9 8 0 3 1.9 5.2 4.2 6.9v.1c-2.8 1.5-5.4 4-5.4 7.7 0 4.8 4.3 8.1 10 8.1 6.1 0 10.1-3.5 10.1-8 0-4-2.4-6.2-5.1-7.8v-.1c1.9-1.4 4-4 4-6.9 0-4.8-3.5-8-8.8-8zm-85.3.6a20 20 0 0 1-6.8 2.4v3.4h5.4v19.5h-6.6v4.4H639v-4.4H633V145h-4zm60.7 0a20 20 0 0 1-6.8 2.4v3.4h5.4v19.5h-6.6v4.4h17.9v-4.4h-5.9V145h-4zm24.5 3.2c2.8 0 4.4 2 4.4 4.6 0 1.8-.9 3.5-2.5 5.1-3.3-1.3-6-2.6-6-5.6 0-2.6 1.8-4 4.1-4zm-47.4 12c3 0 4.7 1.8 4.7 5.3 0 3.6-2 5.6-4.4 5.6-3 0-5-2.2-5.6-7.5 1.7-2.5 3.6-3.4 5.3-3.4zm45.2.7c4 1.7 7.2 2.8 7.2 6 0 2.8-2 4.5-5 4.5s-5.4-2-5.4-5c0-2.2 1.4-4.1 3.2-5.5zm-219.8 2.8c-6.2 0-9.2 3.5-9.2 8.6a9 9 0 0 0 3.4 6.5c-8.2-.2-11-3.3-11-7 0-1.8 1-3.6 2.3-4.7l-3.3-3a10.7 10.7 0 0 0-3.3 8c0 6.1 4.8 11.7 16.3 11.7 10 0 14.5-5 14.5-10.8 0-5-3.8-9.3-9.7-9.3zm156 4.2c-2 0-3.7 1.3-3.7 3.4 0 2 1.6 3.3 3.5 3.3h.4c0 2.3-1.7 4.4-4.7 5.6l1.1 3c4.7-1.6 7.3-5.2 7.3-9.8 0-3.4-1.5-5.5-4-5.5zm-156 .7c3.6 0 5.6 2 5.6 4.5 0 2.9-2.3 5-7.5 5.6-2.4-1.6-3.5-3.6-3.5-5.3 0-3 1.9-4.8 5.4-4.8z" transform="matrix(.26458 0 0 .26458 0 225.6)"/></g></svg>