<svg xmlns="http://www.w3.org/2000/svg" viewBox="0 0 750 75">
  <path fill="#f2f2f2" d="M0 0h75v75H0z"/>
  <path fill="#e8e8e8" d="M75 0h75v75H75z"/>
  <path fill="#d6d6d6" d="M150 0h75v75h-75z"/>
  <path fill="#bababa" d="M225 0h75v75h-75z"/>
  <path fill="#949494" d="M300 0h75v75h-75z"/>
  <path fill="#6b6b6b" d="M375 0h75v75h-75z"/>
  <path fill="#454545" d="M450 0h75v75h-75z"/>
  <path fill="#292929" d="M525 0h75v75h-75z"/>
  <path fill="#171717" d="M600 0h75v75h-75z"/>
  <path fill="#0d0d0d" d="M675 0h75v75h-75z"/>
  <path fill="#000" d="M37.031 27.873c-2.25 0-3.724 1.875-3.724 5.15 0 3.325 1.474 5.2 3.724 5.2 2.225 0 3.725-1.875 3.725-5.2 0-3.275-1.5-5.15-3.725-5.15zm9.526 0l-9.051 17h1.4l9.051-17h-1.4zm66.463 0c-2.25 0-3.725 1.875-3.725 5.15 0 3.325 1.475 5.2 3.725 5.2 2.225 0 3.724-1.875 3.724-5.2 0-3.275-1.5-5.15-3.724-5.15zm9.525 0l-9.05 17h1.4l9.05-17h-1.4zm70.865 0c-2.25 0-3.724 1.875-3.724 5.15 0 3.325 1.474 5.2 3.724 5.2 2.225 0 3.725-1.875 3.725-5.2 0-3.275-1.5-5.15-3.725-5.15zm9.526 0l-9.051 17h1.4l9.05-17h-1.4zm66.865 0c-2.25 0-3.725 1.875-3.725 5.15 0 3.325 1.475 5.2 3.725 5.2 2.225 0 3.724-1.875 3.724-5.2 0-3.275-1.5-5.15-3.724-5.15zm9.525 0l-9.05 17h1.4l9.05-17h-1.4zm66.865 0c-2.25 0-3.724 1.875-3.724 5.15 0 3.325 1.474 5.2 3.724 5.2 2.225 0 3.725-1.875 3.725-5.2 0-3.275-1.5-5.15-3.725-5.15zm9.526 0l-9.051 17h1.4l9.051-17h-1.4zm-254 .45c-2.55 0-4.7 2.074-4.7 5.124 0 3.275 1.776 4.926 4.526 4.926 1.325 0 2.75-.776 3.75-2.05-.075 5.1-1.977 6.85-4.227 6.85-1 0-1.975-.5-2.625-1.275l-1.148 1.3c.875.95 2.15 1.675 3.85 1.675 3.175 0 6.074-2.475 6.074-8.875 0-5.125-2.35-7.676-5.5-7.676zm81.967 0c-3.175 0-6.077 2.474-6.077 8.874 0 5.125 2.375 7.676 5.5 7.676 2.575 0 4.725-2.075 4.725-5.125 0-3.275-1.799-4.926-4.549-4.926-1.3 0-2.724.775-3.724 2 .1-5.05 1.974-6.773 4.199-6.773 1 0 1.975.475 2.625 1.25l1.15-1.276c-.9-.975-2.124-1.7-3.85-1.7zm62.437 0c-2.075 0-3.5.975-4.824 2.425l1.174 1.176c.925-1.075 2.075-1.926 3.4-1.926 2.025 0 3.025 1.3 3.025 3.125 0 2.575-2.7 5.45-7.5 10.225v1.224h10.3V42.8h-4.626c-.825 0-1.799.073-2.674.148 3.775-3.95 6.5-6.924 6.5-9.924 0-2.825-1.825-4.7-4.775-4.7zm88.793 0c-2.075 0-3.5.975-4.824 2.425l1.174 1.176c.925-1.075 2.075-1.926 3.4-1.926 2.025 0 3.025 1.3 3.025 3.125 0 2.575-2.7 5.45-7.5 10.225v1.224h10.3V42.8h-4.626c-.825 0-1.799.073-2.674.148 3.775-3.95 6.5-6.924 6.5-9.924 0-2.825-1.825-4.7-4.775-4.7zm-312.435.3l-.526 7.676 1.102.699c.95-.625 1.624-.975 2.724-.975 2.05 0 3.4 1.3 3.4 3.5 0 2.225-1.55 3.65-3.5 3.65-1.874 0-3.075-.875-4.025-1.825l-1 1.35c1.1 1.1 2.675 2.175 5.225 2.175 2.775 0 5.375-1.95 5.375-5.4s-2.224-5-4.95-5c-.974 0-1.7.25-2.45.65l.425-4.725h6.174v-1.775H22.48zm147.626 0c-.875.525-1.925.926-3.375 1.176v1.324h2.9v11.75h-3.65v1.7h9v-1.7h-3.3v-14.25h-1.575zm83.793 0v1.775h7.95c-3.15 4.375-4.35 8.174-4.625 14.174h2.125c.275-6.225 1.05-9.849 4.826-14.674v-1.275h-10.276zm70.14 0l-6.827 10.2v1.35h7.176v4.4h1.949v-4.4h2.176v-1.65h-2.176v-9.9h-2.299zm-287.007.525c1.275 0 2.15 1.275 2.15 3.875s-.875 3.924-2.15 3.924c-1.3 0-2.176-1.324-2.176-3.924 0-2.6.876-3.875 2.176-3.875zm75.989 0c1.275 0 2.15 1.275 2.15 3.875s-.875 3.924-2.15 3.924c-1.3 0-2.176-1.324-2.176-3.924 0-2.6.876-3.875 2.176-3.875zm80.39 0c1.275 0 2.15 1.275 2.15 3.875s-.875 3.924-2.15 3.924c-1.3 0-2.176-1.324-2.176-3.924 0-2.6.876-3.875 2.176-3.875zm76.39 0c1.276 0 2.151 1.275 2.151 3.875s-.875 3.924-2.15 3.924c-1.3 0-2.176-1.324-2.176-3.924 0-2.6.876-3.875 2.176-3.875zm76.391 0c1.275 0 2.15 1.275 2.15 3.875s-.875 3.924-2.15 3.924c-1.3 0-2.175-1.324-2.175-3.924 0-2.6.875-3.875 2.175-3.875zm-244.474.8c2.025 0 3.25 1.65 3.525 4.75-1.025 1.5-2.3 2.124-3.35 2.124-1.974 0-2.95-1.3-2.95-3.375 0-2.1 1.225-3.5 2.775-3.5zm222.695.874h.1c-.05.85-.125 2.226-.125 3.076v4.625h-5l3.724-5.45c.45-.776.901-1.476 1.301-2.25zM48.457 34.523c-2.25 0-3.727 1.876-3.727 5.15 0 3.326 1.477 5.2 3.727 5.2 2.225 0 3.725-1.874 3.725-5.2 0-3.274-1.5-5.15-3.725-5.15zm75.988 0c-2.25 0-3.726 1.876-3.726 5.15 0 3.326 1.476 5.2 3.726 5.2 2.225 0 3.725-1.874 3.725-5.2 0-3.274-1.5-5.15-3.725-5.15zm80.39 0c-2.25 0-3.726 1.876-3.726 5.15 0 3.326 1.477 5.2 3.727 5.2 2.225 0 3.725-1.874 3.725-5.2 0-3.274-1.5-5.15-3.725-5.15zm76.392 0c-2.25 0-3.727 1.876-3.727 5.15 0 3.326 1.477 5.2 3.727 5.2 2.225 0 3.724-1.874 3.724-5.2 0-3.274-1.5-5.15-3.724-5.15zm76.39 0c-2.25 0-3.726 1.876-3.726 5.15 0 3.326 1.476 5.2 3.726 5.2 2.225 0 3.725-1.874 3.725-5.2 0-3.274-1.5-5.15-3.725-5.15zM48.457 35.8c1.275 0 2.148 1.275 2.148 3.875s-.873 3.924-2.148 3.924c-1.3 0-2.176-1.324-2.176-3.924 0-2.6.876-3.875 2.176-3.875zm75.988 0c1.275 0 2.149 1.275 2.149 3.875s-.874 3.924-2.149 3.924c-1.3 0-2.175-1.324-2.175-3.924 0-2.6.875-3.875 2.175-3.875zm80.39 0c1.276 0 2.15 1.275 2.15 3.875s-.874 3.924-2.15 3.924c-1.3 0-2.175-1.324-2.175-3.924 0-2.6.876-3.875 2.176-3.875zm76.392 0c1.275 0 2.148 1.275 2.148 3.875s-.873 3.924-2.148 3.924c-1.3 0-2.176-1.324-2.176-3.924 0-2.6.876-3.875 2.176-3.875zm76.39 0c1.275 0 2.149 1.275 2.149 3.875s-.874 3.924-2.149 3.924c-1.3 0-2.176-1.324-2.176-3.924 0-2.6.876-3.875 2.176-3.875zm-174.683.574c1.975 0 2.949 1.3 2.949 3.375 0 2.1-1.2 3.5-2.776 3.5-2.025 0-3.25-1.675-3.5-4.775 1-1.475 2.302-2.1 3.327-2.1z"/>
  <path fill="#fff" d="M420.582 27.873c-2.25 0-3.725 1.875-3.725 5.15 0 3.325 1.475 5.2 3.725 5.2 2.225 0 3.725-1.875 3.725-5.2 0-3.275-1.5-5.15-3.725-5.15zm9.525 0l-9.05 17h1.4l9.05-17zm64.866 0c-2.25 0-3.725 1.875-3.725 5.15 0 3.325 1.475 5.2 3.725 5.2 2.225 0 3.724-1.875 3.724-5.2 0-3.275-1.5-5.15-3.724-5.15zm9.525 0l-9.05 17h1.4l9.05-17zm64.865 0c-2.25 0-3.724 1.875-3.724 5.15 0 3.325 1.474 5.2 3.724 5.2 2.225 0 3.725-1.875 3.725-5.2 0-3.275-1.5-5.15-3.725-5.15zm9.526 0l-9.051 17h1.4l9.051-17zm65.795 0c-2.25 0-3.725 1.875-3.725 5.15 0 3.325 1.475 5.2 3.725 5.2 2.225 0 3.724-1.875 3.724-5.2 0-3.275-1.5-5.15-3.724-5.15zm9.525 0l-9.05 17h1.4l9.05-17zm63.936 0c-2.25 0-3.725 1.875-3.725 5.15 0 3.325 1.475 5.2 3.725 5.2 2.225 0 3.724-1.875 3.724-5.2 0-3.275-1.5-5.15-3.724-5.15zm9.525 0l-9.05 17h1.4l9.05-17zm-317.766.45c-2.575 0-4.525 1.65-4.525 4.1 0 1.676 1.051 2.85 2.226 3.675v.1c-1.5.8-3 2.225-3 4.3 0 2.525 2.225 4.375 5.225 4.375 3.1 0 5.15-1.875 5.15-4.25 0-2.15-1.35-3.275-2.775-4.1v-.1c.975-.75 2.2-2.176 2.2-3.85 0-2.476-1.726-4.25-4.5-4.25zm73.89 0c-1.874 0-3.348.85-4.573 2l1.1 1.3c.95-.95 2.075-1.625 3.4-1.625 1.7 0 2.75.975 2.75 2.525 0 1.675-1.126 2.975-4.526 2.975v1.574c3.8 0 5.1 1.276 5.1 3.176 0 1.775-1.374 2.926-3.299 2.926-1.875 0-3.126-.9-4.076-1.9l-1.049 1.349c1.075 1.175 2.7 2.25 5.25 2.25 2.925 0 5.25-1.726 5.25-4.55 0-2.2-1.526-3.6-3.451-4.05v-.1c1.725-.65 2.9-1.875 2.9-3.8 0-2.575-2-4.05-4.775-4.05zm62.49 0c-2.576 0-4.526 1.65-4.526 4.1 0 1.676 1.051 2.85 2.226 3.675v.1c-1.5.8-3 2.225-3 4.3 0 2.525 2.225 4.375 5.225 4.375 3.1 0 5.15-1.875 5.15-4.25 0-2.15-1.35-3.275-2.775-4.1v-.1c.975-.75 2.2-2.176 2.2-3.85 0-2.476-1.726-4.25-4.5-4.25zm74.695 0c-2.55 0-4.7 2.074-4.7 5.124 0 3.275 1.776 4.926 4.526 4.926 1.325 0 2.75-.776 3.75-2.05-.075 5.1-1.977 6.85-4.227 6.85-1 0-1.975-.5-2.625-1.275l-1.148 1.3c.875.95 2.15 1.675 3.85 1.675 3.174 0 6.074-2.475 6.074-8.875 0-5.125-2.35-7.676-5.5-7.676zm73.46 0c-2.55 0-4.699 2.074-4.699 5.124 0 3.275 1.776 4.926 4.526 4.926 1.325 0 2.75-.776 3.75-2.05-.075 5.1-1.977 6.85-4.227 6.85-1 0-1.975-.5-2.625-1.275l-1.148 1.3c.875.95 2.15 1.675 3.85 1.675 3.174 0 6.073-2.475 6.073-8.875 0-5.125-2.35-7.676-5.5-7.676zm-300.812.3l-.525 7.676 1.101.699c.95-.625 1.625-.975 2.725-.975 2.05 0 3.4 1.3 3.4 3.5 0 2.225-1.55 3.65-3.5 3.65-1.875 0-3.075-.875-4.025-1.825l-1 1.35c1.1 1.1 2.674 2.175 5.224 2.175 2.775 0 5.375-1.95 5.375-5.4s-2.224-5-4.949-5c-.975 0-1.701.25-2.451.65l.426-4.725h6.174v-1.775zm73.041 0v1.775h7.95c-3.15 4.375-4.35 8.174-4.626 14.174h2.125c.275-6.225 1.051-9.849 4.826-14.674v-1.275zm92.943 0l-6.826 10.2v1.35h7.176v4.4h1.95v-4.4h2.175v-1.65h-2.176v-9.9zm74.17 0c-.875.525-1.925.926-3.375 1.176v1.324h2.9v11.75h-3.65v1.7h9v-1.7h-3.3v-14.25zm69.81 0l-.525 7.676 1.102.699c.95-.625 1.625-.975 2.725-.975 2.05 0 3.4 1.3 3.4 3.5 0 2.225-1.55 3.65-3.5 3.65-1.875 0-3.075-.875-4.025-1.825l-1 1.35c1.1 1.1 2.674 2.175 5.224 2.175 2.775 0 5.375-1.95 5.375-5.4s-2.224-5-4.949-5c-.975 0-1.701.25-2.451.65l.426-4.725h6.173v-1.775zm-283.009.525c1.275 0 2.15 1.275 2.15 3.875s-.875 3.924-2.15 3.924c-1.3 0-2.176-1.324-2.176-3.924 0-2.6.876-3.875 2.176-3.875zm74.39 0c1.276 0 2.151 1.275 2.151 3.875s-.875 3.924-2.15 3.924c-1.3 0-2.176-1.324-2.176-3.924 0-2.6.876-3.875 2.176-3.875zm74.391 0c1.275 0 2.15 1.275 2.15 3.875s-.875 3.924-2.15 3.924c-1.3 0-2.176-1.324-2.176-3.924 0-2.6.876-3.875 2.176-3.875zm75.32 0c1.276 0 2.151 1.275 2.151 3.875s-.875 3.924-2.15 3.924c-1.3 0-2.176-1.324-2.176-3.924 0-2.6.876-3.875 2.176-3.875zm73.462 0c1.275 0 2.15 1.275 2.15 3.875s-.875 3.924-2.15 3.924c-1.3 0-2.176-1.324-2.176-3.924 0-2.6.876-3.875 2.176-3.875zm-308.29.7c1.75 0 2.774 1.25 2.774 2.826 0 1.175-.599 2.249-1.674 3.199-1.925-.75-3.676-1.55-3.676-3.45 0-1.55 1.101-2.575 2.576-2.575zm136.38 0c1.75 0 2.773 1.25 2.773 2.826 0 1.175-.599 2.249-1.674 3.199-1.925-.75-3.676-1.55-3.676-3.45 0-1.55 1.101-2.575 2.576-2.575zm74.744.1c2.025 0 3.25 1.65 3.525 4.75-1.025 1.5-2.3 2.124-3.35 2.124-1.975 0-2.95-1.3-2.95-3.375 0-2.1 1.225-3.5 2.775-3.5zm73.46 0c2.025 0 3.25 1.65 3.526 4.75-1.025 1.5-2.3 2.124-3.35 2.124-1.975 0-2.95-1.3-2.95-3.375 0-2.1 1.224-3.5 2.774-3.5zm-134.453.874h.1c-.05.85-.125 2.226-.125 3.076v4.625h-5l3.725-5.45c.45-.776.9-1.476 1.3-2.25zm-127.978 3.701c-2.25 0-3.727 1.876-3.727 5.15 0 3.326 1.477 5.2 3.727 5.2 2.225 0 3.724-1.874 3.724-5.2 0-3.274-1.5-5.15-3.724-5.15zm74.39 0c-2.25 0-3.726 1.876-3.726 5.15 0 3.326 1.476 5.2 3.726 5.2 2.225 0 3.725-1.874 3.725-5.2 0-3.274-1.5-5.15-3.725-5.15zm74.391 0c-2.25 0-3.727 1.876-3.727 5.15 0 3.326 1.477 5.2 3.727 5.2 2.225 0 3.725-1.874 3.725-5.2 0-3.274-1.5-5.15-3.725-5.15zm75.32 0c-2.25 0-3.726 1.876-3.726 5.15 0 3.326 1.477 5.2 3.727 5.2 2.225 0 3.724-1.874 3.724-5.2 0-3.274-1.5-5.15-3.724-5.15zm73.461 0c-2.25 0-3.726 1.876-3.726 5.15 0 3.326 1.476 5.2 3.726 5.2 2.225 0 3.725-1.874 3.725-5.2 0-3.274-1.5-5.15-3.725-5.15zM432.008 35.8c1.275 0 2.148 1.275 2.148 3.875s-.873 3.924-2.148 3.924c-1.3 0-2.176-1.324-2.176-3.924 0-2.6.876-3.875 2.176-3.875zm74.39 0c1.275 0 2.149 1.275 2.149 3.875s-.874 3.924-2.149 3.924c-1.3 0-2.175-1.324-2.175-3.924 0-2.6.875-3.875 2.175-3.875zm74.391 0c1.275 0 2.148 1.275 2.148 3.875s-.873 3.924-2.148 3.924c-1.3 0-2.176-1.324-2.176-3.924 0-2.6.876-3.875 2.176-3.875zm75.32 0c1.276 0 2.149 1.275 2.149 3.875s-.873 3.924-2.148 3.924c-1.3 0-2.176-1.324-2.176-3.924 0-2.6.876-3.875 2.176-3.875zm73.461 0c1.275 0 2.149 1.275 2.149 3.875s-.874 3.924-2.149 3.924c-1.3 0-2.175-1.324-2.175-3.924 0-2.6.875-3.875 2.175-3.875zm-320.89 1.023c2.3.925 4.324 1.677 4.324 3.727 0 1.65-1.275 2.799-3.125 2.799-1.95 0-3.424-1.274-3.424-3.05 0-1.45.95-2.626 2.225-3.476zm136.379 0c2.3.925 4.324 1.677 4.324 3.727 0 1.65-1.275 2.799-3.125 2.799-1.95 0-3.424-1.274-3.424-3.05 0-1.45.95-2.626 2.225-3.476z"/>
</svg>
