<svg xmlns="http://www.w3.org/2000/svg" viewBox="0 0 750 75">
  <path fill="#f2f2f2" d="M0 0h75v75H0z"/>
  <path fill="#d9d9d9" d="M75 0h75v75H75z"/>
  <path fill="#bfbfbf" d="M150 0h75v75h-75z"/>
  <path fill="#a6a6a6" d="M225 0h75v75h-75z"/>
  <path fill="#8c8c8c" d="M300 0h75v75h-75z"/>
  <path fill="#737373" d="M375 0h75v75h-75z"/>
  <path fill="#595959" d="M450 0h75v75h-75z"/>
  <path fill="#404040" d="M525 0h75v75h-75z"/>
  <path fill="#262626" d="M600 0h75v75h-75z"/>
  <path fill="#0d0d0d" d="M675 0h75v75h-75z"/>
  <path fill="#000" d="M23.8652 10.7266c-2.72 0-4.3554 2.4427-4.3554 6.9902 0 4.5475 1.6354 7.0762 4.3554 7.0762 2.6988 0 4.336-2.5287 4.336-7.0762 0-4.5475-1.6372-6.9902-4.336-6.9902zm15.8145 0c-2.72 0-4.3574 2.4427-4.3574 6.9902 0 4.5475 1.6374 7.0762 4.3574 7.0762 2.6987 0 4.334-2.5287 4.334-7.0762 0-4.5475-1.6353-6.9902-4.334-6.9902zm59.2969 0c-2.72 0-4.3555 2.4427-4.3555 6.9902 0 4.5475 1.6355 7.0762 4.3555 7.0762 2.6987 0 4.3359-2.5287 4.3359-7.0762 0-4.5475-1.6371-6.9902-4.336-6.9902zm26.4414 0c-2.1888 0-3.8477 1.4018-3.8477 3.4843 0 1.4238.8938 2.4219 1.8926 3.123v.086c-1.275.68-2.5508 1.8906-2.5508 3.6543 0 2.1463 1.8914 3.7188 4.4414 3.7188 2.635 0 4.377-1.5926 4.377-3.6114 0-1.8275-1.1462-2.785-2.3575-3.4863v-.084c.8289-.6375 1.8692-1.8497 1.8692-3.2734 0-2.1038-1.4655-3.6113-3.8242-3.6113zm48.6699 0c-2.72 0-4.3555 2.4427-4.3555 6.9902 0 4.5475 1.6355 7.0762 4.3555 7.0762 2.6987 0 4.336-2.5287 4.336-7.0762 0-4.5475-1.6373-6.9902-4.336-6.9902zm15.4727 0c-1.5938 0-2.8475.7217-3.8887 1.6992l.9355 1.1054c.8075-.8074 1.7644-1.3808 2.8906-1.3808 1.445 0 2.338.829 2.338 2.1465 0 1.4237-.9577 2.5273-3.8477 2.5273v1.3399c3.23 0 4.336 1.0822 4.336 2.6972 0 1.5088-1.1685 2.4864-2.8048 2.4864-1.5937 0-2.6573-.7633-3.4648-1.6133l-.8926 1.1465c.9138.9987 2.2954 1.912 4.4629 1.912 2.4862 0 4.4629-1.466 4.4629-3.8671 0-1.87-1.2974-3.059-2.9336-3.4414v-.086c1.4662-.5525 2.4648-1.5942 2.4648-3.2304 0-2.1888-1.6997-3.4414-4.0585-3.4414zm10.543 0c-1.5938 0-2.8475.7217-3.8888 1.6992l.9356 1.1054c.8075-.8074 1.7624-1.3808 2.8887-1.3808 1.445 0 2.3379.829 2.3379 2.1465 0 1.4237-.9558 2.5273-3.8458 2.5273v1.3399c3.23 0 4.334 1.0822 4.334 2.6972 0 1.5088-1.1683 2.4864-2.8046 2.4864-1.5938 0-2.6554-.7633-3.463-1.6133l-.8925 1.1465c.9137.9987 2.2954 1.912 4.4629 1.912 2.4862 0 4.461-1.466 4.461-3.8671 0-1.87-1.2955-3.059-2.9317-3.4414v-.086c1.4662-.5525 2.4648-1.5942 2.4648-3.2304 0-2.1888-1.6998-3.4414-4.0586-3.4414zm49.0956 0c-2.72 0-4.3554 2.4427-4.3554 6.9902 0 4.5475 1.6354 7.0762 4.3554 7.0762 2.6988 0 4.336-2.5287 4.336-7.0762 0-4.5475-1.6372-6.9902-4.336-6.9902zm75.1113 0c-2.72 0-4.3554 2.4427-4.3554 6.9902 0 4.5475 1.6354 7.0762 4.3554 7.0762 2.6988 0 4.336-2.5287 4.336-7.0762 0-4.5475-1.6372-6.9902-4.336-6.9902zm15.8985 0c-2.1888 0-3.8477 1.4018-3.8477 3.4843 0 1.4238.894 2.4219 1.8926 3.123v.086c-1.275.68-2.5508 1.8906-2.5508 3.6543 0 2.1463 1.8914 3.7188 4.4414 3.7188 2.635 0 4.377-1.5926 4.377-3.6114 0-1.8275-1.1462-2.785-2.3574-3.4863v-.084c.8287-.6375 1.8691-1.8497 1.8691-3.2734 0-2.1038-1.4655-3.6113-3.8242-3.6113zm10.0312 0c-1.7637 0-2.9753.828-4.1015 2.0605l1 .998c.7862-.9136 1.7624-1.6347 2.8886-1.6347 1.7213 0 2.5723 1.105 2.5723 2.6562 0 2.1888-2.295 4.6327-6.375 8.6914v1.041h8.754v-1.5097h-3.9298c-.7012 0-1.5316.0633-2.2754.127 3.2088-3.3576 5.5254-5.8856 5.5254-8.4356 0-2.4012-1.551-3.9941-4.0586-3.9941zm-303.2285.2539l-.4453 6.5234.9356.5957c.8075-.5312 1.3794-.8281 2.3144-.8281 1.7425 0 2.8906 1.1046 2.8906 2.9746 0 1.8912-1.317 3.1016-2.9746 3.1016-1.5937 0-2.6144-.7433-3.4219-1.5508l-.8496 1.1484c.935.935 2.274 1.8477 4.4414 1.8477 2.3588 0 4.5684-1.6573 4.5684-4.5899 0-2.9325-1.8908-4.25-4.207-4.25-.8288 0-1.4447.2128-2.082.5528l.3613-4.0157h5.248v-1.5097h-6.7793zm67.6719 0c-.7438.4462-1.6367.7875-2.8692 1v1.125h2.4649v9.9883h-3.1016v1.4453h7.6504v-1.4454h-2.8047V10.9805h-1.3398zm147.1191 0l-.4453 6.5234.9356.5957c.8075-.5312 1.3814-.8281 2.3164-.8281 1.7425 0 2.8886 1.1046 2.8886 2.9746 0 1.8912-1.317 3.1016-2.9746 3.1016-1.5937 0-2.6143-.7433-3.4218-1.5508l-.8496 1.1484c.935.935 2.2739 1.8477 4.4414 1.8477 2.3587 0 4.5683-1.6573 4.5683-4.5899 0-2.9325-1.8908-4.25-4.207-4.25-.8288 0-1.4445.2128-2.082.5528l.3613-4.0157h5.248v-1.5097h-6.7793zm14.623 0l-5.8007 8.6699v1.1484h6.0977v3.7403h1.6582v-3.7403h1.8476v-1.4023h-1.8476v-8.416h-1.9551zm-151.0507 1.041c1.4875 0 2.3594 1.0636 2.3594 2.4023 0 .9988-.5101 1.9113-1.4238 2.7188-1.6363-.6375-3.125-1.3167-3.125-2.9317 0-1.3175.9357-2.1894 2.1894-2.1894zm214.791 0c1.4875 0 2.3594 1.0636 2.3594 2.4023 0 .9988-.51 1.9113-1.4238 2.7188-1.6363-.6375-3.125-1.3167-3.125-2.9317 0-1.3175.9357-2.1894 2.1894-2.1894zm-316.3008.1074c1.5725 0 2.6368 1.6141 2.6368 5.5879 0 3.9737-1.0643 5.6738-2.6368 5.6738-1.5937 0-2.6562-1.7-2.6562-5.6738 0-3.9738 1.0625-5.5879 2.6562-5.5879zm15.8145 0c1.5725 0 2.6348 1.6141 2.6348 5.5879 0 3.9737-1.0623 5.6738-2.6348 5.6738-1.5938 0-2.6563-1.7-2.6563-5.6738 0-3.9738 1.0625-5.5879 2.6563-5.5879zm59.2969 0c1.5725 0 2.6347 1.6141 2.6347 5.5879 0 3.9737-1.0622 5.6738-2.6347 5.6738-1.5938 0-2.6563-1.7-2.6563-5.6738 0-3.9738 1.0625-5.5879 2.6563-5.5879zm75.1113 0c1.5725 0 2.6348 1.6141 2.6348 5.5879 0 3.9737-1.0623 5.6738-2.6348 5.6738-1.5938 0-2.6563-1.7-2.6563-5.6738 0-3.9738 1.0625-5.5879 2.6563-5.5879zm75.1113 0c1.5725 0 2.6348 1.6141 2.6348 5.5879 0 3.9737-1.0623 5.6738-2.6348 5.6738-1.5937 0-2.6562-1.7-2.6562-5.6738 0-3.9738 1.0625-5.5879 2.6562-5.5879zm75.1113 0c1.5726 0 2.6348 1.6141 2.6348 5.5879 0 3.9737-1.0622 5.6738-2.6347 5.6738-1.5938 0-2.6563-1.7-2.6563-5.6738 0-3.9738 1.0626-5.5879 2.6563-5.5879zm-47.5664.7227h.086c-.0426.7225-.1074 1.8907-.1074 2.6132v3.9317h-4.25l3.166-4.6328c.3825-.6588.7654-1.2534 1.1054-1.9121zM124.375 17.9512c1.955.7862 3.6777 1.4235 3.6777 3.166 0 1.4025-1.0837 2.3808-2.6562 2.3808-1.6575 0-2.9121-1.085-2.9121-2.5937 0-1.2325.8069-2.2306 1.8906-2.9531zm214.793 0c1.955.7862 3.6757 1.4235 3.6757 3.166 0 1.4025-1.0837 2.3808-2.6562 2.3808-1.6575 0-2.9121-1.085-2.9121-2.5937 0-1.2325.8088-2.2306 1.8926-2.9531zm-307.3106 4.164c-.7012 0-1.2949.4674-1.2949 1.2325 0 .7862.574 1.2128 1.254 1.2128.0636 0 .147-.0004.2108-.0214.0213 1.1262-.7009 2.0605-1.912 2.5918l.4257 1.0195c1.7213-.7225 2.7832-2.1452 2.7832-3.9727 0-1.275-.553-2.0625-1.4668-2.0625zm75.1114 0c-.7013 0-1.295.4674-1.295 1.2325 0 .7862.572 1.2128 1.252 1.2128.0637 0 .149-.0004.2129-.0214.0212 1.1262-.701 2.0605-1.9121 2.5918l.4257 1.0195c1.7213-.7225 2.7833-2.1452 2.7833-3.9727 0-1.275-.553-2.0625-1.4668-2.0625zm75.1113 0c-.7013 0-1.2969.4674-1.2969 1.2325 0 .7862.574 1.2128 1.254 1.2128.0635 0 .149-.0004.2128-.0214.0213 1.1262-.701 2.0605-1.9121 2.5918l.4258 1.0195c1.7212-.7225 2.7832-2.1452 2.7832-3.9727 0-1.275-.553-2.0625-1.4668-2.0625zm75.1113 0c-.7012 0-1.2969.4674-1.2969 1.2325 0 .7862.574 1.2128 1.254 1.2128.0635 0 .149-.0004.2128-.0214.0213 1.1262-.7009 2.0605-1.912 2.5918l.4238 1.0195c1.7211-.7225 2.7851-2.1452 2.7851-3.9727 0-1.275-.553-2.0625-1.4668-2.0625zm75.1113 0c-.7012 0-1.2968.4674-1.2968 1.2325 0 .7862.5739 1.2128 1.2539 1.2128.0638 0 .149-.0004.2129-.0214.0212 1.1262-.701 2.0605-1.9121 2.5918l.4238 1.0195c1.7212-.7225 2.7851-2.1452 2.7851-3.9727 0-1.275-.553-2.0625-1.4668-2.0625zm-10.9277 18.248c-2.275 0-3.7492.8505-5.3242 2.5255l2 1.9746c.8-.85 1.6742-1.625 2.8242-1.625 1.375 0 2.25.8504 2.25 2.4004 0 2.25-2.8504 4.9738-6.9004 8.7988v2.1016h11.1758v-3.1016h-3.2012c-.75 0-1.8484.1012-2.6484.2012 2.575-2.7 5.0742-5.5496 5.0742-8.2246 0-3.05-2.125-5.0508-5.25-5.0508zm-259.0566.125c-1.95 0-3.55.7755-5 2.0255l1.8496 2.25c1-.875 1.8496-1.4004 2.9746-1.4004 1.25 0 1.9511.65 1.9511 1.75 0 1.275-.9 2.125-3.75 2.125v2.5996c3.45 0 4.2754.8754 4.2754 2.2754 0 1.2-1.0261 1.875-2.5761 1.875-1.35 0-2.5246-.6746-3.4746-1.5996l-1.6993 2.3242c1.15 1.35 2.9485 2.25 5.5235 2.25 3.2 0 5.9004-1.675 5.9004-4.625 0-2.05-1.3254-3.35-3.1504-3.875v-.0996c1.7-.725 2.6504-1.8754 2.6504-3.5254 0-2.775-2.1996-4.3496-5.4746-4.3496zm20.703 0c-1.95 0-3.55.7755-5 2.0255l1.8497 2.25c1-.875 1.8496-1.4004 2.9746-1.4004 1.25 0 1.9512.65 1.9512 1.75 0 1.275-.9 2.125-3.75 2.125v2.5996c3.45 0 4.2754.8754 4.2754 2.2754 0 1.2-1.0262 1.875-2.5762 1.875-1.35 0-2.5246-.6746-3.4746-1.5996l-1.6992 2.3242c1.15 1.35 2.9484 2.25 5.5234 2.25 3.2 0 5.9004-1.675 5.9004-4.625 0-2.05-1.3254-3.35-3.1504-3.875v-.0996c1.7-.725 2.6504-1.8754 2.6504-3.5254 0-2.775-2.1996-4.3496-5.4746-4.3496zm75.2384 0c-2.95 0-5.0743 1.675-5.0743 4.375 0 1.675.9 2.825 2.125 3.75v.0997c-1.5.8-2.7011 1.9754-2.7011 3.9004 0 2.575 2.3504 4.3496 5.5254 4.3496 3.375 0 5.625-1.8984 5.625-4.3984 0-2.1-1.225-3.3254-2.75-4.1504v-.0996c1.1-.725 2.0742-1.9516 2.0742-3.4766 0-2.625-1.9242-4.3496-4.8242-4.3496zm12.6093 0c-2.875 0-5.2754 2.0263-5.2754 5.3263 0 3.35 2.0247 4.8984 4.7247 4.8984.975 0 2.3507-.6238 3.1757-1.6738-.125 3.7-1.5003 4.9492-3.2754 4.9492-.925 0-1.9261-.525-2.4511-1.125l-1.9492 2.2012c1 1 2.5504 1.8984 4.6504 1.8984 3.325 0 6.4238-2.6746 6.4238-8.5996 0-5.575-2.9485-7.875-6.0235-7.875zm63.6016 0c-3.35 0-6.4238 2.6747-6.4238 8.5997 0 5.575 2.925 7.875 6 7.875 2.875 0 5.2754-2.0242 5.2754-5.3242 0-3.35-2.0016-4.9004-4.7266-4.9004-.975 0-2.3488.6258-3.1738 1.6758.125-3.7 1.5254-4.9512 3.2754-4.9512.925 0 1.9246.525 2.4746 1.125l1.9238-2.1992c-1-1.025-2.525-1.9004-4.625-1.9004zm53.1172.1759c-1.125.675-2.2242 1.1242-3.9492 1.4492v2.2754h2.9746v9.1738h-3.4492v2.9766h10.0996v-2.9766h-2.9746V40.6641h-2.7012zm16.8027 0l-.4492 8.0234 1.6504 1.0508c.95-.6 1.4246-.8008 2.3496-.8008 1.475 0 2.5.8512 2.5 2.4512 0 1.625-1.0508 2.4746-2.6758 2.4746-1.35 0-2.4738-.6992-3.4238-1.5742l-1.6504 2.3242c1.25 1.25 2.9996 2.2246 5.5996 2.2246 3.1 0 5.8262-2.0238 5.8262-5.5488 0-3.375-2.3258-4.9258-5.0508-4.9258-.65 0-1.1754.1-1.7754.375l.2754-2.9746h5.8242V40.664h-9zm-211.9101.125l-.4512 8.0254 1.6504 1.0488c.95-.6 1.4246-.7988 2.3496-.7988 1.475 0 2.5.8492 2.5 2.4492 0 1.625-1.0488 2.4746-2.6738 2.4746-1.35 0-2.4758-.6992-3.4258-1.5742l-1.6504 2.3242c1.25 1.25 3.0016 2.2246 5.6016 2.2246 3.1 0 5.8242-2.0238 5.8242-5.5488 0-3.375-2.3258-4.9258-5.0508-4.9258-.65 0-1.1734.1-1.7734.375l.2734-2.9746h5.8262V40.789h-9zm44.5507 0c-1.125.675-2.2242 1.1242-3.9492 1.4492v2.2754h2.9746v9.1758h-3.4492v2.9746h10.0996v-2.9746h-2.9746V40.789h-2.7012zm75.463 0c-1.125.675-2.2262 1.1242-3.9512 1.4492v2.2754h2.9746v9.1758h-3.4492v2.9746h10.0996v-2.9746h-2.9746V40.789h-2.6993zm33.8867 0c-1.125.675-2.2262 1.1242-3.9512 1.4492v2.2754h2.9746v9.1758h-3.4492v2.9746h10.0996v-2.9746H249.08V40.789h-2.6992zm24.873 2.0742l-1.8242 1.8496 3.5508 3.5996-3.5508 3.5762 1.8242 1.8496 3.5762-3.5996 3.5742 3.5996 1.8262-1.8496-3.5508-3.5762 3.5508-3.5996-1.8262-1.8496-3.5742 3.5996-3.5762-3.5996zm-225.0937.125l-1.8262 1.8496 3.5508 3.6016-3.5508 3.5742 1.8262 1.8496 3.5742-3.5996 3.5761 3.5996 1.8243-1.8496-3.5508-3.5742 3.5508-3.6016-1.8243-1.8496-3.5761 3.5996-3.5742-3.5996zm74.537 0l-1.8241 1.8496 3.5507 3.6016-3.5507 3.5742 1.8242 1.8496 3.5761-3.5996 3.5743 3.5996 1.8261-1.8496-3.5507-3.5742 3.5507-3.6016-1.8261-1.8496-3.5743 3.5996-3.5761-3.5996zm75.463 0l-1.8262 1.8496 3.5508 3.6016-3.5508 3.5742 1.8262 1.8496 3.5742-3.5996 3.5762 3.5996 1.8242-1.8496-3.5508-3.5742 3.5508-3.6016-1.8243-1.8496-3.5761 3.5996-3.5742-3.5996zm-37.9746.0508c1.2 0 1.9238.8238 1.9238 2.0488 0 .825-.3496 1.6012-.9746 2.3262-1.625-.625-2.7246-1.2508-2.7246-2.5508 0-1.225.8004-1.8242 1.7754-1.8242zm12.7578.1992c1.125 0 2.1496.8008 2.4746 3.3008-.625 1.125-1.55 1.5742-2.375 1.5742-1.2 0-2.0996-.6238-2.0996-2.2988 0-1.8.925-2.5762 2-2.5762zm62.953 6.0996c1.2 0 2.0743.6258 2.0743 2.3008 0 1.8-.9 2.5742-2 2.5742s-2.1496-.7988-2.4746-3.2988c.65-1.125 1.5754-1.5762 2.4004-1.5762zm-76.912.3262c2 .85 3.3496 1.3754 3.3496 2.7754 0 1.325-.9 1.9746-2.125 1.9746-1.325 0-2.4492-.8246-2.4492-2.2246 0-.975.5246-1.8754 1.2246-2.5254zm141.4629 2.5488c-1.275 0-2.3008.8246-2.3008 2.0996 0 1.325 1.0496 2.0762 2.2246 2.0762h.2012c.025 1.25-.9762 2.3988-2.8262 3.0488l.75 1.9512c2.925-.875 4.5-2.9512 4.5-5.7012 0-2.175-.8988-3.4746-2.5488-3.4746zm-225.0957.125c-1.275 0-2.2989.8266-2.2989 2.1016 0 1.325 1.0496 2.0742 2.2246 2.0742h.1993c.025 1.25-.9743 2.4008-2.8243 3.0508l.75 1.9492c2.925-.875 4.5-2.9492 4.5-5.6992 0-2.175-.9007-3.4766-2.5507-3.4766zm74.539 0c-1.275 0-2.3008.8266-2.3008 2.1016 0 1.325 1.0497 2.0742 2.2246 2.0742h.2012c.025 1.25-.9762 2.4008-2.8262 3.0508l.75 1.9492c2.925-.875 4.5-2.9492 4.5-5.6992 0-2.175-.8988-3.4766-2.5488-3.4766zm75.461 0c-1.275 0-2.2989.8266-2.2989 2.1016 0 1.325 1.0496 2.0742 2.2246 2.0742h.1993c.025 1.25-.9743 2.4008-2.8243 3.0508l.75 1.9492c2.925-.875 4.5-2.9492 4.5-5.6992 0-2.175-.9007-3.4766-2.5507-3.4766z"/>
  <path fill="#fff" d="M414.8105 10.7266c-1.7637 0-2.9753.828-4.1015 2.0605l.998.998c.7863-.9137 1.7644-1.6347 2.8907-1.6347 1.7212 0 2.5703 1.105 2.5703 2.6562 0 2.1888-2.295 4.6327-6.375 8.6914v1.041h8.7558v-1.5097h-3.9316c-.7013 0-1.5297.0634-2.2735.127 3.2088-3.3575 5.5254-5.8856 5.5254-8.4356 0-2.4012-1.551-3.9941-4.0586-3.9941zm10.541 0c-1.7637 0-2.9753.828-4.1015 2.0605l1 .998c.7862-.9137 1.7624-1.6347 2.8887-1.6347 1.7212 0 2.5722 1.105 2.5722 2.6562 0 2.1888-2.295 4.6327-6.375 8.6914v1.041h8.754v-1.5097h-3.9317c-.7013 0-1.5297.0634-2.2734.127 3.2087-3.3575 5.5254-5.8856 5.5254-8.4356 0-2.4012-1.5511-3.9941-4.0586-3.9941zm65.0801 0c-2.1887 0-3.8476 1.4018-3.8476 3.4843 0 1.4238.8938 2.4218 1.8926 3.123v.086c-1.275.68-2.5508 1.8906-2.5508 3.6543 0 2.1463 1.8914 3.7188 4.4414 3.7188 2.635 0 4.377-1.5926 4.377-3.6114 0-1.8275-1.1482-2.785-2.3594-3.4863v-.084c.8287-.6375 1.871-1.8497 1.871-3.2734 0-2.1038-1.4654-3.6113-3.8242-3.6113zm11.3477 0c-2.6987 0-5.1621 2.103-5.1621 7.543 0 4.3562 2.0176 6.5234 4.6738 6.5234 2.1888 0 4.0176-1.763 4.0176-4.3555 0-2.7837-1.5317-4.1875-3.8692-4.1875-1.105 0-2.316.66-3.166 1.7012.085-4.2925 1.6791-5.7598 3.5703-5.7598.85 0 1.68.4038 2.2325 1.0625l.9765-1.082c-.765-.8288-1.8072-1.4453-3.2734-1.4453zm47.5254 0c-1.5938 0-2.8474.7217-3.8887 1.6992l.9336 1.1054c.8075-.8075 1.7644-1.3808 2.8906-1.3808 1.445 0 2.338.829 2.338 2.1465 0 1.4237-.9577 2.5273-3.8477 2.5273v1.3399c3.23 0 4.336 1.0822 4.336 2.6972 0 1.5088-1.1685 2.4864-2.8048 2.4864-1.5937 0-2.6573-.7633-3.4648-1.6133l-.8926 1.1465c.9137.9987 2.2954 1.912 4.4629 1.912 2.4862 0 4.4629-1.4659 4.4629-3.8671 0-1.87-1.2954-3.059-2.9317-3.4414v-.086c1.4663-.5525 2.4649-1.5942 2.4649-3.2304 0-2.1888-1.6999-3.4414-4.0586-3.4414zm16.1523 0c-2.72 0-4.3554 2.4427-4.3554 6.9902 0 4.5475 1.6354 7.0762 4.3554 7.0762 2.6988 0 4.334-2.5287 4.334-7.0762 0-4.5475-1.6352-6.9902-4.334-6.9902zm10.541 0c-2.72 0-4.3554 2.4427-4.3554 6.9902 0 4.5475 1.6354 7.0762 4.3554 7.0762 2.6988 0 4.336-2.5287 4.336-7.0762 0-4.5475-1.6372-6.9902-4.336-6.9902zm65.463 0c-2.6988 0-5.1641 2.103-5.1641 7.543 0 4.3562 2.0195 6.5234 4.6758 6.5234 2.1887 0 4.0156-1.763 4.0156-4.3555 0-2.7837-1.5297-4.1875-3.8672-4.1875-1.105 0-2.316.66-3.166 1.7012.085-4.2925 1.677-5.7598 3.5683-5.7598.85 0 1.68.4038 2.2325 1.0625l.9765-1.082c-.765-.8288-1.8052-1.4453-3.2715-1.4453zm68.5 0c-2.1676 0-3.9942 1.763-3.9942 4.3554 0 2.7838 1.5082 4.1856 3.8457 4.1856 1.1262 0 2.3375-.6585 3.1875-1.7422-.0638 4.335-1.6773 5.8223-3.5898 5.8223-.85 0-1.68-.4233-2.2325-1.082l-.9765 1.1034c.7437.8075 1.8265 1.4239 3.2715 1.4239 2.6987 0 5.164-2.103 5.164-7.543 0-4.3563-1.9983-6.5234-4.6758-6.5234zm16.2597 0c-2.72 0-4.3555 2.4427-4.3555 6.9902 0 4.5475 1.6355 7.0762 4.3555 7.0762 2.6987 0 4.336-2.5287 4.336-7.0762 0-4.5475-1.6372-6.9902-4.336-6.9902zm-326.9063.2539c-.7437.4462-1.6346.7875-2.8671 1v1.125h2.4648v9.9883h-3.1035v1.4453h7.6504v-1.4453h-2.8047V10.9804zm75.1114 0c-.7438.4462-1.6347.7875-2.8672 1v1.125h2.4648v9.9883H470.92v1.4453h7.6504v-1.4453h-2.8047V10.9804zm147.121 0l-.4472 6.5234.9356.5957c.8075-.5312 1.3814-.8281 2.3164-.8281 1.7425 0 2.8906 1.1046 2.8906 2.9746 0 1.8912-1.319 3.1016-2.9766 3.1016-1.5937 0-2.6124-.7433-3.4199-1.5508l-.8516 1.1484c.935.935 2.274 1.8477 4.4415 1.8477 2.3587 0 4.5703-1.6573 4.5703-4.5899 0-2.9325-1.8928-4.25-4.209-4.25-.8288 0-1.4446.2128-2.082.5528l.3613-4.0157h5.248v-1.5097zm25.2071 0v1.5097h6.7578c-2.6775 3.7188-3.6979 6.9488-3.9316 12.0489h1.8066c.2338-5.2913.8928-8.3734 4.1016-12.4746v-1.084zm53.0059 0c-.7438.4462-1.6367.7875-2.8692 1v1.125h2.4649v9.9883h-3.1016v1.4453h7.6504v-1.4453h-2.8066V10.9804zm-209.3711 1.041c1.4875 0 2.3574 1.0636 2.3574 2.4023 0 .9988-.51 1.9113-1.4238 2.7188-1.6363-.6375-3.123-1.3167-3.123-2.9317 0-1.3175.9356-2.1894 2.1894-2.1894zm219.5722.086c1.7213 0 2.7643 1.402 2.998 4.037-.8712 1.275-1.955 1.8067-2.8476 1.8067-1.6787 0-2.5078-1.1054-2.5078-2.8692 0-1.785 1.04-2.9746 2.3574-2.9746zm-144.5039.0214c1.5725 0 2.6348 1.6141 2.6348 5.5879 0 3.9737-1.0623 5.6738-2.6348 5.6738-1.5937 0-2.6562-1.7-2.6562-5.6738 0-3.9738 1.0625-5.5879 2.6562-5.5879zm10.541 0c1.5725 0 2.6368 1.6141 2.6368 5.5879 0 3.9737-1.0643 5.6738-2.6368 5.6738-1.5937 0-2.6562-1.7-2.6562-5.6738 0-3.9738 1.0625-5.5879 2.6562-5.5879zm150.2227 0c1.5725 0 2.6348 1.6141 2.6348 5.5879 0 3.9737-1.0623 5.6738-2.6348 5.6738-1.5938 0-2.6563-1.7-2.6563-5.6738 0-3.9738 1.0625-5.5879 2.6563-5.5879zm-225.0781 5.4395c1.6787 0 2.5078 1.1053 2.5078 2.8691 0 1.785-1.0206 2.9746-2.3594 2.9746-1.7212 0-2.762-1.4236-2.9746-4.0586.85-1.2537 1.955-1.7851 2.8262-1.7851zm139.6797 0c1.6787 0 2.5078 1.1053 2.5078 2.8691 0 1.785-1.0187 2.9746-2.3574 2.9746-1.7213 0-2.7641-1.4236-2.9766-4.0586.85-1.2537 1.955-1.7851 2.8262-1.7851zm-151.4336.3828c1.955.7862 3.6777 1.4235 3.6777 3.166 0 1.4025-1.0837 2.3808-2.6562 2.3808-1.6575 0-2.9122-1.085-2.9122-2.5937 0-1.2325.807-2.2306 1.8907-2.9531zm-81.9746 4.164c-.7013 0-1.297.4674-1.297 1.2325 0 .7862.574 1.2128 1.254 1.2128.0638 0 .1491-.0004.2129-.0214.0212 1.1262-.7009 2.0605-1.9121 2.5918l.4238 1.0195c1.7212-.7225 2.7832-2.1452 2.7832-3.9727 0-1.275-.551-2.0625-1.4648-2.0625zm75.1113 0c-.7013 0-1.2969.4674-1.2969 1.2325 0 .7862.574 1.2128 1.254 1.2128.0636 0 .149-.0004.2128-.0214.0213 1.1262-.7009 2.0605-1.9121 2.5918l.4238 1.0195c1.7213-.7225 2.7832-2.1452 2.7832-3.9727 0-1.275-.551-2.0625-1.4648-2.0625zm75.1113 0c-.7012 0-1.2969.4674-1.2969 1.2325 0 .7862.574 1.2128 1.254 1.2128.0637 0 .149-.0004.2128-.0214.0213 1.1262-.7028 2.0605-1.914 2.5918l.4258 1.0195c1.7212-.7225 2.7832-2.1452 2.7832-3.9727 0-1.275-.5511-2.0625-1.4649-2.0625zm75.1094 0c-.7013 0-1.295.4674-1.295 1.2325 0 .7862.574 1.2128 1.254 1.2128.0638 0 .1472-.0004.211-.0214.0211 1.1262-.701 2.0605-1.9122 2.5918l.4258 1.0195c1.7212-.7225 2.7832-2.1452 2.7832-3.9727 0-1.275-.553-2.0625-1.4668-2.0625zm85.6543 0c-.7013 0-1.2969.4674-1.2969 1.2325 0 .7862.574 1.2128 1.254 1.2128.0636 0 .149-.0004.2128-.0214.0213 1.1262-.7009 2.0605-1.9121 2.5918l.4238 1.0195c1.7213-.7225 2.7852-2.1452 2.7852-3.9727 0-1.275-.553-2.0625-1.4668-2.0625zm-321.289 18.248c-2.95 0-5.0762 1.675-5.0762 4.375 0 1.675.9 2.825 2.125 3.75v.0997c-1.5.8-2.6993 1.9754-2.6993 3.9004 0 2.575 2.3504 4.3496 5.5254 4.3496 3.375 0 5.625-1.9004 5.625-4.4004 0-2.1-1.225-3.3234-2.75-4.1484v-.1016c1.1-.725 2.0742-1.9496 2.0742-3.4746 0-2.625-1.9242-4.3496-4.8242-4.3496zm74.4863 0c-2.275 0-3.7512.8505-5.3262 2.5255l2 1.9746c.8-.85 1.6762-1.625 2.8262-1.625 1.375 0 2.25.8504 2.25 2.4004 0 2.25-2.8504 4.9738-6.9004 8.7988v2.1016h11.1758v-3.1016h-3.2012c-.75 0-1.8504.1012-2.6504.2012 2.575-2.7 5.0762-5.5496 5.0762-8.2246 0-3.05-2.125-5.0508-5.25-5.0508zm63.3027 0c-3.35 0-6.4258 2.6747-6.4258 8.5997 0 5.575 2.925 7.875 6 7.875 2.875 0 5.2754-2.0242 5.2754-5.3242 0-3.35-1.9996-4.9004-4.7246-4.9004-.975 0-2.3508.6258-3.1758 1.6758.125-3.7 1.5254-4.9512 3.2754-4.9512.925 0 1.9246.525 2.4746 1.125l1.9258-2.1992c-1-1.025-2.525-1.9004-4.625-1.9004zm74.3613 0c-2.95 0-5.0762 1.675-5.0762 4.375 0 1.675.9 2.825 2.125 3.75v.0997c-1.5.8-2.6992 1.9754-2.6992 3.9004 0 2.575 2.3504 4.3496 5.5254 4.3496 3.375 0 5.625-1.9004 5.625-4.4004 0-2.1-1.225-3.3234-2.75-4.1484v-.1016c1.1-.725 2.0742-1.9496 2.0742-3.4746 0-2.625-1.9242-4.3496-4.8242-4.3496zm12.6074 0c-2.875 0-5.2753 2.0243-5.2753 5.3243 0 3.35 2.0265 4.9004 4.7265 4.9004.975 0 2.3488-.6238 3.1738-1.6738-.125 3.7-1.5004 4.9492-3.2754 4.9492-.925 0-1.9242-.525-2.4492-1.125l-1.9492 2.1992c1 1 2.5484 1.9004 4.6484 1.9004 3.325 0 6.4258-2.6746 6.4258-8.5996 0-5.575-2.9504-7.875-6.0254-7.875zm41.0997 0c-1.95 0-3.55.7755-5 2.0255l1.8496 2.25c1-.875 1.8496-1.4004 2.9746-1.4004 1.25 0 1.9511.65 1.9511 1.75 0 1.275-.9 2.125-3.75 2.125v2.5996c3.45 0 4.2754.8754 4.2754 2.2754 0 1.2-1.0261 1.875-2.5761 1.875-1.35 0-2.5247-.6746-3.4747-1.5996l-1.6992 2.3242c1.15 1.35 2.9485 2.25 5.5235 2.25 3.2 0 5.9004-1.675 5.9004-4.625 0-2.05-1.3254-3.35-3.1504-3.875v-.0996c1.7-.725 2.6504-1.8754 2.6504-3.5254 0-2.775-2.1996-4.3496-5.4746-4.3496zm20.703 0c-1.95 0-3.55.7755-5 2.0255l1.8497 2.25c1-.875 1.8496-1.4004 2.9746-1.4004 1.25 0 1.9512.65 1.9512 1.75 0 1.275-.9 2.125-3.75 2.125v2.5996c3.45 0 4.2754.8754 4.2754 2.2754 0 1.2-1.0262 1.875-2.5762 1.875-1.35 0-2.5246-.6746-3.4746-1.5996l-1.6992 2.3242c1.15 1.35 2.9484 2.25 5.5234 2.25 3.2 0 5.9004-1.675 5.9004-4.625 0-2.05-1.3254-3.35-3.1504-3.875v-.0996c1.7-.725 2.6504-1.8754 2.6504-3.5254 0-2.775-2.1996-4.3496-5.4746-4.3496zm-320.9726.3009c-1.125.675-2.2242 1.1242-3.9492 1.4492v2.2754h2.9746v9.1738h-3.4512v2.9766h10.1016v-2.9766h-2.9766V40.6641zm20.8027 0l-5.7988 9.5488v2.5254h6.875v3.8008h3.4238v-3.8008h1.8262v-2.8008h-1.8262v-9.2734zm54.3086 0c-1.125.675-2.2242 1.1242-3.9492 1.4492v2.2754h2.9746v9.1738h-3.4511v2.9766h10.1015v-2.9766h-2.9765V40.6641zm16.8028 0l-.4492 8.0234 1.6503 1.0508c.95-.6 1.4247-.8008 2.3497-.8008 1.475 0 2.5.8512 2.5 2.4512 0 1.625-1.0508 2.4746-2.6758 2.4746-1.35 0-2.4739-.6992-3.4239-1.5742l-1.6503 2.3242c1.25 1.25 2.9996 2.2246 5.5996 2.2246 3.1 0 5.8242-2.0238 5.8242-5.5488 0-3.375-2.3238-4.9258-5.0488-4.9258-.65 0-1.1754.1-1.7754.375l.2754-2.9746h5.8242V40.664zm58.3086 0c-1.125.675-2.2262 1.1242-3.9512 1.4492v2.2754h2.9766v9.1738h-3.4512v2.9766h10.0996v-2.9766h-2.9746V40.6641zm33.8867 0c-1.125.675-2.2262 1.1242-3.9512 1.4492v2.2754h2.9766v9.1738h-3.4512v2.9766h10.0996v-2.9766h-2.9746V40.6641zm41.2246 0c-1.125.675-2.2262 1.1242-3.9512 1.4492v2.2754h2.9766v9.1738h-3.4512v2.9766h10.0996v-2.9766h-2.9746V40.6641zm105.0977 0l-.4512 8.0234 1.6504 1.0508c.95-.6 1.4246-.8008 2.3496-.8008 1.475 0 2.5.8512 2.5 2.4512 0 1.625-1.0488 2.4746-2.6738 2.4746-1.35 0-2.4758-.6992-3.4258-1.5742l-1.6504 2.3242c1.25 1.25 3.0015 2.2246 5.6015 2.2246 3.1 0 5.8243-2.0238 5.8243-5.5488 0-3.375-2.3258-4.9258-5.0508-4.9258-.65 0-1.1735.1-1.7735.375l.2735-2.9746h5.8262V40.664zm-346.7657 2.1992l-1.8242 1.8496 3.5488 3.5996-3.5488 3.5762 1.8242 1.8496 3.5762-3.5996 3.5742 3.5996 1.8242-1.8496-3.5488-3.5762 3.5488-3.5996-1.8242-1.8496-3.5742 3.5996zm75.1114 0l-1.8243 1.8496 3.5489 3.5996-3.5489 3.5762 1.8243 1.8496 3.5761-3.5996 3.5742 3.5996 1.8243-1.8496-3.5489-3.5762 3.5489-3.5996-1.8242-1.8496-3.5743 3.5996zm75.1113 0l-1.8242 1.8496 3.5488 3.5996-3.5488 3.5762 1.8242 1.8496 3.5742-3.5996 3.5762 3.5996 1.8242-1.8496-3.5488-3.5762 3.5488-3.5996-1.8242-1.8496-3.5762 3.5996zm75.1113 0l-1.8242 1.8496 3.5488 3.5996-3.5488 3.5762 1.8242 1.8496 3.5742-3.5996 3.5762 3.5996 1.8242-1.8496-3.5488-3.5762 3.5488-3.5996-1.8242-1.8496-3.5762 3.5996zm75.1113 0l-1.8261 1.8496 3.5508 3.5996-3.5508 3.5762 1.8261 1.8496 3.5743-3.5996 3.5761 3.5996 1.8243-1.8496-3.5508-3.5762 3.5508-3.5996-1.8243-1.8496-3.5761 3.5996zm-249.7753.0508c1.2 0 1.9257.8238 1.9257 2.0488 0 .825-.3496 1.6012-.9746 2.3262-1.625-.625-2.7246-1.2508-2.7246-2.5508 0-1.225.7985-1.8242 1.7735-1.8242zm212.1503 0c1.2 0 1.9258.8238 1.9258 2.0488 0 .825-.3496 1.6012-.9746 2.3262-1.625-.625-2.7265-1.2508-2.7265-2.5508 0-1.225.8003-1.8242 1.7753-1.8242zm12.7598.1992c1.125 0 2.1496.8008 2.4746 3.3008-.625 1.125-1.55 1.5742-2.375 1.5742-1.2 0-2.0996-.6258-2.0996-2.3008 0-1.8.925-2.5742 2-2.5742zm-237.3184.6992h.0996c-.05 1-.1484 2.5258-.1484 3.5508v2.5742h-3.3516l2.1016-3.4492c.45-.9.8988-1.8008 1.2988-2.6758zm149.6973 5.4004c1.2 0 2.0762.6258 2.0762 2.3008 0 1.8-.9 2.5742-2 2.5742s-2.1516-.7988-2.4766-3.2988c.65-1.125 1.5754-1.5762 2.4004-1.5762zm-138.4883.3262c2 .85 3.3496 1.3734 3.3496 2.7734 0 1.325-.9 1.9766-2.125 1.9766-1.325 0-2.4492-.8266-2.4492-2.2266 0-.975.5246-1.8734 1.2246-2.5234zm212.1504 0c2 .85 3.3496 1.3734 3.3496 2.7734 0 1.325-.9 1.9766-2.125 1.9766-1.325 0-2.4492-.8266-2.4492-2.2266 0-.975.5246-1.8734 1.2246-2.5234zm-234.4277 2.6738c-1.275 0-2.3008.8246-2.3008 2.0996 0 1.325 1.0496 2.0762 2.2246 2.0762h.2012c.025 1.25-.9762 2.3988-2.8262 3.0488l.75 1.9512c2.925-.875 4.5-2.9512 4.5-5.7012 0-2.175-.8988-3.4746-2.5488-3.4746zm75.1113 0c-1.275 0-2.3008.8246-2.3008 2.0996 0 1.325 1.0497 2.0762 2.2247 2.0762h.2011c.025 1.25-.9761 2.3988-2.8261 3.0488l.75 1.9512c2.925-.875 4.5-2.9512 4.5-5.7012 0-2.175-.8989-3.4746-2.5489-3.4746zm75.1094 0c-1.275 0-2.2988.8246-2.2988 2.0996 0 1.325 1.0496 2.0762 2.2246 2.0762h.1992c.025 1.25-.9742 2.3988-2.8242 3.0488l.75 1.9512c2.925-.875 4.5-2.9512 4.5-5.7012 0-2.175-.9008-3.4746-2.5508-3.4746zm75.1113 0c-1.275 0-2.2988.8246-2.2988 2.0996 0 1.325 1.0496 2.0762 2.2246 2.0762h.1992c.025 1.25-.9742 2.3988-2.8242 3.0488l.75 1.9512c2.925-.875 4.5-2.9512 4.5-5.7012 0-2.175-.9008-3.4746-2.5508-3.4746zm75.1114 0c-1.275 0-2.2989.8246-2.2989 2.0996 0 1.325 1.0496 2.0762 2.2246 2.0762h.1993c.025 1.25-.9743 2.3988-2.8243 3.0488l.75 1.9512c2.925-.875 4.5-2.9512 4.5-5.7012 0-2.175-.9007-3.4746-2.5507-3.4746z"/>
</svg>
