<svg xmlns="http://www.w3.org/2000/svg" viewBox="0 0 750 75">
  <path fill="#f2f2f2" d="M0 0h75v75H0z"/>
  <path fill="#d9d9d9" d="M75 0h75v75H75z"/>
  <path fill="#bfbfbf" d="M150 0h75v75h-75z"/>
  <path fill="#a6a6a6" d="M225 0h75v75h-75z"/>
  <path fill="#8c8c8c" d="M300 0h75v75h-75z"/>
  <path fill="#737373" d="M375 0h75v75h-75z"/>
  <path fill="#595959" d="M450 0h75v75h-75z"/>
  <path fill="#404040" d="M525 0h75v75h-75z"/>
  <path fill="#262626" d="M600 0h75v75h-75z"/>
  <path fill="#0d0d0d" d="M675 0h75v75h-75z"/>
  <path fill="#000" d="M33.9238 9.4512L28.25 27.9375h1.2754l5.6738-18.4863h-1.2754zm80.3828 0l-5.6738 18.4863h1.2754l5.6719-18.4863h-1.2735zm75.1114 0l-5.6739 18.4863h1.2735l5.6738-18.4863h-1.2734zm75.1093 0l-5.6718 18.4863h1.2734l5.6738-18.4863h-1.2754zm75.1114 0l-5.6739 18.4863h1.2754l5.6739-18.4863h-1.2754zM40.3125 10.7266c-2.1675 0-3.996 1.763-3.996 4.3554 0 2.7838 1.51 4.1856 3.8476 4.1856 1.1262 0 2.3375-.6585 3.1875-1.7422-.0638 4.335-1.6793 5.8223-3.5918 5.8223-.85 0-1.68-.4233-2.2325-1.082l-.9765 1.1034c.7437.8075 1.8265 1.4239 3.2715 1.4239 2.6987 0 5.164-2.103 5.164-7.543 0-4.3562-1.9963-6.5234-4.6738-6.5234zm80.9121 0c-2.1887 0-3.8457 1.4018-3.8457 3.4843 0 1.4238.8919 2.4218 1.8906 3.123v.086c-1.275.68-2.5488 1.8906-2.5488 3.6543 0 2.1463 1.8914 3.7188 4.4414 3.7188 2.635 0 4.377-1.5926 4.377-3.6114 0-1.8275-1.1482-2.785-2.3594-3.4863v-.084c.8287-.6375 1.871-1.8497 1.871-3.2734 0-2.1038-1.4673-3.6113-3.826-3.6113zm46.0879 0c-1.7637 0-2.9734.828-4.0996 2.0605l.998.998c.7863-.9137 1.7644-1.6347 2.8907-1.6347 1.7212 0 2.5703 1.105 2.5703 2.6562 0 2.1888-2.295 4.6327-6.375 8.6914v1.041h8.7558v-1.5097h-3.9316c-.7013 0-1.5297.0634-2.2734.127 3.2087-3.3575 5.5234-5.8856 5.5234-8.4356 0-2.4012-1.5511-3.9941-4.0586-3.9941zm75.1973 0c-1.5938 0-2.8475.7217-3.8887 1.6992l.9336 1.1054c.8075-.8074 1.7644-1.3808 2.8906-1.3808 1.445 0 2.3379.829 2.3379 2.1465 0 1.4237-.9557 2.5273-3.8457 2.5273v1.3399c3.23 0 4.334 1.0822 4.334 2.6972 0 1.5088-1.1685 2.4864-2.8047 2.4864-1.5938 0-2.6554-.7633-3.4629-1.6133l-.8926 1.1465c.9138.9987 2.2935 1.912 4.461 1.912 2.4862 0 4.4629-1.4659 4.4629-3.8671 0-1.87-1.2954-3.059-2.9317-3.4414v-.086c1.4663-.5525 2.4649-1.5942 2.4649-3.2304 0-2.1888-1.6999-3.4414-4.0586-3.4414zm29.746 0c-2.6987 0-5.164 2.103-5.164 7.543 0 4.3562 2.0176 6.5234 4.6738 6.5234 2.1888 0 4.0176-1.763 4.0176-4.3555 0-2.7838-1.5316-4.1875-3.8691-4.1875-1.105 0-2.316.66-3.166 1.7012.085-4.2925 1.679-5.7598 3.5703-5.7598.85 0 1.6799.4038 2.2324 1.0625l.9765-1.082c-.765-.8288-1.8052-1.4453-3.2714-1.4453zm-252.6777.2539l-.4453 6.5234.9336.5957c.8075-.5312 1.3814-.8281 2.3164-.8281 1.7425 0 2.8906 1.1046 2.8906 2.9746 0 1.8912-1.317 3.1016-2.9746 3.1016-1.5937 0-2.6143-.7433-3.4218-1.5508l-.8497 1.1484c.935.935 2.274 1.8477 4.4414 1.8477 2.3588 0 4.5684-1.6573 4.5684-4.5899 0-2.9325-1.8908-4.25-4.207-4.25-.8288 0-1.4465.2128-2.084.5528l.3613-4.0157h5.25v-1.5097h-6.7793zm28.5137 0l-.4473 6.5234.9356.5957c.8075-.5312 1.3814-.8281 2.3164-.8281 1.7425 0 2.8906 1.1046 2.8906 2.9746 0 1.8912-1.319 3.1016-2.9766 3.1016-1.5937 0-2.6124-.7433-3.4199-1.5508l-.8496 1.1484c.935.935 2.272 1.8477 4.4395 1.8477 2.3587 0 4.5703-1.6573 4.5703-4.5899 0-2.9325-1.8928-4.25-4.209-4.25-.8288 0-1.4445.2128-2.082.5528l.3613-4.0157h5.25v-1.5097h-6.7793zm44.4297 0c-.7438.4462-1.6367.7875-2.8692 1v1.125h2.4649v9.9883h-3.1035v1.4453h7.6504v-1.4454h-2.8047V10.9805h-1.338zm7.4394 0l-.4472 6.5234.9355.5957c.8075-.5312 1.3814-.8281 2.3164-.8281 1.7425 0 2.8906 1.1046 2.8906 2.9746 0 1.8912-1.319 3.1016-2.9765 3.1016-1.5938 0-2.6124-.7433-3.42-1.5508l-.8515 1.1484c.935.935 2.274 1.8477 4.4414 1.8477 2.3588 0 4.5703-1.6573 4.5703-4.5899 0-2.9325-1.8927-4.25-4.209-4.25-.8287 0-1.4445.2128-2.082.5528l.3613-4.0157h5.248v-1.5097H99.961zm28.5118 0l-.4454 6.5234.9356.5957c.8075-.5312 1.3814-.8281 2.3164-.8281 1.7425 0 2.8887 1.1046 2.8887 2.9746 0 1.8912-1.3171 3.1016-2.9746 3.1016-1.5938 0-2.6144-.7433-3.422-1.5508l-.8495 1.1484c.935.935 2.2739 1.8477 4.4414 1.8477 2.3587 0 4.5683-1.6573 4.5683-4.5899 0-2.9325-1.8907-4.25-4.207-4.25-.8287 0-1.4445.2128-2.082.5528l.3613-4.0157h5.248v-1.5097h-6.7792zm46.5996 0l-.4473 6.5234.9356.5957c.8075-.5312 1.3813-.8281 2.3163-.8281 1.7425 0 2.8887 1.1046 2.8887 2.9746 0 1.8912-1.317 3.1016-2.9746 3.1016-1.5937 0-2.6124-.7433-3.42-1.5508l-.8515 1.1484c.935.935 2.274 1.8477 4.4414 1.8477 2.3588 0 4.5684-1.6573 4.5684-4.5899 0-2.9325-1.8908-4.25-4.207-4.25-.8288 0-1.4446.2128-2.082.5528l.3613-4.0157h5.248v-1.5097h-6.7773zm16.8222 0v1.5097h6.7578c-2.6775 3.7188-3.6978 6.9488-3.9316 12.0489h1.8066c.2338-5.2913.8929-8.3734 4.1016-12.4746v-1.084h-8.7344zm11.6895 0l-.4453 6.5234.9355.5957c.8075-.5312 1.3795-.8281 2.3145-.8281 1.7425 0 2.8906 1.1046 2.8906 2.9746 0 1.8912-1.3171 3.1016-2.9746 3.1016-1.5938 0-2.6144-.7433-3.4219-1.5508l-.8496 1.1484c.935.935 2.274 1.8477 4.4414 1.8477 2.3588 0 4.5684-1.6573 4.5684-4.5899 0-2.9325-1.8908-4.25-4.207-4.25-.8288 0-1.4446.2128-2.082.5528l.3612-4.0157h5.248v-1.5097h-6.7792zm46.5976 0l-.4453 6.5234.9356.5957c.8075-.5312 1.3814-.8281 2.3164-.8281 1.7425 0 2.8886 1.1046 2.8886 2.9746 0 1.8912-1.317 3.1016-2.9746 3.1016-1.5937 0-2.6143-.7433-3.4218-1.5508l-.8496 1.1484c.935.935 2.2739 1.8477 4.4414 1.8477 2.3587 0 4.5683-1.6573 4.5683-4.5899 0-2.9325-1.8908-4.25-4.207-4.25-.8288 0-1.4445.2128-2.082.5528l.3613-4.0157h5.248v-1.5097h-6.7793zm28.5137 0l-.4453 6.5234.9336.5957c.8075-.5312 1.3814-.8281 2.3164-.8281 1.7425 0 2.8906 1.1046 2.8906 2.9746 0 1.8912-1.317 3.1016-2.9746 3.1016-1.5937 0-2.6144-.7433-3.4219-1.5508l-.8496 1.1484c.935.935 2.274 1.8477 4.4414 1.8477 2.3588 0 4.5684-1.6573 4.5684-4.5899 0-2.9325-1.8908-4.25-4.207-4.25-.8288 0-1.4446.2128-2.082.5528l.3613-4.0157h5.248v-1.5097h-6.7793zm40.1367 0l-5.8007 8.6699v1.1484h6.0976v3.7403h1.6582v-3.7403h1.8477v-1.4023h-1.8477v-8.416h-1.955zm6.461 0l-.4453 6.5234.9355.5957c.8075-.5312 1.3814-.8281 2.3164-.8281 1.7425 0 2.8887 1.1046 2.8887 2.9746 0 1.8912-1.3171 3.1016-2.9746 3.1016-1.5938 0-2.6144-.7433-3.4219-1.5508l-.8496 1.1484c.935.935 2.2739 1.8477 4.4414 1.8477 2.3587 0 4.5684-1.6573 4.5684-4.5899 0-2.9325-1.8908-4.25-4.207-4.25-.8288 0-1.4446.2128-2.0821.5528l.3613-4.0157h5.248v-1.5097h-6.7792zm17.9726 0l-.4472 6.5234.9355.5957c.8075-.5312 1.3814-.8281 2.3164-.8281 1.7425 0 2.8887 1.1046 2.8887 2.9746 0 1.8912-1.3171 3.1016-2.9746 3.1016-1.5938 0-2.6124-.7433-3.42-1.5508l-.8515 1.1484c.935.935 2.2739 1.8477 4.4414 1.8477 2.3588 0 4.5684-1.6573 4.5684-4.5899 0-2.9325-1.8908-4.25-4.207-4.25-.8288 0-1.4446.2128-2.0821.5528l.3613-4.0157h5.248v-1.5097h-6.7773zm10.541 0l-.4453 6.5234.9336.5957c.8075-.5312 1.3814-.8281 2.3164-.8281 1.7425 0 2.8906 1.1046 2.8906 2.9746 0 1.8912-1.317 3.1016-2.9746 3.1016-1.5937 0-2.6143-.7433-3.4218-1.5508l-.8496 1.1484c.935.935 2.2739 1.8477 4.4414 1.8477 2.3587 0 4.5683-1.6573 4.5683-4.5899 0-2.9325-1.8908-4.25-4.207-4.25-.8288 0-1.4465.2128-2.084.5528l.3613-4.0157h5.25v-1.5097h-6.7793zm-232.623 1.041c1.4875 0 2.3574 1.0636 2.3574 2.4023 0 .9988-.51 1.9113-1.4238 2.7188-1.6363-.6375-3.123-1.3167-3.123-2.9317 0-1.3175.9356-2.1894 2.1894-2.1894zm-80.8711.086c1.7212 0 2.7623 1.402 2.996 4.037-.8712 1.275-1.955 1.8067-2.8476 1.8067-1.6787 0-2.5078-1.1054-2.5078-2.8692 0-1.785 1.0419-2.9746 2.3594-2.9746zm278.8379.744h.086c-.0426.7226-.1075 1.8908-.1075 2.6133v3.9317h-4.25l3.166-4.6328c.3825-.6588.7655-1.2534 1.1055-1.9121zm-47.5332 4.7169c1.6787 0 2.5078 1.1053 2.5078 2.8691 0 1.785-1.0206 2.9746-2.3594 2.9746-1.7212 0-2.762-1.4236-2.9746-4.0586.85-1.2537 1.955-1.7851 2.8262-1.7851zm-151.4336.3828c1.955.7862 3.6758 1.4235 3.6758 3.166 0 1.4025-1.0838 2.3808-2.6563 2.3808-1.6575 0-2.9101-1.085-2.9101-2.5937 0-1.2325.8068-2.2306 1.8906-2.9531zM18.3946 38.746c-3.74 0-6.2423 3.0522-6.2423 8.9922s2.5022 9.1308 6.2422 9.1308 6.2422-3.1908 6.2422-9.1308c0-5.94-2.5022-8.9922-6.2422-8.9922zm22.7734 0c-3.74 0-6.2422 3.0522-6.2422 8.9922s2.5022 9.1308 6.2422 9.1308 6.2422-3.1908 6.2422-9.1308c0-5.94-2.5022-8.9922-6.2422-8.9922zm52.3379 0c-3.74 0-6.2422 3.0522-6.2422 8.9922s2.5022 9.1308 6.2422 9.1308 6.2421-3.1908 6.2421-9.1308c0-5.94-2.5021-8.9922-6.2421-8.9922zm37.3847 0c-3.245 0-5.582 1.8425-5.582 4.8125 0 1.8425.9904 3.1075 2.3379 4.125v.1094c-1.65.88-2.9707 2.1735-2.9707 4.291 0 2.8325 2.5856 4.7851 6.0781 4.7851 3.7125 0 6.1875-2.0898 6.1875-4.8398 0-2.31-1.3479-3.659-3.0254-4.5664v-.1094c1.21-.7975 2.2832-2.1447 2.2832-3.8222 0-2.8876-2.1186-4.7852-5.3086-4.7852zm37.7266 0c-3.74 0-6.2422 3.0522-6.2422 8.9922s2.5022 9.1308 6.2422 9.1308 6.2422-3.1908 6.2422-9.1308c0-5.94-2.5022-8.9922-6.2422-8.9922zm22.1133 0c-2.145 0-3.905.8516-5.5 2.2266l2.0351 2.4765c1.1-.9625 2.034-1.541 3.2715-1.541 1.375 0 2.1465.7158 2.1465 1.9258 0 1.4025-.99 2.3379-4.125 2.3379v2.8593c3.795 0 4.7012.962 4.7012 2.502 0 1.32-1.127 2.0625-2.832 2.0625-1.485 0-2.7773-.7423-3.8223-1.7598l-1.8711 2.5567c1.265 1.485 3.2456 2.4765 6.0781 2.4765 3.52 0 6.4902-1.8429 6.4902-5.0879 0-2.255-1.4573-3.6861-3.4648-4.2636v-.1094c1.87-.7975 2.914-2.062 2.914-3.877 0-3.0525-2.419-4.7851-6.0214-4.7851zm14.502 0c-2.145 0-3.905.8516-5.5 2.2266l2.035 2.4765c1.1-.9625 2.034-1.541 3.2716-1.541 1.375 0 2.1465.7158 2.1465 1.9258 0 1.4025-.99 2.3379-4.125 2.3379v2.8593c3.795 0 4.7011.962 4.7011 2.502 0 1.32-1.127 2.0625-2.832 2.0625-1.485 0-2.7773-.7423-3.8223-1.7598l-1.871 2.5567c1.265 1.485 3.2456 2.4765 6.078 2.4765 3.52 0 6.4903-1.8429 6.4903-5.0879 0-2.255-1.4574-3.6861-3.4649-4.2636v-.1094c1.87-.7975 2.9141-2.062 2.9141-3.877 0-3.0525-2.419-4.7851-6.0215-4.7851zm38.496 0c-3.74 0-6.2422 3.0522-6.2422 8.9922s2.5022 9.1308 6.2422 9.1308 6.2422-3.1908 6.2422-9.1308c0-5.94-2.5022-8.9922-6.2422-8.9922zm75.1113 0c-3.74 0-6.2441 3.0522-6.2441 8.9922s2.5041 9.1308 6.2441 9.1308 6.2422-3.1908 6.2422-9.1308c0-5.94-2.5022-8.9922-6.2422-8.9922zm22.8829 0c-3.245 0-5.582 1.8425-5.582 4.8125 0 1.8425.9884 3.1075 2.3359 4.125v.1094c-1.65.88-2.9688 2.1735-2.9688 4.291 0 2.8325 2.5856 4.7851 6.0781 4.7851 3.7125 0 6.1875-2.0898 6.1875-4.8398 0-2.31-1.3478-3.659-3.0254-4.5664v-.1094c1.21-.7975 2.2813-2.1447 2.2813-3.8222 0-2.8876-2.1166-4.7852-5.3066-4.7852zm13.8144 0c-2.5025 0-4.125.9348-5.8574 2.7773l2.1992 2.172c.88-.935 1.8424-1.7872 3.1074-1.7872 1.5125 0 2.4766.9356 2.4766 2.6406 0 2.475-3.1368 5.4722-7.5918 9.6797v2.3106h12.293v-3.4102h-3.5196c-.825 0-2.036.1088-2.916.2188 2.8325-2.97 5.584-6.1044 5.584-9.047 0-3.355-2.3379-5.5546-5.7754-5.5546zm-304.625.33l-.4941 8.8282 1.8144 1.1543c1.045-.66 1.5685-.8809 2.586-.8809 1.6225 0 2.75.9353 2.75 2.6953 0 1.7875-1.1559 2.7227-2.9434 2.7227-1.485 0-2.7226-.77-3.7676-1.7324l-1.8144 2.5586c1.375 1.375 3.3001 2.4472 6.1601 2.4472 3.41 0 6.4063-2.228 6.4063-6.1054 0-3.7125-2.5572-5.418-5.5547-5.418-.715 0-1.2931.1096-1.9531.4121l.3027-3.2715h6.4082v-3.4101h-9.9004zm64.9004 0c-1.2375.7426-2.4482 1.2383-4.3457 1.5958v2.502h3.2715v10.0917h-3.795v3.2735h11.1114v-3.2735h-3.2734V39.0762h-2.9688zm145.9316 0l-.496 8.8282 1.8163 1.1543c1.045-.66 1.5665-.8809 2.584-.8809 1.6225 0 2.75.9353 2.75 2.6953 0 1.7875-1.1539 2.7227-2.9414 2.7227-1.485 0-2.7226-.77-3.7675-1.7324l-1.8165 2.5586c1.375 1.375 3.3002 2.4472 6.1602 2.4472 3.41 0 6.4082-2.228 6.4082-6.1054 0-3.7125-2.5572-5.418-5.5547-5.418-.715 0-1.2931.1096-1.9531.4121l.3027-3.2715h6.4082v-3.4101h-9.9004zm18.9024 0l-6.3809 10.504v2.7793h7.5625v4.1797h3.7676v-4.1797h2.0078v-3.0801h-2.0078V39.0762h-4.9492zm-149.838 2.4747c1.32 0 2.1173.9083 2.1173 2.2558 0 .9075-.3848 1.7592-1.0723 2.5567-1.7875-.6875-2.998-1.3747-2.998-2.8047 0-1.3475.8806-2.0078 1.953-2.0078zm210.8321 0c1.32 0 2.1172.9083 2.1172 2.2558 0 .9075-.3847 1.7592-1.0722 2.5567-1.7876-.6875-2.9981-1.3747-2.9981-2.8047 0-1.3475.8806-2.0078 1.9531-2.0078zm-323.246.33c1.375 0 2.4199 1.0725 2.4199 5.8575 0 4.7575-1.045 5.996-2.42 5.996-1.3475 0-2.4199-1.2385-2.4199-5.996 0-4.785 1.0724-5.8574 2.42-5.8574zm22.7734 0c1.375 0 2.4199 1.0725 2.4199 5.8575 0 4.7575-1.045 5.996-2.42 5.996-1.3474 0-2.4199-1.2385-2.4199-5.996 0-4.785 1.0725-5.8574 2.42-5.8574zm52.3379 0c1.375 0 2.4199 1.0725 2.4199 5.8575 0 4.7575-1.045 5.996-2.42 5.996-1.3474 0-2.4199-1.2385-2.4199-5.996 0-4.785 1.0725-5.8574 2.42-5.8574zm75.1113 0c1.375 0 2.42 1.0725 2.42 5.8575 0 4.7575-1.045 5.996-2.42 5.996-1.3475 0-2.42-1.2385-2.42-5.996 0-4.785 1.0725-5.8574 2.42-5.8574zm75.1113 0c1.375 0 2.42 1.0725 2.42 5.8575 0 4.7575-1.045 5.996-2.42 5.996-1.3475 0-2.42-1.2385-2.42-5.996 0-4.785 1.0725-5.8574 2.42-5.8574zm75.1113 0c1.375 0 2.42 1.0725 2.42 5.8575 0 4.7575-1.045 5.996-2.42 5.996-1.3475 0-2.4199-1.2385-2.4199-5.996 0-4.785 1.0724-5.8574 2.42-5.8574zm-36.957.6602h.1113c-.055 1.1-.166 2.7768-.166 3.9043v2.834h-3.6855l2.3105-3.795c.495-.99.9897-1.9808 1.4297-2.9433zM129.4883 48.838c2.2.935 3.6855 1.5127 3.6855 3.0527 0 1.4575-.9904 2.1719-2.3379 2.1719-1.4575 0-2.6953-.9073-2.6953-2.4473 0-1.0725.5777-2.0623 1.3477-2.7773zm210.832 0c2.2.935 3.6856 1.5127 3.6856 3.0527 0 1.4575-.9904 2.1719-2.338 2.1719-1.4574 0-2.6952-.9073-2.6952-2.4473 0-1.0725.5776-2.0623 1.3476-2.7773zM29.8711 51.7813c-1.4025 0-2.5293.908-2.5293 2.3105 0 1.4575 1.1548 2.2812 2.4473 2.2812h.2207c.0275 1.375-1.0725 2.6405-3.1075 3.3555l.8243 2.1445c3.2175-.9625 4.9492-3.2445 4.9492-6.2695 0-2.3925-.9897-3.8222-2.8047-3.8222zm75.1113 0c-1.4025 0-2.5293.908-2.5293 2.3105 0 1.4575 1.1548 2.2812 2.4473 2.2812h.2207c.0275 1.375-1.0744 2.6405-3.1094 3.3555l.8262 2.1445c3.2175-.9625 4.9492-3.2445 4.9492-6.2695 0-2.3925-.9897-3.8222-2.8047-3.8222zm75.1114 0c-1.4025 0-2.5293.908-2.5293 2.3105 0 1.4575 1.1547 2.2812 2.4472 2.2812h.2188c.0275 1.375-1.0725 2.6405-3.1075 3.3555l.8262 2.1445c3.2175-.9625 4.9492-3.2445 4.9492-6.2695 0-2.3925-.9897-3.8222-2.8047-3.8222zm75.1113 0c-1.4025 0-2.5293.908-2.5293 2.3105 0 1.4575 1.1547 2.2812 2.4472 2.2812h.2188c.0275 1.375-1.0724 2.6405-3.1074 3.3555l.8262 2.1445c3.2175-.9625 4.9492-3.2445 4.9492-6.2695 0-2.3925-.9897-3.8222-2.8047-3.8222zm75.1113 0c-1.4025 0-2.5312.908-2.5312 2.3105 0 1.4575 1.1567 2.2812 2.4492 2.2812h.2187c.0275 1.375-1.0724 2.6405-3.1074 3.3555l.8262 2.1445c3.2175-.9625 4.9492-3.2445 4.9492-6.2695 0-2.3925-.9897-3.8222-2.8047-3.8222z"/>
  <path fill="#fff" d="M414.75 9.4512l-5.6738 18.4863h1.2754l5.6738-18.4863H414.75zm75.1113 0l-5.6738 18.4863h1.2754l5.6738-18.4863h-1.2754zm75.1114 0l-5.6739 18.4863h1.2754l5.6739-18.4863h-1.2754zm75.1113 0l-5.6738 18.4863h1.2754l5.6738-18.4863h-1.2754zm80.3828 0l-5.6738 18.4863h1.2734l5.6738-18.4863h-1.2734zm-251.3926 1.2754c-2.6987 0-5.162 2.103-5.162 7.543 0 4.3562 2.0175 6.5234 4.6737 6.5234 2.1888 0 4.0176-1.763 4.0176-4.3555 0-2.7838-1.5316-4.1875-3.8691-4.1875-1.105 0-2.316.66-3.166 1.7012.085-4.2925 1.679-5.7598 3.5703-5.7598.85 0 1.6799.4038 2.2324 1.0625l.9766-1.082c-.765-.8288-1.8072-1.4453-3.2735-1.4453zm27.2813 0c-1.5938 0-2.8474.7217-3.8887 1.6992l.9355 1.1054c.8075-.8074 1.7644-1.3808 2.8907-1.3808 1.445 0 2.336.829 2.336 2.1465 0 1.4237-.9558 2.5273-3.8458 2.5273v1.3399c3.23 0 4.336 1.0822 4.336 2.6972 0 1.5088-1.1704 2.4864-2.8067 2.4864-1.5938 0-2.6554-.7633-3.4629-1.6133l-.8926 1.1465c.9138.9987 2.2954 1.912 4.463 1.912 2.4862 0 4.4628-1.4659 4.4628-3.8671 0-1.87-1.2973-3.059-2.9336-3.4414v-.086c1.4663-.5525 2.4649-1.5942 2.4649-3.2304 0-2.1888-1.6999-3.4414-4.0586-3.4414zm75.0273 0c-1.7637 0-2.9753.828-4.1015 2.0605l.998.998c.7862-.9137 1.7644-1.6347 2.8906-1.6347 1.7213 0 2.5703 1.105 2.5703 2.6562 0 2.1888-2.295 4.6327-6.375 8.6914v1.041h8.7559v-1.5097h-3.9316c-.7013 0-1.5297.0634-2.2735.127 3.2088-3.3575 5.5254-5.8856 5.5254-8.4356 0-2.4012-1.551-3.9941-4.0586-3.9941zm47.1074 0c-2.1887 0-3.8457 1.4018-3.8457 3.4843 0 1.4238.892 2.4218 1.8907 3.123v.086c-1.275.68-2.5508 1.8906-2.5508 3.6543 0 2.1463 1.8914 3.7188 4.4414 3.7188 2.635 0 4.377-1.5926 4.377-3.6114 0-1.8275-1.1462-2.785-2.3575-3.4863v-.084c.8288-.6375 1.8691-1.8497 1.8691-3.2734 0-2.1038-1.4654-3.6113-3.8242-3.6113zm79.8496 0c-2.1675 0-3.9941 1.763-3.9941 4.3554 0 2.7838 1.5082 4.1856 3.8457 4.1856 1.1263 0 2.3375-.6585 3.1875-1.7422-.0637 4.335-1.6773 5.8223-3.5898 5.8223-.85 0-1.68-.4233-2.2325-1.082l-.9765 1.1034c.7437.8075 1.8265 1.4239 3.2715 1.4239 2.6987 0 5.164-2.103 5.164-7.543 0-4.3562-1.9983-6.5234-4.6758-6.5234zm-308.4765.2539l-.4473 6.5234.9356.5957c.8075-.5312 1.3814-.8281 2.3164-.8281 1.7425 0 2.8906 1.1046 2.8906 2.9746 0 1.8912-1.319 3.1016-2.9766 3.1016-1.5937 0-2.6124-.7433-3.4199-1.5508l-.8516 1.1484c.935.935 2.274 1.8477 4.4415 1.8477 2.3587 0 4.5703-1.6573 4.5703-4.5899 0-2.9325-1.8928-4.25-4.209-4.25-.8288 0-1.4445.2128-2.082.5528l.3613-4.0157h5.248v-1.5097h-6.7773zm10.541 0l-.4453 6.5234.9336.5957c.8075-.5312 1.3814-.8281 2.3164-.8281 1.7425 0 2.8906 1.1046 2.8906 2.9746 0 1.8912-1.3171 3.1016-2.9746 3.1016-1.5938 0-2.6144-.7433-3.4219-1.5508l-.8496 1.1484c.935.935 2.274 1.8477 4.4414 1.8477 2.3588 0 4.5684-1.6573 4.5684-4.5899 0-2.9325-1.8908-4.25-4.207-4.25-.8288 0-1.4446.2128-2.082.5528l.3612-4.0157h5.248v-1.5097h-6.7792zm22.0508 0l-5.8008 8.6699v1.1484h6.0996v3.7403h1.6563v-3.7403h1.8496v-1.4023h-1.8496v-8.416h-1.9551zm6.4629 0l-.4453 6.5234.9336.5957c.8075-.5312 1.3814-.8281 2.3164-.8281 1.7425 0 2.8906 1.1046 2.8906 2.9746 0 1.8912-1.3171 3.1016-2.9746 3.1016-1.5938 0-2.6144-.7433-3.4219-1.5508l-.8496 1.1484c.935.935 2.2739 1.8477 4.4414 1.8477 2.3587 0 4.5684-1.6573 4.5684-4.5899 0-2.9325-1.8908-4.25-4.207-4.25-.8288 0-1.4466.2128-2.084.5528l.3613-4.0157h5.25v-1.5097h-6.7793zm46.5976 0l-.4453 6.5234.9336.5957c.8075-.5312 1.3814-.8281 2.3164-.8281 1.7425 0 2.8906 1.1046 2.8906 2.9746 0 1.8912-1.317 3.1016-2.9746 3.1016-1.5937 0-2.6144-.7433-3.4219-1.5508l-.8496 1.1484c.935.935 2.274 1.8477 4.4414 1.8477 2.3588 0 4.5684-1.6573 4.5684-4.5899 0-2.9325-1.8908-4.25-4.207-4.25-.8288 0-1.4445.2128-2.082.5528l.3593-4.0157h5.25v-1.5097h-6.7793zm28.5137 0l-.4473 6.5234.9356.5957c.8075-.5312 1.3814-.8281 2.3164-.8281 1.7425 0 2.8906 1.1046 2.8906 2.9746 0 1.8912-1.3171 3.1016-2.9746 3.1016-1.5938 0-2.6144-.7433-3.4219-1.5508l-.8496 1.1484c.935.935 2.274 1.8477 4.4414 1.8477 2.3588 0 4.5684-1.6573 4.5684-4.5899 0-2.9325-1.8908-4.25-4.207-4.25-.8288 0-1.4465.2128-2.084.5528l.3613-4.0157h5.25v-1.5097h-6.7793zm34.9082 0v1.5097h6.7578c-2.6775 3.7188-3.6979 6.9488-3.9316 12.0489h1.8066c.2338-5.2913.8928-8.3734 4.1016-12.4746v-1.084h-8.7344zm11.6894 0l-.4453 6.5234.9336.5957c.8075-.5312 1.3814-.8281 2.3164-.8281 1.7425 0 2.8907 1.1046 2.8907 2.9746 0 1.8912-1.3171 3.1016-2.9746 3.1016-1.5938 0-2.6144-.7433-3.422-1.5508l-.8495 1.1484c.935.935 2.2739 1.8477 4.4414 1.8477 2.3587 0 4.5683-1.6573 4.5683-4.5899 0-2.9325-1.8907-4.25-4.207-4.25-.8287 0-1.4465.2128-2.084.5528l.3614-4.0157h5.25v-1.5097h-6.7794zm28.5137 0l-.4472 6.5234.9355.5957c.8075-.5312 1.3814-.8281 2.3164-.8281 1.7425 0 2.8906 1.1046 2.8906 2.9746 0 1.8912-1.319 3.1016-2.9765 3.1016-1.5938 0-2.6125-.7433-3.42-1.5508l-.8496 1.1484c.935.935 2.272 1.8477 4.4395 1.8477 2.3587 0 4.5703-1.6573 4.5703-4.5899 0-2.9325-1.8927-4.25-4.209-4.25-.8287 0-1.4445.2128-2.082.5528l.3613-4.0157h5.25v-1.5097h-6.7793zm46.5977 0l-.4473 6.5234.9356.5957c.8075-.5312 1.3814-.8281 2.3164-.8281 1.7425 0 2.8906 1.1046 2.8906 2.9746 0 1.8912-1.3171 3.1016-2.9746 3.1016-1.5938 0-2.6144-.7433-3.4219-1.5508l-.8496 1.1484c.935.935 2.274 1.8477 4.4414 1.8477 2.3588 0 4.5684-1.6573 4.5684-4.5899 0-2.9325-1.8908-4.25-4.207-4.25-.8288 0-1.4466.2128-2.084.5528l.3613-4.0157h5.25v-1.5097h-6.7793zm21.0742 0c-.7437.4462-1.6366.7875-2.8691 1v1.125h2.4648v9.9883h-3.1035v1.4453h7.6504v-1.4454h-2.8047V10.9805h-1.3379zm7.4394 0l-.4472 6.5234.9355.5957c.8075-.5312 1.3814-.8281 2.3164-.8281 1.7425 0 2.8907 1.1046 2.8907 2.9746 0 1.8912-1.3191 3.1016-2.9766 3.1016-1.5938 0-2.6124-.7433-3.42-1.5508l-.8515 1.1484c.935.935 2.274 1.8477 4.4414 1.8477 2.3588 0 4.5703-1.6573 4.5703-4.5899 0-2.9325-1.8927-4.25-4.209-4.25-.8287 0-1.4445.2128-2.082.5528l.3614-4.0157h5.248v-1.5097h-6.7774zm51.8692 0l-.4473 6.5234.9356.5957c.8075-.5312 1.3814-.8281 2.3164-.8281 1.7425 0 2.8886 1.1046 2.8886 2.9746 0 1.8912-1.317 3.1016-2.9746 3.1016-1.5937 0-2.6124-.7433-3.4199-1.5508l-.8515 1.1484c.935.935 2.2739 1.8477 4.4414 1.8477 2.3587 0 4.5683-1.6573 4.5683-4.5899 0-2.9325-1.8908-4.25-4.207-4.25-.8288 0-1.4445.2128-2.082.5528l.3613-4.0157h5.248v-1.5097h-6.7773zm17.9707 0l-.4473 6.5234.9356.5957c.8075-.5312 1.3814-.8281 2.3164-.8281 1.7425 0 2.8906 1.1046 2.8906 2.9746 0 1.8912-1.319 3.1016-2.9765 3.1016-1.5938 0-2.6125-.7433-3.42-1.5508l-.8496 1.1484c.935.935 2.272 1.8477 4.4395 1.8477 2.3587 0 4.5703-1.6573 4.5703-4.5899 0-2.9325-1.8927-4.25-4.209-4.25-.8288 0-1.4445.2128-2.082.5528l.3613-4.0157h5.25v-1.5097h-6.7793zm-105.6445 1.041c1.4875 0 2.3593 1.0636 2.3593 2.4023 0 .9988-.51 1.9113-1.4238 2.7188-1.6362-.6375-3.125-1.3167-3.125-2.9317 0-1.3175.9357-2.1894 2.1895-2.1894zm79.8925.086c1.7213 0 2.7643 1.402 2.998 4.037-.8712 1.275-1.955 1.8067-2.8476 1.8067-1.6787 0-2.5078-1.1054-2.5078-2.8692 0-1.785 1.04-2.9746 2.3574-2.9746zm-275.5644.744h.084c-.0425.7226-.1055 1.8908-.1055 2.6133v3.9317h-4.25l3.166-4.6328c.3825-.6588.7655-1.2534 1.1055-1.9121zm45.6621 4.7169c1.6787 0 2.5078 1.1053 2.5078 2.8691 0 1.785-1.0206 2.9746-2.3594 2.9746-1.7212 0-2.762-1.4236-2.9746-4.0586.85-1.2537 1.955-1.7851 2.8262-1.7851zm149.0117.3828c1.955.7862 3.6758 1.4235 3.6758 3.166 0 1.4025-1.0838 2.3808-2.6563 2.3808-1.6575 0-2.912-1.085-2.912-2.5937 0-1.2325.8088-2.2306 1.8925-2.9531zM416.1465 38.746c-2.5025 0-4.125.9348-5.8574 2.7773l2.1992 2.172c.88-.935 1.8424-1.7872 3.1074-1.7872 1.5125 0 2.4746.9356 2.4746 2.6406 0 2.475-3.1348 5.4722-7.5898 9.6797v2.3106h12.293v-3.4102h-3.5196c-.825 0-2.036.1088-2.916.2188 2.8325-2.97 5.584-6.1044 5.584-9.047 0-3.355-2.338-5.5546-5.7754-5.5546zm14.502 0c-2.5026 0-4.125.9348-5.8575 2.7773l2.1992 2.172c.88-.935 1.8425-1.7872 3.1075-1.7872 1.5125 0 2.4746.9356 2.4746 2.6406 0 2.475-3.1349 5.4722-7.5899 9.6797v2.3106h12.293v-3.4102h-3.5195c-.825 0-2.036.1088-2.916.2188 2.8324-2.97 5.584-6.1044 5.584-9.047 0-3.355-2.338-5.5546-5.7755-5.5546zm61.2968 0c-3.245 0-5.584 1.8425-5.584 4.8125 0 1.8425.9904 3.1075 2.338 4.125v.1094c-1.65.88-2.9688 2.1735-2.9688 4.291 0 2.8325 2.5836 4.7851 6.0761 4.7851 3.7125 0 6.1875-2.0898 6.1875-4.8398 0-2.31-1.3459-3.659-3.0234-4.5664v-.1094c1.21-.7975 2.2813-2.1447 2.2813-3.8222 0-2.8876-2.1167-4.7852-5.3067-4.7852zm15.3262 0c-3.685 0-7.0664 2.9415-7.0664 9.459 0 6.1325 3.217 8.664 6.5996 8.664 3.1625 0 5.8027-2.2274 5.8027-5.8574 0-3.685-2.1997-5.3906-5.1972-5.3906-1.0725 0-2.5867.6868-3.4942 1.8418.1375-4.07 1.6785-5.4453 3.6035-5.4453 1.0175 0 2.1177.5783 2.7227 1.2383l2.1172-2.42c-1.1-1.1275-2.778-2.0898-5.088-2.0898zm36.2402 0c-2.145 0-3.905.8516-5.5 2.2266l2.0352 2.4765c1.1-.9625 2.036-1.541 3.2734-1.541 1.375 0 2.1445.7158 2.1445 1.9258 0 1.4025-.99 2.3379-4.125 2.3379v2.8593c3.795 0 4.7032.962 4.7032 2.502 0 1.32-1.127 2.0625-2.832 2.0625-1.485 0-2.7793-.7423-3.8243-1.7598l-1.8691 2.5567c1.265 1.485 3.2456 2.4765 6.0781 2.4765 3.52 0 6.4902-1.8429 6.4902-5.0879 0-2.255-1.4593-3.6861-3.4668-4.2636v-.1094c1.87-.7975 2.916-2.062 2.916-3.877 0-3.0525-2.4209-4.7851-6.0234-4.7851zm23.4336 0c-3.74 0-6.2422 3.0522-6.2422 8.9922s2.5022 9.1308 6.2422 9.1308 6.2422-3.1908 6.2422-9.1308c0-5.94-2.5022-8.9922-6.2422-8.9922zm14.502 0c-3.74 0-6.2422 3.0522-6.2422 8.9922s2.5022 9.1308 6.2422 9.1308 6.2421-3.1908 6.2421-9.1308c0-5.94-2.5021-8.9922-6.2421-8.9922zm61.5449 0c-3.685 0-7.0684 2.9415-7.0684 9.459 0 6.1325 3.219 8.664 6.6016 8.664 3.1625 0 5.8008-2.2274 5.8008-5.8574 0-3.685-2.1998-5.3906-5.1973-5.3906-1.0725 0-2.5847.6868-3.4922 1.8418.1375-4.07 1.6785-5.4453 3.6035-5.4453 1.0175 0 2.1177.5783 2.7227 1.2383l2.1172-2.42c-1.1-1.1275-2.778-2.0898-5.088-2.0898zm65.3828 0c-3.1625 0-5.8027 2.2274-5.8027 5.8574 0 3.685 2.2272 5.3906 5.1972 5.3906 1.0725 0 2.5847-.6887 3.4922-1.8437-.1375 4.07-1.651 5.4453-3.6035 5.4453-1.0175 0-2.1159-.5763-2.6934-1.2363l-2.1464 2.4199c1.1 1.1 2.8052 2.0898 5.1152 2.0898 3.6575 0 7.0684-2.9434 7.0684-9.4609 0-6.1325-3.2445-8.6621-6.627-8.6621zm23.295 0c-3.74 0-6.2423 3.0522-6.2423 8.9922s2.5022 9.1308 6.2422 9.1308 6.2422-3.1908 6.2422-9.1308c0-5.94-2.5022-8.9922-6.2422-8.9922zm-338.1876.33c-1.2375.7426-2.4482 1.2383-4.3457 1.5958v2.502h3.2735v10.0917h-3.795v3.2735h11.1094v-3.2735h-3.2715V39.0762h-2.9707zm75.1114 0c-1.2375.7426-2.4482 1.2383-4.3458 1.5958v2.502h3.2735v10.0917h-3.795v3.2735h11.1094v-3.2735h-3.2714V39.0762h-2.9708zm145.9316 0l-.4941 8.8282 1.8144 1.1543c1.045-.66 1.5684-.8809 2.586-.8809 1.6224 0 2.75.9353 2.75 2.6953 0 1.7875-1.156 2.7227-2.9434 2.7227-1.485 0-2.7226-.77-3.7676-1.7324l-1.8144 2.5586c1.375 1.375 3.3001 2.4472 6.1601 2.4472 3.41 0 6.4063-2.228 6.4063-6.1054 0-3.7125-2.5572-5.418-5.5547-5.418-.715 0-1.2912.1096-1.9512.4121l.3027-3.2715h6.4063v-3.4101h-9.9004zm35.9844 0v3.4102h7.8359c-3.3 4.565-4.3438 8.2503-4.6738 14.0528h4.0703c.3025-6.82.8794-10.0933 4.9219-14.9883v-2.4746h-12.1543zm43.418 0c-1.2376.7426-2.4483 1.2383-4.3458 1.5958v2.502h3.2735v10.0917h-3.795v3.2735H700.17v-3.2735h-3.2734V39.0762h-2.9688zm-202.0665 2.4747c1.32 0 2.1192.9083 2.1192 2.2558 0 .9075-.3848 1.7592-1.0723 2.5567-1.7875-.6875-2.998-1.3747-2.998-2.8047 0-1.3475.8786-2.0078 1.9511-2.0078zm216.5957.2207c1.2375 0 2.3652.8789 2.7227 3.6289-.6875 1.2375-1.7058 1.7324-2.6133 1.7324-1.32 0-2.3105-.6868-2.3105-2.5293 0-1.98 1.0186-2.832 2.2011-2.832zm-141.5117.1094c1.375 0 2.42 1.0724 2.42 5.8574 0 4.7575-1.045 5.996-2.42 5.996-1.3475 0-2.42-1.2385-2.42-5.996 0-4.785 1.0725-5.8574 2.42-5.8574zm14.502 0c1.375 0 2.4199 1.0724 2.4199 5.8574 0 4.7575-1.045 5.996-2.42 5.996-1.3474 0-2.4199-1.2385-2.4199-5.996 0-4.785 1.0725-5.8574 2.42-5.8574zm150.2226 0c1.375 0 2.42 1.0724 2.42 5.8574 0 4.7575-1.045 5.996-2.42 5.996-1.3475 0-2.4199-1.2385-2.4199-5.996 0-4.785 1.0724-5.8574 2.42-5.8574zm-225.0312 6.5996c1.32 0 2.2832.6887 2.2832 2.5312 0 1.98-.9892 2.832-2.1992 2.832S504.3575 52.963 504 50.213c.715-1.2375 1.7312-1.7324 2.6387-1.7324zm135.7207 0c1.32 0 2.2832.6887 2.2832 2.5312 0 1.98-.9912 2.832-2.2012 2.832s-2.3652-.8808-2.7227-3.6308c.715-1.2375 1.7332-1.7324 2.6407-1.7324zm-151.8164.3574c2.2.935 3.6836 1.5127 3.6836 3.0527 0 1.4575-.9885 2.1719-2.336 2.1719-1.4575 0-2.6953-.9073-2.6953-2.4473 0-1.0725.5777-2.0623 1.3477-2.7773zm-85.1153 2.9434c-1.4025 0-2.5312.908-2.5312 2.3105 0 1.4575 1.1547 2.2812 2.4472 2.2812h.2208c.0274 1.375-1.0725 2.6405-3.1075 3.3555l.8243 2.1445c3.2174-.9625 4.9511-3.2445 4.9511-6.2695 0-2.3925-.9897-3.8222-2.8047-3.8222zm75.1114 0c-1.4025 0-2.5313.908-2.5313 2.3105 0 1.4575 1.1548 2.2812 2.4473 2.2812h.2207c.0275 1.375-1.0724 2.6405-3.1074 3.3555l.8242 2.1445c3.2175-.9625 4.9511-3.2445 4.9511-6.2695 0-2.3925-.9896-3.8222-2.8046-3.8222zm75.1113 0c-1.4025 0-2.5313.908-2.5313 2.3105 0 1.4575 1.1548 2.2812 2.4473 2.2812h.2207c.0275 1.375-1.0724 2.6405-3.1074 3.3555l.8242 2.1445c3.2175-.9625 4.9512-3.2445 4.9512-6.2695 0-2.3925-.9897-3.8222-2.8047-3.8222zm75.1094 0c-1.4025 0-2.5293.908-2.5293 2.3105 0 1.4575 1.1547 2.2812 2.4472 2.2812h.2207c.0275 1.375-1.0724 2.6405-3.1074 3.3555l.8242 2.1445c3.2175-.9625 4.9512-3.2445 4.9512-6.2695 0-2.3925-.9916-3.8222-2.8066-3.8222zm89.6132 0c-1.4025 0-2.5293.908-2.5293 2.3105 0 1.4575 1.1548 2.2812 2.4473 2.2812h.2207c.0275 1.375-1.0724 2.6405-3.1074 3.3555l.8242 2.1445c3.2175-.9625 4.9492-3.2445 4.9492-6.2695 0-2.3925-.9896-3.8222-2.8046-3.8222z"/>
</svg>
