<svg xmlns="http://www.w3.org/2000/svg" viewBox="0 0 750 75">
  <path fill="#f2f2f2" d="M0 0h75v75H0z"/>
  <path fill="#d9d9d9" d="M75 0h75v75H75z"/>
  <path fill="#bfbfbf" d="M150 0h75v75h-75z"/>
  <path fill="#a6a6a6" d="M225 0h75v75h-75z"/>
  <path fill="#8c8c8c" d="M300 0h75v75h-75z"/>
  <path fill="#737373" d="M375 0h75v75h-75z"/>
  <path fill="#595959" d="M450 0h75v75h-75z"/>
  <path fill="#404040" d="M525 0h75v75h-75z"/>
  <path fill="#262626" d="M600 0h75v75h-75z"/>
  <path fill="#0d0d0d" d="M675 0h75v75h-75z"/>
  <path fill="#000" d="M37.521 27.838c-2.25 0-3.724 1.875-3.724 5.15 0 3.325 1.474 5.2 3.724 5.2 2.225 0 3.725-1.875 3.725-5.2 0-3.275-1.5-5.15-3.725-5.15zm9.526 0l-9.05 17h1.4l9.05-17h-1.4zm71.787 0c-2.25 0-3.725 1.875-3.725 5.15 0 3.325 1.475 5.2 3.725 5.2 2.225 0 3.725-1.875 3.725-5.2 0-3.275-1.5-5.15-3.725-5.15zm9.525 0l-9.05 17h1.4l9.05-17h-1.4zm65.586 0c-2.25 0-3.724 1.875-3.724 5.15 0 3.325 1.474 5.2 3.724 5.2 2.225 0 3.725-1.875 3.725-5.2 0-3.275-1.5-5.15-3.725-5.15zm9.526 0l-9.051 17h1.4l9.051-17h-1.4zm65.586 0c-2.25 0-3.725 1.875-3.725 5.15 0 3.325 1.475 5.2 3.725 5.2 2.225 0 3.724-1.875 3.724-5.2 0-3.275-1.5-5.15-3.724-5.15zm9.525 0l-9.05 17h1.4l9.048-17h-1.398zm65.586 0c-2.25 0-3.727 1.875-3.727 5.15 0 3.325 1.477 5.2 3.727 5.2 2.225 0 3.725-1.875 3.725-5.2 0-3.275-1.5-5.15-3.725-5.15zm9.523 0l-9.048 17h1.4l9.049-17h-1.4zm-183.425.451c-2.075 0-3.5.974-4.825 2.424l1.174 1.176c.925-1.075 2.076-1.926 3.4-1.926 2.026 0 3.026 1.3 3.026 3.125 0 2.575-2.7 5.45-7.5 10.224v1.227h10.299v-1.775h-4.625c-.825 0-1.799.075-2.674.15 3.775-3.95 6.5-6.926 6.5-9.926 0-2.825-1.825-4.699-4.775-4.699zm75.21 0c-1.874 0-3.349.85-4.574 2l1.1 1.299c.95-.95 2.075-1.625 3.4-1.625 1.7 0 2.75.975 2.75 2.525 0 1.675-1.125 2.975-4.525 2.975v1.576c3.8 0 5.1 1.274 5.1 3.174 0 1.775-1.376 2.926-3.301 2.926-1.875 0-3.124-.9-4.074-1.9l-1.051 1.349c1.075 1.175 2.7 2.25 5.25 2.25 2.925 0 5.25-1.724 5.25-4.549 0-2.2-1.524-3.6-3.45-4.05v-.1c1.726-.65 2.9-1.876 2.9-3.801 0-2.575-2-4.049-4.774-4.049zm-222.507.299l-.524 7.676 1.1.699c.95-.625 1.625-.975 2.725-.975 2.05 0 3.4 1.3 3.4 3.5 0 2.225-1.55 3.65-3.5 3.65-1.875 0-3.075-.875-4.025-1.825l-1 1.351c1.1 1.1 2.674 2.174 5.224 2.174 2.775 0 5.375-1.95 5.375-5.4s-2.224-5-4.95-5c-.974 0-1.7.25-2.45.65l.426-4.725h6.175v-1.775H22.97zm72.56 0c-.875.525-1.925.926-3.375 1.176v1.324h2.9v11.75h-3.65v1.701h9v-1.701h-3.3v-14.25h-1.575zm8.752 0l-.525 7.676 1.101.699c.95-.625 1.625-.975 2.725-.975 2.05 0 3.4 1.3 3.4 3.5 0 2.225-1.55 3.65-3.5 3.65-1.875 0-3.075-.875-4.025-1.825l-1 1.351c1.1 1.1 2.675 2.174 5.225 2.174 2.775 0 5.375-1.95 5.375-5.4s-2.225-5-4.95-5c-.975 0-1.7.25-2.45.65l.425-4.725h6.174v-1.775h-7.975zm75.112 0l-.526 7.676 1.102.699c.95-.625 1.624-.975 2.724-.975 2.05 0 3.4 1.3 3.4 3.5 0 2.225-1.55 3.65-3.5 3.65-1.874 0-3.075-.875-4.025-1.825l-1 1.351c1.1 1.1 2.675 2.174 5.225 2.174 2.775 0 5.375-1.95 5.375-5.4s-2.224-5-4.95-5c-.974 0-1.7.25-2.45.65l.425-4.725h6.174v-1.775h-7.974zm75.11 0l-.524 7.676 1.1.699c.95-.625 1.626-.975 2.726-.975 2.05 0 3.398 1.3 3.398 3.5 0 2.225-1.55 3.65-3.5 3.65-1.875 0-3.073-.875-4.023-1.825l-1 1.351c1.1 1.1 2.674 2.174 5.224 2.174 2.775 0 5.375-1.95 5.375-5.4s-2.226-5-4.95-5c-.976 0-1.7.25-2.45.65l.426-4.725h6.174v-1.775h-7.975zm67.509 0l-6.825 10.201v1.35h7.176v4.4h1.95v-4.4h2.175v-1.65h-2.175v-9.901h-2.301zm7.603 0l-.525 7.676 1.1.699c.95-.625 1.624-.975 2.724-.975 2.05 0 3.4 1.3 3.4 3.5 0 2.225-1.55 3.65-3.5 3.65-1.875 0-3.075-.875-4.025-1.825l-1 1.351c1.1 1.1 2.677 2.174 5.227 2.174 2.775 0 5.375-1.95 5.375-5.4s-2.227-5-4.952-5c-.975 0-1.699.25-2.449.65l.424-4.725h6.176v-1.775h-7.975zm-292.094.525c1.275 0 2.15 1.275 2.15 3.875s-.875 3.926-2.15 3.926c-1.3 0-2.173-1.326-2.173-3.926s.873-3.875 2.173-3.875zm81.313 0c1.275 0 2.15 1.275 2.15 3.875s-.875 3.926-2.15 3.926c-1.3 0-2.176-1.326-2.176-3.926s.876-3.875 2.176-3.875zm75.111 0c1.275 0 2.15 1.275 2.15 3.875s-.875 3.926-2.15 3.926c-1.3 0-2.175-1.326-2.175-3.926s.875-3.875 2.175-3.875zm75.112 0c1.275 0 2.15 1.275 2.15 3.875s-.875 3.926-2.15 3.926c-1.3 0-2.176-1.326-2.176-3.926s.876-3.875 2.176-3.875zm75.111 0c1.275 0 2.148 1.275 2.148 3.875s-.873 3.926-2.148 3.926c-1.3 0-2.176-1.326-2.176-3.926s.876-3.875 2.176-3.875zm-21.781 1.676h.101c-.05.85-.125 2.224-.125 3.074v4.625h-5l3.725-5.449c.45-.775.899-1.475 1.299-2.25zm-273.44 3.7c-2.25 0-3.724 1.875-3.724 5.15 0 3.325 1.474 5.199 3.724 5.199 2.225 0 3.725-1.874 3.725-5.2 0-3.274-1.5-5.15-3.725-5.15zm81.313 0c-2.25 0-3.727 1.875-3.727 5.15 0 3.325 1.477 5.199 3.727 5.199 2.225 0 3.724-1.874 3.724-5.2 0-3.274-1.5-5.15-3.724-5.15zm75.111 0c-2.25 0-3.726 1.875-3.726 5.15 0 3.325 1.476 5.199 3.726 5.199 2.225 0 3.725-1.874 3.725-5.2 0-3.274-1.5-5.15-3.725-5.15zm75.11 0c-2.25 0-3.725 1.875-3.725 5.15 0 3.325 1.474 5.199 3.724 5.199 2.225 0 3.727-1.874 3.727-5.2 0-3.274-1.502-5.15-3.727-5.15zm75.11 0c-2.25 0-3.724 1.875-3.724 5.15 0 3.325 1.475 5.199 3.725 5.199 2.225 0 3.724-1.874 3.724-5.2 0-3.274-1.5-5.15-3.724-5.15zM48.948 35.763c1.275 0 2.15 1.275 2.15 3.875s-.875 3.923-2.15 3.923c-1.3 0-2.176-1.323-2.176-3.923s.876-3.875 2.176-3.875zm81.313 0c1.275 0 2.148 1.275 2.148 3.875s-.873 3.923-2.148 3.923c-1.3 0-2.176-1.323-2.176-3.923s.876-3.875 2.176-3.875zm75.111 0c1.275 0 2.149 1.275 2.149 3.875s-.874 3.923-2.149 3.923c-1.3 0-2.176-1.323-2.176-3.923s.876-3.875 2.176-3.875zm75.11 0c1.274 0 2.15 1.275 2.15 3.875s-.876 3.923-2.15 3.923c-1.3 0-2.174-1.323-2.174-3.923s.873-3.875 2.173-3.875zm75.11 0c1.276 0 2.151 1.275 2.151 3.875s-.875 3.923-2.15 3.923c-1.3 0-2.174-1.323-2.174-3.923s.874-3.875 2.174-3.875z"/>
  <path fill="#fff" d="M419.28 27.838c-2.25 0-3.727 1.875-3.727 5.15 0 3.325 1.476 5.2 3.726 5.2 2.225 0 3.725-1.875 3.725-5.2 0-3.275-1.5-5.15-3.725-5.15zm9.523 0l-9.05 17h1.401l9.05-17h-1.401zm65.586 0c-2.25 0-3.725 1.875-3.725 5.15 0 3.325 1.475 5.2 3.725 5.2 2.225 0 3.726-1.875 3.726-5.2 0-3.275-1.501-5.15-3.726-5.15zm9.525 0l-9.049 17h1.399l9.05-17h-1.4zm65.586 0c-2.25 0-3.725 1.875-3.725 5.15 0 3.325 1.475 5.2 3.725 5.2 2.225 0 3.727-1.875 3.727-5.2 0-3.275-1.502-5.15-3.727-5.15zm9.525 0l-9.048 17h1.398l9.05-17h-1.4zm65.586 0c-2.25 0-3.724 1.875-3.724 5.15 0 3.325 1.474 5.2 3.724 5.2 2.225 0 3.725-1.875 3.725-5.2 0-3.275-1.5-5.15-3.725-5.15zm9.526 0l-9.051 17h1.4l9.051-17h-1.4zm65.586 0c-2.25 0-3.725 1.875-3.725 5.15 0 3.325 1.475 5.2 3.725 5.2 2.225 0 3.724-1.875 3.724-5.2 0-3.275-1.5-5.15-3.724-5.15zm9.525 0l-9.05 17h1.4l9.05-17h-1.4zm-256.988.451c-3.175 0-6.074 2.475-6.074 8.875 0 5.125 2.375 7.674 5.5 7.674 2.575 0 4.724-2.075 4.724-5.125 0-3.275-1.8-4.924-4.55-4.924-1.3 0-2.725.775-3.725 2 .1-5.05 1.974-6.775 4.199-6.775 1 0 1.975.475 2.625 1.25l1.15-1.276c-.9-.975-2.124-1.699-3.85-1.699zm149.271 0c-2.575 0-4.523 1.65-4.523 4.1 0 1.675 1.05 2.848 2.224 3.673v.102c-1.5.8-3 2.224-3 4.299 0 2.525 2.225 4.375 5.225 4.375 3.1 0 5.15-1.875 5.15-4.25 0-2.15-1.35-3.275-2.775-4.1v-.1c.975-.75 2.2-2.174 2.2-3.849 0-2.475-1.726-4.25-4.5-4.25zm74.487 0c-2.55 0-4.7 2.075-4.7 5.125 0 3.275 1.776 4.924 4.526 4.924 1.325 0 2.75-.774 3.75-2.049-.075 5.1-1.975 6.85-4.225 6.85-1 0-1.975-.5-2.625-1.276l-1.15 1.301c.875.95 2.15 1.674 3.85 1.674 3.174 0 6.074-2.475 6.074-8.875 0-5.125-2.35-7.674-5.5-7.674zm-303.694.299l-.525 7.676 1.1.699c.95-.625 1.624-.975 2.724-.975 2.05 0 3.4 1.3 3.4 3.5 0 2.225-1.55 3.65-3.5 3.65-1.875 0-3.075-.875-4.025-1.825l-1 1.351c1.1 1.1 2.677 2.174 5.227 2.174 2.775 0 5.375-1.95 5.375-5.4s-2.227-5-4.952-5c-.975 0-1.699.25-2.449.65l.424-4.725h6.176v-1.775h-7.975zm12.403 0l-.526 7.676 1.1.699c.95-.625 1.624-.975 2.724-.975 2.05 0 3.4 1.3 3.4 3.5 0 2.225-1.55 3.65-3.5 3.65-1.874 0-3.075-.875-4.025-1.825l-1 1.351c1.1 1.1 2.677 2.174 5.227 2.174 2.775 0 5.375-1.95 5.375-5.4s-2.226-5-4.951-5c-.975 0-1.7.25-2.45.65l.424-4.725h6.176v-1.775h-7.974zm75.11 0l-.524 7.676 1.1.699c.95-.625 1.624-.975 2.724-.975 2.05 0 3.4 1.3 3.4 3.5 0 2.225-1.55 3.65-3.5 3.65-1.875 0-3.075-.875-4.025-1.825l-1 1.351c1.1 1.1 2.674 2.174 5.224 2.174 2.775 0 5.375-1.95 5.375-5.4s-2.224-5-4.949-5c-.975 0-1.7.25-2.45.65l.425-4.725h6.175v-1.775h-7.974zm61.358 0v1.775h7.951c-3.15 4.375-4.35 8.176-4.625 14.176h2.125c.275-6.225 1.05-9.85 4.825-14.676v-1.275h-10.276zm13.754 0l-.525 7.676 1.1.699c.95-.625 1.624-.975 2.724-.975 2.05 0 3.4 1.3 3.4 3.5 0 2.225-1.55 3.65-3.5 3.65-1.875 0-3.075-.875-4.025-1.825l-1 1.351c1.1 1.1 2.675 2.174 5.225 2.174 2.775 0 5.375-1.95 5.375-5.4s-2.225-5-4.95-5c-.975 0-1.699.25-2.449.65l.424-4.725h6.176v-1.775h-7.975zm75.11 0l-.524 7.676 1.1.699c.95-.625 1.624-.975 2.724-.975 2.05 0 3.4 1.3 3.4 3.5 0 2.225-1.55 3.65-3.5 3.65-1.874 0-3.075-.875-4.025-1.825l-1 1.351c1.1 1.1 2.675 2.174 5.225 2.174 2.775 0 5.375-1.95 5.375-5.4s-2.224-5-4.95-5c-.974 0-1.7.25-2.45.65l.425-4.725h6.176v-1.775h-7.976zm75.11 0l-.523 7.676 1.1.699c.95-.625 1.625-.975 2.725-.975 2.05 0 3.4 1.3 3.4 3.5 0 2.225-1.55 3.65-3.5 3.65-1.875 0-3.075-.875-4.025-1.825l-1 1.351c1.1 1.1 2.674 2.174 5.224 2.174 2.775 0 5.375-1.95 5.375-5.4s-2.224-5-4.949-5c-.975 0-1.701.25-2.451.65l.426-4.725h6.175v-1.775h-7.976zm-285.89.525c1.275 0 2.149 1.275 2.149 3.875s-.874 3.926-2.149 3.926c-1.3 0-2.175-1.326-2.175-3.926s.875-3.875 2.175-3.875zm75.11 0c1.275 0 2.15 1.275 2.15 3.875s-.875 3.926-2.15 3.926c-1.3 0-2.174-1.326-2.174-3.926s.874-3.875 2.174-3.875zm75.111 0c1.275 0 2.15 1.275 2.15 3.875s-.875 3.926-2.15 3.926c-1.3 0-2.174-1.326-2.174-3.926s.874-3.875 2.174-3.875zm75.111 0c1.275 0 2.15 1.275 2.15 3.875s-.875 3.926-2.15 3.926c-1.3 0-2.173-1.326-2.173-3.926s.873-3.875 2.173-3.875zm75.112 0c1.275 0 2.15 1.275 2.15 3.875s-.875 3.926-2.15 3.926c-1.3 0-2.174-1.326-2.174-3.926s.874-3.875 2.174-3.875zm-98.24.7c1.75 0 2.775 1.25 2.775 2.826 0 1.175-.601 2.249-1.676 3.199-1.925-.75-3.676-1.55-3.676-3.45 0-1.55 1.101-2.575 2.576-2.575zm74.535.101c2.025 0 3.25 1.65 3.525 4.75-1.025 1.5-2.3 2.125-3.35 2.125-1.975 0-2.949-1.3-2.949-3.375 0-2.1 1.224-3.5 2.774-3.5zm-265.315 4.574c-2.25 0-3.724 1.876-3.724 5.15 0 3.326 1.474 5.2 3.724 5.2 2.225 0 3.725-1.874 3.725-5.2 0-3.274-1.5-5.15-3.725-5.15zm75.111 0c-2.25 0-3.724 1.876-3.724 5.15 0 3.326 1.474 5.2 3.724 5.2 2.225 0 3.725-1.874 3.725-5.2 0-3.274-1.5-5.15-3.725-5.15zm75.112 0c-2.25 0-3.725 1.876-3.725 5.15 0 3.326 1.475 5.2 3.725 5.2 2.225 0 3.724-1.874 3.724-5.2 0-3.274-1.5-5.15-3.724-5.15zm75.111 0c-2.25 0-3.725 1.876-3.725 5.15 0 3.326 1.475 5.2 3.725 5.2 2.225 0 3.725-1.874 3.725-5.2 0-3.274-1.5-5.15-3.725-5.15zm75.111 0c-2.25 0-3.724 1.876-3.724 5.15 0 3.326 1.474 5.2 3.724 5.2 2.225 0 3.725-1.874 3.725-5.2 0-3.274-1.5-5.15-3.725-5.15zm-300.445 1.276c1.275 0 2.15 1.275 2.15 3.875s-.875 3.923-2.15 3.923c-1.3 0-2.174-1.323-2.174-3.923s.874-3.875 2.174-3.875zm75.111 0c1.275 0 2.15 1.275 2.15 3.875s-.875 3.923-2.15 3.923c-1.3 0-2.175-1.323-2.175-3.923s.875-3.875 2.175-3.875zm75.112 0c1.275 0 2.15 1.275 2.15 3.875s-.875 3.923-2.15 3.923c-1.3 0-2.176-1.323-2.176-3.923s.876-3.875 2.176-3.875zm75.111 0c1.275 0 2.15 1.275 2.15 3.875s-.875 3.923-2.15 3.923c-1.3 0-2.176-1.323-2.176-3.923s.876-3.875 2.176-3.875zm75.111 0c1.275 0 2.15 1.275 2.15 3.875s-.875 3.923-2.15 3.923c-1.3 0-2.175-1.323-2.175-3.923s.875-3.875 2.175-3.875zm-259.638.574c1.975 0 2.949 1.3 2.949 3.375 0 2.1-1.198 3.5-2.773 3.5-2.025 0-3.25-1.675-3.5-4.776 1-1.474 2.299-2.1 3.324-2.1zm148.797.451c2.3.925 4.326 1.675 4.326 3.725 0 1.65-1.275 2.798-3.125 2.798-1.95 0-3.426-1.273-3.426-3.048 0-1.45.95-2.625 2.225-3.475z"/>
</svg>
