<svg xmlns="http://www.w3.org/2000/svg" viewBox="0 0 750 75">
  <path fill="#f2f2f2" d="M0 0h75v75H0z"/>
  <path fill="#e8e8e8" d="M75 0h75v75H75z"/>
  <path fill="#d6d6d6" d="M150 0h75v75h-75z"/>
  <path fill="#bababa" d="M225 0h75v75h-75z"/>
  <path fill="#949494" d="M300 0h75v75h-75z"/>
  <path fill="#6b6b6b" d="M375 0h75v75h-75z"/>
  <path fill="#454545" d="M450 0h75v75h-75z"/>
  <path fill="#292929" d="M525 0h75v75h-75z"/>
  <path fill="#171717" d="M600 0h75v75h-75z"/>
  <path fill="#0d0d0d" d="M675 0h75v75h-75z"/>
  <path fill="#000" d="M73.2324 8.7266c-2.1675 0-3.9941 1.763-3.9941 4.3554 0 2.7838 1.5082 4.1856 3.8457 4.1856 1.1262 0 2.3375-.6585 3.1875-1.7422-.0638 4.335-1.6793 5.8223-3.5918 5.8223-.85 0-1.678-.4233-2.2305-1.082l-.9785 1.1034c.7438.8075 1.8284 1.4239 3.2734 1.4239 2.6988 0 5.1641-2.103 5.1641-7.543 0-4.3562-1.9983-6.5234-4.6758-6.5234zm10.5645 0c-1.7638 0-2.9753.828-4.1016 2.0605l.998.998c.7863-.9137 1.7644-1.6347 2.8907-1.6347 1.7212 0 2.5703 1.105 2.5703 2.6562 0 2.1888-2.295 4.6327-6.375 8.6914v1.041h8.7559v-1.5097h-3.9317c-.7012 0-1.5297.0632-2.2734.127 3.2087-3.3576 5.5254-5.8856 5.5254-8.4356 0-2.4012-1.5511-3.9941-4.0586-3.9941zm64.8242 0c-2.1675 0-3.9942 1.763-3.9942 4.3554 0 2.7838 1.5083 4.1856 3.8458 4.1856 1.1262 0 2.3375-.6585 3.1875-1.7422-.0637 4.335-1.6793 5.8223-3.5918 5.8223-.85 0-1.678-.4233-2.2305-1.082l-.9766 1.1034c.7438.8075 1.8265 1.4239 3.2715 1.4239 2.6988 0 5.164-2.103 5.164-7.543 0-4.3562-1.9982-6.5234-4.6757-6.5234zm10.5644 0c-1.7637 0-2.9753.828-4.1015 2.0605l.998.998c.7863-.9137 1.7644-1.6347 2.8907-1.6347 1.7212 0 2.5703 1.105 2.5703 2.6562 0 2.1888-2.295 4.6327-6.375 8.6914v1.041h8.7558v-1.5097h-3.9316c-.7013 0-1.5297.0632-2.2734.127 3.2087-3.3576 5.5253-5.8856 5.5253-8.4356 0-2.4012-1.551-3.9941-4.0585-3.9941zm64.8243 0c-2.1675 0-3.9942 1.763-3.9942 4.3554 0 2.7838 1.5082 4.1856 3.8457 4.1856 1.1263 0 2.3375-.6585 3.1875-1.7422-.0637 4.335-1.6773 5.8223-3.5898 5.8223-.85 0-1.68-.4233-2.2324-1.082l-.9766 1.1034c.7438.8075 1.8265 1.4239 3.2715 1.4239 2.6987 0 5.164-2.103 5.164-7.543 0-4.3562-1.9982-6.5234-4.6757-6.5234zm10.5644 0c-1.7637 0-2.9753.828-4.1015 2.0605l.998.998c.7862-.9137 1.7644-1.6347 2.8906-1.6347 1.7213 0 2.5703 1.105 2.5703 2.6562 0 2.1888-2.295 4.6327-6.375 8.6914v1.041h8.7559v-1.5097h-3.9316c-.7013 0-1.5297.0632-2.2735.127 3.2088-3.3576 5.5254-5.8856 5.5254-8.4356 0-2.4012-1.551-3.9941-4.0586-3.9941zm64.8262 0c-2.1675 0-3.9961 1.763-3.9961 4.3554 0 2.7838 1.5082 4.1856 3.8457 4.1856 1.1263 0 2.3375-.6585 3.1875-1.7422-.0638 4.335-1.6773 5.8223-3.5898 5.8223-.85 0-1.68-.4233-2.2325-1.082l-.9765 1.1034c.7437.8075 1.8265 1.4239 3.2715 1.4239 2.6987 0 5.164-2.103 5.164-7.543 0-4.3562-1.9963-6.5234-4.6738-6.5234zm10.5625 0c-1.7638 0-2.9753.828-4.1016 2.0605l.998.998c.7863-.9137 1.7644-1.6347 2.8907-1.6347 1.7212 0 2.5723 1.105 2.5723 2.6562 0 2.1888-2.295 4.6327-6.375 8.6914v1.041h8.7539v-1.5097h-3.9317c-.7012 0-1.5297.0632-2.2734.127 3.2087-3.3576 5.5254-5.8856 5.5254-8.4356 0-2.4012-1.5511-3.9941-4.0586-3.9941zm-252.2031.2539c-.7438.4462-1.6367.7875-2.8692 1v1.125h2.4649v9.9883h-3.1016v1.4453h7.6504v-1.4454h-2.8066V8.9805h-1.338zm37.875 0l-5.8008 8.6699v1.1484h6.0976v3.7403h1.6582v-3.7403h1.8477v-1.4023h-1.8477v-8.416h-1.955zm37.5136 0c-.7437.4462-1.6366.7875-2.8691 1v1.125h2.4648v9.9883h-3.1015v1.4453h7.6504v-1.4454h-2.8047V8.9805h-1.3399zm37.875 0l-5.8007 8.6699v1.1484h6.0976v3.7403h1.6582v-3.7403h1.8477v-1.4023h-1.8477v-8.416h-1.955zm37.5137 0c-.7437.4462-1.6366.7875-2.8691 1v1.125h2.4668v9.9883h-3.1036v1.4453h7.6504v-1.4454h-2.8047V8.9805h-1.3398zm37.875 0l-5.8008 8.6699v1.1484h6.0977v3.7403h1.6582v-3.7403h1.8476v-1.4023h-1.8476v-8.416h-1.955zm37.5137 0c-.7438.4462-1.6347.7875-2.8672 1v1.125h2.4648v9.9883H280.42v1.4453h7.6504v-1.4454h-2.8047V8.9805h-1.3398zm37.875 0L316 17.6504v1.1484h6.0977v3.7403h1.6582v-3.7403h1.8496v-1.4023h-1.8496v-8.416h-1.9551zm-248.5684 1.127c1.7213 0 2.7624 1.402 2.9961 4.037-.8712 1.275-1.9551 1.8067-2.8476 1.8067-1.6788 0-2.5059-1.1054-2.5059-2.8692 0-1.785 1.04-2.9746 2.3574-2.9746zm75.3887 0c1.7212 0 2.7623 1.402 2.996 4.037-.8712 1.275-1.955 1.8067-2.8476 1.8067-1.6787 0-2.5058-1.1054-2.5058-2.8692 0-1.785 1.0399-2.9746 2.3574-2.9746zm75.3887 0c1.7212 0 2.7623 1.402 2.996 4.037-.8712 1.275-1.9531 1.8067-2.8456 1.8067-1.6788 0-2.5079-1.1054-2.5079-2.8692 0-1.785 1.04-2.9746 2.3575-2.9746zm75.3906 0c1.7212 0 2.7623 1.402 2.996 4.037-.8712 1.275-1.955 1.8067-2.8476 1.8067-1.6787 0-2.5078-1.1054-2.5078-2.8692 0-1.785 1.0419-2.9746 2.3594-2.9746zm-203.4473.744h.084c-.0425.7226-.1055 1.8908-.1055 2.6133v3.9317h-4.25l3.166-4.6328c.3826-.6588.7655-1.2534 1.1055-1.9121zm75.3887 0h.086c-.0426.7226-.1075 1.8908-.1075 2.6133v3.9317h-4.25l3.166-4.6328c.3825-.6588.7655-1.2534 1.1055-1.9121zm75.3887 0h.086c-.0426.7226-.1075 1.8908-.1075 2.6133v3.9317h-4.25l3.166-4.6328c.3825-.6588.7655-1.2534 1.1055-1.9121zm75.3886 0h.086c-.0425.7226-.1074 1.8908-.1074 2.6133v3.9317h-4.25l3.168-4.6328c.3824-.6588.7634-1.2534 1.1034-1.9121zm-278.0879.3614l-.9355.955 3.293 3.3575-3.293 3.3789.9355.957 3.293-3.4004 3.2715 3.4004.9355-.957-3.293-3.379 3.293-3.3573-.9355-.9551-3.2715 3.3789-3.293-3.379zm75.3887 0l-.9355.955 3.293 3.3575-3.293 3.3789.9355.957 3.293-3.4004 3.2734 3.4004.9336-.957-3.293-3.379 3.293-3.3573-.9336-.9551-3.2734 3.3789-3.293-3.379zm75.3887 0l-.9356.955 3.293 3.3575-3.293 3.3789.9356.957 3.293-3.4004 3.2734 3.4004.9336-.957-3.293-3.379 3.293-3.3573-.9336-.9551-3.2734 3.3789-3.293-3.379zm75.3887 0l-.9356.955 3.295 3.3575-3.295 3.3789.9356.957 3.293-3.4004 3.2734 3.4004.9336-.957-3.293-3.379 3.293-3.3573-.9336-.9551-3.2735 3.3789-3.293-3.379zM65.8574 20.1152c-.7012 0-1.2949.4675-1.2949 1.2325 0 .7862.574 1.2128 1.254 1.2128.0637 0 .147-.0001.2108-.0214.0213 1.1261-.7008 2.0605-1.912 2.5918l.4257 1.0195c1.7213-.7225 2.7832-2.1452 2.7832-3.9727 0-1.275-.553-2.0625-1.4668-2.0625zm75.3887 0c-.7013 0-1.295.4675-1.295 1.2325 0 .7862.574 1.2128 1.254 1.2128.0637 0 .1472-.0001.211-.0214.0211 1.1261-.701 2.0605-1.9122 2.5918l.4258 1.0195c1.7212-.7225 2.7832-2.1452 2.7832-3.9727 0-1.275-.553-2.0625-1.4668-2.0625zm75.3906 0c-.7012 0-1.2969.4675-1.2969 1.2325 0 .7862.574 1.2128 1.254 1.2128.0637 0 .149-.0001.2128-.0214.0212 1.1261-.7028 2.0605-1.914 2.5918l.4258 1.0195c1.7212-.7225 2.7832-2.1452 2.7832-3.9727 0-1.275-.5511-2.0625-1.4649-2.0625zm75.3887 0c-.7013 0-1.2969.4675-1.2969 1.2325 0 .7862.574 1.2128 1.254 1.2128.0636 0 .149-.0001.2128-.0214.0213 1.1261-.7009 2.0605-1.9121 2.5918l.4238 1.0195c1.7213-.7225 2.7832-2.1452 2.7832-3.9727 0-1.275-.551-2.0625-1.4648-2.0625zM18.3945 40.7461c-3.74 0-6.2422 3.0522-6.2422 8.9922s2.5022 9.1308 6.2422 9.1308 6.2422-3.1908 6.2422-9.1308c0-5.94-2.5022-8.9922-6.2422-8.9922zm22.7735 0c-3.74 0-6.2422 3.0522-6.2422 8.9922s2.5022 9.1308 6.2422 9.1308 6.2422-3.1908 6.2422-9.1308c0-5.94-2.5022-8.9922-6.2422-8.9922zm52.3379 0c-3.74 0-6.2422 3.0522-6.2422 8.9922s2.5022 9.1308 6.2422 9.1308 6.2421-3.1908 6.2421-9.1308c0-5.94-2.5021-8.9922-6.2421-8.9922zm37.2754 0c-3.74 0-6.2422 3.0522-6.2422 8.9922s2.5022 9.1308 6.2421 9.1308c3.74 0 6.2422-3.1908 6.2422-9.1308 0-5.94-2.5022-8.9922-6.2422-8.9922zm37.8359 0c-3.74 0-6.2422 3.0522-6.2422 8.9922s2.5022 9.1308 6.2422 9.1308 6.2422-3.1908 6.2422-9.1308c0-5.94-2.5022-8.9922-6.2422-8.9922zm36.752 0c-3.1626 0-5.8028 2.2274-5.8028 5.8574 0 3.685 2.2292 5.3906 5.1992 5.3906 1.0725 0 2.5847-.6887 3.4922-1.8437-.1375 4.07-1.651 5.4453-3.6035 5.4453-1.0175 0-2.1178-.5763-2.6953-1.2363l-2.1446 2.4199c1.1 1.1 2.8053 2.0898 5.1153 2.0898 3.6575 0 7.0684-2.9434 7.0684-9.4609 0-6.1325-3.2465-8.6621-6.629-8.6621zm38.3593 0c-3.74 0-6.2422 3.0522-6.2422 8.9922s2.5022 9.1308 6.2422 9.1308 6.2422-3.1908 6.2422-9.1308c0-5.94-2.5022-8.9922-6.2422-8.9922zm22.1133 0c-2.145 0-3.905.8516-5.5 2.2266l2.0352 2.4765c1.1-.9625 2.034-1.541 3.2714-1.541 1.375 0 2.1446.7158 2.1446 1.9258 0 1.4025-.99 2.3379-4.125 2.3379v2.8593c3.795 0 4.703.962 4.703 2.502 0 1.32-1.127 2.0625-2.832 2.0625-1.485 0-2.7772-.7423-3.8222-1.7598l-1.8711 2.5567c1.265 1.485 3.2456 2.4765 6.0781 2.4765 3.52 0 6.4903-1.8429 6.4903-5.0879 0-2.255-1.4574-3.6861-3.4649-4.2636v-.1094c1.87-.7975 2.914-2.062 2.914-3.877 0-3.0525-2.4189-4.7851-6.0214-4.7851zm52.998 0c-3.74 0-6.2441 3.0522-6.2441 8.9922s2.5041 9.1308 6.2441 9.1308 6.2422-3.1908 6.2422-9.1308c0-5.94-2.5022-8.9922-6.2422-8.9922zm36.6973 0c-2.5025 0-4.125.9348-5.8574 2.7773l2.1992 2.172c.88-.935 1.8424-1.7872 3.1074-1.7872 1.5125 0 2.4766.9356 2.4766 2.6406 0 2.475-3.1368 5.4722-7.5918 9.6797v2.3106h12.293v-3.4102h-3.5196c-.825 0-2.036.1088-2.916.2188 2.8325-2.97 5.584-6.1044 5.584-9.047 0-3.355-2.3379-5.5546-5.7754-5.5546zm-304.625.33l-.4941 8.8282 1.8144 1.1543c1.045-.66 1.5685-.8809 2.586-.8809 1.6225 0 2.75.9353 2.75 2.6953 0 1.7875-1.1559 2.7227-2.9434 2.7227-1.485 0-2.7226-.77-3.7676-1.7324l-1.8144 2.5586c1.375 1.375 3.3001 2.4472 6.1601 2.4472 3.41 0 6.4063-2.228 6.4063-6.1054 0-3.7125-2.5572-5.418-5.5547-5.418-.715 0-1.2931.1096-1.9531.4121l.3027-3.2715h6.4082v-3.4101h-9.9004zm64.9004 0c-1.2375.7426-2.4482 1.2383-4.3457 1.5958v2.502h3.2715v10.0917h-3.795v3.2735h11.1114v-3.2735h-3.2734V41.0762h-2.9688zm75.1094 0c-1.2375.7426-2.4463 1.2383-4.3438 1.5958v2.502h3.2715v10.0917h-3.795v3.2735h11.1114v-3.2735h-3.2734V41.0762h-2.9707zm84.0312 0v3.4102h7.838c-3.3 4.565-4.3459 8.2503-4.6759 14.0528h4.0703c.3025-6.82.8794-10.0933 4.922-14.9883v-2.4746H274.953zm60.6094 0v3.4102h7.8379c-3.3 4.565-4.3458 8.2503-4.6758 14.0528h4.0703c.3025-6.82.8794-10.0933 4.9219-14.9883v-2.4746h-12.1543zm-130.1094 2.6954c1.2375 0 2.3632.8789 2.7207 3.6289-.6875 1.2375-1.7038 1.7324-2.6113 1.7324-1.32 0-2.3106-.6868-2.3106-2.5293 0-1.98 1.0187-2.832 2.2012-2.832zm-187.0586.1094c1.375 0 2.42 1.0724 2.42 5.8574 0 4.7575-1.045 5.996-2.42 5.996-1.3475 0-2.4199-1.2385-2.4199-5.996 0-4.785 1.0724-5.8574 2.42-5.8574zm22.7735 0c1.375 0 2.4199 1.0724 2.4199 5.8574 0 4.7575-1.045 5.996-2.42 5.996-1.3474 0-2.4199-1.2385-2.4199-5.996 0-4.785 1.0725-5.8574 2.42-5.8574zm52.3379 0c1.375 0 2.4199 1.0724 2.4199 5.8574 0 4.7575-1.045 5.996-2.42 5.996-1.3474 0-2.4199-1.2385-2.4199-5.996 0-4.785 1.0725-5.8574 2.42-5.8574zm37.2754 0c1.375 0 2.4199 1.0724 2.4199 5.8574 0 4.7575-1.045 5.996-2.42 5.996-1.3475 0-2.4199-1.2385-2.4199-5.996 0-4.785 1.0725-5.8574 2.42-5.8574zm37.8359 0c1.375 0 2.42 1.0724 2.42 5.8574 0 4.7575-1.045 5.996-2.42 5.996-1.3475 0-2.42-1.2385-2.42-5.996 0-4.785 1.0725-5.8574 2.42-5.8574zm75.1113 0c1.375 0 2.42 1.0724 2.42 5.8574 0 4.7575-1.045 5.996-2.42 5.996-1.3475 0-2.42-1.2385-2.42-5.996 0-4.785 1.0725-5.8574 2.42-5.8574zm75.1113 0c1.375 0 2.42 1.0724 2.42 5.8574 0 4.7575-1.045 5.996-2.42 5.996-1.3475 0-2.4199-1.2385-2.4199-5.996 0-4.785 1.0724-5.8574 2.42-5.8574zM29.8711 53.7813c-1.4025 0-2.5293.908-2.5293 2.3105 0 1.4575 1.1548 2.2812 2.4473 2.2812h.2207c.0275 1.375-1.0725 2.6405-3.1075 3.3555l.8243 2.1445c3.2175-.9625 4.9492-3.2445 4.9492-6.2695 0-2.3925-.9897-3.8222-2.8047-3.8222zm75.1113 0c-1.4025 0-2.5293.908-2.5293 2.3105 0 1.4575 1.1548 2.2812 2.4473 2.2812h.2207c.0275 1.375-1.0744 2.6405-3.1094 3.3555l.8262 2.1445c3.2175-.9625 4.9492-3.2445 4.9492-6.2695 0-2.3925-.9897-3.8222-2.8047-3.8222zm75.1114 0c-1.4025 0-2.5293.908-2.5293 2.3105 0 1.4575 1.1547 2.2812 2.4472 2.2812h.2188c.0275 1.375-1.0725 2.6405-3.1075 3.3555l.8262 2.1445c3.2175-.9625 4.9492-3.2445 4.9492-6.2695 0-2.3925-.9897-3.8222-2.8047-3.8222zm75.1113 0c-1.4025 0-2.5293.908-2.5293 2.3105 0 1.4575 1.1547 2.2812 2.4472 2.2812h.2188c.0275 1.375-1.0724 2.6405-3.1074 3.3555l.8262 2.1445c3.2175-.9625 4.9492-3.2445 4.9492-6.2695 0-2.3925-.9897-3.8222-2.8047-3.8222zm75.1113 0c-1.4025 0-2.5312.908-2.5312 2.3105 0 1.4575 1.1567 2.2812 2.4492 2.2812h.2187c.0275 1.375-1.0724 2.6405-3.1074 3.3555l.8262 2.1445c3.2175-.9625 4.9492-3.2445 4.9492-6.2695 0-2.3925-.9897-3.8222-2.8047-3.8222z"/>
  <path fill="#fff" d="M374.789 8.7266c-2.1674 0-3.996 1.763-3.996 4.3554 0 2.7838 1.5082 4.1856 3.8457 4.1856 1.1262 0 2.3375-.6585 3.1875-1.7422-.0638 4.335-1.6774 5.8223-3.5899 5.8223-.85 0-1.6799-.4233-2.2324-1.082l-.9766 1.1034c.7438.8075 1.8265 1.4239 3.2715 1.4239 2.6988 0 5.164-2.103 5.164-7.543 0-4.3562-1.9962-6.5234-4.6737-6.5234zm10.5626 0c-1.7638 0-2.9753.828-4.1016 2.0605l1 .998c.7862-.9137 1.7624-1.6347 2.8887-1.6347 1.7212 0 2.5722 1.105 2.5722 2.6562 0 2.1888-2.295 4.6327-6.375 8.6914v1.041h8.754v-1.5097h-3.9317c-.7013 0-1.5297.0632-2.2734.127 3.2087-3.3576 5.5254-5.8856 5.5254-8.4356 0-2.4012-1.5511-3.9941-4.0586-3.9941zm64.8261 0c-2.1675 0-3.996 1.763-3.996 4.3554 0 2.7838 1.5101 4.1856 3.8476 4.1856 1.1263 0 2.3375-.6585 3.1875-1.7422-.0637 4.335-1.6793 5.8223-3.5918 5.8223-.85 0-1.68-.4233-2.2324-1.082l-.9766 1.1034c.7438.8075 1.8284 1.4239 3.2735 1.4239 2.6987 0 5.162-2.103 5.162-7.543 0-4.3562-1.9963-6.5234-4.6738-6.5234zm10.5625 0c-1.7637 0-2.9753.828-4.1015 2.0605l1 .998c.7862-.9137 1.7624-1.6347 2.8886-1.6347 1.7213 0 2.5723 1.105 2.5723 2.6562 0 2.1888-2.295 4.6327-6.375 8.6914v1.041h8.754v-1.5097h-3.9298c-.7012 0-1.5316.0632-2.2754.127 3.2088-3.3576 5.5254-5.8856 5.5254-8.4356 0-2.4012-1.551-3.9941-4.0586-3.9941zm64.8262 0c-2.1675 0-3.996 1.763-3.996 4.3554 0 2.7838 1.51 4.1856 3.8476 4.1856 1.1262 0 2.3375-.6585 3.1875-1.7422-.0638 4.335-1.6793 5.8223-3.5918 5.8223-.85 0-1.678-.4233-2.2305-1.082l-.9785 1.1034c.7437.8075 1.8284 1.4239 3.2734 1.4239 2.6988 0 5.1621-2.103 5.1621-7.543 0-4.3562-1.9963-6.5234-4.6738-6.5234zm10.5625 0c-1.7637 0-2.9753.828-4.1016 2.0605l1 .998c.7863-.9137 1.7625-1.6347 2.8887-1.6347 1.7213 0 2.5723 1.105 2.5723 2.6562 0 2.1888-2.295 4.6327-6.375 8.6914v1.041h8.7539v-1.5097h-3.9297c-.7012 0-1.5297.0632-2.2734.127 3.2087-3.3576 5.5234-5.8856 5.5234-8.4356 0-2.4012-1.551-3.9941-4.0586-3.9941zm64.8262 0c-2.1675 0-3.9942 1.763-3.9942 4.3554 0 2.7838 1.5082 4.1856 3.8457 4.1856 1.1263 0 2.3375-.6585 3.1875-1.7422-.0638 4.335-1.6793 5.8223-3.5918 5.8223-.85 0-1.678-.4233-2.2304-1.082l-.9785 1.1034c.7437.8075 1.8284 1.4239 3.2734 1.4239 2.6988 0 5.164-2.103 5.164-7.543 0-4.3562-1.9982-6.5234-4.6757-6.5234zm10.5625 0c-1.7638 0-2.9753.828-4.1016 2.0605l1 .998c.7863-.9137 1.7644-1.6347 2.8906-1.6347 1.7213 0 2.5703 1.105 2.5703 2.6562 0 2.1888-2.295 4.6327-6.375 8.6914v1.041h8.756v-1.5097h-3.9317c-.7013 0-1.5297.0632-2.2735.127 3.2088-3.3576 5.5235-5.8856 5.5235-8.4356 0-2.4012-1.5511-3.9941-4.0586-3.9941zm64.8261 0c-2.1675 0-3.994 1.763-3.994 4.3554 0 2.7838 1.5081 4.1856 3.8456 4.1856 1.1263 0 2.3375-.6585 3.1875-1.7422-.0638 4.335-1.6793 5.8223-3.5918 5.8223-.85 0-1.678-.4233-2.2305-1.082l-.9785 1.1034c.7438.8075 1.8285 1.4239 3.2735 1.4239 2.6987 0 5.164-2.103 5.164-7.543 0-4.3562-1.9982-6.5234-4.6757-6.5234zm10.5625 0c-1.7637 0-2.9733.828-4.0996 2.0605l.998.998c.7863-.9137 1.7645-1.6347 2.8907-1.6347 1.7213 0 2.5703 1.105 2.5703 2.6562 0 2.1888-2.295 4.6327-6.375 8.6914v1.041h8.7559v-1.5097h-3.9317c-.7012 0-1.5296.0632-2.2734.127 3.2088-3.3576 5.5254-5.8856 5.5254-8.4356 0-2.4012-1.553-3.9941-4.0606-3.9941zm-327.5917.2539c-.7438.4462-1.6347.7875-2.8672 1v1.125h2.4648v9.9883h-3.1035v1.4453h7.6504v-1.4454h-2.8047V8.9805h-1.3398zm37.875 0l-5.8008 8.6699v1.1484h6.0996v3.7403h1.6562v-3.7403h1.8496v-1.4023h-1.8496v-8.416h-1.955zm37.5156 0c-.7438.4462-1.6367.7875-2.8692 1v1.125h2.4649v9.9883h-3.1035v1.4453h7.6504v-1.4454h-2.8047V8.9805h-1.338zm37.873 0l-5.8008 8.6699v1.1484h6.0996v3.7403h1.6563v-3.7403h1.8496v-1.4023h-1.8496v-8.416h-1.955zm37.5156 0c-.7437.4462-1.6366.7875-2.869 1v1.125h2.4648v9.9883h-3.1036v1.4453h7.6504v-1.4454h-2.8047V8.9805h-1.3379zm37.8731 0l-5.8008 8.6699v1.1484h6.0996v3.7403h1.6563v-3.7403h1.8496v-1.4023h-1.8496v-8.416h-1.9551zm37.5156 0c-.7437.4462-1.6366.7875-2.8691 1v1.125h2.4648v9.9883h-3.1015v1.4453h7.6484v-1.4454h-2.8047V8.9805h-1.3379zm37.875 0l-5.8027 8.6699v1.1484h6.0996v3.7403h1.6563v-3.7403h1.8496v-1.4023h-1.8496v-8.416h-1.9532zm37.5137 0c-.7438.4462-1.6366.7875-2.8691 1v1.125h2.4648v9.9883h-3.1016v1.4453h7.6504v-1.4454h-2.8066V8.9805h-1.338zm37.875 0l-5.8027 8.6699v1.1484h6.0996v3.7403h1.6582v-3.7403h1.8476v-1.4023h-1.8476v-8.416h-1.9551zm-323.957 1.127c1.7212 0 2.7623 1.402 2.996 4.037-.8712 1.275-1.9551 1.8067-2.8476 1.8067-1.6787 0-2.5078-1.1054-2.5078-2.8692 0-1.785 1.0419-2.9746 2.3594-2.9746zm75.3886 0c1.7213 0 2.7624 1.402 2.9961 4.037-.8712 1.275-1.9551 1.8067-2.8476 1.8067-1.6788 0-2.5078-1.1054-2.5078-2.8692 0-1.785 1.0418-2.9746 2.3593-2.9746zm75.3887 0c1.7213 0 2.7623 1.402 2.9961 4.037-.8713 1.275-1.9552 1.8067-2.8477 1.8067-1.6787 0-2.5078-1.1054-2.5078-2.8692 0-1.785 1.042-2.9746 2.3594-2.9746zm75.3887 0c1.7212 0 2.7623 1.402 2.996 4.037-.8712 1.275-1.955 1.8067-2.8476 1.8067-1.6787 0-2.5078-1.1054-2.5078-2.8692 0-1.785 1.0419-2.9746 2.3594-2.9746zm75.3886 0c1.7213 0 2.7624 1.402 2.9961 4.037-.8712 1.275-1.9551 1.8067-2.8476 1.8067-1.6788 0-2.5078-1.1054-2.5078-2.8692 0-1.785 1.0418-2.9746 2.3593-2.9746zm-278.8359.744h.086c-.0426.7226-.1055 1.8908-.1055 2.6133v3.9317h-4.25l3.166-4.6328c.3825-.6588.7635-1.2534 1.1035-1.9121zm75.3906 0h.084c-.0425.7226-.1054 1.8908-.1054 2.6133v3.9317h-4.25l3.166-4.6328c.3825-.6588.7654-1.2534 1.1054-1.9121zm75.3887 0h.084c-.0425.7226-.1055 1.8908-.1055 2.6133v3.9317h-4.25l3.166-4.6328c.3825-.6588.7655-1.2534 1.1055-1.9121zm75.3887 0h.084c-.0425.7226-.1055 1.8908-.1055 2.6133v3.9317h-4.25l3.166-4.6328c.3825-.6588.7655-1.2534 1.1055-1.9121zm75.3886 0h.084c-.0425.7226-.1054 1.8908-.1054 2.6133v3.9317h-4.25l3.166-4.6328c.3825-.6588.7655-1.2534 1.1055-1.9121zm-353.4785.3614l-.9355.955 3.295 3.3575-3.295 3.3789.9355.957 3.293-3.4004 3.2734 3.4004.9356-.957-3.295-3.379 3.295-3.3573-.9356-.9551-3.2734 3.3789-3.293-3.379zm75.3887 0l-.9355.955 3.2949 3.3575-3.295 3.3789.9356.957 3.293-3.4004 3.2734 3.4004.9356-.957-3.295-3.379 3.295-3.3573-.9356-.9551-3.2734 3.3789-3.293-3.379zm75.3887 0l-.9356.955 3.295 3.3575-3.295 3.3789.9356.957 3.2949-3.4004 3.2715 3.4004.9355-.957-3.2949-3.379 3.295-3.3573-.9356-.9551-3.2715 3.3789-3.295-3.379zm75.3886 0l-.9335.955 3.293 3.3575-3.293 3.3789.9335.957 3.295-3.4004 3.2715 3.4004.9355-.957-3.293-3.379 3.293-3.3573-.9355-.9551-3.2715 3.3789-3.295-3.379zm75.3887 0l-.9336.955 3.293 3.3575-3.293 3.3789.9336.957 3.295-3.4004 3.2714 3.4004.9356-.957-3.293-3.379 3.293-3.3573-.9356-.9551-3.2714 3.3789-3.295-3.379zm-279.7265 8.9023c-.7013 0-1.297.4675-1.297 1.2325 0 .7862.574 1.2128 1.254 1.2128.0638 0 .1491-.0001.2129-.0214.0212 1.1261-.7009 2.0605-1.9121 2.5918l.4238 1.0195c1.7212-.7225 2.7832-2.1452 2.7832-3.9727 0-1.275-.551-2.0625-1.4648-2.0625zm75.3886 0c-.7012 0-1.2968.4675-1.2968 1.2325 0 .7862.5739 1.2128 1.2539 1.2128.0638 0 .1491-.0001.2129-.0214.0212 1.1261-.7009 2.0605-1.9121 2.5918l.4238 1.0195c1.7212-.7225 2.7851-2.1452 2.7851-3.9727 0-1.275-.553-2.0625-1.4668-2.0625zm75.3887 0c-.7012 0-1.2969.4675-1.2969 1.2325 0 .7862.574 1.2128 1.254 1.2128.0637 0 .149-.0001.2128-.0214.0212 1.1261-.7008 2.0605-1.912 2.5918l.4238 1.0195c1.7212-.7225 2.7851-2.1452 2.7851-3.9727 0-1.275-.553-2.0625-1.4668-2.0625zm75.3887 0c-.7013 0-1.2969.4675-1.2969 1.2325 0 .7862.574 1.2128 1.254 1.2128.0637 0 .149-.0001.2128-.0214.0213 1.1261-.7009 2.0605-1.9121 2.5918l.4258 1.0195c1.7212-.7225 2.7832-2.1452 2.7832-3.9727 0-1.275-.553-2.0625-1.4668-2.0625zm75.3886 0c-.7012 0-1.2949.4675-1.2949 1.2325 0 .7862.572 1.2128 1.252 1.2128.0638 0 .1491-.0001.2129-.0214.0213 1.1261-.7009 2.0605-1.9121 2.5918l.4257 1.0195c1.7213-.7225 2.7833-2.1452 2.7833-3.9727 0-1.275-.5531-2.0625-1.4669-2.0625zM416.0645 40.7461c-2.145 0-3.905.8516-5.5 2.2266l2.0332 2.4765c1.1-.9625 2.0359-1.541 3.2734-1.541 1.375 0 2.1445.7158 2.1445 1.9258 0 1.4025-.99 2.3379-4.125 2.3379v2.8593c3.795 0 4.7031.962 4.7031 2.502 0 1.32-1.127 2.0625-2.832 2.0625-1.485 0-2.7773-.7423-3.8222-1.7598l-1.8711 2.5567c1.265 1.485 3.2456 2.4765 6.078 2.4765 3.52 0 6.4903-1.8429 6.4903-5.0879 0-2.255-1.4573-3.6861-3.4648-4.2636v-.1094c1.87-.7975 2.914-2.062 2.914-3.877 0-3.0525-2.419-4.7851-6.0214-4.7851zm14.6386 0c-3.1625 0-5.8027 2.2274-5.8027 5.8574 0 3.685 2.2273 5.3906 5.1973 5.3906 1.0725 0 2.5846-.6887 3.4921-1.8437-.1375 4.07-1.649 5.4453-3.6015 5.4453-1.0175 0-2.1178-.5763-2.6953-1.2363l-2.1446 2.4199c1.1 1.1 2.8053 2.0898 5.1153 2.0898 3.6575 0 7.0664-2.9434 7.0664-9.4609 0-6.1325-3.2445-8.6621-6.627-8.6621zm37.7813 0c-2.5025 0-4.125.9348-5.8574 2.7773l2.1992 2.172c.88-.935 1.8424-1.7872 3.1074-1.7872 1.5125 0 2.4746.9356 2.4746 2.6406 0 2.475-3.1348 5.4722-7.5898 9.6797v2.3106h12.293v-3.4102h-3.5196c-.825 0-2.036.1088-2.916.2188 2.8325-2.97 5.584-6.1044 5.584-9.047 0-3.355-2.338-5.5546-5.7754-5.5546zm24.2851 0c-3.685 0-7.0664 2.9415-7.0664 9.459 0 6.1325 3.2171 8.664 6.5996 8.664 3.1625 0 5.8028-2.2274 5.8028-5.8574 0-3.685-2.1998-5.3906-5.1973-5.3906-1.0725 0-2.5866.6868-3.4941 1.8418.1375-4.07 1.6785-5.4453 3.6035-5.4453 1.0175 0 2.1176.5783 2.7226 1.2383l2.1172-2.42c-1.1-1.1275-2.7779-2.0898-5.0879-2.0898zm125.9922 0c-3.1625 0-5.8027 2.2274-5.8027 5.8574 0 3.685 2.2273 5.3906 5.1973 5.3906 1.0725 0 2.5846-.6887 3.4921-1.8437-.1375 4.07-1.649 5.4453-3.6015 5.4453-1.0175 0-2.1178-.5763-2.6953-1.2363l-2.1446 2.4199c1.1 1.1 2.8033 2.0898 5.1133 2.0898 3.6575 0 7.0684-2.9434 7.0684-9.4609 0-6.1325-3.2445-8.6621-6.627-8.6621zm23.4063 0c-3.245 0-5.584 1.8425-5.584 4.8125 0 1.8425.9904 3.1075 2.3379 4.125v.1094c-1.65.88-2.9707 2.1735-2.9707 4.291 0 2.8325 2.5856 4.7851 6.0781 4.7851 3.7125 0 6.1875-2.0898 6.1875-4.8398 0-2.31-1.3479-3.659-3.0254-4.5664v-.1094c1.21-.7975 2.2832-2.1447 2.2832-3.8222 0-2.8876-2.1166-4.7852-5.3066-4.7852zm14.502 0c-3.245 0-5.584 1.8425-5.584 4.8125 0 1.8425.9903 3.1075 2.3378 4.125v.1094c-1.65.88-2.9707 2.1735-2.9707 4.291 0 2.8325 2.5857 4.7851 6.0782 4.7851 3.7124 0 6.1875-2.0898 6.1875-4.8398 0-2.31-1.348-3.659-3.0254-4.5664v-.1094c1.21-.7975 2.2832-2.1447 2.2832-3.8222 0-2.8876-2.1167-4.7852-5.3067-4.7852zm51.705 0c-3.1625 0-5.8027 2.2274-5.8027 5.8574 0 3.685 2.2272 5.3906 5.1972 5.3906 1.0725 0 2.5847-.6887 3.4922-1.8437-.1375 4.07-1.651 5.4453-3.6035 5.4453-1.0175 0-2.1159-.5763-2.6934-1.2363l-2.1464 2.4199c1.1 1.1 2.8052 2.0898 5.1152 2.0898 3.6575 0 7.0684-2.9434 7.0684-9.4609 0-6.1325-3.2445-8.6621-6.627-8.6621zm23.295 0c-3.74 0-6.2423 3.0522-6.2423 8.9922s2.5022 9.1308 6.2422 9.1308 6.2422-3.1908 6.2422-9.1308c0-5.94-2.5022-8.9922-6.2422-8.9922zm-338.1876.33c-1.2375.7426-2.4482 1.2383-4.3457 1.5958v2.502h3.2735v10.0917h-3.795v3.2735h11.1094v-3.2735h-3.2715V41.0762h-2.9707zm106.8047 0v3.4102h7.8379c-3.3 4.565-4.3458 8.2503-4.6758 14.0528h4.0703c.3025-6.82.8794-10.0933 4.922-14.9883v-2.4746H500.287zm39.127 0l-.4942 8.8282 1.8145 1.1543c1.045-.66 1.5684-.8809 2.586-.8809 1.6224 0 2.75.9353 2.75 2.6953 0 1.7875-1.156 2.7227-2.9434 2.7227-1.485 0-2.7226-.77-3.7676-1.7324l-1.8145 2.5586c1.375 1.375 3.3002 2.4472 6.1602 2.4472 3.41 0 6.4082-2.228 6.4082-6.1054 0-3.7125-2.5592-5.418-5.5567-5.418-.715 0-1.2911.1096-1.9511.4121l.3027-3.2715h6.4063v-3.4101h-9.9004zm27.0644 0c-1.2375.7426-2.4482 1.2383-4.3457 1.5958v2.502h3.2735v10.0917h-3.795v3.2735h11.1094v-3.2735h-3.2715V41.0762h-2.9707zm14.6113 0l-6.3789 10.504v2.7793h7.5625v4.1797h3.7676v-4.1797h2.0078v-3.0801h-2.0078V41.0762h-4.9512zm112.838 0c-1.2376.7426-2.4483 1.2383-4.3458 1.5958v2.502h3.2735v10.0917h-3.795v3.2735H700.17v-3.2735h-3.2734V41.0762h-2.9688zm-51.8438 2.4747c1.32 0 2.1172.9083 2.1172 2.2558 0 .9075-.3848 1.7592-1.0723 2.5567-1.7875-.6875-2.996-1.3747-2.996-2.8047 0-1.3475.8786-2.0078 1.951-2.0078zm14.502 0c1.32 0 2.1171.9083 2.1171 2.2558 0 .9075-.3847 1.7592-1.0722 2.5567-1.7875-.6875-2.9961-1.3747-2.9961-2.8047 0-1.3475.8786-2.0078 1.9511-2.0078zm-225.8008.2207c1.2375 0 2.3651.8789 2.7226 3.6289-.6875 1.2375-1.7038 1.7324-2.6113 1.7324-1.32 0-2.3106-.6868-2.3106-2.5293 0-1.98 1.0168-2.832 2.1993-2.832zm188.0586 0c1.2374 0 2.3651.8789 2.7226 3.6289-.6875 1.2375-1.7058 1.7324-2.6133 1.7324-1.32 0-2.3086-.6868-2.3086-2.5293 0-1.98 1.0168-2.832 2.1993-2.832zm89.6132 0c1.2375 0 2.3652.8789 2.7227 3.6289-.6875 1.2375-1.7058 1.7324-2.6133 1.7324-1.32 0-2.3105-.6868-2.3105-2.5293 0-1.98 1.0186-2.832 2.2011-2.832zm23.213.1094c1.375 0 2.4198 1.0724 2.4198 5.8574 0 4.7575-1.0449 5.996-2.4199 5.996-1.3475 0-2.4199-1.2385-2.4199-5.996 0-4.785 1.0724-5.8574 2.42-5.8574zm-149.3419.6601h.1094c-.055 1.1-.164 2.7768-.164 3.9043v2.834h-3.6856l2.3105-3.795c.495-.99.9897-1.9808 1.4297-2.9433zm-90.1914 5.9395c1.32 0 2.2832.6887 2.2832 2.5312 0 1.98-.9892 2.832-2.1992 2.832s-2.3652-.8808-2.7227-3.6308c.715-1.2375 1.7312-1.7324 2.6387-1.7324zm148.627.3574c2.2.935 3.6855 1.5127 3.6855 3.0527 0 1.4575-.9904 2.1719-2.3379 2.1719-1.4575 0-2.6933-.9073-2.6933-2.4473 0-1.0725.5757-2.0623 1.3457-2.7773zm14.502 0c2.2.935 3.6855 1.5127 3.6855 3.0527 0 1.4575-.9904 2.1719-2.338 2.1719-1.4574 0-2.6933-.9073-2.6933-2.4473 0-1.0725.5757-2.0623 1.3457-2.7773zm-249.838 2.9434c-1.4025 0-2.5312.908-2.5312 2.3105 0 1.4575 1.1547 2.2812 2.4472 2.2812h.2208c.0274 1.375-1.0725 2.6405-3.1075 3.3555l.8243 2.1445c3.2174-.9625 4.9511-3.2445 4.9511-6.2695 0-2.3925-.9897-3.8222-2.8047-3.8222zm75.1114 0c-1.4025 0-2.5313.908-2.5313 2.3105 0 1.4575 1.1548 2.2812 2.4473 2.2812h.2207c.0275 1.375-1.0724 2.6405-3.1074 3.3555l.8242 2.1445c3.2175-.9625 4.9511-3.2445 4.9511-6.2695 0-2.3925-.9896-3.8222-2.8046-3.8222zm75.1113 0c-1.4025 0-2.5313.908-2.5313 2.3105 0 1.4575 1.1548 2.2812 2.4473 2.2812h.2207c.0275 1.375-1.0724 2.6405-3.1074 3.3555l.8242 2.1445c3.2175-.9625 4.9512-3.2445 4.9512-6.2695 0-2.3925-.9897-3.8222-2.8047-3.8222zm75.1094 0c-1.4025 0-2.5293.908-2.5293 2.3105 0 1.4575 1.1547 2.2812 2.4472 2.2812h.2207c.0275 1.375-1.0724 2.6405-3.1074 3.3555l.8242 2.1445c3.2175-.9625 4.9512-3.2445 4.9512-6.2695 0-2.3925-.9916-3.8222-2.8066-3.8222zm89.6132 0c-1.4025 0-2.5293.908-2.5293 2.3105 0 1.4575 1.1548 2.2812 2.4473 2.2812h.2207c.0275 1.375-1.0724 2.6405-3.1074 3.3555l.8242 2.1445c3.2175-.9625 4.9492-3.2445 4.9492-6.2695 0-2.3925-.9896-3.8222-2.8046-3.8222z"/>
</svg>
