<svg xmlns="http://www.w3.org/2000/svg" width="750" height="375"><path style="isolation:auto;mix-blend-mode:normal;marker:none" d="M15 161.5h714.4V221H15z" color="#000" overflow="visible" fill="#10557d" fill-rule="evenodd"/><path d="M254 161.5l-58 29.7h29.8L167 221h482.3l-54-29.8h-29.7L499 161.5z" fill="#9ed4f3" fill-rule="evenodd"/><g style="line-height:125%;-inkscape-font-specification:'Open Sans';text-indent:0;text-align:start;text-decoration-line:none;text-decoration-style:solid;text-decoration-color:#000;text-transform:none;block-progression:tb;isolation:auto;mix-blend-mode:normal" color="#000" font-weight="600" font-size="10" font-family="Source Sans Pro" letter-spacing="0" word-spacing="0" white-space="normal" overflow="visible" stroke-width=".6" fill="#fff"><path d="M25.7 200H29v-7.6h3l4.2 7.6h3.9l-4.7-8c2.3-.9 3.9-2.7 3.9-5.7 0-4.3-3.1-5.7-7.1-5.7h-6.6V200zm3.4-10.3v-6.4H32c2.6 0 4.1.8 4.1 3 0 2.3-1.5 3.4-4.1 3.4H29zM49 200.4c1.8 0 3.6-.7 5-1.6l-1.2-2.1c-1 .7-2.2 1-3.4 1-2.4 0-4-1.4-4.3-4h9.3l.1-1.7c0-4-2-7-6-7-3.4 0-6.8 3-6.8 7.7 0 4.9 3.2 7.7 7.3 7.7zm-4-9c.4-2.4 1.8-3.7 3.6-3.7 2 0 3 1.4 3 3.6H45zM62.6 206.5c4.8 0 7.8-2.3 7.8-5.1 0-2.6-1.8-3.7-5.3-3.7h-2.6c-1.8 0-2.4-.5-2.4-1.3 0-.6.3-1 .7-1.4.7.3 1.4.4 2 .4 3 0 5.5-1.7 5.5-5 0-1-.3-1.9-.8-2.4h2.7v-2.6h-5.3c-.6-.2-1.3-.3-2.1-.3-3 0-5.8 1.8-5.8 5.2a5 5 0 0 0 2 3.9v.1c-1 .6-1.7 1.6-1.7 2.7 0 1.2.6 2 1.3 2.4v.2c-1.3.8-2 1.9-2 3 0 2.7 2.5 3.9 6 3.9zm.2-13.2c-1.4 0-2.6-1.1-2.6-3 0-1.8 1.2-2.9 2.6-2.9 1.4 0 2.5 1 2.5 3 0 1.8-1.1 2.9-2.5 2.9zm.4 11c-2.4 0-3.8-.8-3.8-2.1 0-.7.4-1.4 1.1-2 .6.2 1.2.3 2 .3h2c1.7 0 2.6.3 2.6 1.4 0 1.3-1.6 2.4-4 2.4zM78.8 200.4c1.8 0 3.6-.7 5-1.6l-1.2-2.1c-1 .7-2.1 1-3.4 1-2.3 0-4-1.4-4.3-4h9.3l.1-1.7c0-4-2-7-6-7-3.4 0-6.7 3-6.7 7.7 0 4.9 3.1 7.7 7.2 7.7zm-4-9c.4-2.4 1.9-3.7 3.6-3.7 2 0 3 1.4 3 3.6h-6.5zM87.6 200h3.5v-10.2c1.2-1.2 2-1.8 3.3-1.8 1.6 0 2.3 1 2.3 3.3v8.7h3.4V191c0-3.7-1.4-5.8-4.5-5.8-2 0-3.5 1-4.8 2.3l-.3-2h-2.9V200zM108.4 200.4c3.7 0 5.7-2 5.7-4.5 0-2.8-2.2-3.7-4.2-4.5-1.6-.5-3-1-3-2.1 0-1 .6-1.6 2.1-1.6 1.2 0 2.2.5 3.2 1.2l1.6-2a7.9 7.9 0 0 0-4.9-1.8c-3.2 0-5.3 1.8-5.3 4.3s2.2 3.6 4.1 4.3c1.6.6 3.2 1.1 3.2 2.4 0 1-.8 1.7-2.4 1.7-1.5 0-2.7-.6-4-1.6l-1.6 2.2c1.4 1.1 3.5 2 5.5 2zM124.3 200.4c3.2 0 6.2-2.9 6.2-8 0-4.4-2.1-7.3-5.8-7.3-1.4 0-3 .7-4.2 1.8l.1-2.5V179h-3.4v21h2.7l.3-1.5c1.3 1.2 2.7 1.9 4 1.9zm-.7-2.8c-1 0-2-.4-3-1.2v-6.9c1.1-1 2.1-1.6 3.2-1.6 2.2 0 3.2 1.7 3.2 4.6 0 3.3-1.5 5-3.4 5zM138.3 200.4c2 0 3.4-1 4.7-2.5l.3 2.1h2.8v-14.6h-3.4v10c-1 1.5-2 2-3.2 2-1.6 0-2.3-.8-2.3-3.3v-8.7h-3.4v9.2c0 3.7 1.3 5.8 4.5 5.8zM150.5 200h3.4v-8.9c1-2.2 2.3-3 3.5-3 .6 0 1 0 1.5.2l.6-3-1.7-.2c-1.5 0-3 1-4.1 3h-.1l-.3-2.7h-2.8V200zM166.4 206.5c4.8 0 7.8-2.3 7.8-5.1 0-2.6-1.8-3.7-5.4-3.7h-2.5c-1.8 0-2.4-.5-2.4-1.3 0-.6.2-1 .7-1.4.6.3 1.4.4 2 .4 3 0 5.5-1.7 5.5-5 0-1-.3-1.9-.8-2.4h2.7v-2.6h-5.3c-.6-.2-1.3-.3-2.1-.3-3 0-5.8 1.8-5.8 5.2a5 5 0 0 0 2 3.9v.1c-1 .6-1.7 1.6-1.7 2.7 0 1.2.6 2 1.3 2.4v.2c-1.3.8-2 1.9-2 3 0 2.7 2.5 3.9 6 3.9zm.2-13.2c-1.4 0-2.6-1.1-2.6-3 0-1.8 1.2-2.9 2.6-2.9 1.4 0 2.5 1 2.5 3 0 1.8-1.1 2.9-2.5 2.9zm.3 11c-2.3 0-3.7-.8-3.7-2.1 0-.7.3-1.4 1.1-2 .6.2 1.2.3 2 .3h2c1.7 0 2.6.3 2.6 1.4 0 1.3-1.6 2.4-4 2.4z" style="-inkscape-font-specification:'Source Sans Pro Semi-Bold'"/></g><g><path style="isolation:auto;mix-blend-mode:normal;marker:none" d="M15 280.5h714.4v59.6H15z" color="#000" overflow="visible" fill="#10557d" fill-rule="evenodd"/><path d="M243.6 280.5L208 310.3h29.8l-38.1 29.8h437.6l-34-29.8h-29.7L530 280.5z" fill="#9ed4f3" fill-rule="evenodd"/><g style="line-height:125%;-inkscape-font-specification:'Open Sans';text-indent:0;text-align:start;text-decoration-line:none;text-decoration-style:solid;text-decoration-color:#000;text-transform:none;block-progression:tb;isolation:auto;mix-blend-mode:normal" color="#000" font-weight="600" font-size="29.8" font-family="Source Sans Pro" letter-spacing="0" word-spacing="0" white-space="normal" overflow="visible" stroke-width=".6" fill="#fff"><path d="M25.7 319.1H29V311h7.1v-3h-7v-5.4h8.2v-3H25.7v19.5zM43 319.5c1.8 0 3.3-.9 4.6-2l.3 1.6h2.9v-8.6c0-4.1-1.9-6.4-5.5-6.4-2.3 0-4.4 1-6 2l1.2 2.2a8.3 8.3 0 0 1 4.2-1.4c2 0 2.6 1.3 2.6 2.9-6 .6-8.6 2.3-8.6 5.4 0 2.5 1.8 4.3 4.3 4.3zm1.1-2.7c-1.2 0-2-.6-2-1.9 0-1.4 1.2-2.5 5.2-3v3.3c-1 1-2 1.6-3.2 1.6zM54.9 319.1h3.4v-9c.9-2.1 2.3-3 3.4-3 .7 0 1 .2 1.5.3l.6-3c-.4-.2-.9-.3-1.6-.3-1.6 0-3.1 1-4.2 3l-.3-2.6h-2.8v14.6zM71.7 319.5c3.6 0 7-2.8 7-7.7s-3.4-7.7-7-7.7c-3.7 0-7 2.8-7 7.7s3.3 7.7 7 7.7zm0-2.8c-2.2 0-3.5-2-3.5-4.9 0-3 1.3-4.9 3.5-4.9 2 0 3.4 2 3.4 5 0 2.8-1.3 4.8-3.4 4.8z" style="-inkscape-font-specification:'Source Sans Pro Semi-Bold'"/></g><g style="line-height:125%;-inkscape-font-specification:'Open Sans';text-indent:0;text-align:start;text-decoration-line:none;text-decoration-style:solid;text-decoration-color:#000;text-transform:none;block-progression:tb;isolation:auto;mix-blend-mode:normal" color="#000" font-weight="400" font-size="26" font-family="Source Sans Pro" letter-spacing="0" word-spacing="0" white-space="normal" overflow="visible" stroke-width=".6"><path d="M276.3 27.3c-2 0-3-1.3-3-3.5s1.2-3.7 2.9-3.7c2 0 3.3 1.8 3.6 5-1 1.6-2.4 2.2-3.5 2.2zm-.7 8.4c3.3 0 6.3-2.6 6.3-9.3 0-5.3-2.5-8-5.7-8-2.7 0-5 2.2-5 5.4 0 3.4 2 5.1 4.8 5.1 1.4 0 2.8-.8 3.9-2.1 0 5.3-2 7.1-4.4 7.1-1 0-2-.5-2.7-1.3l-1.2 1.3c.9 1 2.2 1.8 4 1.8zM286.4 26.3c.8 0 1.5-.7 1.5-1.6 0-1-.7-1.7-1.5-1.7-.9 0-1.6.7-1.6 1.7s.7 1.6 1.6 1.6zm0 9.4c.8 0 1.5-.7 1.5-1.6 0-1-.7-1.7-1.5-1.7-.9 0-1.6.7-1.6 1.7s.7 1.6 1.6 1.6zM290.6 35.4h10.8v-1.9h-4.8l-2.8.2c4-4.1 6.7-7.2 6.7-10.4 0-2.9-1.9-4.9-5-4.9-2 0-3.6 1-5 2.6l1.3 1.2c1-1.1 2.1-2 3.5-2 2.1 0 3.2 1.3 3.2 3.3 0 2.6-2.9 5.6-7.9 10.6v1.3zM308.7 35.7c3 0 5.4-1.8 5.4-4.7 0-2.3-1.5-3.8-3.5-4.3 1.7-.7 3-2 3-4 0-2.7-2.1-4.3-5-4.3-2 0-3.5 1-4.8 2.1L305 22a5 5 0 0 1 3.5-1.7c1.8 0 2.9 1 2.9 2.6 0 1.8-1.2 3.1-4.7 3.1v1.7c4 0 5.3 1.3 5.3 3.3 0 1.8-1.4 3-3.5 3-2 0-3.2-1-4.2-2l-1 1.4a7 7 0 0 0 5.4 2.4z" style="-inkscape-font-specification:'Source Sans Pro'"/></g><g style="line-height:125%;-inkscape-font-specification:'Source Sans Pro';text-indent:0;text-align:start;text-decoration-line:none;text-decoration-style:solid;text-decoration-color:#000;text-transform:none;block-progression:tb;isolation:auto;mix-blend-mode:normal" color="#000" font-weight="400" font-size="26" font-family="Source Sans Pro" letter-spacing="0" word-spacing="0" white-space="normal" overflow="visible" stroke-width=".6"><path d="M437.6 35.4h9.4v-1.8h-3.5V18.8H442c-1 .5-2 1-3.5 1.2v1.4h3v12.2h-3.8v1.8zM454.6 35.7c2.9 0 5.6-2 5.6-5.6 0-3.6-2.4-5.2-5.2-5.2-1 0-1.8.2-2.5.6l.4-4.9h6.4v-1.8H451l-.5 8 1.1.7c1-.7 1.7-1 2.9-1 2.1 0 3.5 1.3 3.5 3.6s-1.6 3.8-3.6 3.8-3.2-.9-4.2-1.9l-1 1.4a7.3 7.3 0 0 0 5.4 2.3zM464.6 26.3c.9 0 1.6-.7 1.6-1.6 0-1-.7-1.7-1.6-1.7-.8 0-1.5.7-1.5 1.7s.7 1.6 1.5 1.6zm0 9.4c.9 0 1.6-.7 1.6-1.6 0-1-.7-1.7-1.6-1.7-.8 0-1.5.7-1.5 1.7s.7 1.6 1.5 1.6zM470 35.4h9.3v-1.8h-3.4V18.8h-1.7c-.9.5-2 1-3.5 1.2v1.4h3v12.2H470v1.8zM481.8 35.4h10.7v-1.9h-4.8l-2.8.2c4-4.1 6.8-7.2 6.8-10.4 0-2.9-1.9-4.9-5-4.9-2.1 0-3.6 1-5 2.6l1.2 1.2c1-1.1 2.2-2 3.6-2 2 0 3.1 1.3 3.1 3.3 0 2.6-2.8 5.6-7.8 10.6v1.3z" style="line-height:125%;-inkscape-font-specification:'Source Sans Pro';text-indent:0;text-align:start;text-decoration-line:none;text-decoration-style:solid;text-decoration-color:#000;text-transform:none;block-progression:tb;isolation:auto;mix-blend-mode:normal" overflow="visible"/></g><g style="line-height:125%;-inkscape-font-specification:'Source Sans Pro';text-indent:0;text-align:start;text-decoration-line:none;text-decoration-style:solid;text-decoration-color:#000;text-transform:none;block-progression:tb;isolation:auto;mix-blend-mode:normal" color="#000" font-weight="400" font-size="26" font-family="Source Sans Pro" letter-spacing="0" word-spacing="0" white-space="normal" overflow="visible" stroke-width=".6"><path d="M104.2 126c3 0 5.4-1.9 5.4-4.8 0-2.3-1.6-3.8-3.6-4.2v-.2c1.8-.6 3-1.9 3-4 0-2.6-2-4.1-5-4.1-1.9 0-3.4.9-4.7 2l1.2 1.4a5 5 0 0 1 3.5-1.7c1.8 0 2.9 1 2.9 2.6 0 1.8-1.2 3.1-4.7 3.1v1.7c4 0 5.3 1.3 5.3 3.3 0 1.8-1.5 3-3.5 3s-3.2-.9-4.2-2l-1.1 1.5a7 7 0 0 0 5.5 2.3zM114.2 116.5c.8 0 1.5-.7 1.5-1.6 0-1-.7-1.7-1.5-1.7-.9 0-1.6.7-1.6 1.7s.7 1.6 1.6 1.6zm0 9.4c.8 0 1.5-.7 1.5-1.6 0-1-.7-1.7-1.5-1.7-.9 0-1.6.7-1.6 1.7s.7 1.6 1.6 1.6zM123.5 126c2.9 0 5.6-2.1 5.6-5.7s-2.3-5.2-5.2-5.2c-1 0-1.7.2-2.5.7l.4-5h6.5V109H120l-.6 8 1.2.7c1-.6 1.6-1 2.8-1 2.1 0 3.5 1.3 3.5 3.6 0 2.4-1.6 3.8-3.6 3.8s-3.2-.9-4.2-1.9l-1 1.4a7.3 7.3 0 0 0 5.4 2.3zM136.5 126c3 0 5.4-1.9 5.4-4.8 0-2.3-1.6-3.8-3.6-4.2v-.2c1.8-.6 3-1.9 3-4 0-2.6-2-4.1-5-4.1-1.9 0-3.4.9-4.7 2l1.2 1.4a5 5 0 0 1 3.5-1.7c1.8 0 2.9 1 2.9 2.6 0 1.8-1.2 3.1-4.7 3.1v1.7c4 0 5.3 1.3 5.3 3.3 0 1.8-1.5 3-3.5 3s-3.2-.9-4.2-2l-1.1 1.5a7 7 0 0 0 5.5 2.3z" style="line-height:125%;-inkscape-font-specification:'Source Sans Pro';text-indent:0;text-align:start;text-decoration-line:none;text-decoration-style:solid;text-decoration-color:#000;text-transform:none;block-progression:tb;isolation:auto;mix-blend-mode:normal" overflow="visible"/></g><g style="line-height:125%;-inkscape-font-specification:'Source Sans Pro';text-indent:0;text-align:start;text-decoration-line:none;text-decoration-style:solid;text-decoration-color:#000;text-transform:none;block-progression:tb;isolation:auto;mix-blend-mode:normal" color="#000" font-weight="400" font-size="26" font-family="Source Sans Pro" letter-spacing="0" word-spacing="0" white-space="normal" overflow="visible" stroke-width=".6"><path d="M656.9 125.6h10.7v-1.8h-4.8l-2.8.1c4-4.1 6.8-7.2 6.8-10.3 0-3-2-5-5-5-2.2 0-3.6 1-5 2.6l1.2 1.2c1-1.1 2.2-2 3.5-2 2.2 0 3.2 1.4 3.2 3.3 0 2.7-2.8 5.7-7.8 10.6v1.3zM669.8 125.6h10.7v-1.8h-4.8l-2.8.1c4-4.1 6.8-7.2 6.8-10.3 0-3-1.9-5-5-5-2.1 0-3.6 1-5 2.6l1.2 1.2c1-1.1 2.2-2 3.6-2 2 0 3.1 1.4 3.1 3.3 0 2.7-2.8 5.7-7.8 10.6v1.3zM685 116.5c.8 0 1.5-.7 1.5-1.6 0-1-.7-1.7-1.6-1.7-.8 0-1.5.7-1.5 1.7s.7 1.6 1.5 1.6zm0 9.4c.8 0 1.5-.7 1.5-1.6 0-1-.7-1.7-1.6-1.7-.8 0-1.5.7-1.5 1.7s.7 1.6 1.5 1.6zM696 125.6h2V121h2.4v-1.7H698V109h-2.4l-7.1 10.6v1.4h7.5v4.6zm-5.1-6.3l3.8-5.7 1.4-2.3v8h-5.2zM707.2 117.5c-2 0-3-1.3-3-3.5s1.2-3.6 2.8-3.6c2.1 0 3.4 1.7 3.7 5-1 1.5-2.4 2.1-3.5 2.1zm-.8 8.4c3.3 0 6.3-2.6 6.3-9.2 0-5.4-2.4-8-5.7-8-2.7 0-4.9 2.1-4.9 5.3 0 3.4 1.9 5.1 4.7 5.1 1.4 0 2.9-.8 4-2-.2 5.2-2.1 7-4.5 7-1 0-2-.5-2.7-1.3l-1.2 1.4c.9 1 2.2 1.7 4 1.7z" style="line-height:125%;-inkscape-font-specification:'Source Sans Pro';text-indent:0;text-align:start;text-decoration-line:none;text-decoration-style:solid;text-decoration-color:#000;text-transform:none;block-progression:tb;isolation:auto;mix-blend-mode:normal" overflow="visible"/></g><g style="line-height:125%;-inkscape-font-specification:'Source Sans Pro';text-indent:0;text-align:start;text-decoration-line:none;text-decoration-style:solid;text-decoration-color:#000;text-transform:none;block-progression:tb;isolation:auto;mix-blend-mode:normal" color="#000" font-weight="400" font-size="26" font-family="Source Sans Pro" letter-spacing="0" word-spacing="0" white-space="normal" overflow="visible" stroke-width=".6"><path d="M231.9 154.8c3.2 0 5.3-2 5.3-4.5 0-2.2-1.4-3.4-2.9-4.2v-.1c1-.8 2.3-2.3 2.3-4 0-2.6-1.8-4.5-4.7-4.5-2.7 0-4.7 1.7-4.7 4.3 0 1.7 1.1 3 2.3 3.8v.1c-1.5.9-3 2.3-3 4.5 0 2.6 2.2 4.6 5.4 4.6zm1.1-9.4c-2-.8-3.8-1.6-3.8-3.6 0-1.6 1.1-2.7 2.7-2.7 1.8 0 2.9 1.3 2.9 3 0 1.2-.7 2.3-1.8 3.3zm-1.1 7.8c-2 0-3.6-1.3-3.6-3.2 0-1.5 1-2.7 2.4-3.6 2.3 1 4.5 1.7 4.5 3.9 0 1.7-1.4 2.9-3.3 2.9zM241.5 145.4c.8 0 1.6-.7 1.6-1.7s-.8-1.6-1.6-1.6-1.5.7-1.5 1.6c0 1 .7 1.7 1.5 1.7zm0 9.4c.8 0 1.6-.7 1.6-1.6 0-1-.8-1.7-1.6-1.7s-1.5.7-1.5 1.7c0 .9.7 1.6 1.5 1.6zM251.2 154.8c3.3 0 5.3-3.1 5.3-8.7s-2-8.6-5.3-8.6-5.3 3-5.3 8.6 2 8.7 5.3 8.7zm0-1.8c-2 0-3.2-2-3.2-7 0-4.8 1.3-6.8 3.2-6.8 2 0 3.2 2 3.2 6.9s-1.3 7-3.2 7zM258.7 154.5h10.7v-1.9h-4.8c-.9 0-1.9 0-2.8.2 4-4.2 6.8-7.3 6.8-10.4 0-3-2-4.9-5-4.9-2.2 0-3.6 1-5 2.6l1.2 1.2c1-1.1 2.2-2 3.5-2 2.2 0 3.2 1.3 3.2 3.2 0 2.7-2.8 5.7-7.8 10.7v1.3z" style="line-height:125%;-inkscape-font-specification:'Source Sans Pro';text-indent:0;text-align:start;text-decoration-line:none;text-decoration-style:solid;text-decoration-color:#000;text-transform:none;block-progression:tb;isolation:auto;mix-blend-mode:normal" overflow="visible"/></g><g style="line-height:125%;-inkscape-font-specification:'Source Sans Pro';text-indent:0;text-align:start;text-decoration-line:none;text-decoration-style:solid;text-decoration-color:#000;text-transform:none;block-progression:tb;isolation:auto;mix-blend-mode:normal" color="#000" font-weight="400" font-size="26" font-family="Source Sans Pro" letter-spacing="0" word-spacing="0" white-space="normal" overflow="visible" stroke-width=".6"><path d="M467.4 154.5h9.4v-1.8h-3.5v-14.9h-1.6c-1 .6-2 1-3.5 1.3v1.3h3v12.3h-3.8v1.8zM485.2 154.8c2.7 0 5-2.2 5-5.4 0-3.4-2-5.1-4.8-5.1-1.4 0-2.8.8-3.9 2 .1-5.2 2-7 4.4-7 1 0 2 .5 2.7 1.3l1.2-1.3c-1-1-2.2-1.8-4-1.8-3.3 0-6.3 2.6-6.3 9.3 0 5.3 2.5 8 5.7 8zm0-1.7c-2 0-3.4-1.8-3.6-5 1-1.5 2.4-2.2 3.4-2.2 2.1 0 3.1 1.4 3.1 3.5 0 2.2-1.2 3.7-2.9 3.7zM494.4 145.4c.9 0 1.6-.7 1.6-1.7s-.7-1.6-1.6-1.6c-.8 0-1.5.7-1.5 1.6 0 1 .7 1.7 1.5 1.7zm0 9.4c.9 0 1.6-.7 1.6-1.6 0-1-.7-1.7-1.6-1.7-.8 0-1.5.7-1.5 1.7 0 .9.7 1.6 1.5 1.6zM499.7 154.5h9.4v-1.8h-3.5v-14.9H504c-1 .6-2 1-3.5 1.3v1.3h3v12.3h-3.8v1.8zM517.5 154.8c2.7 0 5-2.2 5-5.4 0-3.4-2-5.1-4.8-5.1-1.3 0-2.8.8-3.9 2 .1-5.2 2-7 4.4-7 1 0 2 .5 2.7 1.3l1.2-1.3c-.9-1-2.2-1.8-4-1.8-3.3 0-6.3 2.6-6.3 9.3 0 5.3 2.5 8 5.7 8zm0-1.7c-2 0-3.4-1.8-3.6-5 1-1.5 2.4-2.2 3.4-2.2 2.1 0 3.1 1.4 3.1 3.5 0 2.2-1.2 3.7-2.9 3.7z" style="line-height:125%;-inkscape-font-specification:'Source Sans Pro';text-indent:0;text-align:start;text-decoration-line:none;text-decoration-style:solid;text-decoration-color:#000;text-transform:none;block-progression:tb;isolation:auto;mix-blend-mode:normal" overflow="visible"/></g><g style="line-height:125%;-inkscape-font-specification:'Source Sans Pro';text-indent:0;text-align:start;text-decoration-line:none;text-decoration-style:solid;text-decoration-color:#000;text-transform:none;block-progression:tb;isolation:auto;mix-blend-mode:normal" color="#000" font-weight="400" font-size="26" font-family="Source Sans Pro" letter-spacing="0" word-spacing="0" white-space="normal" overflow="visible" stroke-width=".6"><path d="M147.6 245c3 0 5.6-2 5.6-5.6 0-3.6-2.3-5.2-5.1-5.2-1 0-1.8.2-2.6.6l.4-4.9h6.5v-1.8H144l-.6 8 1.2.7c1-.7 1.7-1 2.8-1 2.1 0 3.6 1.3 3.6 3.6s-1.7 3.8-3.7 3.8-3.2-.9-4.2-1.9l-1 1.4a7.3 7.3 0 0 0 5.4 2.3zM157.7 235.6c.8 0 1.5-.7 1.5-1.6 0-1-.7-1.7-1.5-1.7-.9 0-1.6.7-1.6 1.7s.7 1.6 1.6 1.6zm0 9.4c.8 0 1.5-.7 1.5-1.6 0-1-.7-1.7-1.5-1.7-.9 0-1.6.7-1.6 1.7s.7 1.6 1.6 1.6zM167.4 245c3.3 0 5.3-3.1 5.3-8.7s-2-8.6-5.3-8.6-5.3 3-5.3 8.6 2 8.7 5.3 8.7zm0-1.7c-2 0-3.3-2.1-3.3-7s1.3-6.8 3.3-6.8c2 0 3.2 2 3.2 6.8 0 4.9-1.3 7-3.2 7zM178.4 244.7h2.3c.2-6.5 1-10.3 5-15.3V228H175v1.8h8.3a24.5 24.5 0 0 0-4.9 14.8z" style="line-height:125%;-inkscape-font-specification:'Source Sans Pro';text-indent:0;text-align:start;text-decoration-line:none;text-decoration-style:solid;text-decoration-color:#000;text-transform:none;block-progression:tb;isolation:auto;mix-blend-mode:normal" overflow="visible"/></g><g style="line-height:125%;-inkscape-font-specification:'Source Sans Pro';text-indent:0;text-align:start;text-decoration-line:none;text-decoration-style:solid;text-decoration-color:#000;text-transform:none;block-progression:tb;isolation:auto;mix-blend-mode:normal" color="#000" font-weight="400" font-size="26" font-family="Source Sans Pro" letter-spacing="0" word-spacing="0" white-space="normal" overflow="visible" stroke-width=".6"><path d="M614.3 244.7H625v-1.9h-4.8l-2.8.2c4-4.1 6.8-7.2 6.8-10.4 0-2.9-2-4.9-5-4.9-2.2 0-3.6 1-5 2.6l1.2 1.2c1-1.1 2.2-2 3.5-2 2.2 0 3.2 1.3 3.2 3.2 0 2.7-2.8 5.7-7.8 10.7v1.3zM628.2 244.7h9.4v-1.8h-3.4v-14.8h-1.7c-.9.5-2 1-3.5 1.2v1.4h3v12.2h-3.8v1.8zM642.3 235.6c.9 0 1.6-.7 1.6-1.6 0-1-.7-1.7-1.6-1.7-.8 0-1.5.7-1.5 1.7s.7 1.6 1.5 1.6zm0 9.4c.9 0 1.6-.7 1.6-1.6 0-1-.7-1.7-1.6-1.7-.8 0-1.5.7-1.5 1.7s.7 1.6 1.5 1.6zM647.6 244.7h9.4v-1.8h-3.5v-14.8H652c-1 .5-2 1-3.5 1.2v1.4h3v12.2h-3.8v1.8zM664.6 236.6c-2 0-3-1.4-3-3.5 0-2.2 1.2-3.7 2.8-3.7 2.1 0 3.4 1.8 3.7 5-1 1.5-2.4 2.2-3.5 2.2zm-.8 8.4c3.3 0 6.3-2.6 6.3-9.3 0-5.3-2.4-8-5.7-8-2.6 0-4.9 2.2-4.9 5.4 0 3.4 1.9 5.1 4.7 5.1 1.4 0 2.9-.8 4-2.1-.1 5.3-2.1 7.1-4.5 7.1-1 0-2-.5-2.7-1.3l-1.2 1.3c1 1 2.2 1.8 4 1.8z" style="line-height:125%;-inkscape-font-specification:'Source Sans Pro';text-indent:0;text-align:start;text-decoration-line:none;text-decoration-style:solid;text-decoration-color:#000;text-transform:none;block-progression:tb;isolation:auto;mix-blend-mode:normal" overflow="visible"/></g><g style="line-height:125%;-inkscape-font-specification:'Source Sans Pro';text-indent:0;text-align:start;text-decoration-line:none;text-decoration-style:solid;text-decoration-color:#000;text-transform:none;block-progression:tb;isolation:auto;mix-blend-mode:normal" color="#000" font-weight="400" font-size="26" font-family="Source Sans Pro" letter-spacing="0" word-spacing="0" white-space="normal" overflow="visible" stroke-width=".6"><path d="M220.3 273.5h2.2c.3-6.5 1.1-10.2 5-15.3V257H217v1.9h8.3a24.5 24.5 0 0 0-4.9 14.7zM231.9 264.4c.8 0 1.5-.6 1.5-1.6s-.7-1.6-1.5-1.6c-.9 0-1.6.6-1.6 1.6s.7 1.6 1.6 1.6zm0 9.4c.8 0 1.5-.6 1.5-1.6s-.7-1.6-1.5-1.6c-.9 0-1.6.6-1.6 1.6s.7 1.6 1.6 1.6zM243 273.5h2V269h2.3v-1.7h-2.2V257h-2.4l-7.1 10.6v1.4h7.4v4.6zm-5.2-6.3l3.9-5.7 1.4-2.3v8h-5.3zM250 273.5h9.5v-1.7H256v-14.9h-1.6c-1 .6-2 1-3.5 1.2v1.4h3v12.3H250v1.7z" style="line-height:125%;-inkscape-font-specification:'Source Sans Pro';text-indent:0;text-align:start;text-decoration-line:none;text-decoration-style:solid;text-decoration-color:#000;text-transform:none;block-progression:tb;isolation:auto;mix-blend-mode:normal" overflow="visible"/></g><g style="line-height:125%;-inkscape-font-specification:'Source Sans Pro';text-indent:0;text-align:start;text-decoration-line:none;text-decoration-style:solid;text-decoration-color:#000;text-transform:none;block-progression:tb;isolation:auto;mix-blend-mode:normal" color="#000" font-weight="400" font-size="26" font-family="Source Sans Pro" letter-spacing="0" word-spacing="0" white-space="normal" overflow="visible" stroke-width=".6"><path d="M497.6 273.5h9.4v-1.7h-3.5v-14.9H502c-1 .6-2 1-3.5 1.2v1.4h3v12.3h-3.8v1.7zM513 273.5h2.3c.3-6.5 1-10.2 5-15.3V257h-10.7v1.9h8.3a24.5 24.5 0 0 0-4.8 14.7zM524.6 264.4c.9 0 1.6-.6 1.6-1.6s-.7-1.6-1.6-1.6c-.8 0-1.5.6-1.5 1.6s.7 1.6 1.5 1.6zm0 9.4c.9 0 1.6-.6 1.6-1.6s-.7-1.6-1.6-1.6c-.8 0-1.5.6-1.5 1.6s.7 1.6 1.5 1.6zM529.9 273.5h9.4v-1.7h-3.5v-14.9h-1.6c-1 .6-2 1-3.5 1.2v1.4h3v12.3h-3.8v1.7zM547.3 273.8c3.2 0 5.3-2 5.3-4.4 0-2.2-1.4-3.4-2.9-4.3 1-.8 2.3-2.3 2.3-4 0-2.7-1.8-4.5-4.6-4.5-2.7 0-4.8 1.7-4.8 4.3 0 1.7 1.1 3 2.4 3.8v.1c-1.6.8-3.2 2.3-3.2 4.5 0 2.6 2.3 4.5 5.5 4.5zm1.1-9.3c-2-.8-3.8-1.6-3.8-3.6 0-1.6 1.2-2.7 2.7-2.7 1.8 0 2.9 1.3 2.9 3 0 1.2-.6 2.3-1.8 3.3zm-1 7.8c-2.1 0-3.6-1.4-3.6-3.2 0-1.5 1-2.8 2.3-3.6 2.4 1 4.5 1.7 4.5 3.8 0 1.8-1.3 3-3.3 3z" style="line-height:125%;-inkscape-font-specification:'Source Sans Pro';text-indent:0;text-align:start;text-decoration-line:none;text-decoration-style:solid;text-decoration-color:#000;text-transform:none;block-progression:tb;isolation:auto;mix-blend-mode:normal" overflow="visible"/></g><g style="line-height:125%;-inkscape-font-specification:'Source Sans Pro';text-indent:0;text-align:start;text-decoration-line:none;text-decoration-style:solid;text-decoration-color:#000;text-transform:none;block-progression:tb;isolation:auto;mix-blend-mode:normal" color="#000" font-weight="400" font-size="26" font-family="Source Sans Pro" letter-spacing="0" word-spacing="0" white-space="normal" overflow="visible" stroke-width=".6"><path d="M180.6 364c2.6 0 4.9-2.1 4.9-5.3 0-3.4-1.9-5.1-4.8-5.1-1.3 0-2.8.8-3.8 2 0-5.2 2-7 4.3-7 1 0 2.1.5 2.8 1.3l1.2-1.3c-1-1-2.2-1.8-4-1.8-3.3 0-6.4 2.6-6.4 9.3 0 5.3 2.5 8 5.8 8zm0-1.6c-2.1 0-3.4-1.8-3.7-5 1-1.5 2.4-2.2 3.5-2.2 2 0 3 1.4 3 3.5 0 2.2-1.2 3.7-2.8 3.7zM189.8 354.7c.8 0 1.5-.7 1.5-1.7s-.7-1.6-1.5-1.6c-.9 0-1.6.7-1.6 1.6 0 1 .7 1.7 1.6 1.7zm0 9.4c.8 0 1.5-.7 1.5-1.7s-.7-1.6-1.5-1.6c-.9 0-1.6.7-1.6 1.6 0 1 .7 1.7 1.6 1.7zM195 363.8h9.4V362H201V347h-1.7c-.9.6-2 1-3.5 1.3v1.3h3V362H195v1.8zM207 363.8h10.7v-1.9h-4.9c-.8 0-1.8 0-2.7.2 3.9-4.2 6.7-7.3 6.7-10.4 0-3-1.9-4.9-5-4.9-2.1 0-3.6 1-5 2.5l1.3 1.3c1-1.1 2.1-2 3.5-2 2.1 0 3.1 1.3 3.1 3.2 0 2.7-2.8 5.7-7.8 10.7v1.3z" style="line-height:125%;-inkscape-font-specification:'Source Sans Pro';text-indent:0;text-align:start;text-decoration-line:none;text-decoration-style:solid;text-decoration-color:#000;text-transform:none;block-progression:tb;isolation:auto;mix-blend-mode:normal" overflow="visible"/></g><g style="line-height:125%;-inkscape-font-specification:'Source Sans Pro';text-indent:0;text-align:start;text-decoration-line:none;text-decoration-style:solid;text-decoration-color:#000;text-transform:none;block-progression:tb;isolation:auto;mix-blend-mode:normal" color="#000" font-weight="400" font-size="26" font-family="Source Sans Pro" letter-spacing="0" word-spacing="0" white-space="normal" overflow="visible" stroke-width=".6"><path d="M603.3 363.8H614v-1.9h-4.8c-.9 0-1.9 0-2.8.2 4-4.2 6.8-7.3 6.8-10.4 0-3-2-4.9-5-4.9-2.1 0-3.6 1-5 2.5l1.2 1.3c1-1.1 2.2-2 3.6-2 2 0 3.1 1.3 3.1 3.2 0 2.7-2.8 5.7-7.8 10.7v1.3zM621.7 364c3.3 0 5.3-3 5.3-8.6s-2-8.6-5.3-8.6c-3.4 0-5.4 3-5.4 8.6s2 8.7 5.4 8.7zm0-1.7c-2 0-3.3-2-3.3-7 0-4.8 1.3-6.8 3.3-6.8 1.9 0 3.2 2 3.2 6.9s-1.3 7-3.2 7zM631.4 354.7c.8 0 1.5-.7 1.5-1.7s-.7-1.6-1.5-1.6c-1 0-1.6.7-1.6 1.6 0 1 .7 1.7 1.6 1.7zm0 9.4c.8 0 1.5-.7 1.5-1.7s-.7-1.6-1.5-1.6c-1 0-1.6.7-1.6 1.6 0 1 .7 1.7 1.6 1.7zM640.7 364c2.8 0 5.6-2 5.6-5.6 0-3.6-2.4-5.2-5.2-5.2-1 0-1.8.3-2.6.7l.5-5h6.4v-1.8h-8.3l-.5 8 1.1.8c1-.7 1.7-1 2.8-1 2.2 0 3.6 1.3 3.6 3.6s-1.6 3.8-3.7 3.8c-2 0-3.2-1-4.1-2l-1 1.5a7.3 7.3 0 0 0 5.4 2.3zM655.4 363.8h2v-4.6h2.3v-1.8h-2.3v-10.3H655l-7 10.7v1.4h7.4v4.6zm-5.2-6.4l3.9-5.6c.4-.8 1-1.6 1.3-2.4h.1l-.1 3.2v4.8h-5.2z" style="line-height:125%;-inkscape-font-specification:'Source Sans Pro';text-indent:0;text-align:start;text-decoration-line:none;text-decoration-style:solid;text-decoration-color:#000;text-transform:none;block-progression:tb;isolation:auto;mix-blend-mode:normal" overflow="visible"/></g></g><g><path style="isolation:auto;mix-blend-mode:normal;marker:none" d="M15 42.4h714.4v59.5H15z" color="#000" overflow="visible" fill="#10557d" fill-rule="evenodd"/><path d="M294.2 42.4L197.5 72h29.7L129.6 102H694l-91-29.8h-29.8L467.5 42.4z" fill="#9ed4f3" fill-rule="evenodd"/><g style="line-height:125%;-inkscape-font-specification:'Open Sans';text-indent:0;text-align:start;text-decoration-line:none;text-decoration-style:solid;text-decoration-color:#000;text-transform:none;block-progression:tb;isolation:auto;mix-blend-mode:normal" color="#000" font-weight="600" font-size="10" font-family="Source Sans Pro" letter-spacing="0" word-spacing="0" white-space="normal" overflow="visible" stroke-width=".6" fill="#fff"><path d="M25.7 81H29v-8.7h8V81h3.4V61.5H37v7.8h-7.9v-7.8h-3.4V81zM51.3 81.3c1.9 0 3.6-.6 5-1.6l-1.1-2.1c-1.1.7-2.2 1-3.4 1-2.4 0-4-1.4-4.3-4h9.3l.1-1.7c0-4-2-7-6-7-3.5 0-6.8 3-6.8 7.8s3.2 7.6 7.2 7.6zm-3.9-9c.3-2.4 1.8-3.7 3.5-3.7 2 0 3 1.4 3 3.7h-6.5zM63.5 81.3c.8 0 1.4 0 1.9-.3l-.5-2.5h-.5c-.4 0-.8-.3-.8-1.1V60h-3.4v17.2c0 2.5.9 4.1 3.3 4.1zM72.4 81.3c3.7 0 5.6-2 5.6-4.5 0-2.7-2.2-3.7-4.2-4.4-1.5-.6-3-1-3-2.2 0-1 .7-1.6 2.2-1.6 1.1 0 2.2.5 3.2 1.2l1.5-2A7.9 7.9 0 0 0 73 66c-3.3 0-5.3 1.8-5.3 4.4 0 2.4 2.1 3.5 4 4.2 1.6.6 3.2 1.2 3.2 2.4 0 1-.7 1.7-2.3 1.7-1.5 0-2.8-.6-4-1.6l-1.7 2.2c1.5 1.2 3.6 2 5.6 2zM81.1 81h3.5V66.4H81V81zM83 63.8c1.2 0 2-.8 2-2 0-1.1-.8-2-2-2-1.3 0-2.2.9-2.2 2 0 1.2 1 2 2.2 2zM89 81h3.3V70.8c1.3-1.2 2.1-1.9 3.4-1.9 1.6 0 2.3 1 2.3 3.3V81h3.4v-9.2c0-3.7-1.4-5.8-4.5-5.8-2 0-3.5 1-4.8 2.3H92l-.2-2h-2.9V81zM105.6 81h3.4v-3.8l2.3-2.6L115 81h3.7l-5.5-8.7 5-6h-3.7l-5.4 6.8h-.1V60h-3.4v21zM121.1 81h3.5V66.4H121V81zm1.8-17.2c1.2 0 2-.8 2-2 0-1.1-.8-2-2-2-1.3 0-2.2.9-2.2 2 0 1.2 1 2 2.2 2z" style="-inkscape-font-specification:'Source Sans Pro Semi-Bold'"/></g></g></svg>