<svg xmlns="http://www.w3.org/2000/svg" xmlns:xlink="http://www.w3.org/1999/xlink" xml:space="preserve" width="759" height="336" viewBox="0 0 189.061 81"><defs><path id="I" d="M4.078.094c.906 0 1.781-.203 2.219-.39v-3.11h-.813v2.594c-.437.125-.89.187-1.343.187-1.922 0-2.782-1.219-2.782-2.766 0-1.718 1.079-2.75 2.579-2.75.671 0 1.39.188 2.171.61l.079-.813c-.485-.265-1.344-.547-2.297-.547C1.813-6.89.469-5.437.469-3.406c0 2 1.265 3.5 3.61 3.5m0 0"/><path id="u" d="M2.938.11c.64 0 1.187-.141 1.546-.329l-.03-.718c-.438.25-.985.359-1.438.359-1.125 0-1.688-.625-1.75-1.625h3.28c.016-.188.032-.36.032-.594 0-1.312-.734-2.031-1.922-2.031C1.296-4.828.47-3.812.47-2.391c0 1.454.781 2.5 2.469 2.5m-.266-4.297c.703 0 1.187.468 1.187 1.359v.047l-2.578.015c.094-.843.61-1.421 1.39-1.421m0 0"/><path id="r" d="M.813 0h.78v-2.781c.36-1.11.97-1.235 1.329-1.235.219 0 .36.016.578.063l.063-.797a1.9 1.9 0 0 0-.516-.078c-.438 0-1.063.156-1.438 1.031h-.078L1.5-4.766l-.687.047Zm0 0"/><path id="z" d="M.813 0h.78v-3.14c.345-.516.798-.938 1.438-.938.703 0 .938.39.938 1.14V0h.781v-3.14c0-1.094-.453-1.688-1.453-1.688-.797 0-1.328.5-1.61.906h-.093v-3.125l-.782.094zm0 0"/><path id="q" d="M1.922.094c.687 0 1.234-.375 1.516-.766h.078L3.562 0h.72v-3.203c0-1.14-.657-1.625-1.704-1.625-.687 0-1.406.187-1.875.375l.047.719c.672-.282 1.219-.407 1.656-.407.64 0 1.14.188 1.11 1.141l-1.485.25C1.328-2.625.5-2.297.5-1.266c0 .86.578 1.36 1.422 1.36m.219-.656c-.47 0-.844-.188-.844-.735 0-.531.39-.797.937-.89.891-.157 1.11-.235 1.266-.329v1.032c-.312.609-.844.922-1.36.922m0 0"/><path id="A" d="M2.86.11c1.437 0 2.343-1.094 2.343-2.5 0-1.376-.86-2.438-2.36-2.438C1.376-4.828.47-3.797.47-2.391c0 1.329.828 2.5 2.39 2.5m0-.688c-1.063 0-1.579-.875-1.579-1.813 0-.984.547-1.75 1.563-1.75.953 0 1.562.688 1.562 1.75 0 .938-.515 1.813-1.547 1.813m0 0"/><path id="t" d="M.813 0h.78v-3.14c.345-.516.798-.938 1.438-.938.703 0 .938.39.938 1.14V0h.781v-3.14c0-1.094-.453-1.688-1.453-1.688-.828 0-1.375.516-1.688.937h-.078L1.5-4.766l-.687.047Zm0 0"/><path id="P" d="M3.125.094c1.656 0 2.547-1.313 2.547-3.36 0-2-.844-3.375-2.578-3.375C1.39-6.64.53-5.28.53-3.266c0 1.938.797 3.36 2.594 3.36M3.109-.61c-1.25 0-1.75-1.11-1.75-2.657s.532-2.656 1.75-2.656c1.188 0 1.735 1.031 1.735 2.656 0 1.516-.5 2.657-1.735 2.657m0 0"/><path id="o" d="M.875 0h.86v-3.156h.374L3.391-1.75c.5.531 1.015 1.094 1.625 1.75h1.078c-.547-.594-1.39-1.531-2.047-2.234L2.844-3.562l1.078-1.126c.656-.687 1.312-1.375 2.015-2.093H4.892c-.688.718-1.157 1.218-1.672 1.765L2.094-3.859h-.36v-2.922H.875Zm0 0"/><path id="p" d="M.813 0h.78v-7.047l-.78.094zm0 0"/><path id="s" d="M1.203-5.797c.36 0 .594-.187.594-.578 0-.375-.234-.578-.578-.578-.36 0-.594.187-.594.578s.234.578.578.578M.828 0h.781v-4.734l-.78.015zm0 0"/><path id="v" d="M2.61.11c.406 0 .812-.11 1-.25l-.063-.688a1.27 1.27 0 0 1-.75.25c-.61 0-.875-.344-.875-1.016v-2.5h1.64v-.625h-1.64v-1.687l-.781.172v1.515H.234v.625h.907v2.672C1.14-.375 1.656.11 2.609.11m0 0"/><path id="w" d="M.875 0h.844v-3.031h3.093v-.719H1.72v-2.281H5v-.75H.875Zm0 0"/><path id="x" d="M3.656-5.734c.313 0 .516-.188.516-.547 0-.344-.203-.563-.516-.563-.312 0-.515.203-.515.563s.203.547.515.547m-2.015 0c.328 0 .515-.188.515-.547 0-.344-.187-.563-.515-.563-.313 0-.516.203-.516.563s.203.547.516.547m.5 5.843c.797 0 1.359-.515 1.656-.937h.078L3.906 0h.688v-4.719h-.782v3.14c-.343.532-.796.954-1.406.954-.703 0-.922-.39-.922-1.14V-4.75l-.78.031v3.14C.703-.483 1.14.11 2.14.11m0 0"/><path id="y" d="M2.313 1.922c1.109 0 2.406-.516 2.406-1.61 0-.796-.594-1.078-1.89-1.078h-.204c-.719 0-1-.078-1-.343 0-.266.313-.36.984-.516.922-.203 1.532-.672 1.532-1.61 0-.343-.079-.656-.297-.89h1.11v-.594h-1.47c-.53 0-.734-.11-1.187-.11-1.125 0-1.844.626-1.844 1.548 0 .953.75 1.375 1.031 1.484v.063c-.39.172-.578.422-.578.75 0 .437.328.64.485.687v.063C1.078-.141.5.172.5.813c0 .546.406 1.109 1.813 1.109m-.063-4.11c-.531-.062-1.062-.406-1.062-1.03 0-.641.53-.938 1.109-.938.484 0 1.11.281 1.11.968 0 .735-.688.922-1.157 1m.14 3.485c-.859 0-1.156-.313-1.156-.64 0-.454.625-.75 1.235-.766h.172c1.078 0 1.328.187 1.328.547 0 .328-.531.859-1.578.859m0 0"/><path id="B" d="M2.625 0h.86v-6.016h2.312v-.765h-5.5v.765h2.328Zm0 0"/><path id="C" d="M2.14.11c.797 0 1.36-.516 1.657-.938h.078L3.906 0h.688v-4.719h-.782v3.14c-.343.532-.796.954-1.406.954-.703 0-.922-.39-.922-1.14V-4.75l-.78.031v3.14C.703-.483 1.14.11 2.14.11m0 0"/><path id="D" d="M3.125.11c1.344 0 2.016-1.157 2.016-2.485 0-1.39-.735-2.453-2.032-2.453-.656 0-1.156.297-1.421.64h-.094v-2.859l-.782.094V0h.657l.062-.625h.078c.375.453.86.734 1.516.734m-.234-.704c-.594 0-1-.297-1.297-.781v-2.094c.297-.422.781-.64 1.281-.64.984 0 1.469.78 1.469 1.75 0 .906-.438 1.765-1.453 1.765m0 0"/><path id="G" d="M.875 0h.844v-2.703h1.375c1.86 0 2.469-.89 2.469-2.125 0-1.36-.75-1.953-2.297-1.953H.875Zm2.344-6.062c.64 0 1.469.109 1.469 1.234 0 1.016-.547 1.422-1.75 1.422h-1.22v-2.656Zm0 0"/><path id="H" d="M.813 0h.78v-2.094h.25l.813.813L3.937 0H4.97C4.406-.547 3.844-1.11 3.28-1.656l-.719-.766.626-.64c.53-.547 1.078-1.094 1.609-1.657h-.969c-.406.438-.828.89-1.25 1.328l-.687.735h-.297v-4.39l-.782.093zm0 0"/><path id="J" d="M2.875.094c.61 0 1.094-.14 1.39-.313l-.062-.718a2.2 2.2 0 0 1-1.187.343c-1.157 0-1.735-.765-1.735-1.781 0-1.062.625-1.75 1.594-1.75.344 0 .781.078 1.313.375l.062-.719c-.36-.203-.922-.36-1.469-.36C1.297-4.828.47-3.765.47-2.358c0 1.39.86 2.453 2.406 2.453m0 0"/><path id="K" d="M2.14.11c1.235 0 1.75-.626 1.75-1.454 0-.843-.562-1.078-1.5-1.343-.796-.235-1.015-.407-1.015-.782 0-.547.438-.672.828-.672.344 0 .875.125 1.328.407l.078-.735a3.3 3.3 0 0 0-1.484-.36c-.953 0-1.562.532-1.562 1.391 0 .829.562 1.126 1.312 1.329.906.265 1.219.39 1.219.797 0 .609-.438.734-.969.734A3.05 3.05 0 0 1 .609-.984L.547-.25c.39.203 1.015.36 1.594.36m0 0"/><path id="L" d="m.813 1.86.78-.032V-.594h.079c.36.438.828.703 1.453.703 1.344 0 2.016-1.156 2.016-2.484 0-1.39-.735-2.453-2.032-2.453-.671 0-1.203.312-1.484.687h-.078l-.016-.625-.718.047ZM2.89-.595c-.594 0-1-.297-1.297-.781v-2.094c.297-.422.781-.64 1.281-.64.984 0 1.469.78 1.469 1.75 0 .906-.438 1.765-1.453 1.765m0 0"/><path id="N" d="M.61-3.547H4.78v-.703H.61Zm0 2.125H4.78v-.703H.61Zm0 0"/><path id="O" d="M2.656.11c1.64 0 2.578-1.22 2.578-3.532 0-2.094-.875-3.219-2.484-3.219C1.234-6.64.484-5.53.484-4.359c0 1.203.782 2.047 2.047 2.047.719 0 1.313-.266 1.813-.75h.093C4.36-1.453 3.813-.626 2.61-.626a3.05 3.05 0 0 1-1.656-.5L.86-.359c.5.265 1.125.468 1.797.468m-1.36-4.516c0-.782.438-1.516 1.485-1.516 1 0 1.578.719 1.656 2.14C3.845-3.155 3.266-3 2.734-3c-1 0-1.437-.625-1.437-1.406m0 0"/><path id="d" d="M0 0c0 .531.438.969.969.969A.96.96 0 0 0 1.922 0a.96.96 0 0 0-.953-.969A.974.974 0 0 0 0 0m0 0"/><path id="e" d="M-.14-1.344c0 .14.078.297.187.453L2.28 1.766C1.61 1.484.86 1.296.328 1.296c-.281 0-.75 0-.75.72 0 .937.844 2.562 1.61 3.468.125.157.328-.03.218-.187C1.11 4.953.938 4.28.938 3.687c0-1.109.593-1.124.921-1.124 1.11 0 1.657.718 1.829.718.156 0 .296-.14.296-.297a.3.3 0 0 0-.062-.187L2.5 1.125a1.8 1.8 0 0 1-.422-1.187c0-1.72 2.156-2.125 2.156-3.157 0-.125-.078-.281-.187-.437L1.453-6.75c-.078-.062-.14-.11-.203-.11-.156 0-.312.141-.312.298 0 .078.015.125.062.187l.578.688c.281.359.438.765.438 1.203 0 1.703-2.157 2.125-2.157 3.14m0 0"/><path id="f" d="M5.39-1.11a.75.75 0 0 1-.171.47C4.75-.095 1.953 1.812 1.28 1.812a.704.704 0 0 1-.718-.704q0-.257.187-.468C1.203.094 4-1.812 4.672-1.812c.406 0 .719.312.719.703M4.47-2.36c-1.672 0-2.688.5-3.188.844C.281-.844 0 .641 0 1.094c0 .984.688 1.265 1.484 1.265 1.672 0 2.72-.5 3.22-.843 1-.672 1.25-2.157 1.25-2.61 0-.984-.688-1.265-1.485-1.265m0 0"/><path id="g" d="M0-2.016v.985a.37.37 0 0 0 .375.375c.063 0 .094 0 .14-.016L1-.844V1.86l-.734.282A.385.385 0 0 0 0 2.5v.984c0 .235.172.407.375.407.063 0 .094 0 .14-.016L1 3.672v2.453c0 .188.14.344.328.344a.347.347 0 0 0 .344-.344V3.438l1.406-.516v2.453c0 .188.156.328.344.328a.32.32 0 0 0 .328-.328V2.656l.734-.281a.385.385 0 0 0 .266-.36v-.984a.37.37 0 0 0-.375-.375c-.062 0-.094 0-.14.016L3.75.844V-1.86l.734-.282A.385.385 0 0 0 4.75-2.5v-.984c0-.235-.172-.407-.375-.407-.062 0-.094 0-.14.016l-.485.203v-2.453a.334.334 0 0 0-.328-.344.347.347 0 0 0-.344.344v2.688l-1.406.515v-2.453a.334.334 0 0 0-.344-.328.32.32 0 0 0-.328.328v2.719l-.734.281a.385.385 0 0 0-.266.36m3.078.391v2.734l-1.406.516v-2.734zm0 0"/><path id="h" d="M3.719-2.36C1.922-2.36 0-.78 0 .782 0 1.72.766 2.36 1.922 2.36c1.797 0 3.703-1.578 3.703-3.14 0-.938-.75-1.578-1.906-1.578m0 0"/><path id="i" d="M6.281 2.688A.18.18 0 0 0 6.47 2.5V.188A.19.19 0 0 0 6.28 0H.188A.2.2 0 0 0 0 .188V2.5c0 .11.094.188.188.188zm0 0"/><path id="j" d="M9.64 2.156a.86.86 0 0 0 .86.875c.484 0 .875-.39.875-.875a.874.874 0 0 0-.875-.875.86.86 0 0 0-.86.875m0-4.312a.86.86 0 0 0 .86.875c.484 0 .875-.39.875-.875a.874.874 0 0 0-.875-.875.86.86 0 0 0-.86.875M3.985-4.562C1.75-4.562 0-2.625 0-.328 0 .688.89 1.5 1.938 1.5c.968 0 1.718-.828 1.718-1.828 0-.953-.765-1.719-1.719-1.719-.171 0-.328.031-.5.094.407-1.203 1.313-2.125 2.547-2.125 1.875 0 2.922 1.984 2.922 4.047 0 3.922-3.61 6.453-7.078 8.484a.3.3 0 0 0-.062.172c0 .125.109.25.234.25a.26.26 0 0 0 .172-.062c4.375-1.86 8.89-4.5 8.89-9.032 0-2.812-2.109-4.343-5.078-4.343m0 0"/><path id="k" d="M11.156-.031c0-2.297-1.75-4.531-4.437-4.531-.11 0-.172.015-.188.015a70 70 0 0 0-.984-3.547c1.594-1.89 3.062-3.812 3.062-6.281 0-1.969-1.14-4.797-2.312-6.172a.3.3 0 0 0-.375-.016 6.15 6.15 0 0 0-2.563 5c0 3.063.391 4.313.922 6-2 2.329-4.25 4.579-4.25 7.625 0 3.375 2.407 6.485 5.75 6.485.782 0 1.438-.125 1.516-.14.047.515.078 1.03.078 1.546 0 .328-.016.64-.031.969-.11 1.687-1.14 3.25-2.75 3.281h-.047c-.828 0-1.563-.437-2.016-1.094.156.079.328.11.5.11a1.64 1.64 0 0 0 1.64-1.64c0-.97-.702-1.798-1.64-1.798-1.015 0-1.922.797-1.922 1.797 0 1.89 1.516 3.39 3.375 3.39 2.047 0 3.5-1.859 3.61-3.937.015-.343.031-.687.031-1.047 0-.578-.031-1.171-.078-1.75a4.5 4.5 0 0 0 3.11-4.265M7.984 3.484c-.156-1.375-.546-3.75-1.03-6.078A3.32 3.32 0 0 1 9.89.688c0 1.28-.782 2.39-1.907 2.796M1.297-.453c0-2.766 1.828-4.86 3.656-6.969.297.984.547 1.984.797 2.984-1.781.391-2.781 1.875-2.781 3.422 0 2.157 1.922 3.25 2.187 3.25.219 0 .39-.203.39-.406a.5.5 0 0 0-.124-.281C4.469 1 4.047.203 4.047-.531c0-1 .766-1.922 2.14-2.063.579 2.719.922 5.156 1.047 6.266-.609.11-1.375.11-1.406.11-2.094 0-4.531-1.735-4.531-4.235m5.719-17.531c.343 1.047.343 1.562.343 2.14 0 2.156-1.125 3.906-2.484 5.594-.437-1.39-.656-2.453-.656-3.297a4.9 4.9 0 0 1 2.797-4.437m0 0"/><path id="E" d="M0 .969h1.406c2.938 0 4.907-3.766 6.578-6.25.204-.313-.28-.625-.484-.313C5.969-3.312 4.11-.969 1.406-.969H.47A.46.46 0 0 0 0-.5Zm0 0"/><path id="F" d="M0-.969V.5a.46.46 0 0 0 .469.469h.937C4.11.969 5.97 3.313 7.5 5.594c.203.312.688 0 .484-.313-1.671-2.484-3.64-6.25-6.578-6.25zm0 0"/><path id="Q" d="M6.281 0a.19.19 0 0 0 .188-.187V-2.5a.18.18 0 0 0-.188-.187H.188A.19.19 0 0 0 0-2.5v2.313C0-.094.094 0 .188 0Zm0 0"/><path id="R" d="M.5-.672c.016-.578.36-1.11.906-1.11.5 0 .719.579.719 1.141 0 1-.812 1.735-1.578 2.391A9 9 0 0 1 .469.625V.438Zm-.984-7.172.203 10.25a.45.45 0 0 0 .437.453c.375 0 .532-.453.813-.703C2 1.266 3.453.61 3.453-.766c0-.921-.625-1.765-1.5-1.765-.594 0-1.156.219-1.594.61l.125-5.923c-.156-.078-.312-.14-.484-.14s-.328.062-.484.14m0 0"/><path id="S" d="M-.14-6.469 0 3.297c0 .172.14.312.313.312h.062l1.781-.359-.031 3.219c.14.093.297.125.453.125A.7.7 0 0 0 3 6.469l-.11-9.766a.313.313 0 0 0-.312-.312H2.5L.703-3.25l.063-3.219a.8.8 0 0 0-.453-.125.8.8 0 0 0-.454.125m2.39 4.547L2.188 1.61.64 1.922.687-1.61Zm0 0"/><path id="l" d="M4.563-4.578c0-.703.984-.031.984-2.094 0-1.39-1.344-1.953-2.938-1.953-1.234 0-2.375.688-2.375 1.813a1 1 0 0 0 .985.984.99.99 0 0 0 .984-.984c0-.391-.61-.438-.61-.813 0-.437.516-.578 1.016-.578.829 0 1.141.625 1.141 1.531v.25c0 .89-.062 1.594-.844 1.594h-1.36c-.171 0-.25.11-.25.25s.079.266.25.266h1.36c.781 0 .844.656.844 1.515v.375c0 .969-.234 1.985-1.062 1.985-.547 0-1.141-.125-1.141-.61 0-.437.703-.5.703-.937 0-.625-.5-1.125-1.125-1.125S0-2.61 0-1.984C0-.75 1.328 0 2.688 0c1.734 0 3.109-.828 3.109-2.422 0-1.734-1.234-1.562-1.234-2.156m0 0"/><path id="m" d="M3.344-2.078c0 .86-.5 1.64-1.297 1.64-.125 0-.203.126-.203.235 0 .094.078.203.203.203.781 0 1.562-.219 2.344-.219.765 0 1.547.219 2.328.219.14 0 .203-.11.203-.203 0-.11-.063-.234-.203-.234-.797 0-1.297-.782-1.297-1.641zm.531-6.328c-.437 0-.86-.11-1.266-.219-.156-.062-.296.094-.296.281 0 3.36-2.344 5.563-2.344 5.766 0 .156.156.422.562.422h2.813v.078h2.078v-.078h1.281c.172 0 .266-.125.266-.266 0-.14-.094-.265-.266-.265H5.422v-4.11a.27.27 0 0 0-.25-.266c-.234 0-.219.47-.61.985-.593.797-1.218.672-1.218 1.281v2.11H.53l4.89-5.657c.032-.031.032-.047.032-.078a.23.23 0 0 0-.234-.234c-.14 0-.719.25-1.344.25m0 0"/><path id="n" d="M1.688.063C2.609.063 3.093-.344 3.234-1c.141-.687-.28-1.078-.609-1.172v-.047c.422-.078.781-.328.89-.797.126-.64-.359-1.171-1.28-1.171-.72 0-1.297.296-1.422.875a.88.88 0 0 0 .515 1.015l-.016.047c-.375.063-.906.266-1.046.938C.125-.625.53.063 1.688.063m.359-2.47c-.563 0-.844-.359-.75-.78.094-.407.453-.547.922-.547.562 0 .89.28.781.734-.078.375-.406.594-.953.594M1.703-.39C.922-.39.672-.828.781-1.297.891-1.844 1.344-2 1.906-2s.953.344.844.906c-.094.453-.422.703-1.047.703m0 0"/><path id="M" d="M3.266-2.125C1.672-2.125 0-.719 0 .656c0 .89.688 1.469 1.734 1.469C3.328 2.125 5 .719 5-.656c0-.89-.687-1.469-1.734-1.469m0 0"/></defs><use xlink:href="#a" x="219.099" y="56.774" transform="translate(-5.94 -32.901)scale(.35278)"/><use xlink:href="#a" x="251.606" y="56.774" transform="translate(-5.94 -32.901)scale(.35278)"/><use xlink:href="#a" x="304.863" y="56.774" transform="translate(-5.94 -32.901)scale(.35278)"/><use xlink:href="#a" x="333.282" y="56.774" transform="translate(-5.94 -32.901)scale(.35278)"/><use xlink:href="#b" x="478.281" y="74.209" transform="translate(-5.94 -32.901)scale(.35278)"/><use xlink:href="#b" x="528.474" y="74.209" transform="translate(-5.94 -32.901)scale(.35278)"/><use xlink:href="#c" x="49.332" y="90.644" transform="translate(-5.94 -32.901)scale(.35278)"/><use xlink:href="#c" x="77.759" y="90.644" transform="translate(-5.94 -32.901)scale(.35278)"/><path fill="none" stroke="#222" stroke-miterlimit="10" stroke-width=".3339252" d="M173.693 29.498v-7.205M47.162 62.751v-7.028M88.23 14.094V6.976M47.162 44.815v-7.118M47.162 29.498v-7.205M88.23 29.498v-7.205M47.162 14.094V6.976M88.23 44.815v-7.118M173.693 14.094V6.976M88.23 62.751v-7.028M47.162 78.362v-7.03M173.693 44.815v-7.118M88.23 78.362v-7.03M173.693 62.751v-7.028M110.086 37.785v-8.287M110.086 22.382v-8.288M173.693 78.362v-7.03M173.693 37.785v-8.287M173.693 22.382v-8.288M188.893 14.094V6.976M188.033 14.094V6.976M188.893 29.498v-7.205M188.033 29.498v-7.205M88.23 37.785v-8.287M88.23 22.382v-8.288M151.383 62.751v-7.028M68.04 44.815v-7.118M68.04 62.751v-7.028M68.04 29.498v-7.205M68.04 78.362v-7.03M68.04 14.094V6.976M151.383 14.094V6.976M151.383 29.498v-7.205M130.4 37.785v-8.287M130.4 22.382v-8.288M151.383 44.815v-7.118"/><path fill="none" stroke="#222" stroke-linecap="round" stroke-miterlimit="10" stroke-width=".17572968" d="M24.149 14.006h164.824M24.149 12.249h164.824M24.149 10.492h164.824M24.149 8.735h164.824M24.149 6.976h164.824"/><path fill="none" stroke="#222" stroke-miterlimit="10" stroke-width=".3339252" d="M68.04 37.785v-8.287M68.04 22.382v-8.288M151.383 78.362v-7.03M130.4 78.362v-7.03M130.4 62.751v-7.028M151.383 37.785v-8.287M151.383 22.382v-8.288M130.4 44.815v-7.118M47.162 37.785v-8.287M47.162 22.382v-8.288M130.4 29.498v-7.205M130.4 14.094V6.976M110.086 14.094V6.976M110.086 62.751v-7.028M110.086 29.498v-7.205"/><path fill="none" stroke="#222" stroke-linecap="round" stroke-miterlimit="10" stroke-width=".17572968" d="M24.149 62.751h164.824M24.149 60.994h164.824M24.149 59.237h164.824M24.149 57.48h164.824M24.149 55.723h164.824"/><path fill="none" stroke="#222" stroke-linecap="round" stroke-miterlimit="10" stroke-width=".35149463999999997" d="M153.294 46.572h2.802M132.582 46.572h2.802M81.726 46.572h2.625M61.61 46.572h2.624"/><path fill="none" stroke="#222" stroke-miterlimit="10" stroke-width=".3339252" d="M110.086 44.815v-7.118M188.893 78.362v-7.03M188.033 78.362v-7.03"/><path fill="none" stroke="#222" stroke-linecap="round" stroke-miterlimit="10" stroke-width=".17572968" d="M24.149 29.41h164.824M24.149 27.653h164.824M24.149 25.896h164.824M24.149 24.139h164.824M24.149 22.382h164.824"/><path fill="none" stroke="#222" stroke-miterlimit="10" stroke-width=".3339252" d="M188.893 44.815v-7.118M188.033 44.815v-7.118M188.893 37.785v-8.287M188.033 37.785v-8.287M188.893 22.382v-8.288M188.033 22.382v-8.288M188.893 62.751v-7.028M188.033 62.751v-7.028"/><path fill="none" stroke="#222" stroke-linecap="round" stroke-miterlimit="10" stroke-width=".17572968" d="M24.149 78.362h164.824M24.149 76.605h164.824M24.149 74.848h164.824M24.149 73.09h164.824M24.149 71.332h164.824"/><path fill="none" stroke="#222" stroke-miterlimit="10" stroke-width=".3339252" d="M110.086 78.362v-7.03"/><path fill="none" stroke="#222" stroke-linecap="round" stroke-miterlimit="10" stroke-width=".17572968" d="M24.149 44.815h164.824M24.149 43.058h164.824M24.149 41.3h164.824M24.149 39.542h164.824M24.149 37.785h164.824"/><use xlink:href="#d" x="401.536" y="125.494" transform="translate(-5.94 -32.901)scale(.35278)"/><path fill="none" stroke="#222" stroke-linecap="round" stroke-linejoin="round" stroke-miterlimit="10" stroke-width=".1405908" d="M134.875 10.915h.089V5.29h-.089zm0 0"/><path d="M134.875 10.915h.089V5.29h-.089zm0 0"/><path fill="none" stroke="#222" stroke-linecap="round" stroke-linejoin="round" stroke-miterlimit="10" stroke-width=".1405908" d="M133.003 31.098h.086v-5.626h-.086zm0 0"/><path d="M133.001 31.098h.088v-5.626h-.088zm0 0"/><use xlink:href="#d" x="401.536" y="164.178" transform="translate(-5.94 -32.901)scale(.35278)"/><use xlink:href="#e" x="393.65" y="305.428" transform="translate(-5.94 -32.901)scale(.35278)"/><use xlink:href="#f" x="393.65" y="253.708" transform="translate(-5.94 -32.901)scale(.35278)"/><use xlink:href="#f" x="393.65" y="225.278" transform="translate(-5.94 -32.901)scale(.35278)"/><use xlink:href="#f" x="336.063" y="130.475" transform="translate(-5.94 -32.901)scale(.35278)"/><use xlink:href="#f" x="393.65" y="164.178" transform="translate(-5.94 -32.901)scale(.35278)"/><path fill="none" stroke="#222" stroke-linejoin="round" stroke-miterlimit="10" stroke-width=".1405908" d="M131.798 59.883v.703l2.496-.658v-.705zm0 0"/><path d="M131.798 59.883v.703l2.496-.658v-.705zm0 0"/><path fill="none" stroke="#222" stroke-linejoin="round" stroke-miterlimit="10" stroke-width=".1405908" d="M131.798 61.307v.703l2.496-.659v-.704zm0 0"/><path d="M131.798 61.307v.703l2.496-.659v-.704zm0 0"/><path fill="none" stroke="#222" stroke-linejoin="round" stroke-miterlimit="10" stroke-width=".1405908" d="M133.003 62.68h.086v-5.623h-.086zm0 0"/><path d="M133.001 62.68h.088v-5.623h-.088zm0 0"/><path fill="none" stroke="#222" stroke-linejoin="round" stroke-miterlimit="10" stroke-width=".1405908" d="M162.635 71.314v.703l8.746-2.09v-.703zm0 0"/><path d="M162.635 71.314v.703l8.746-2.09v-.703zm0 0"/><path fill="none" stroke="#222" stroke-linejoin="round" stroke-miterlimit="10" stroke-width=".1405908" d="M104.08 62.68h.089v-5.736h-.089zm0 0"/><path d="M104.08 62.68h.089v-5.736h-.089zm0 0"/><use xlink:href="#d" x="401.536" y="222.787" transform="translate(-5.94 -32.901)scale(.35278)"/><path fill="none" stroke="#222" stroke-linejoin="round" stroke-miterlimit="10" stroke-width=".1405908" d="M134.875 46.116h.089v-5.624h-.089zm0 0"/><path d="M134.875 46.117h.089v-5.625h-.089zm0 0"/><use xlink:href="#g" x="305.177" y="164.178" transform="translate(-5.94 -32.901)scale(.35278)"/><use xlink:href="#d" x="401.537" y="253.708" transform="translate(-5.94 -32.901)scale(.35278)"/><use xlink:href="#d" x="343.949" y="222.787" transform="translate(-5.94 -32.901)scale(.35278)"/><path fill="none" stroke="#222" stroke-linejoin="round" stroke-miterlimit="10" stroke-width=".1405908" d="M114.56 45.238h.088v-5.625h-.088zm0 0"/><path d="M114.56 45.238h.088v-5.625h-.088zm0 0"/><use xlink:href="#d" x="343.949" y="258.689" transform="translate(-5.94 -32.901)scale(.35278)"/><path fill="none" stroke="#222" stroke-linejoin="round" stroke-miterlimit="10" stroke-width=".1405908" d="M112.686 65.025h.088v-5.332h-.088zm0 0"/><path d="M112.686 65.025h.088v-5.332h-.088zm0 0"/><use xlink:href="#f" x="336.063" y="261.179" transform="translate(-5.94 -32.901)scale(.35278)"/><use xlink:href="#e" x="336.063" y="305.427" transform="translate(-5.94 -32.901)scale(.35278)"/><use xlink:href="#d" x="343.949" y="130.474" transform="translate(-5.94 -32.901)scale(.35278)"/><path fill="none" stroke="#222" stroke-linejoin="round" stroke-miterlimit="10" stroke-width=".1405908" d="M114.56 12.672h.088V7.047h-.088zm0 0"/><path d="M114.56 12.672h.088V7.047h-.088zm0 0"/><path fill="none" stroke="#222" stroke-linejoin="round" stroke-miterlimit="10" stroke-width=".1405908" d="M111.483 62.226v.703l2.496-.659v-.703zm0 0"/><path d="M111.483 62.226v.703l2.496-.659v-.703zm0 0"/><path fill="none" stroke="#222" stroke-linejoin="round" stroke-miterlimit="10" stroke-width=".1405908" d="M111.483 63.65v.702l2.496-.658v-.703zm0 0"/><path d="M111.483 63.65v.702l2.496-.658v-.703zm0 0"/><use xlink:href="#d" x="343.949" y="159.196" transform="translate(-5.94 -32.901)scale(.35278)"/><path fill="none" stroke="#222" stroke-linejoin="round" stroke-miterlimit="10" stroke-width=".1405908" d="M112.686 30.218h.088v-5.625h-.088zm0 0"/><path d="M112.686 30.218h.088v-5.623h-.088zm0 0"/><use xlink:href="#h" x="351.631" y="312.9" transform="translate(-5.94 -32.901)scale(.35278)"/><path fill="none" stroke="#222" stroke-linejoin="round" stroke-miterlimit="10" stroke-width=".1405908" d="M119.935 77.14h.086v-5.737h-.086zm0 0"/><path d="M119.935 77.14h.086v-5.737h-.086zm0 0"/><use xlink:href="#h" x="369.569" y="305.428" transform="translate(-5.94 -32.901)scale(.35278)"/><path fill="none" stroke="#222" stroke-linejoin="round" stroke-miterlimit="10" stroke-width=".1405908" d="M124.507 80.634h.087v-5.443h-.087zm0 0"/><path d="M124.507 80.634h.087v-5.443h-.087zm0 0"/><use xlink:href="#f" x="393.65" y="125.494" transform="translate(-5.94 -32.901)scale(.35278)"/><use xlink:href="#f" x="336.063" y="222.787" transform="translate(-5.94 -32.901)scale(.35278)"/><use xlink:href="#f" x="336.063" y="161.687" transform="translate(-5.94 -32.901)scale(.35278)"/><use xlink:href="#f" x="520.087" y="300.446" transform="translate(-5.94 -32.901)scale(.35278)"/><use xlink:href="#d" x="527.972" y="297.956" transform="translate(-5.94 -32.901)scale(.35278)"/><path fill="none" stroke="#222" stroke-linejoin="round" stroke-miterlimit="10" stroke-width=".1405908" d="M177.606 79.17h.088v-5.625h-.088zm0 0"/><path d="M177.606 79.17h.088v-5.625h-.088zm0 0"/><path fill="none" stroke="#222" stroke-linejoin="round" stroke-miterlimit="10" stroke-width=".1405908" d="M171.293 73.625h.088v-3.953h-.088zm0 0"/><path d="M171.293 73.625h.088v-3.953h-.088zm0 0"/><use xlink:href="#h" x="484.943" y="307.919" transform="translate(-5.94 -32.901)scale(.35278)"/><path fill="none" stroke="#222" stroke-linejoin="round" stroke-miterlimit="10" stroke-width=".1405908" d="M166.964 75.382h.089v-4.69h-.089zm0 0"/><path d="M166.964 75.382h.087v-4.69h-.087zm0 0"/><use xlink:href="#h" x="497.216" y="302.937" transform="translate(-5.94 -32.901)scale(.35278)"/><path fill="none" stroke="#222" stroke-linecap="round" stroke-linejoin="round" stroke-miterlimit="10" stroke-width=".1405908" d="M42.28 46.529c1.92 1.764 6.272 1.764 8.193 0-1.92 1.553-6.273 1.553-8.194 0m0 0"/><path d="M42.28 46.529c1.92 1.764 6.272 1.764 8.193 0-1.92 1.553-6.273 1.553-8.194 0"/><use xlink:href="#i" x="176.876" y="300.447" transform="translate(-5.94 -32.901)scale(.35278)"/><use xlink:href="#i" x="235.083" y="300.447" transform="translate(-5.94 -32.901)scale(.35278)"/><use xlink:href="#i" x="294.677" y="300.447" transform="translate(-5.94 -32.901)scale(.35278)"/><use xlink:href="#f" x="452.363" y="227.768" transform="translate(-5.94 -32.901)scale(.35278)"/><use xlink:href="#f" x="452.363" y="261.18" transform="translate(-5.94 -32.901)scale(.35278)"/><use xlink:href="#e" x="452.363" y="305.428" transform="translate(-5.94 -32.901)scale(.35278)"/><use xlink:href="#d" x="460.249" y="120.513" transform="translate(-5.94 -32.901)scale(.35278)"/><path fill="none" stroke="#222" stroke-linejoin="round" stroke-miterlimit="10" stroke-width=".1405908" d="M153.715 15.693h.088v-5.624h-.088zm0 0"/><path d="M153.715 15.693h.088v-5.624h-.088zm0 0"/><path fill="none" stroke="#222" stroke-linejoin="round" stroke-miterlimit="10" stroke-width=".1405908" d="M146.718 75.382h.088v-5.736h-.088zm0 0"/><path d="M146.718 75.382h.088v-5.736h-.088zm0 0"/><use xlink:href="#h" x="409.219" y="315.391" transform="translate(-5.94 -32.901)scale(.35278)"/><path fill="none" stroke="#222" stroke-linejoin="round" stroke-miterlimit="10" stroke-width=".1405908" d="M140.25 78.018h.088v-5.736h-.088zm0 0"/><path d="M140.25 78.018h.088v-5.736h-.088zm0 0"/><use xlink:href="#h" x="427.555" y="307.919" transform="translate(-5.94 -32.901)scale(.35278)"/><use xlink:href="#d" x="460.248" y="169.159" transform="translate(-5.94 -32.901)scale(.35278)"/><use xlink:href="#f" x="452.362" y="120.513" transform="translate(-5.94 -32.901)scale(.35278)"/><use xlink:href="#f" x="452.362" y="169.159" transform="translate(-5.94 -32.901)scale(.35278)"/><use xlink:href="#d" x="458.389" y="302.937" transform="translate(-5.94 -32.901)scale(.35278)"/><use xlink:href="#h" x="472.671" y="312.9" transform="translate(-5.94 -32.901)scale(.35278)"/><path fill="none" stroke="#222" stroke-linejoin="round" stroke-miterlimit="10" stroke-width=".1405908" d="M162.635 77.14h.088v-5.43h-.088zm0 0"/><path d="M162.635 77.14h.088v-5.43h-.088zm0 0"/><path fill="none" stroke="#222" stroke-linejoin="round" stroke-miterlimit="10" stroke-width=".1405908" d="M155.589 26.319h.088v-5.626h-.088zm0 0"/><path d="M155.589 26.319h.086v-5.624h-.086Zm0 0"/><use xlink:href="#d" x="460.248" y="227.768" transform="translate(-5.94 -32.901)scale(.35278)"/><path fill="none" stroke="#222" stroke-linejoin="round" stroke-miterlimit="10" stroke-width=".1405908" d="M155.589 46.995h.088V41.37h-.088zm0 0"/><path d="M155.589 46.995h.086V41.37h-.086Zm0 0"/><use xlink:href="#d" x="460.248" y="258.689" transform="translate(-5.94 -32.901)scale(.35278)"/><path fill="none" stroke="#222" stroke-linejoin="round" stroke-miterlimit="10" stroke-width=".1405908" d="M153.715 65.025h.088v-5.332h-.088zm0 0"/><path d="M153.715 65.025h.088v-5.332h-.088zm0 0"/><path fill="none" stroke="#222" stroke-linejoin="round" stroke-miterlimit="10" stroke-width=".1405908" d="M51.366 44.359h.088v-5.624h-.088zm0 0"/><path d="M51.366 44.359h.088v-5.624h-.088zm0 0"/><path fill="none" stroke="#222" stroke-linejoin="round" stroke-miterlimit="10" stroke-width=".1405908" d="M49.492 65.025h.088V59.58h-.088zm0 0"/><path d="M49.492 65.025h.088V59.58h-.088zm0 0"/><use xlink:href="#h" x="175.044" y="120.513" transform="translate(-5.94 -32.901)scale(.35278)"/><use xlink:href="#f" x="156.93" y="220.297" transform="translate(-5.94 -32.901)scale(.35278)"/><use xlink:href="#h" x="156.93" y="261.18" transform="translate(-5.94 -32.901)scale(.35278)"/><use xlink:href="#h" x="175.044" y="164.178" transform="translate(-5.94 -32.901)scale(.35278)"/><path fill="none" stroke="#222" stroke-linejoin="round" stroke-miterlimit="10" stroke-width=".1405908" d="M49.492 14.815h.088V9.078h-.088zm0 0"/><path d="M49.492 14.815h.088V9.078h-.088zm0 0"/><path fill="none" stroke="#222" stroke-linejoin="round" stroke-miterlimit="10" stroke-width=".1405908" d="M49.492 31.683h.088V26.24h-.088zm0 0"/><path d="M49.492 31.683h.088V26.24h-.088zm0 0"/><use xlink:href="#h" x="192.387" y="225.277" transform="translate(-5.94 -32.901)scale(.35278)"/><use xlink:href="#e" x="192.387" y="261.179" transform="translate(-5.94 -32.901)scale(.35278)"/><path fill="none" stroke="#222" stroke-linejoin="round" stroke-miterlimit="10" stroke-width=".1405908" d="M63.756 11.027h.088V5.29h-.088zm0 0"/><path d="M63.756 11.027h.088V5.29h-.088zm0 0"/><path fill="none" stroke="#222" stroke-linejoin="round" stroke-miterlimit="10" stroke-width=".1405908" d="M62 29.34h.089v-5.737H62zm0 0"/><path d="M62 29.34h.089v-5.736H62zm0 0"/><use xlink:href="#h" x="192.387" y="159.196" transform="translate(-5.94 -32.901)scale(.35278)"/><path fill="none" stroke="#222" stroke-linejoin="round" stroke-miterlimit="10" stroke-width=".1405908" d="M63.756 46.229h.088v-5.737h-.088zm0 0"/><path d="M63.756 46.229h.088v-5.737h-.088zm0 0"/><use xlink:href="#h" x="216.219" y="120.513" transform="translate(-5.94 -32.901)scale(.35278)"/><use xlink:href="#h" x="175.044" y="253.708" transform="translate(-5.94 -32.901)scale(.35278)"/><path fill="none" stroke="#222" stroke-linejoin="round" stroke-miterlimit="10" stroke-width=".1405908" d="M55.882 15.693h.088V9.956h-.088zm0 0"/><path d="M55.882 15.693h.088V9.956h-.088zm0 0"/><use xlink:href="#g" x="168.552" y="120.513" transform="translate(-5.94 -32.901)scale(.35278)"/><path fill="none" stroke="#222" stroke-linejoin="round" stroke-miterlimit="10" stroke-width=".1405908" d="M55.882 31.098h.088V25.36h-.088zm0 0"/><path d="M55.882 31.098h.088V25.36h-.088zm0 0"/><use xlink:href="#g" x="168.552" y="164.178" transform="translate(-5.94 -32.901)scale(.35278)"/><path fill="none" stroke="#222" stroke-linejoin="round" stroke-miterlimit="10" stroke-width=".1405908" d="M55.882 62.68h.088v-5.736h-.088zm0 0"/><path d="M55.882 62.68h.088v-5.736h-.088zm0 0"/><use xlink:href="#h" x="192.387" y="125.494" transform="translate(-5.94 -32.901)scale(.35278)"/><use xlink:href="#j" x="89.025" y="205.353" transform="translate(-5.94 -32.901)scale(.35278)"/><use xlink:href="#e" x="133.873" y="123.003" transform="translate(-5.94 -32.901)scale(.35278)"/><use xlink:href="#k" x="89.025" y="127.985" transform="translate(-5.94 -32.901)scale(.35278)"/><use xlink:href="#g" x="106.46" y="113.041" transform="translate(-5.94 -32.901)scale(.35278)"/><use xlink:href="#l" x="117.532" y="123.003" transform="translate(-5.94 -32.901)scale(.35278)"/><use xlink:href="#m" x="116.937" y="131.689" transform="translate(-5.94 -32.901)scale(.35278)"/><use xlink:href="#e" x="133.873" y="166.669" transform="translate(-5.94 -32.901)scale(.35278)"/><use xlink:href="#k" x="89.025" y="171.65" transform="translate(-5.94 -32.901)scale(.35278)"/><use xlink:href="#g" x="106.46" y="156.706" transform="translate(-5.94 -32.901)scale(.35278)"/><use xlink:href="#l" x="117.532" y="166.669" transform="translate(-5.94 -32.901)scale(.35278)"/><use xlink:href="#m" x="116.937" y="175.355" transform="translate(-5.94 -32.901)scale(.35278)"/><use xlink:href="#h" x="133.873" y="220.296" transform="translate(-5.94 -32.901)scale(.35278)"/><use xlink:href="#i" x="526.28" y="256.198" transform="translate(-5.94 -32.901)scale(.35278)"/><use xlink:href="#g" x="106.459" y="205.353" transform="translate(-5.94 -32.901)scale(.35278)"/><use xlink:href="#l" x="117.531" y="210.334" transform="translate(-5.94 -32.901)scale(.35278)"/><use xlink:href="#m" x="116.936" y="219.02" transform="translate(-5.94 -32.901)scale(.35278)"/><use xlink:href="#h" x="133.872" y="253.708" transform="translate(-5.94 -32.901)scale(.35278)"/><use xlink:href="#j" x="89.024" y="256.198" transform="translate(-5.94 -32.901)scale(.35278)"/><use xlink:href="#g" x="106.459" y="256.198" transform="translate(-5.94 -32.901)scale(.35278)"/><use xlink:href="#l" x="117.531" y="261.18" transform="translate(-5.94 -32.901)scale(.35278)"/><use xlink:href="#m" x="116.936" y="269.865" transform="translate(-5.94 -32.901)scale(.35278)"/><use xlink:href="#e" x="133.872" y="305.428" transform="translate(-5.94 -32.901)scale(.35278)"/><use xlink:href="#k" x="89.024" y="310.41" transform="translate(-5.94 -32.901)scale(.35278)"/><use xlink:href="#n" x="93.329" y="289.756" transform="translate(-5.94 -32.901)scale(.35278)"/><use xlink:href="#o" x="34.33" y="126.476" transform="translate(-5.94 -32.901)scale(.35278)"/><use xlink:href="#p" x="40.623" y="126.476" transform="translate(-5.94 -32.901)scale(.35278)"/><use xlink:href="#q" x="43.004" y="126.476" transform="translate(-5.94 -32.901)scale(.35278)"/><use xlink:href="#r" x="47.936" y="126.476" transform="translate(-5.94 -32.901)scale(.35278)"/><use xlink:href="#s" x="51.683" y="126.476" transform="translate(-5.94 -32.901)scale(.35278)"/><use xlink:href="#t" x="54.064" y="126.476" transform="translate(-5.94 -32.901)scale(.35278)"/><use xlink:href="#u" x="59.507" y="126.476" transform="translate(-5.94 -32.901)scale(.35278)"/><use xlink:href="#v" x="64.444" y="126.476" transform="translate(-5.94 -32.901)scale(.35278)"/><use xlink:href="#v" x="68.355" y="126.476" transform="translate(-5.94 -32.901)scale(.35278)"/><use xlink:href="#u" x="72.098" y="126.476" transform="translate(-5.94 -32.901)scale(.35278)"/><use xlink:href="#w" x="31.268" y="169.229" transform="translate(-5.94 -32.901)scale(.35278)"/><use xlink:href="#p" x="36.716" y="169.229" transform="translate(-5.94 -32.901)scale(.35278)"/><use xlink:href="#x" x="39.096" y="169.229" transform="translate(-5.94 -32.901)scale(.35278)"/><use xlink:href="#y" x="44.373" y="169.229" transform="translate(-5.94 -32.901)scale(.35278)"/><use xlink:href="#u" x="49.476" y="169.229" transform="translate(-5.94 -32.901)scale(.35278)"/><use xlink:href="#p" x="54.413" y="169.229" transform="translate(-5.94 -32.901)scale(.35278)"/><use xlink:href="#z" x="56.794" y="169.229" transform="translate(-5.94 -32.901)scale(.35278)"/><use xlink:href="#A" x="62.237" y="169.229" transform="translate(-5.94 -32.901)scale(.35278)"/><use xlink:href="#r" x="67.854" y="169.229" transform="translate(-5.94 -32.901)scale(.35278)"/><use xlink:href="#t" x="71.601" y="169.229" transform="translate(-5.94 -32.901)scale(.35278)"/><use xlink:href="#B" x="45.215" y="213.806" transform="translate(-5.94 -32.901)scale(.35278)"/><use xlink:href="#C" x="50.487" y="213.806" transform="translate(-5.94 -32.901)scale(.35278)"/><use xlink:href="#D" x="55.764" y="213.806" transform="translate(-5.94 -32.901)scale(.35278)"/><use xlink:href="#q" x="61.381" y="213.806" transform="translate(-5.94 -32.901)scale(.35278)"/><use xlink:href="#E" x="78.514" y="111.821" transform="translate(-5.94 -32.901)scale(.35278)"/><use xlink:href="#F" x="78.514" y="221.517" transform="translate(-5.94 -32.901)scale(.35278)"/><path fill="none" stroke="#222" stroke-linejoin="round" stroke-miterlimit="10" stroke-width=".79083648" d="M22.155 44.981V6.81"/><use xlink:href="#G" x="40.027" y="264.651" transform="translate(-5.94 -32.901)scale(.35278)"/><use xlink:href="#q" x="45.985" y="264.651" transform="translate(-5.94 -32.901)scale(.35278)"/><use xlink:href="#C" x="50.917" y="264.651" transform="translate(-5.94 -32.901)scale(.35278)"/><use xlink:href="#H" x="56.194" y="264.651" transform="translate(-5.94 -32.901)scale(.35278)"/><use xlink:href="#u" x="61.127" y="264.651" transform="translate(-5.94 -32.901)scale(.35278)"/><use xlink:href="#t" x="66.064" y="264.651" transform="translate(-5.94 -32.901)scale(.35278)"/><use xlink:href="#g" x="106.459" y="295.466" transform="translate(-5.94 -32.901)scale(.35278)"/><use xlink:href="#I" x="22.424" y="308.026" transform="translate(-5.94 -32.901)scale(.35278)"/><use xlink:href="#p" x="29.398" y="308.026" transform="translate(-5.94 -32.901)scale(.35278)"/><use xlink:href="#A" x="31.779" y="308.026" transform="translate(-5.94 -32.901)scale(.35278)"/><use xlink:href="#J" x="37.396" y="308.026" transform="translate(-5.94 -32.901)scale(.35278)"/><use xlink:href="#H" x="42.163" y="308.026" transform="translate(-5.94 -32.901)scale(.35278)"/><use xlink:href="#u" x="47.095" y="308.026" transform="translate(-5.94 -32.901)scale(.35278)"/><use xlink:href="#t" x="52.033" y="308.026" transform="translate(-5.94 -32.901)scale(.35278)"/><use xlink:href="#K" x="57.475" y="308.026" transform="translate(-5.94 -32.901)scale(.35278)"/><use xlink:href="#L" x="61.727" y="308.026" transform="translate(-5.94 -32.901)scale(.35278)"/><use xlink:href="#s" x="67.344" y="308.026" transform="translate(-5.94 -32.901)scale(.35278)"/><use xlink:href="#u" x="69.726" y="308.026" transform="translate(-5.94 -32.901)scale(.35278)"/><use xlink:href="#p" x="74.663" y="308.026" transform="translate(-5.94 -32.901)scale(.35278)"/><path fill="none" stroke="#222" stroke-linejoin="round" stroke-miterlimit="10" stroke-width=".17572968" d="M24.042 78.362h.107V6.976h-.107zm0 0"/><path d="M24.042 78.362h.107V6.976h-.107zm0 0"/><use xlink:href="#i" x="526.28" y="118.022" transform="translate(-5.94 -32.901)scale(.35278)"/><use xlink:href="#i" x="526.28" y="161.687" transform="translate(-5.94 -32.901)scale(.35278)"/><use xlink:href="#i" x="526.28" y="205.352" transform="translate(-5.94 -32.901)scale(.35278)"/><use xlink:href="#h" x="156.93" y="118.022" transform="translate(-5.94 -32.901)scale(.35278)"/><use xlink:href="#h" x="156.93" y="166.668" transform="translate(-5.94 -32.901)scale(.35278)"/><use xlink:href="#l" x="117.532" y="305.427" transform="translate(-5.94 -32.901)scale(.35278)"/><use xlink:href="#m" x="116.936" y="314.113" transform="translate(-5.94 -32.901)scale(.35278)"/><path fill="none" stroke="#222" stroke-linejoin="round" stroke-miterlimit="10" stroke-width=".06784344" d="M36.91 4.43h.134V.034h-.135zm0 0"/><path d="M36.91 4.43h.134V.034h-.135zm0 0"/><use xlink:href="#M" x="116.936" y="106.576" transform="translate(-5.94 -32.901)scale(.35278)"/><use xlink:href="#b" x="121.94" y="108.702" transform="translate(-5.94 -32.901)scale(.35278)"/><use xlink:href="#N" x="123.815" y="108.702" transform="translate(-5.94 -32.901)scale(.35278)"/><use xlink:href="#b" x="129.258" y="108.702" transform="translate(-5.94 -32.901)scale(.35278)"/><use xlink:href="#O" x="131.133" y="108.702" transform="translate(-5.94 -32.901)scale(.35278)"/><use xlink:href="#P" x="136.916" y="108.702" transform="translate(-5.94 -32.901)scale(.35278)"/><path fill="none" stroke="#222" stroke-linejoin="round" stroke-miterlimit="10" stroke-width=".1405908" d="M104.08 31.098h.089V25.36h-.089zm0 0"/><path d="M104.08 31.098h.089V25.36h-.089zm0 0"/><path fill="none" stroke="#222" stroke-linejoin="round" stroke-miterlimit="10" stroke-width=".1405908" d="M43.113 44.472h.088v-5.737h-.088zm0 0"/><path d="M43.113 44.472h.088v-5.737h-.088zm0 0"/><path fill="none" stroke="#222" stroke-linejoin="round" stroke-miterlimit="10" stroke-width=".1405908" d="M41.358 62.68h.088v-5.736h-.088zm0 0"/><path d="M41.358 62.68h.088v-5.736h-.088zm0 0"/><path fill="none" stroke="#222" stroke-linejoin="round" stroke-miterlimit="10" stroke-width=".1405908" d="M91.834 16.278h.088v-5.331h-.088zm0 0"/><path d="M91.834 16.278h.088v-5.331h-.088zm0 0"/><use xlink:href="#Q" x="276.954" y="261.179" transform="translate(-5.94 -32.901)scale(.35278)"/><use xlink:href="#f" x="276.954" y="222.786" transform="translate(-5.94 -32.901)scale(.35278)"/><use xlink:href="#R" x="271.757" y="123.003" transform="translate(-5.94 -32.901)scale(.35278)"/><path fill="none" stroke="#222" stroke-linejoin="round" stroke-miterlimit="10" stroke-width=".1405908" d="M91.834 31.683h.088V26.24h-.088zm0 0"/><path d="M91.834 31.683h.088V26.24h-.088zm0 0"/><path fill="none" stroke="#222" stroke-linejoin="round" stroke-miterlimit="10" stroke-width=".1405908" d="M82.116 31.683h.088V26.24h-.088zm0 0"/><path d="M82.116 31.683h.088V26.24h-.088zm0 0"/><path fill="none" stroke="#222" stroke-linejoin="round" stroke-miterlimit="10" stroke-width=".1405908" d="M83.873 47.108h.087V41.37h-.087zm0 0"/><path d="M83.873 47.108h.087V41.37h-.087zm0 0"/><path fill="none" stroke="#222" stroke-linejoin="round" stroke-miterlimit="10" stroke-width=".1405908" d="M82.116 62.68h.088v-5.736h-.088zm0 0"/><path d="M82.116 62.68h.088v-5.736h-.088zm0 0"/><use xlink:href="#f" x="276.954" y="123.003" transform="translate(-5.94 -32.901)scale(.35278)"/><use xlink:href="#h" x="276.954" y="166.668" transform="translate(-5.94 -32.901)scale(.35278)"/><use xlink:href="#h" x="293.555" y="171.649" transform="translate(-5.94 -32.901)scale(.35278)"/><path fill="none" stroke="#222" stroke-linejoin="round" stroke-miterlimit="10" stroke-width=".1405908" d="M99.446 27.31h.088v-5.737h-.088zm0 0"/><path d="M99.446 27.31h.088v-5.737h-.088zm0 0"/><use xlink:href="#h" x="311.669" y="127.985" transform="translate(-5.94 -32.901)scale(.35278)"/><use xlink:href="#h" x="311.669" y="164.178" transform="translate(-5.94 -32.901)scale(.35278)"/><use xlink:href="#h" x="311.669" y="253.708" transform="translate(-5.94 -32.901)scale(.35278)"/><path fill="none" stroke="#222" stroke-linejoin="round" stroke-miterlimit="10" stroke-width=".1405908" d="M105.836 11.906h.088V6.169h-.088zm0 0"/><path d="M105.836 11.906h.088V6.169h-.088zm0 0"/><use xlink:href="#R" x="271.757" y="166.669" transform="translate(-5.94 -32.901)scale(.35278)"/><use xlink:href="#d" x="284.839" y="222.787" transform="translate(-5.94 -32.901)scale(.35278)"/><path fill="none" stroke="#222" stroke-linejoin="round" stroke-miterlimit="10" stroke-width=".1405908" d="M93.708 45.238h.088v-5.625h-.088zm0 0"/><path d="M93.708 45.238h.088v-5.625h-.088zm0 0"/><use xlink:href="#S" x="272.257" y="222.787" transform="translate(-5.94 -32.901)scale(.35278)"/><path fill="none" stroke="#222" stroke-linejoin="round" stroke-miterlimit="10" stroke-width=".1405908" d="M70.408 62.68h.088v-5.736h-.088zm0 0"/><path d="M70.408 62.68h.088v-5.736h-.088zm0 0"/><path fill="none" stroke="#222" stroke-linejoin="round" stroke-miterlimit="10" stroke-width=".1405908" d="M72.282 45.238h.088v-5.625h-.088zm0 0"/><path d="M72.282 45.238h.088v-5.625h-.088zm0 0"/><path fill="none" stroke="#222" stroke-linejoin="round" stroke-miterlimit="10" stroke-width=".1405908" d="M70.408 15.693h.088V9.956h-.088zm0 0"/><path d="M70.408 15.693h.088V9.956h-.088zm0 0"/><use xlink:href="#h" x="216.219" y="253.708" transform="translate(-5.94 -32.901)scale(.35278)"/><path fill="none" stroke="#222" stroke-linejoin="round" stroke-miterlimit="10" stroke-width=".1405908" d="M70.408 28.461h.088v-5.736h-.088zm0 0"/><path d="M70.408 28.461h.088v-5.736h-.088zm0 0"/><use xlink:href="#f" x="216.219" y="222.787" transform="translate(-5.94 -32.901)scale(.35278)"/><path fill="none" stroke="#222" stroke-linejoin="round" stroke-miterlimit="10" stroke-width=".1405908" d="M83.873 11.906h.087V6.169h-.087zm0 0"/><path d="M83.873 11.906h.087V6.169h-.087zm0 0"/><use xlink:href="#h" x="249.408" y="253.708" transform="translate(-5.94 -32.901)scale(.35278)"/><use xlink:href="#h" x="249.408" y="227.768" transform="translate(-5.94 -32.901)scale(.35278)"/><use xlink:href="#h" x="249.408" y="166.669" transform="translate(-5.94 -32.901)scale(.35278)"/><use xlink:href="#h" x="249.408" y="127.985" transform="translate(-5.94 -32.901)scale(.35278)"/><use xlink:href="#h" x="216.219" y="156.706" transform="translate(-5.94 -32.901)scale(.35278)"/><use xlink:href="#h" x="232.481" y="123.004" transform="translate(-5.94 -32.901)scale(.35278)"/><use xlink:href="#h" x="232.481" y="161.688" transform="translate(-5.94 -32.901)scale(.35278)"/><use xlink:href="#h" x="232.481" y="261.18" transform="translate(-5.94 -32.901)scale(.35278)"/><path fill="none" stroke="#222" stroke-linejoin="round" stroke-miterlimit="10" stroke-width=".1405908" d="M76.145 16.278h.088v-5.443h-.088zm0 0"/><path d="M76.145 16.278h.088v-5.443h-.088zm0 0"/><path fill="none" stroke="#222" stroke-linejoin="round" stroke-miterlimit="10" stroke-width=".1405908" d="M76.145 30.218h.088v-5.736h-.088zm0 0"/><path d="M76.145 30.218h.088v-5.736h-.088zm0 0"/><path fill="none" stroke="#222" stroke-linejoin="round" stroke-miterlimit="10" stroke-width=".1405908" d="M76.145 65.025h.088V59.58h-.088zm0 0"/><path d="M76.145 65.025h.088V59.58h-.088zm0 0"/><use xlink:href="#c" x="50.518" y="373.148" transform="translate(-5.94 -32.901)scale(.35278)"/><use xlink:href="#b" x="121.94" y="391.205" transform="translate(-5.94 -32.901)scale(.35278)"/><use xlink:href="#b" x="129.258" y="391.205" transform="translate(-5.94 -32.901)scale(.35278)"/><use xlink:href="#c" x="50.517" y="561.08" transform="translate(-5.94 -32.901)scale(.35278)"/><use xlink:href="#b" x="175.26" y="580.952" transform="translate(-5.94 -32.901)scale(.35278)"/><use xlink:href="#b" x="185.707" y="580.951" transform="translate(-5.94 -32.901)scale(.35278)"/><use xlink:href="#b" x="193.025" y="580.951" transform="translate(-5.94 -32.901)scale(.35278)"/></svg>