<svg xmlns="http://www.w3.org/2000/svg" xmlns:xlink="http://www.w3.org/1999/xlink" xml:space="preserve" width="750" height="193" viewBox="0 0 189.061 48.467"><defs><path id="x" d="M2.938.11c.64 0 1.187-.141 1.546-.329l-.03-.718c-.438.25-.985.359-1.438.359-1.125 0-1.688-.625-1.75-1.625h3.28c.016-.188.032-.36.032-.594 0-1.312-.734-2.031-1.922-2.031C1.296-4.828.47-3.812.47-2.391c0 1.454.781 2.5 2.469 2.5m-.266-4.297c.703 0 1.187.468 1.187 1.359v.047l-2.578.015c.094-.843.61-1.421 1.39-1.421m0 0"/><path id="u" d="M.813 0h.78v-2.781c.36-1.11.97-1.235 1.329-1.235.219 0 .36.016.578.063l.063-.797a1.9 1.9 0 0 0-.516-.078c-.438 0-1.063.156-1.438 1.031h-.078L1.5-4.766l-.687.047Zm0 0"/><path id="t" d="M1.922.094c.687 0 1.234-.375 1.516-.766h.078L3.562 0h.72v-3.203c0-1.14-.657-1.625-1.704-1.625-.687 0-1.406.187-1.875.375l.047.719c.672-.282 1.219-.407 1.656-.407.64 0 1.14.188 1.11 1.141l-1.485.25C1.328-2.625.5-2.297.5-1.266c0 .86.578 1.36 1.422 1.36m.219-.656c-.47 0-.844-.188-.844-.735 0-.531.39-.797.937-.89.891-.157 1.11-.235 1.266-.329v1.032c-.312.609-.844.922-1.36.922m0 0"/><path id="B" d="M2.86.11c1.437 0 2.343-1.094 2.343-2.5 0-1.376-.86-2.438-2.36-2.438C1.376-4.828.47-3.797.47-2.391c0 1.329.828 2.5 2.39 2.5m0-.688c-1.063 0-1.579-.875-1.579-1.813 0-.984.547-1.75 1.563-1.75.953 0 1.562.688 1.562 1.75 0 .938-.515 1.813-1.547 1.813m0 0"/><path id="w" d="M.813 0h.78v-3.14c.345-.516.798-.938 1.438-.938.703 0 .938.39.938 1.14V0h.781v-3.14c0-1.094-.453-1.688-1.453-1.688-.828 0-1.375.516-1.688.937h-.078L1.5-4.766l-.687.047Zm0 0"/><path id="q" d="M3.125.094c1.656 0 2.547-1.313 2.547-3.36 0-2-.844-3.375-2.578-3.375C1.39-6.64.53-5.28.53-3.266c0 1.938.797 3.36 2.594 3.36M3.109-.61c-1.25 0-1.75-1.11-1.75-2.657s.532-2.656 1.75-2.656c1.188 0 1.735 1.031 1.735 2.656 0 1.516-.5 2.657-1.735 2.657m0 0"/><path id="r" d="M.875 0h.86v-3.156h.374L3.391-1.75c.5.531 1.015 1.094 1.625 1.75h1.078c-.547-.594-1.39-1.531-2.047-2.234L2.844-3.562l1.078-1.126c.656-.687 1.312-1.375 2.015-2.093H4.892c-.688.718-1.157 1.218-1.672 1.765L2.094-3.859h-.36v-2.922H.875Zm0 0"/><path id="s" d="M.813 0h.78v-7.047l-.78.094zm0 0"/><path id="v" d="M1.203-5.797c.36 0 .594-.187.594-.578 0-.375-.234-.578-.578-.578-.36 0-.594.187-.594.578s.234.578.578.578M.828 0h.781v-4.734l-.78.015zm0 0"/><path id="y" d="M2.61.11c.406 0 .812-.11 1-.25l-.063-.688a1.27 1.27 0 0 1-.75.25c-.61 0-.875-.344-.875-1.016v-2.5h1.64v-.625h-1.64v-1.687l-.781.172v1.515H.234v.625h.907v2.672C1.14-.375 1.656.11 2.609.11m0 0"/><path id="A" d="M3.125.11c1.344 0 2.016-1.157 2.016-2.485 0-1.39-.735-2.453-2.032-2.453-.656 0-1.156.297-1.421.64h-.094v-2.859l-.782.094V0h.657l.062-.625h.078c.375.453.86.734 1.516.734m-.234-.704c-.594 0-1-.297-1.297-.781v-2.094c.297-.422.781-.64 1.281-.64.984 0 1.469.78 1.469 1.75 0 .906-.438 1.765-1.453 1.765m0 0"/><path id="E" d="M.813 0h.78v-2.094h.25l.813.813L3.937 0H4.97C4.406-.547 3.844-1.11 3.28-1.656l-.719-.766.626-.64c.53-.547 1.078-1.094 1.609-1.657h-.969c-.406.438-.828.89-1.25 1.328l-.687.735h-.297v-4.39l-.782.093zm0 0"/><path id="D" d="M2.14.11c1.235 0 1.75-.626 1.75-1.454 0-.843-.562-1.078-1.5-1.343-.796-.235-1.015-.407-1.015-.782 0-.547.438-.672.828-.672.344 0 .875.125 1.328.407l.078-.735a3.3 3.3 0 0 0-1.484-.36c-.953 0-1.562.532-1.562 1.391 0 .829.562 1.126 1.312 1.329.906.265 1.219.39 1.219.797 0 .609-.438.734-.969.734A3.05 3.05 0 0 1 .609-.984L.547-.25c.39.203 1.015.36 1.594.36m0 0"/><path id="o" d="M.61-3.547H4.78v-.703H.61Zm0 2.125H4.78v-.703H.61Zm0 0"/><path id="p" d="M2.89.11c1.626 0 2.391-.844 2.391-1.938 0-1.063-.765-1.547-1.343-1.672v-.094c.578-.156 1.124-.64 1.124-1.422 0-.968-.843-1.625-2.171-1.625-1.344 0-2.188.657-2.188 1.625 0 .782.547 1.266 1.125 1.422v.094C1.25-3.375.484-2.89.484-1.828.484-.734 1.25.109 2.891.109m0-3.922c-.89 0-1.39-.47-1.39-1.11 0-.656.547-1.016 1.39-1.016.829 0 1.391.36 1.391 1.016 0 .64-.515 1.11-1.39 1.11m0 3.187c-1.124 0-1.593-.531-1.593-1.266 0-.859.687-1.28 1.578-1.28.906 0 1.594.421 1.594 1.28C4.469-1.156 4-.625 2.89-.625m0 0"/><path id="z" d="M3.906.11c2.125 0 3.375-1.5 3.375-3.5 0-1.954-1.187-3.5-3.39-3.5-2.188 0-3.422 1.53-3.422 3.5 0 1.874 1.14 3.5 3.437 3.5m-.015-.75c-1.735 0-2.516-1.297-2.516-2.75 0-1.47.813-2.766 2.516-2.766 1.64 0 2.5 1.218 2.5 2.765 0 1.422-.766 2.75-2.5 2.75m0 0"/><path id="C" d="M2.984 0c2.11 0 2.75-.797 2.75-1.86 0-1.046-.656-1.484-1.359-1.624v-.079c.672-.218 1.188-.75 1.188-1.609 0-1-.625-1.61-2.188-1.61h-2.5V0Zm.329-6.062c.89 0 1.359.328 1.359 1.062 0 .656-.438 1.234-1.484 1.234h-1.47v-2.296ZM1.719-.72v-2.36h1.469c1.046 0 1.656.329 1.656 1.157 0 .75-.5 1.203-1.797 1.203zm0 0"/><path id="d" d="M0 0c0 .531.438.969.969.969A.96.96 0 0 0 1.922 0a.96.96 0 0 0-.953-.969A.974.974 0 0 0 0 0m0 0"/><path id="i" d="M-.14-1.344c0 .14.078.297.187.453L2.28 1.766C1.61 1.484.86 1.296.328 1.296c-.281 0-.75 0-.75.72 0 .937.844 2.562 1.61 3.468.125.157.328-.03.218-.187C1.11 4.953.938 4.28.938 3.687c0-1.109.593-1.124.921-1.124 1.11 0 1.657.718 1.829.718.156 0 .296-.14.296-.297a.3.3 0 0 0-.062-.187L2.5 1.125a1.8 1.8 0 0 1-.422-1.187c0-1.72 2.156-2.125 2.156-3.157 0-.125-.078-.281-.187-.437L1.453-6.75c-.078-.062-.14-.11-.203-.11-.156 0-.312.141-.312.298 0 .078.015.125.062.187l.578.688c.281.359.438.765.438 1.203 0 1.703-2.157 2.125-2.157 3.14m0 0"/><path id="f" d="M5.39-1.11a.75.75 0 0 1-.171.47C4.75-.095 1.953 1.812 1.28 1.812a.704.704 0 0 1-.718-.704q0-.257.187-.468C1.203.094 4-1.812 4.672-1.812c.406 0 .719.312.719.703M4.47-2.36c-1.672 0-2.688.5-3.188.844C.281-.844 0 .641 0 1.094c0 .984.688 1.265 1.484 1.265 1.672 0 2.72-.5 3.22-.843 1-.672 1.25-2.157 1.25-2.61 0-.984-.688-1.265-1.485-1.265m0 0"/><path id="k" d="M0-2.016v.985a.37.37 0 0 0 .375.375c.063 0 .094 0 .14-.016L1-.844V1.86l-.734.282A.385.385 0 0 0 0 2.5v.984c0 .235.172.407.375.407.063 0 .094 0 .14-.016L1 3.672v2.453c0 .188.14.344.328.344a.347.347 0 0 0 .344-.344V3.438l1.406-.516v2.453c0 .188.156.328.344.328a.32.32 0 0 0 .328-.328V2.656l.734-.281a.385.385 0 0 0 .266-.36v-.984a.37.37 0 0 0-.375-.375c-.062 0-.094 0-.14.016L3.75.844V-1.86l.734-.282A.385.385 0 0 0 4.75-2.5v-.984c0-.235-.172-.407-.375-.407-.062 0-.094 0-.14.016l-.485.203v-2.453a.334.334 0 0 0-.328-.344.347.347 0 0 0-.344.344v2.688l-1.406.515v-2.453a.334.334 0 0 0-.344-.328.32.32 0 0 0-.328.328v2.719l-.734.281a.385.385 0 0 0-.266.36m3.078.391v2.734l-1.406.516v-2.734zm0 0"/><path id="g" d="M3.719-2.36C1.922-2.36 0-.78 0 .782 0 1.72.766 2.36 1.922 2.36c1.797 0 3.703-1.578 3.703-3.14 0-.938-.75-1.578-1.906-1.578m0 0"/><path id="m" d="M11.156-.031c0-2.297-1.75-4.531-4.437-4.531-.11 0-.172.015-.188.015a70 70 0 0 0-.984-3.547c1.594-1.89 3.062-3.812 3.062-6.281 0-1.969-1.14-4.797-2.312-6.172a.3.3 0 0 0-.375-.016 6.15 6.15 0 0 0-2.563 5c0 3.063.391 4.313.922 6-2 2.329-4.25 4.579-4.25 7.625 0 3.375 2.407 6.485 5.75 6.485.782 0 1.438-.125 1.516-.14.047.515.078 1.03.078 1.546 0 .328-.016.64-.031.969-.11 1.687-1.14 3.25-2.75 3.281h-.047c-.828 0-1.563-.437-2.016-1.094.156.079.328.11.5.11a1.64 1.64 0 0 0 1.64-1.64c0-.97-.702-1.798-1.64-1.798-1.015 0-1.922.797-1.922 1.797 0 1.89 1.516 3.39 3.375 3.39 2.047 0 3.5-1.859 3.61-3.937.015-.343.031-.687.031-1.047 0-.578-.031-1.171-.078-1.75a4.5 4.5 0 0 0 3.11-4.265M7.984 3.484c-.156-1.375-.546-3.75-1.03-6.078A3.32 3.32 0 0 1 9.89.688c0 1.28-.782 2.39-1.907 2.796M1.297-.453c0-2.766 1.828-4.86 3.656-6.969.297.984.547 1.984.797 2.984-1.781.391-2.781 1.875-2.781 3.422 0 2.157 1.922 3.25 2.187 3.25.219 0 .39-.203.39-.406a.5.5 0 0 0-.124-.281C4.469 1 4.047.203 4.047-.531c0-1 .766-1.922 2.14-2.063.579 2.719.922 5.156 1.047 6.266-.609.11-1.375.11-1.406.11-2.094 0-4.531-1.735-4.531-4.235m5.719-17.531c.343 1.047.343 1.562.343 2.14 0 2.156-1.125 3.906-2.484 5.594-.437-1.39-.656-2.453-.656-3.297a4.9 4.9 0 0 1 2.797-4.437m0 0"/><path id="F" d="M0 .969h1.406c2.938 0 4.907-3.766 6.578-6.25.204-.313-.28-.625-.484-.313C5.969-3.312 4.11-.969 1.406-.969H.47A.46.46 0 0 0 0-.5Zm0 0"/><path id="G" d="M0-.969V.5a.46.46 0 0 0 .469.469h.937C4.11.969 5.97 3.313 7.5 5.594c.203.312.688 0 .484-.313-1.671-2.484-3.64-6.25-6.578-6.25zm0 0"/><path id="h" d="M6.281 0a.19.19 0 0 0 .188-.187V-2.5a.18.18 0 0 0-.188-.187H.188A.19.19 0 0 0 0-2.5v2.313C0-.094.094 0 .188 0Zm0 0"/><path id="e" d="M3.64-1.922c.75 0 2.282.594 2.282 2.313 0 1.39-.828 1.53-1.172 1.53-.75 0-2.281-.593-2.281-2.312 0-1.39.828-1.53 1.172-1.53m.563-.437C1.72-2.36 0-1.25 0 0s1.719 2.36 4.203 2.36c2.469 0 4.188-1.11 4.188-2.36S6.67-2.36 4.203-2.36m0 0"/><path id="j" d="M1.203-3.547c-.687 0-1.25.563-1.25 1.25 0 .781.688 1.36 1.5 1.36.594 0 1.203-.172 1.781-.375L1.188 4.313a.8.8 0 0 0 .515.187.82.82 0 0 0 .531-.187l2.079-7.204c-.079-.218-.422-.218-.532 0-.125.25-.765 1.032-1.015 1.032-.766 0-.172-1.688-1.563-1.688m0 0"/><path id="l" d="M6.188-.5c.609 0 1.14-.531 1.14-1.203 0-.969-1.031-2.86-3.016-2.86C.313-4.562 0-1.092 0 0c0 4.219 3.297 4.563 4.313 4.563 2.28 0 3.14-2.657 3.14-3.032 0-.125-.11-.218-.234-.218-.11 0-.188.046-.219.171-.328 1.375-1.312 2.594-2.687 2.594-1.829 0-1.954-1.281-1.954-3.25 0-.265.016-.531.016-.828s-.016-.562-.016-.828c0-1.969.125-3.25 1.954-3.25.812 0 1.546.406 2 1.016-.063-.016-.11-.016-.188-.016-.75 0-1.219.656-1.219 1.312 0 .875.75 1.266 1.282 1.266m0 0"/><path id="n" d="M3.266-2.125C1.672-2.125 0-.719 0 .656c0 .89.688 1.469 1.734 1.469C3.328 2.125 5 .719 5-.656c0-.89-.687-1.469-1.734-1.469m0 0"/></defs><use xlink:href="#a" x="219.099" y="56.774" transform="translate(-5.94 -132.562)scale(.35278)"/><use xlink:href="#a" x="251.606" y="56.774" transform="translate(-5.94 -132.562)scale(.35278)"/><use xlink:href="#a" x="304.863" y="56.774" transform="translate(-5.94 -132.562)scale(.35278)"/><use xlink:href="#a" x="333.282" y="56.774" transform="translate(-5.94 -132.562)scale(.35278)"/><use xlink:href="#b" x="478.281" y="74.209" transform="translate(-5.94 -132.562)scale(.35278)"/><use xlink:href="#b" x="528.474" y="74.209" transform="translate(-5.94 -132.562)scale(.35278)"/><use xlink:href="#c" x="49.332" y="90.644" transform="translate(-5.94 -132.562)scale(.35278)"/><use xlink:href="#c" x="77.759" y="90.644" transform="translate(-5.94 -132.562)scale(.35278)"/><use xlink:href="#b" x="121.94" y="108.702" transform="translate(-5.94 -132.562)scale(.35278)"/><use xlink:href="#b" x="129.258" y="108.702" transform="translate(-5.94 -132.562)scale(.35278)"/><use xlink:href="#c" x="50.518" y="373.148" transform="translate(-5.94 -132.562)scale(.35278)"/><path fill="none" stroke="#222" stroke-linejoin="round" stroke-miterlimit="10" stroke-width=".3339252" d="M164.977 14.279V7.16M146.11 14.279V7.16M146.11 29.682v-7.204M146.11 44.998v-7.116M68.1 37.97v-8.288M68.1 22.565v-8.286M146.11 37.97v-8.288M146.11 22.565v-8.286M68.1 44.998v-7.116M68.1 29.682v-7.204M68.1 14.279V7.16M83.884 14.279V7.16M164.977 29.682v-7.204M52.244 37.97v-8.288"/><path fill="none" stroke="#222" stroke-linejoin="round" stroke-miterlimit="10" stroke-width="1.05444864" d="M51.022 37.97v-8.288"/><path fill="none" stroke="#222" stroke-linejoin="round" stroke-miterlimit="10" stroke-width=".3339252" d="M52.244 22.565v-8.286"/><path fill="none" stroke="#222" stroke-linejoin="round" stroke-miterlimit="10" stroke-width="1.05444864" d="M51.022 22.565v-8.286"/><path fill="none" stroke="#222" stroke-linejoin="round" stroke-miterlimit="10" stroke-width=".3339252" d="M164.977 44.998v-7.116"/><use xlink:href="#d" x="166.896" y="490.869" transform="translate(-5.94 -132.562)scale(.35278)"/><use xlink:href="#d" x="166.896" y="495.85" transform="translate(-5.94 -132.562)scale(.35278)"/><path fill="none" stroke="#222" stroke-linejoin="round" stroke-miterlimit="10" stroke-width=".3339252" d="M52.244 44.998v-7.116"/><path fill="none" stroke="#222" stroke-linejoin="round" stroke-miterlimit="10" stroke-width="1.05444864" d="M51.022 44.998v-7.116"/><use xlink:href="#d" x="166.896" y="447.204" transform="translate(-5.94 -132.562)scale(.35278)"/><use xlink:href="#d" x="166.896" y="452.185" transform="translate(-5.94 -132.562)scale(.35278)"/><path fill="none" stroke="#222" stroke-linejoin="round" stroke-miterlimit="10" stroke-width=".3339252" d="M52.244 29.682v-7.204"/><path fill="none" stroke="#222" stroke-linejoin="round" stroke-miterlimit="10" stroke-width="1.05444864" d="M51.022 29.682v-7.204"/><path fill="none" stroke="#222" stroke-linejoin="round" stroke-miterlimit="10" stroke-width=".3339252" d="M164.977 37.97v-8.288M164.977 22.565v-8.286"/><use xlink:href="#d" x="166.896" y="403.539" transform="translate(-5.94 -132.562)scale(.35278)"/><use xlink:href="#d" x="166.896" y="408.52" transform="translate(-5.94 -132.562)scale(.35278)"/><path fill="none" stroke="#222" stroke-linejoin="round" stroke-miterlimit="10" stroke-width=".3339252" d="M52.244 14.279V7.16"/><path fill="none" stroke="#222" stroke-linejoin="round" stroke-miterlimit="10" stroke-width="1.05444864" d="M51.022 14.279V7.16"/><path fill="none" stroke="#222" stroke-linecap="round" stroke-linejoin="round" stroke-miterlimit="10" stroke-width=".17572968" d="M24.149 14.19h164.824M24.149 12.434h164.824M24.149 10.675h164.824M24.149 8.918h164.824M24.149 7.161h164.824"/><path fill="none" stroke="#222" stroke-linejoin="round" stroke-miterlimit="10" stroke-width=".3339252" d="M83.884 29.682v-7.204M132.998 37.97v-8.288M132.998 22.565v-8.286M83.884 44.998v-7.116M83.884 37.97v-8.288M83.884 22.565v-8.286M132.998 44.998v-7.116M132.998 29.682v-7.204M132.998 14.279V7.16M117.513 37.97v-8.288M117.513 22.565v-8.286M101.73 14.279V7.16M101.73 29.682v-7.204M101.73 44.998v-7.116M117.513 44.998v-7.116M117.513 29.682v-7.204M101.73 37.97v-8.288M101.73 22.565v-8.286M117.513 14.279V7.16"/><path fill="none" stroke="#222" stroke-linecap="round" stroke-linejoin="round" stroke-miterlimit="10" stroke-width=".35149463999999997" d="M147.526 46.756h2.625M125.211 46.756h2.803M102.91 46.756h2.802M93.307 46.756h2.801M69.28 46.756h2.802M61.097 46.756h2.802"/><use xlink:href="#d" x="543.906" y="490.869" transform="translate(-5.94 -132.562)scale(.35278)"/><use xlink:href="#d" x="543.906" y="495.85" transform="translate(-5.94 -132.562)scale(.35278)"/><path fill="none" stroke="#222" stroke-linejoin="round" stroke-miterlimit="10" stroke-width="1.05444864" d="M188.533 44.998v-7.116"/><path fill="none" stroke="#222" stroke-linejoin="round" stroke-miterlimit="10" stroke-width=".3339252" d="M187.312 44.998v-7.116"/><path fill="none" stroke="#222" stroke-linecap="round" stroke-linejoin="round" stroke-miterlimit="10" stroke-width=".17572968" d="M24.149 29.594h164.824M24.149 27.837h164.824M24.149 26.08h164.824M24.149 24.323h164.824M24.149 22.565h164.824"/><path fill="none" stroke="#222" stroke-linejoin="round" stroke-miterlimit="10" stroke-width="1.05444864" d="M188.533 37.97v-8.288"/><path fill="none" stroke="#222" stroke-linejoin="round" stroke-miterlimit="10" stroke-width=".3339252" d="M187.312 37.97v-8.288"/><path fill="none" stroke="#222" stroke-linejoin="round" stroke-miterlimit="10" stroke-width="1.05444864" d="M188.533 22.565v-8.286"/><path fill="none" stroke="#222" stroke-linejoin="round" stroke-miterlimit="10" stroke-width=".3339252" d="M187.312 22.565v-8.286"/><use xlink:href="#d" x="543.906" y="447.204" transform="translate(-5.94 -132.562)scale(.35278)"/><use xlink:href="#d" x="543.906" y="452.185" transform="translate(-5.94 -132.562)scale(.35278)"/><path fill="none" stroke="#222" stroke-linejoin="round" stroke-miterlimit="10" stroke-width="1.05444864" d="M188.533 29.682v-7.204"/><path fill="none" stroke="#222" stroke-linejoin="round" stroke-miterlimit="10" stroke-width=".3339252" d="M187.312 29.682v-7.204"/><path fill="none" stroke="#222" stroke-linecap="round" stroke-linejoin="round" stroke-miterlimit="10" stroke-width=".17572968" d="M24.149 44.998h164.824M24.149 43.24h164.824M24.149 41.484h164.824M24.149 39.727h164.824M24.149 37.97h164.824"/><use xlink:href="#d" x="543.906" y="403.539" transform="translate(-5.94 -132.562)scale(.35278)"/><use xlink:href="#d" x="543.906" y="408.52" transform="translate(-5.94 -132.562)scale(.35278)"/><path fill="none" stroke="#222" stroke-linejoin="round" stroke-miterlimit="10" stroke-width="1.05444864" d="M188.533 14.279V7.16"/><path fill="none" stroke="#222" stroke-linejoin="round" stroke-miterlimit="10" stroke-width=".3339252" d="M187.312 14.279V7.16"/><path fill="none" stroke="#222" stroke-linejoin="round" stroke-miterlimit="10" stroke-width=".1405908" d="M136.472 45.422h.087v-5.625h-.087zm0 0"/><path d="M136.472 45.422h.087v-5.625h-.087zm0 0"/><path fill="none" stroke="#222" stroke-linejoin="round" stroke-miterlimit="10" stroke-width=".1405908" d="M136.472 27.382h.087v-5.625h-.087zm0 0"/><path d="M136.472 27.382h.087v-5.625h-.087zm0 0"/><use xlink:href="#e" x="398.174" y="406.029" transform="translate(-5.94 -132.562)scale(.35278)"/><use xlink:href="#f" x="398.174" y="505.813" transform="translate(-5.94 -132.562)scale(.35278)"/><use xlink:href="#f" x="398.174" y="454.676" transform="translate(-5.94 -132.562)scale(.35278)"/><use xlink:href="#g" x="435.927" y="508.303" transform="translate(-5.94 -132.562)scale(.35278)"/><use xlink:href="#f" x="435.927" y="459.657" transform="translate(-5.94 -132.562)scale(.35278)"/><use xlink:href="#f" x="435.927" y="403.538" transform="translate(-5.94 -132.562)scale(.35278)"/><path fill="none" stroke="#222" stroke-linejoin="round" stroke-miterlimit="10" stroke-width=".1405908" d="M141.865 44.543h.088v-5.625h-.088zm0 0"/><path d="M141.865 44.543h.088v-5.625h-.088zm0 0"/><path fill="none" stroke="#222" stroke-linejoin="round" stroke-miterlimit="10" stroke-width=".1405908" d="M141.865 29.14h.088v-5.626h-.088zm0 0"/><path d="M141.865 29.14h.088v-5.626h-.088zm0 0"/><use xlink:href="#f" x="413.46" y="503.322" transform="translate(-5.94 -132.562)scale(.35278)"/><use xlink:href="#f" x="413.46" y="459.657" transform="translate(-5.94 -132.562)scale(.35278)"/><path fill="none" stroke="#222" stroke-linejoin="round" stroke-miterlimit="10" stroke-width=".1405908" d="M119.319 15.877h.088v-5.625h-.088zm0 0"/><path d="M119.319 15.877h.088v-5.625h-.088zm0 0"/><use xlink:href="#h" x="354.865" y="493.36" transform="translate(-5.94 -132.562)scale(.35278)"/><path fill="none" stroke="#222" stroke-linejoin="round" stroke-miterlimit="10" stroke-width=".1405908" d="M43.23 6.476v.703l5.995-1.09v-.703zm0 0"/><path d="M43.23 6.476v.703l5.995-1.09v-.703zm0 0"/><use xlink:href="#i" x="354.865" y="449.695" transform="translate(-5.94 -132.562)scale(.35278)"/><path fill="none" stroke="#222" stroke-linejoin="round" stroke-miterlimit="10" stroke-width=".1405908" d="M178.906 6.476v.703l5.994-1.09v-.703zm0 0"/><path d="M178.906 6.476v.703l5.994-1.09v-.703zm0 0"/><use xlink:href="#f" x="354.865" y="403.539" transform="translate(-5.94 -132.562)scale(.35278)"/><path fill="none" stroke="#222" stroke-linejoin="round" stroke-miterlimit="10" stroke-width=".1405908" d="M113.286 45.422h.088v-5.625h-.088zm0 0"/><path d="M113.286 45.422h.086v-5.625h-.086zm0 0"/><path fill="none" stroke="#222" stroke-linejoin="round" stroke-miterlimit="10" stroke-width=".1405908" d="M113.286 28.26h.088v-5.625h-.088zm0 0"/><path d="M113.286 28.26h.086v-5.623h-.086zm0 0"/><use xlink:href="#f" x="332.448" y="505.813" transform="translate(-5.94 -132.562)scale(.35278)"/><path fill="none" stroke="#222" stroke-linejoin="round" stroke-miterlimit="10" stroke-width=".1405908" d="M130.197 28.372h.087v-5.737h-.087zm0 0"/><path d="M130.197 28.373h.087v-5.736h-.087zm0 0"/><use xlink:href="#g" x="380.721" y="457.167" transform="translate(-5.94 -132.562)scale(.35278)"/><path fill="none" stroke="#222" stroke-linejoin="round" stroke-miterlimit="10" stroke-width=".1405908" d="M127.506 46.3h.088v-5.624h-.088zm0 0"/><path d="M127.506 46.3h.088v-5.624h-.088zm0 0"/><path fill="none" stroke="#222" stroke-linejoin="round" stroke-miterlimit="10" stroke-width=".1405908" d="M125.631 14.12h.089V8.495h-.089zm0 0"/><path d="M125.631 14.12h.089V8.495h-.089zm0 0"/><use xlink:href="#f" x="372.758" y="508.304" transform="translate(-5.94 -132.562)scale(.35278)"/><use xlink:href="#f" x="372.758" y="398.558" transform="translate(-5.94 -132.562)scale(.35278)"/><path fill="none" stroke="#222" stroke-linejoin="round" stroke-miterlimit="10" stroke-width=".1405908" d="M124.697 26.503h.087v-5.625h-.087zm0 0"/><path d="M124.697 26.503h.087v-5.625h-.087zm0 0"/><use xlink:href="#f" x="364.796" y="452.185" transform="translate(-5.94 -132.562)scale(.35278)"/><path fill="none" stroke="#222" stroke-linejoin="round" stroke-miterlimit="10" stroke-width=".1405908" d="M172.373 29.251h.088v-5.737h-.088zm0 0"/><path d="M172.373 29.251h.088v-5.737h-.088zm0 0"/><use xlink:href="#g" x="500.279" y="459.657" transform="translate(-5.94 -132.562)scale(.35278)"/><path fill="none" stroke="#222" stroke-linejoin="round" stroke-miterlimit="10" stroke-width=".1405908" d="M184.811 10.332h.089V5.829h-.089zm0 0"/><path d="M184.811 10.332h.089V5.829h-.089zm0 0"/><use xlink:href="#j" x="511.732" y="406.029" transform="translate(-5.94 -132.562)scale(.35278)"/><path fill="none" stroke="#222" stroke-linejoin="round" stroke-miterlimit="10" stroke-width=".1405908" d="M168.451 43.664h.088V38.04h-.088zm0 0"/><path d="M168.451 43.664h.088V38.04h-.088zm0 0"/><use xlink:href="#d" x="496.711" y="500.832" transform="translate(-5.94 -132.562)scale(.35278)"/><path fill="none" stroke="#222" stroke-linejoin="round" stroke-miterlimit="10" stroke-width=".1405908" d="M168.334 30.13h.087v-5.736h-.087zm0 0"/><path d="M168.333 30.13h.088v-5.736h-.088Zm0 0"/><use xlink:href="#g" x="527.166" y="408.52" transform="translate(-5.94 -132.562)scale(.35278)"/><path fill="none" stroke="#222" stroke-linejoin="round" stroke-miterlimit="10" stroke-width=".1405908" d="M181.86 11.211h.086V6.354h-.086zm0 0"/><path d="M181.858 11.211h.088V6.354h-.088zm0 0"/><use xlink:href="#i" x="527.166" y="493.36" transform="translate(-5.94 -132.562)scale(.35278)"/><use xlink:href="#i" x="527.166" y="449.695" transform="translate(-5.94 -132.562)scale(.35278)"/><path fill="none" stroke="#222" stroke-linejoin="round" stroke-miterlimit="10" stroke-width=".1405908" d="M168.451 11.1h.088V5.474h-.088zm0 0"/><path d="M168.451 11.1h.088V5.474h-.088zm0 0"/><path fill="none" stroke="#222" stroke-linejoin="round" stroke-miterlimit="10" stroke-width=".1405908" d="M178.906 12.089h.087V6.877h-.087zm0 0"/><path d="M178.906 12.09h.087V6.877h-.087zm0 0"/><use xlink:href="#g" x="518.795" y="411.011" transform="translate(-5.94 -132.562)scale(.35278)"/><path fill="none" stroke="#222" stroke-linejoin="round" stroke-miterlimit="10" stroke-width=".1405908" d="M176.414 28.372h.088v-5.737h-.088zm0 0"/><path d="M176.414 28.373h.088v-5.736h-.088zm0 0"/><use xlink:href="#g" x="511.732" y="457.167" transform="translate(-5.94 -132.562)scale(.35278)"/><use xlink:href="#f" x="458.834" y="406.03" transform="translate(-5.94 -132.562)scale(.35278)"/><path fill="none" stroke="#222" stroke-linejoin="round" stroke-miterlimit="10" stroke-width=".1405908" d="M153.713 45.534h.087v-5.737h-.087zm0 0"/><path d="M153.712 45.534h.088v-5.737h-.088zm0 0"/><use xlink:href="#g" x="447.38" y="505.813" transform="translate(-5.94 -132.562)scale(.35278)"/><use xlink:href="#f" x="458.833" y="454.676" transform="translate(-5.94 -132.562)scale(.35278)"/><path fill="none" stroke="#222" stroke-linejoin="round" stroke-miterlimit="10" stroke-width=".1405908" d="M149.671 46.413h.089v-5.737h-.089zm0 0"/><path d="M149.671 46.413h.089v-5.737h-.089zm0 0"/><path fill="none" stroke="#222" stroke-linejoin="round" stroke-miterlimit="10" stroke-width=".1405908" d="M149.79 29.14h.088v-5.626h-.088zm0 0"/><path d="M149.79 29.14h.088v-5.626h-.088zm0 0"/><path fill="none" stroke="#222" stroke-linejoin="round" stroke-miterlimit="10" stroke-width=".1405908" d="M147.916 15.877h.088v-5.625h-.088zm0 0"/><path d="M147.916 15.877h.088v-5.625h-.088zm0 0"/><use xlink:href="#g" x="535.536" y="406.029" transform="translate(-5.94 -132.562)scale(.35278)"/><use xlink:href="#f" x="488.825" y="500.831" transform="translate(-5.94 -132.562)scale(.35278)"/><use xlink:href="#g" x="488.825" y="462.147" transform="translate(-5.94 -132.562)scale(.35278)"/><use xlink:href="#f" x="488.825" y="408.52" transform="translate(-5.94 -132.562)scale(.35278)"/><path fill="none" stroke="#222" stroke-linejoin="round" stroke-miterlimit="10" stroke-width=".1405908" d="M162.232 42.898h.088V37.16h-.088zm0 0"/><path d="M162.232 42.898h.088V37.16h-.088zm0 0"/><use xlink:href="#g" x="471.532" y="498.341" transform="translate(-5.94 -132.562)scale(.35278)"/><path fill="none" stroke="#222" stroke-linejoin="round" stroke-miterlimit="10" stroke-width=".1405908" d="M157.752 44.655h.088v-5.737h-.088zm0 0"/><path d="M157.752 44.655h.088v-5.737h-.088zm0 0"/><path fill="none" stroke="#222" stroke-linejoin="round" stroke-miterlimit="10" stroke-width=".1405908" d="M157.87 27.382h.089v-5.625h-.088zm0 0"/><path d="M157.87 27.382h.089v-5.625h-.088zm0 0"/><path fill="none" stroke="#222" stroke-linejoin="round" stroke-miterlimit="10" stroke-width=".1405908" d="M155.997 16.463h.088V11.13h-.088zm0 0"/><path d="M155.997 16.463h.088V11.13h-.088zm0 0"/><use xlink:href="#g" x="458.834" y="503.322" transform="translate(-5.94 -132.562)scale(.35278)"/><use xlink:href="#f" x="183.054" y="454.676" transform="translate(-5.94 -132.562)scale(.35278)"/><use xlink:href="#d" x="190.94" y="452.185" transform="translate(-5.94 -132.562)scale(.35278)"/><path fill="none" stroke="#222" stroke-linejoin="round" stroke-miterlimit="10" stroke-width=".1405908" d="M60.583 27.382h.086v-5.625h-.086zm0 0"/><path d="M60.583 27.382h.086v-5.625h-.086zm0 0"/><use xlink:href="#h" x="173.123" y="493.36" transform="translate(-5.94 -132.562)scale(.35278)"/><use xlink:href="#d" x="181.009" y="403.539" transform="translate(-5.94 -132.562)scale(.35278)"/><path fill="none" stroke="#222" stroke-linejoin="round" stroke-miterlimit="10" stroke-width=".1405908" d="M55.205 16.463h.087V11.13h-.087zm0 0"/><path d="M55.204 16.463h.088V11.13h-.088zm0 0"/><use xlink:href="#f" x="191.016" y="510.794" transform="translate(-5.94 -132.562)scale(.35278)"/><use xlink:href="#f" x="332.448" y="457.166" transform="translate(-5.94 -132.562)scale(.35278)"/><path fill="none" stroke="#222" stroke-linejoin="round" stroke-miterlimit="10" stroke-width=".1405908" d="M71.457 28.372h.086v-5.737h-.086zm0 0"/><path d="M71.457 28.373h.086v-5.736h-.086zm0 0"/><path fill="none" stroke="#222" stroke-linejoin="round" stroke-miterlimit="10" stroke-width=".1405908" d="M71.575 46.3h.087v-5.624h-.087zm0 0"/><path d="M71.574 46.3h.088v-5.624h-.088zm0 0"/><path fill="none" stroke="#222" stroke-linejoin="round" stroke-miterlimit="10" stroke-width=".1405908" d="M63.391 47.18h.088v-5.626h-.088zm0 0"/><path d="M63.391 47.18h.088v-5.626h-.088zm0 0"/><use xlink:href="#g" x="198.979" y="401.048" transform="translate(-5.94 -132.562)scale(.35278)"/><path fill="none" stroke="#222" stroke-linejoin="round" stroke-miterlimit="10" stroke-width=".1405908" d="M64.327 14.998h.088V9.261h-.088zm0 0"/><path d="M64.327 15h.088V9.262h-.088zm0 0"/><use xlink:href="#e" x="214.213" y="408.52" transform="translate(-5.94 -132.562)scale(.35278)"/><use xlink:href="#g" x="214.213" y="457.166" transform="translate(-5.94 -132.562)scale(.35278)"/><use xlink:href="#f" x="214.213" y="508.304" transform="translate(-5.94 -132.562)scale(.35278)"/><use xlink:href="#k" x="106.459" y="439.732" transform="translate(-5.94 -132.562)scale(.35278)"/><use xlink:href="#l" x="116.936" y="449.695" transform="translate(-5.94 -132.562)scale(.35278)"/><use xlink:href="#i" x="134.204" y="493.36" transform="translate(-5.94 -132.562)scale(.35278)"/><use xlink:href="#m" x="89.024" y="498.341" transform="translate(-5.94 -132.562)scale(.35278)"/><use xlink:href="#k" x="106.459" y="483.397" transform="translate(-5.94 -132.562)scale(.35278)"/><use xlink:href="#l" x="116.936" y="493.36" transform="translate(-5.94 -132.562)scale(.35278)"/><path fill="none" stroke="#222" stroke-linejoin="round" stroke-miterlimit="10" stroke-width=".06784344" d="M36.91 4.43h.134V.034h-.135zm0 0"/><path d="M36.91 4.43h.134V.034h-.135zm0 0"/><use xlink:href="#n" x="116.936" y="389.08" transform="translate(-5.94 -132.562)scale(.35278)"/><use xlink:href="#b" x="121.94" y="391.205" transform="translate(-5.94 -132.562)scale(.35278)"/><use xlink:href="#o" x="123.815" y="391.205" transform="translate(-5.94 -132.562)scale(.35278)"/><use xlink:href="#b" x="129.258" y="391.205" transform="translate(-5.94 -132.562)scale(.35278)"/><use xlink:href="#p" x="131.133" y="391.205" transform="translate(-5.94 -132.562)scale(.35278)"/><use xlink:href="#q" x="136.916" y="391.205" transform="translate(-5.94 -132.562)scale(.35278)"/><path fill="none" stroke="#222" stroke-linejoin="round" stroke-miterlimit="10" stroke-width=".1405908" d="M43.23 12.089h.088V6.877h-.088zm0 0"/><path d="M43.23 12.09h.088V6.877h-.088zm0 0"/><use xlink:href="#m" x="89.025" y="454.676" transform="translate(-5.94 -132.562)scale(.35278)"/><use xlink:href="#d" x="140.23" y="447.204" transform="translate(-5.94 -132.562)scale(.35278)"/><path fill="none" stroke="#222" stroke-linejoin="round" stroke-miterlimit="10" stroke-width=".17572968" d="M24.042 44.998h.107V7.16h-.107zm0 0"/><path d="M24.042 45h.107V7.16h-.107zm0 0"/><use xlink:href="#r" x="34.33" y="409.501" transform="translate(-5.94 -132.562)scale(.35278)"/><use xlink:href="#s" x="40.623" y="409.501" transform="translate(-5.94 -132.562)scale(.35278)"/><use xlink:href="#t" x="43.004" y="409.501" transform="translate(-5.94 -132.562)scale(.35278)"/><use xlink:href="#u" x="47.936" y="409.501" transform="translate(-5.94 -132.562)scale(.35278)"/><use xlink:href="#v" x="51.683" y="409.501" transform="translate(-5.94 -132.562)scale(.35278)"/><use xlink:href="#w" x="54.064" y="409.501" transform="translate(-5.94 -132.562)scale(.35278)"/><use xlink:href="#x" x="59.507" y="409.501" transform="translate(-5.94 -132.562)scale(.35278)"/><use xlink:href="#y" x="64.444" y="409.501" transform="translate(-5.94 -132.562)scale(.35278)"/><use xlink:href="#y" x="68.356" y="409.501" transform="translate(-5.94 -132.562)scale(.35278)"/><use xlink:href="#x" x="72.098" y="409.501" transform="translate(-5.94 -132.562)scale(.35278)"/><use xlink:href="#z" x="43.769" y="453.166" transform="translate(-5.94 -132.562)scale(.35278)"/><use xlink:href="#A" x="51.593" y="453.166" transform="translate(-5.94 -132.562)scale(.35278)"/><use xlink:href="#B" x="57.21" y="453.166" transform="translate(-5.94 -132.562)scale(.35278)"/><use xlink:href="#x" x="62.827" y="453.166" transform="translate(-5.94 -132.562)scale(.35278)"/><use xlink:href="#C" x="15.961" y="496.831" transform="translate(-5.94 -132.562)scale(.35278)"/><use xlink:href="#t" x="22.089" y="496.831" transform="translate(-5.94 -132.562)scale(.35278)"/><use xlink:href="#D" x="27.022" y="496.831" transform="translate(-5.94 -132.562)scale(.35278)"/><use xlink:href="#D" x="31.274" y="496.831" transform="translate(-5.94 -132.562)scale(.35278)"/><use xlink:href="#E" x="35.525" y="496.831" transform="translate(-5.94 -132.562)scale(.35278)"/><use xlink:href="#s" x="40.628" y="496.831" transform="translate(-5.94 -132.562)scale(.35278)"/><use xlink:href="#t" x="43.009" y="496.831" transform="translate(-5.94 -132.562)scale(.35278)"/><use xlink:href="#u" x="47.942" y="496.831" transform="translate(-5.94 -132.562)scale(.35278)"/><use xlink:href="#v" x="51.688" y="496.831" transform="translate(-5.94 -132.562)scale(.35278)"/><use xlink:href="#w" x="54.069" y="496.831" transform="translate(-5.94 -132.562)scale(.35278)"/><use xlink:href="#x" x="59.512" y="496.831" transform="translate(-5.94 -132.562)scale(.35278)"/><use xlink:href="#y" x="64.449" y="496.831" transform="translate(-5.94 -132.562)scale(.35278)"/><use xlink:href="#y" x="68.361" y="496.831" transform="translate(-5.94 -132.562)scale(.35278)"/><use xlink:href="#x" x="72.103" y="496.831" transform="translate(-5.94 -132.562)scale(.35278)"/><use xlink:href="#F" x="78.514" y="394.846" transform="translate(-5.94 -132.562)scale(.35278)"/><use xlink:href="#G" x="78.514" y="504.542" transform="translate(-5.94 -132.562)scale(.35278)"/><path fill="none" stroke="#222" stroke-linejoin="round" stroke-miterlimit="10" stroke-width=".79083648" d="M22.155 45.166V6.994"/><use xlink:href="#g" x="134.204" y="411.011" transform="translate(-5.94 -132.562)scale(.35278)"/><use xlink:href="#m" x="89.025" y="411.011" transform="translate(-5.94 -132.562)scale(.35278)"/><use xlink:href="#k" x="106.46" y="396.067" transform="translate(-5.94 -132.562)scale(.35278)"/><use xlink:href="#l" x="116.936" y="406.03" transform="translate(-5.94 -132.562)scale(.35278)"/><use xlink:href="#i" x="134.204" y="449.695" transform="translate(-5.94 -132.562)scale(.35278)"/><path fill="none" stroke="#222" stroke-linejoin="round" stroke-miterlimit="10" stroke-width=".1405908" d="M46.183 11.211h.089V6.354h-.089zm0 0"/><path d="M46.183 11.211h.089V6.354h-.089zm0 0"/><use xlink:href="#g" x="150.945" y="406.029" transform="translate(-5.94 -132.562)scale(.35278)"/><path fill="none" stroke="#222" stroke-linejoin="round" stroke-miterlimit="10" stroke-width=".1405908" d="M49.137 10.332h.088V5.829h-.088zm0 0"/><path d="M49.137 10.332h.086V5.829h-.086zm0 0"/><use xlink:href="#g" x="142.574" y="408.52" transform="translate(-5.94 -132.562)scale(.35278)"/><use xlink:href="#f" x="173.124" y="406.029" transform="translate(-5.94 -132.562)scale(.35278)"/><use xlink:href="#i" x="173.124" y="449.695" transform="translate(-5.94 -132.562)scale(.35278)"/><use xlink:href="#d" x="140.23" y="490.869" transform="translate(-5.94 -132.562)scale(.35278)"/><path fill="none" stroke="#222" stroke-linejoin="round" stroke-miterlimit="10" stroke-width=".1405908" d="M93.727 14.998h.087V9.374h-.087zm0 0"/><path d="M93.726 15h.088V9.373h-.088zm0 0"/><use xlink:href="#f" x="282.318" y="510.794" transform="translate(-5.94 -132.562)scale(.35278)"/><path fill="none" stroke="#222" stroke-linejoin="round" stroke-miterlimit="10" stroke-width=".1405908" d="M105.205 46.3h.088v-5.624h-.088zm0 0"/><path d="M105.205 46.3h.088v-5.624h-.088zm0 0"/><use xlink:href="#i" x="282.318" y="449.695" transform="translate(-5.94 -132.562)scale(.35278)"/><use xlink:href="#f" x="282.318" y="401.048" transform="translate(-5.94 -132.562)scale(.35278)"/><path fill="none" stroke="#222" stroke-linejoin="round" stroke-miterlimit="10" stroke-width=".1405908" d="M89.685 15.877h.089V10.14h-.089zm0 0"/><path d="M89.685 15.877h.089V10.14h-.089zm0 0"/><use xlink:href="#g" x="270.865" y="403.539" transform="translate(-5.94 -132.562)scale(.35278)"/><use xlink:href="#f" x="309.542" y="508.304" transform="translate(-5.94 -132.562)scale(.35278)"/><use xlink:href="#g" x="309.542" y="457.167" transform="translate(-5.94 -132.562)scale(.35278)"/><use xlink:href="#e" x="309.542" y="408.52" transform="translate(-5.94 -132.562)scale(.35278)"/><path fill="none" stroke="#222" stroke-linejoin="round" stroke-miterlimit="10" stroke-width=".1405908" d="M98.986 27.494h.088v-5.737h-.088zm0 0"/><path d="M98.986 27.494h.087v-5.737h-.087zm0 0"/><use xlink:href="#g" x="292.248" y="454.676" transform="translate(-5.94 -132.562)scale(.35278)"/><path fill="none" stroke="#222" stroke-linejoin="round" stroke-miterlimit="10" stroke-width=".1405908" d="M105.086 28.372h.088v-5.737h-.088zm0 0"/><path d="M105.086 28.373h.088v-5.736h-.088zm0 0"/><path fill="none" stroke="#222" stroke-linejoin="round" stroke-miterlimit="10" stroke-width=".1405908" d="M95.6 47.18h.088v-5.626H95.6zm0 0"/><path d="M95.6 47.18h.088v-5.626H95.6zm0 0"/><use xlink:href="#f" x="237.119" y="505.813" transform="translate(-5.94 -132.562)scale(.35278)"/><use xlink:href="#g" x="320.995" y="459.657" transform="translate(-5.94 -132.562)scale(.35278)"/><path fill="none" stroke="#222" stroke-linejoin="round" stroke-miterlimit="10" stroke-width=".1405908" d="M79.656 45.422h.087v-5.625h-.087zm0 0"/><path d="M79.656 45.422h.087v-5.625h-.087zm0 0"/><path fill="none" stroke="#222" stroke-linejoin="round" stroke-miterlimit="10" stroke-width=".1405908" d="M109.127 29.251h.087v-5.737h-.087zm0 0"/><path d="M109.127 29.251h.087v-5.737h-.087zm0 0"/><path fill="none" stroke="#222" stroke-linejoin="round" stroke-miterlimit="10" stroke-width=".1405908" d="M79.656 28.26h.087v-5.625h-.087zm0 0"/><path d="M79.656 28.26h.087v-5.623h-.087zm0 0"/><use xlink:href="#f" x="237.119" y="457.167" transform="translate(-5.94 -132.562)scale(.35278)"/><path fill="none" stroke="#222" stroke-linejoin="round" stroke-miterlimit="10" stroke-width=".1405908" d="M75.497 29.251h.087v-5.737h-.087zm0 0"/><path d="M75.497 29.251h.087v-5.737h-.087zm0 0"/><use xlink:href="#g" x="225.666" y="459.657" transform="translate(-5.94 -132.562)scale(.35278)"/><path fill="none" stroke="#222" stroke-linejoin="round" stroke-miterlimit="10" stroke-width=".1405908" d="M85.645 16.463h.088V11.02h-.088zm0 0"/><path d="M85.645 16.463h.088V11.02h-.088zm0 0"/><use xlink:href="#h" x="259.412" y="493.36" transform="translate(-5.94 -132.562)scale(.35278)"/><path fill="none" stroke="#222" stroke-linejoin="round" stroke-miterlimit="10" stroke-width=".1405908" d="M87.52 27.382h.087v-5.625h-.087zm0 0"/><path d="M87.52 27.382h.087v-5.625h-.087zm0 0"/><use xlink:href="#f" x="259.412" y="454.676" transform="translate(-5.94 -132.562)scale(.35278)"/><use xlink:href="#g" x="259.412" y="406.03" transform="translate(-5.94 -132.562)scale(.35278)"/><use xlink:href="#c" x="50.517" y="561.08" transform="translate(-5.94 -132.562)scale(.35278)"/><use xlink:href="#b" x="175.26" y="580.952" transform="translate(-5.94 -132.562)scale(.35278)"/><use xlink:href="#b" x="185.707" y="580.951" transform="translate(-5.94 -132.562)scale(.35278)"/><use xlink:href="#b" x="193.025" y="580.951" transform="translate(-5.94 -132.562)scale(.35278)"/></svg>