<svg xmlns="http://www.w3.org/2000/svg" xmlns:xlink="http://www.w3.org/1999/xlink" xml:space="preserve" width="750" height="321" viewBox="0 0 189.061 80.739"><defs><path id="B" d="M2.234 0h.813v-6.516l-.39-.03c-.798.421-1.563.827-2.36 1.25l.203.655 1.734-.937zm0 0"/><path id="K" d="M2.938.11c.64 0 1.187-.141 1.546-.329l-.03-.718c-.438.25-.985.359-1.438.359-1.125 0-1.688-.625-1.75-1.625h3.28c.016-.188.032-.36.032-.594 0-1.312-.734-2.031-1.922-2.031C1.296-4.828.47-3.812.47-2.391c0 1.454.781 2.5 2.469 2.5m-.266-4.297c.703 0 1.187.468 1.187 1.359v.047l-2.578.015c.094-.843.61-1.421 1.39-1.421m0 0"/><path id="N" d="M.813 0h.78v-2.781c.36-1.11.97-1.235 1.329-1.235.219 0 .36.016.578.063l.063-.797a1.9 1.9 0 0 0-.516-.078c-.438 0-1.063.156-1.438 1.031h-.078L1.5-4.766l-.687.047Zm0 0"/><path id="U" d="M.813 0h.78v-3.14c.345-.516.798-.938 1.438-.938.703 0 .938.39.938 1.14V0h.781v-3.14c0-1.094-.453-1.688-1.453-1.688-.797 0-1.328.5-1.61.906h-.093v-3.125l-.782.094zm0 0"/><path id="M" d="M1.922.094c.687 0 1.234-.375 1.516-.766h.078L3.562 0h.72v-3.203c0-1.14-.657-1.625-1.704-1.625-.687 0-1.406.187-1.875.375l.047.719c.672-.282 1.219-.407 1.656-.407.64 0 1.14.188 1.11 1.141l-1.485.25C1.328-2.625.5-2.297.5-1.266c0 .86.578 1.36 1.422 1.36m.219-.656c-.47 0-.844-.188-.844-.735 0-.531.39-.797.937-.89.891-.157 1.11-.235 1.266-.329v1.032c-.312.609-.844.922-1.36.922m0 0"/><path id="V" d="M2.86.11c1.437 0 2.343-1.094 2.343-2.5 0-1.376-.86-2.438-2.36-2.438C1.376-4.828.47-3.797.47-2.391c0 1.329.828 2.5 2.39 2.5m0-.688c-1.063 0-1.579-.875-1.579-1.813 0-.984.547-1.75 1.563-1.75.953 0 1.562.688 1.562 1.75 0 .938-.515 1.813-1.547 1.813m0 0"/><path id="aa" d="M.813 0h.78v-3.14c.329-.5.75-.938 1.36-.938.656 0 .875.39.875 1.14V0h.781v-3.203c.313-.485.735-.875 1.313-.875.672 0 .875.39.875 1.14V0h.781v-3.14c0-1.063-.39-1.688-1.375-1.688-.797 0-1.328.516-1.656.953h-.063c-.156-.61-.546-.953-1.265-.953-.781 0-1.313.516-1.61.937h-.078L1.5-4.766l-.687.047Zm0 0"/><path id="P" d="M.813 0h.78v-3.14c.345-.516.798-.938 1.438-.938.703 0 .938.39.938 1.14V0h.781v-3.14c0-1.094-.453-1.688-1.453-1.688-.828 0-1.375.516-1.688.937h-.078L1.5-4.766l-.687.047Zm0 0"/><path id="C" d="M.453 0h4.313v-.719H1.594l.86-.718C3.89-2.657 4.64-3.703 4.64-4.781c0-1.14-.735-1.86-2.047-1.86-.781 0-1.594.266-2.156.579l.078.796c.64-.421 1.328-.656 1.937-.656.906 0 1.36.422 1.36 1.234 0 .985-.813 1.907-2.188 3.094-.39.328-.781.672-1.172 1.016zm0 0"/><path id="D" d="M3.125.094c1.656 0 2.547-1.313 2.547-3.36 0-2-.844-3.375-2.578-3.375C1.39-6.64.53-5.28.53-3.266c0 1.938.797 3.36 2.594 3.36M3.109-.61c-1.25 0-1.75-1.11-1.75-2.657s.532-2.656 1.75-2.656c1.188 0 1.735 1.031 1.735 2.656 0 1.516-.5 2.657-1.735 2.657m0 0"/><path id="L" d="M.875 0h.86v-3.156h.374L3.391-1.75c.5.531 1.015 1.094 1.625 1.75h1.078c-.547-.594-1.39-1.531-2.047-2.234L2.844-3.562l1.078-1.126c.656-.687 1.312-1.375 2.015-2.093H4.892c-.688.718-1.157 1.218-1.672 1.765L2.094-3.859h-.36v-2.922H.875Zm0 0"/><path id="H" d="M.813 0h.78v-7.047l-.78.094zm0 0"/><path id="O" d="M1.203-5.797c.36 0 .594-.187.594-.578 0-.375-.234-.578-.578-.578-.36 0-.594.187-.594.578s.234.578.578.578M.828 0h.781v-4.734l-.78.015zm0 0"/><path id="J" d="M2.61.11c.406 0 .812-.11 1-.25l-.063-.688a1.27 1.27 0 0 1-.75.25c-.61 0-.875-.344-.875-1.016v-2.5h1.64v-.625h-1.64v-1.687l-.781.172v1.515H.234v.625h.907v2.672C1.14-.375 1.656.11 2.609.11m0 0"/><path id="G" d="M.875 0h.844v-3.031h3.093v-.719H1.72v-2.281H5v-.75H.875Zm0 0"/><path id="S" d="M3.656-5.734c.313 0 .516-.188.516-.547 0-.344-.203-.563-.516-.563-.312 0-.515.203-.515.563s.203.547.515.547m-2.015 0c.328 0 .515-.188.515-.547 0-.344-.187-.563-.515-.563-.313 0-.516.203-.516.563s.203.547.516.547m.5 5.843c.797 0 1.359-.515 1.656-.937h.078L3.906 0h.688v-4.719h-.782v3.14c-.343.532-.796.954-1.406.954-.703 0-.922-.39-.922-1.14V-4.75l-.78.031v3.14C.703-.483 1.14.11 2.14.11m0 0"/><path id="T" d="M2.313 1.922c1.109 0 2.406-.516 2.406-1.61 0-.796-.594-1.078-1.89-1.078h-.204c-.719 0-1-.078-1-.343 0-.266.313-.36.984-.516.922-.203 1.532-.672 1.532-1.61 0-.343-.079-.656-.297-.89h1.11v-.594h-1.47c-.53 0-.734-.11-1.187-.11-1.125 0-1.844.626-1.844 1.548 0 .953.75 1.375 1.031 1.484v.063c-.39.172-.578.422-.578.75 0 .437.328.64.485.687v.063C1.078-.141.5.172.5.813c0 .546.406 1.109 1.813 1.109m-.063-4.11c-.531-.062-1.062-.406-1.062-1.03 0-.641.53-.938 1.109-.938.484 0 1.11.281 1.11.968 0 .735-.688.922-1.157 1m.14 3.485c-.859 0-1.156-.313-1.156-.64 0-.454.625-.75 1.235-.766h.172c1.078 0 1.328.187 1.328.547 0 .328-.531.859-1.578.859m0 0"/><path id="Z" d="M2.625 0h.86v-6.016h2.312v-.765h-5.5v.765h2.328Zm0 0"/><path id="Y" d="M2.14.11c.797 0 1.36-.516 1.657-.938h.078L3.906 0h.688v-4.719h-.782v3.14c-.343.532-.796.954-1.406.954-.703 0-.922-.39-.922-1.14V-4.75l-.78.031v3.14C.703-.483 1.14.11 2.14.11m0 0"/><path id="W" d="M.875 0h.844v-2.703h1.375c1.86 0 2.469-.89 2.469-2.125 0-1.36-.75-1.953-2.297-1.953H.875Zm2.344-6.062c.64 0 1.469.109 1.469 1.234 0 1.016-.547 1.422-1.75 1.422h-1.22v-2.656Zm0 0"/><path id="X" d="M2.14.11c1.235 0 1.75-.626 1.75-1.454 0-.843-.562-1.078-1.5-1.343-.796-.235-1.015-.407-1.015-.782 0-.547.438-.672.828-.672.344 0 .875.125 1.328.407l.078-.735a3.3 3.3 0 0 0-1.484-.36c-.953 0-1.562.532-1.562 1.391 0 .829.562 1.126 1.312 1.329.906.265 1.219.39 1.219.797 0 .609-.438.734-.969.734A3.05 3.05 0 0 1 .609-.984L.547-.25c.39.203 1.015.36 1.594.36m0 0"/><path id="A" d="M.61-3.547H4.78v-.703H.61Zm0 2.125H4.78v-.703H.61Zm0 0"/><path id="y" d="m2.719 1.156.547-.265c-1-.813-1.907-2.016-1.907-3.97 0-1.952.907-3.155 1.907-3.952l-.547-.266C1.469-6.39.563-5.094.563-3.078c0 2.015.906 3.328 2.156 4.234m0 0"/><path id="E" d="M.938 1.156C2.188.25 3.094-1.062 3.094-3.078c0-2-.906-3.313-2.156-4.219L.39-7.03c1 .797 1.906 2 1.906 3.953C2.297-1.11 1.39.078.39.89zm0 0"/><path id="I" d="M3.828-5.734c.328 0 .531-.188.531-.547 0-.344-.203-.563-.515-.563-.313 0-.531.203-.531.563s.218.547.515.547m-2.015 0c.328 0 .53-.188.53-.547 0-.344-.202-.563-.515-.563-.312 0-.516.203-.516.563s.204.547.5.547M2.859.109c1.438 0 2.344-1.093 2.344-2.5 0-1.375-.86-2.437-2.36-2.437C1.376-4.828.47-3.797.47-2.391c0 1.329.828 2.5 2.39 2.5m0-.687c-1.062 0-1.578-.875-1.578-1.813 0-.984.547-1.75 1.563-1.75.953 0 1.562.688 1.562 1.75 0 .938-.515 1.813-1.547 1.813m0 0"/><path id="t" d="M.578 0H2v-2.672c.234-.64.64-.765 1-.765.219 0 .39.015.64.03l.126-1.374a1.5 1.5 0 0 0-.5-.094c-.422 0-.938.172-1.313.938h-.11l-.062-.876-1.203.079zm0 0"/><path id="r" d="M2.953.125c.719 0 1.281-.14 1.656-.312l-.046-1.188a3.7 3.7 0 0 1-1.438.328c-.875 0-1.312-.39-1.39-1.094H4.64c.03-.187.046-.375.046-.625 0-1.421-.765-2.109-2.062-2.109-1.516 0-2.297 1.031-2.297 2.484 0 1.47.797 2.516 2.625 2.516m-.312-4c.453 0 .765.344.797.922l-1.704.031c.094-.594.454-.953.907-.953m0 0"/><path id="u" d="M1.703.11c.672 0 1.14-.376 1.39-.735h.11L3.297 0H4.5v-3.187c0-1.188-.687-1.688-1.875-1.688-.844 0-1.594.203-2.062.375l.062 1.219c.594-.281 1.188-.422 1.61-.422.593 0 .984.156.953.703l-1.313.203c-.687.11-1.531.453-1.531 1.516 0 .86.547 1.39 1.36 1.39m.563-1.094c-.282 0-.532-.125-.532-.5 0-.344.204-.547.547-.61.61-.125.766-.172.875-.265v.734c-.219.39-.547.64-.89.64m0 0"/><path id="q" d="M2.844.11c.64 0 1.11-.11 1.437-.25l-.078-1.235a1.78 1.78 0 0 1-1.031.313c-.906 0-1.39-.563-1.39-1.344 0-.766.452-1.25 1.171-1.25.281 0 .688.047 1.235.36l.093-1.22c-.375-.218-.968-.343-1.531-.343-1.594 0-2.422 1.062-2.422 2.5 0 1.422.906 2.468 2.516 2.468m0 0"/><path id="v" d="M.578 0H2v-2.953c.234-.344.531-.625.938-.625.484 0 .64.297.64.844V0H5v-3.187c0-1.11-.5-1.688-1.453-1.688-.75 0-1.266.422-1.594.89h-.11l-.062-.828-1.203.079Zm0 0"/><path id="p" d="M.203 0h1.563c.14-.453.28-.937.422-1.422h2.421c.141.484.282.969.407 1.422H6.64l-.75-2.297-.75-2.312a67 67 0 0 1-.703-2.172H2.422a94 94 0 0 0-.703 2.172L.953-2.297C.72-1.578.438-.734.203 0M3.36-5.453h.11l.812 2.875H2.516Zm0 0"/><path id="s" d="M.578 0H2v-7.094l-1.422.125zm0 0"/><path id="w" d="M2.25.125c.61 0 1.063-.266 1.406-.75h.094L3.844 0h1.203v-7.094l-1.422.125v2.719h-.11c-.265-.39-.687-.625-1.25-.625C1-4.875.345-3.781.345-2.375c0 1.328.594 2.5 1.906 2.5m.531-1.203c-.672 0-.984-.625-.984-1.281 0-.703.328-1.282.984-1.282.344 0 .656.141.844.422v1.61c-.172.312-.453.53-.844.53m0 0"/><path id="x" d="M2.86.125c1.593 0 2.484-1.078 2.484-2.516 0-1.39-.844-2.484-2.516-2.484-1.625 0-2.5 1.078-2.5 2.484 0 1.329.813 2.516 2.531 2.516m0-1.156c-.72 0-1.079-.657-1.079-1.36 0-.75.375-1.312 1.063-1.312.64 0 1.062.484 1.062 1.312 0 .704-.344 1.36-1.047 1.36m0 0"/><path id="h" d="M0 0c0 .531.438.969.969.969A.96.96 0 0 0 1.922 0a.96.96 0 0 0-.953-.969A.974.974 0 0 0 0 0m0 0"/><path id="d" d="M-.14-1.344c0 .14.078.297.187.453L2.28 1.766C1.61 1.484.86 1.296.328 1.296c-.281 0-.75 0-.75.72 0 .937.844 2.562 1.61 3.468.125.157.328-.03.218-.187C1.11 4.953.938 4.28.938 3.687c0-1.109.593-1.124.921-1.124 1.11 0 1.657.718 1.829.718.156 0 .296-.14.296-.297a.3.3 0 0 0-.062-.187L2.5 1.125a1.8 1.8 0 0 1-.422-1.187c0-1.72 2.156-2.125 2.156-3.157 0-.125-.078-.281-.187-.437L1.453-6.75c-.078-.062-.14-.11-.203-.11-.156 0-.312.141-.312.298 0 .078.015.125.062.187l.578.688c.281.359.438.765.438 1.203 0 1.703-2.157 2.125-2.157 3.14m0 0"/><path id="F" d="M0-2.016v.985a.37.37 0 0 0 .375.375c.063 0 .094 0 .14-.016L1-.844V1.86l-.734.282A.385.385 0 0 0 0 2.5v.984c0 .235.172.407.375.407.063 0 .094 0 .14-.016L1 3.672v2.453c0 .188.14.344.328.344a.347.347 0 0 0 .344-.344V3.438l1.406-.516v2.453c0 .188.156.328.344.328a.32.32 0 0 0 .328-.328V2.656l.734-.281a.385.385 0 0 0 .266-.36v-.984a.37.37 0 0 0-.375-.375c-.062 0-.094 0-.14.016L3.75.844V-1.86l.734-.282A.385.385 0 0 0 4.75-2.5v-.984c0-.235-.172-.407-.375-.407-.062 0-.094 0-.14.016l-.485.203v-2.453a.334.334 0 0 0-.328-.344.347.347 0 0 0-.344.344v2.688l-1.406.515v-2.453a.334.334 0 0 0-.344-.328.32.32 0 0 0-.328.328v2.719l-.734.281a.385.385 0 0 0-.266.36m3.078.391v2.734l-1.406.516v-2.734zm0 0"/><path id="f" d="M3.719-2.36C1.922-2.36 0-.78 0 .782 0 1.72.766 2.36 1.922 2.36c1.797 0 3.703-1.578 3.703-3.14 0-.938-.75-1.578-1.906-1.578m0 0"/><path id="k" d="M6.281 2.688A.18.18 0 0 0 6.47 2.5V.188A.19.19 0 0 0 6.28 0H.188A.2.2 0 0 0 0 .188V2.5c0 .11.094.188.188.188zm0 0"/><path id="ac" d="M9.64 2.156a.86.86 0 0 0 .86.875c.484 0 .875-.39.875-.875a.874.874 0 0 0-.875-.875.86.86 0 0 0-.86.875m0-4.312a.86.86 0 0 0 .86.875c.484 0 .875-.39.875-.875a.874.874 0 0 0-.875-.875.86.86 0 0 0-.86.875M3.985-4.562C1.75-4.562 0-2.625 0-.328 0 .688.89 1.5 1.938 1.5c.968 0 1.718-.828 1.718-1.828 0-.953-.765-1.719-1.719-1.719-.171 0-.328.031-.5.094.407-1.203 1.313-2.125 2.547-2.125 1.875 0 2.922 1.984 2.922 4.047 0 3.922-3.61 6.453-7.078 8.484a.3.3 0 0 0-.062.172c0 .125.109.25.234.25a.26.26 0 0 0 .172-.062c4.375-1.86 8.89-4.5 8.89-9.032 0-2.812-2.109-4.343-5.078-4.343m0 0"/><path id="ab" d="M11.156-.031c0-2.297-1.75-4.531-4.437-4.531-.11 0-.172.015-.188.015a70 70 0 0 0-.984-3.547c1.594-1.89 3.062-3.812 3.062-6.281 0-1.969-1.14-4.797-2.312-6.172a.3.3 0 0 0-.375-.016 6.15 6.15 0 0 0-2.563 5c0 3.063.391 4.313.922 6-2 2.329-4.25 4.579-4.25 7.625 0 3.375 2.407 6.485 5.75 6.485.782 0 1.438-.125 1.516-.14.047.515.078 1.03.078 1.546 0 .328-.016.64-.031.969-.11 1.687-1.14 3.25-2.75 3.281h-.047c-.828 0-1.563-.437-2.016-1.094.156.079.328.11.5.11a1.64 1.64 0 0 0 1.64-1.64c0-.97-.702-1.798-1.64-1.798-1.015 0-1.922.797-1.922 1.797 0 1.89 1.516 3.39 3.375 3.39 2.047 0 3.5-1.859 3.61-3.937.015-.343.031-.687.031-1.047 0-.578-.031-1.171-.078-1.75a4.5 4.5 0 0 0 3.11-4.265M7.984 3.484c-.156-1.375-.546-3.75-1.03-6.078A3.32 3.32 0 0 1 9.89.688c0 1.28-.782 2.39-1.907 2.796M1.297-.453c0-2.766 1.828-4.86 3.656-6.969.297.984.547 1.984.797 2.984-1.781.391-2.781 1.875-2.781 3.422 0 2.157 1.922 3.25 2.187 3.25.219 0 .39-.203.39-.406a.5.5 0 0 0-.124-.281C4.469 1 4.047.203 4.047-.531c0-1 .766-1.922 2.14-2.063.579 2.719.922 5.156 1.047 6.266-.609.11-1.375.11-1.406.11-2.094 0-4.531-1.735-4.531-4.235m5.719-17.531c.343 1.047.343 1.562.343 2.14 0 2.156-1.125 3.906-2.484 5.594-.437-1.39-.656-2.453-.656-3.297a4.9 4.9 0 0 1 2.797-4.437m0 0"/><path id="Q" d="M0 .969h1.406c2.938 0 4.907-3.766 6.578-6.25.204-.313-.28-.625-.484-.313C5.969-3.312 4.11-.969 1.406-.969H.47A.46.46 0 0 0 0-.5Zm0 0"/><path id="R" d="M0-.969V.5a.46.46 0 0 0 .469.469h.937C4.11.969 5.97 3.313 7.5 5.594c.203.312.688 0 .484-.313-1.671-2.484-3.64-6.25-6.578-6.25zm0 0"/><path id="l" d="M6.281 0a.19.19 0 0 0 .188-.187V-2.5a.18.18 0 0 0-.188-.187H.188A.19.19 0 0 0 0-2.5v2.313C0-.094.094 0 .188 0Zm0 0"/><path id="i" d="M-.14-6.469 0 3.297c0 .172.14.312.313.312h.062l1.781-.359-.031 3.219c.14.093.297.125.453.125A.7.7 0 0 0 3 6.469l-.11-9.766a.313.313 0 0 0-.312-.312H2.5L.703-3.25l.063-3.219a.8.8 0 0 0-.453-.125.8.8 0 0 0-.454.125m2.39 4.547L2.188 1.61.64 1.922.687-1.61Zm0 0"/><path id="j" d="M1.203-3.547c-.687 0-1.25.563-1.25 1.25 0 .781.688 1.36 1.5 1.36.594 0 1.203-.172 1.781-.375L1.188 4.313a.8.8 0 0 0 .515.187.82.82 0 0 0 .531-.187l2.079-7.204c-.079-.218-.422-.218-.532 0-.125.25-.765 1.032-1.015 1.032-.766 0-.172-1.688-1.563-1.688m0 0"/><path id="e" d="M0 0h-.312v4.313H0c1.203 1.296 2.813 3.093 2.813 4.875 0 1.14-.282 2.265-.72 3.296-.062.297.173.485.407.485.14 0 .281-.078.36-.203.453-1.141.718-2.36.718-3.578C3.578 5.78 0 3.406 0 0m0 0"/><path id="g" d="M0 0v-4.312h-.312V0Zm0 0c0-3.5 4.61-5.281 4.61-8.781 0-1.078-.266-2.11-.688-3.078-.094-.141-.235-.22-.36-.22a.42.42 0 0 0-.421.5c.437.876.687 1.813.687 2.798 0 1.89-2.172 3.453-3.828 4.469zm0 0"/><path id="o" d="M8.438 4.313a.18.18 0 0 0 .187-.188v-8.25a.18.18 0 0 0-.187-.187H6.89a.18.18 0 0 0-.188.187v8.25c0 .11.078.188.188.188zm-3.797 0a.18.18 0 0 0 .187-.188v-8.25a.18.18 0 0 0-.187-.187H3.094a.18.18 0 0 0-.188.187v8.25c0 .11.078.188.188.188zm0 0"/><path id="m" d="M2.969-4.469c.984 0 1.015.875 1.015 2.016 0 1.14-.03 2.015-1.015 2.015-.844 0-.89-.687-.89-1.593v-.828c0-.922.046-1.61.89-1.61m-.89-.156c0-.422-.048-.844-.048-1.266 0-1.234.172-2.312 1.281-2.312.407 0 .797.172.797.531 0 .406-.671.453-.671.86 0 .609.5 1.109 1.124 1.109.61 0 1.125-.5 1.125-1.11 0-1.125-1.14-1.812-2.375-1.812C1.283-8.625 0-6.547 0-4.312 0-2.141 1.031 0 2.969 0c1.765 0 2.953-.797 2.953-2.453S4.734-4.891 2.969-4.891c-.328 0-.64.094-.89.266m0 0"/><path id="n" d="M4.531-5 2.61-6.11a1.02 1.02 0 0 1-.515-.906c0-.578.437-1.187 1.219-1.187 1 0 1.953.547 1.953 1.469 0 .656-.313 1.203-.735 1.734m.563.328c.531-.594.968-1.266.968-2.062 0-1.25-1.359-1.891-2.75-1.891C1.329-8.625.297-7.5.297-6.312c0 .625.312 1.28.953 1.765C.625-3.937 0-3.28 0-2.422 0-.922 1.547 0 3.188 0c2.14 0 3.28-1.219 3.28-2.5 0-1.234-.968-1.937-1.374-2.172m-3.297.469 2.266 1.312c.406.25.593.641.593 1.063 0 .687-.531 1.39-1.468 1.39-1.25 0-2.391-.78-2.391-1.984 0-.719.469-1.265 1-1.781m0 0"/><path id="z" d="M3.266-2.125C1.672-2.125 0-.719 0 .656c0 .89.688 1.469 1.734 1.469C3.328 2.125 5 .719 5-.656c0-.89-.687-1.469-1.734-1.469m0 0"/></defs><use xlink:href="#a" x="219.099" y="56.774" transform="translate(-11.34 -199.5)scale(.35278)"/><use xlink:href="#a" x="251.606" y="56.774" transform="translate(-11.34 -199.5)scale(.35278)"/><use xlink:href="#a" x="304.863" y="56.774" transform="translate(-11.34 -199.5)scale(.35278)"/><use xlink:href="#a" x="333.282" y="56.774" transform="translate(-11.34 -199.5)scale(.35278)"/><use xlink:href="#b" x="478.281" y="74.209" transform="translate(-11.34 -199.5)scale(.35278)"/><use xlink:href="#b" x="528.474" y="74.209" transform="translate(-11.34 -199.5)scale(.35278)"/><use xlink:href="#c" x="49.332" y="90.644" transform="translate(-11.34 -199.5)scale(.35278)"/><use xlink:href="#c" x="77.759" y="90.644" transform="translate(-11.34 -199.5)scale(.35278)"/><use xlink:href="#b" x="121.94" y="108.702" transform="translate(-11.34 -199.5)scale(.35278)"/><use xlink:href="#b" x="129.258" y="108.702" transform="translate(-11.34 -199.5)scale(.35278)"/><use xlink:href="#c" x="50.518" y="373.148" transform="translate(-11.34 -199.5)scale(.35278)"/><use xlink:href="#b" x="121.94" y="391.205" transform="translate(-11.34 -199.5)scale(.35278)"/><use xlink:href="#b" x="129.258" y="391.205" transform="translate(-11.34 -199.5)scale(.35278)"/><use xlink:href="#c" x="50.517" y="561.08" transform="translate(-11.34 -199.5)scale(.35278)"/><path fill="none" stroke="#222" stroke-linejoin="round" stroke-miterlimit="10" stroke-width=".33372988" d="M188.893 22.9v-8.288M68.301 47.954v-7.118M112.91 79.45v-3.515M46.549 29.93v-7.118M89.176 29.93v-7.118M112.91 63.27v-7.117M139.943 56.241v-8.287M163.292 79.45v-3.515M68.301 56.241v-8.287M112.91 47.954v-7.118M89.176 56.241v-8.287M46.549 14.612V7.496M112.91 29.93v-7.118M68.301 63.27v-7.117M188.893 56.241v-8.287M112.91 14.612V7.496M139.943 14.612V7.496M163.292 63.27v-7.117M68.301 79.45v-3.515M89.176 14.612V7.496M188.893 79.45v-3.515M163.292 47.954v-7.118M188.893 63.27v-7.117M89.176 22.9v-8.288M188.893 47.954v-7.118M68.301 22.9v-8.288M163.292 56.241v-8.287M188.893 29.93v-7.118M163.292 14.612V7.496M188.893 14.612V7.496M46.549 56.241v-8.287M163.292 29.93v-7.118"/><path fill="none" stroke="#222" stroke-linecap="round" stroke-linejoin="round" stroke-miterlimit="10" stroke-width=".17568444" d="M24.149 63.27h164.824M24.149 61.514h164.824M24.149 59.755h164.824M24.149 57.998h164.824M24.149 56.241h164.824M24.149 14.525h164.824M24.149 12.767h164.824M24.149 11.01h164.824M24.149 9.253h164.824M24.149 7.496h164.824"/><path fill="none" stroke="#222" stroke-linecap="round" stroke-linejoin="round" stroke-miterlimit="10" stroke-width=".35136888" d="M175.23 5.738h2.625M125.074 5.738h2.623M159.531 21.143h2.626M155.911 21.143h2.625M152.253 21.143h2.625M148.78 21.143h2.625M108.912 21.143h2.624M105.292 21.143h2.625M101.633 21.143h2.624M98.013 21.143h2.625"/><path fill="none" stroke="#222" stroke-linecap="round" stroke-linejoin="round" stroke-miterlimit="10" stroke-width=".17568444" d="M24.149 29.93h164.824M24.149 28.172h164.824M24.149 26.414h164.824M24.149 24.657h164.824M24.149 22.9h164.824"/><path fill="none" stroke="#222" stroke-linejoin="round" stroke-miterlimit="10" stroke-width=".33372988" d="M89.176 63.27v-7.117M46.549 79.45v-3.515M68.301 14.612V7.496"/><path fill="none" stroke="#222" stroke-linecap="round" stroke-linejoin="round" stroke-miterlimit="10" stroke-width=".17568444" d="M24.149 47.866h164.824M24.149 46.109h164.824M24.149 44.352h164.824M24.149 42.595h164.824M24.149 40.836h164.824"/><path fill="none" stroke="#222" stroke-linejoin="round" stroke-miterlimit="10" stroke-width=".33372988" d="M89.176 79.45v-3.515M112.91 56.241v-8.287M139.943 29.93v-7.118M112.91 22.9v-8.288M139.943 79.45v-3.515M46.549 63.27v-7.117M139.943 47.954v-7.118M46.549 22.9v-8.288M68.301 29.93v-7.118M89.176 47.954v-7.118M139.943 63.27v-7.117M46.549 47.954v-7.118"/><path fill="none" stroke="#222" stroke-linecap="round" stroke-linejoin="round" stroke-miterlimit="10" stroke-width=".17568444" d="M24.149 77.693h164.824"/><path fill="none" stroke="#222" stroke-linejoin="round" stroke-miterlimit="10" stroke-width=".33372988" d="M163.292 22.9v-8.288M139.943 22.9v-8.288"/><path fill="none" stroke="#222" stroke-linejoin="round" stroke-miterlimit="10" stroke-width=".14075922" d="M145.551 61.767h.088v-4.303h-.088zm0 0"/><path d="M145.551 61.767h.087v-4.303h-.087zm0 0"/><path fill="none" stroke="#222" stroke-linejoin="round" stroke-miterlimit="10" stroke-width=".14075922" d="M145.551 27.22h.088v-4.855h-.088zm0 0"/><path d="M145.551 27.22h.087v-4.855h-.087zm0 0"/><path fill="none" stroke="#222" stroke-linejoin="round" stroke-miterlimit="10" stroke-width=".14075922" d="M141.892 48.675h.089v-5.737h-.089zm0 0"/><path d="M141.892 48.675h.087v-5.737h-.087zm0 0"/><path fill="none" stroke="#222" stroke-linejoin="round" stroke-miterlimit="10" stroke-width=".14075922" d="M141.892 27.75h.089v-4.507h-.089zm0 0"/><path d="M141.892 27.75h.087v-4.507h-.087zm0 0"/><use xlink:href="#d" x="459.699" y="785.745" transform="translate(-5.94 -199.5)scale(.35278)"/><use xlink:href="#d" x="429.222" y="785.745" transform="translate(-5.94 -199.5)scale(.35278)"/><path fill="none" stroke="#222" stroke-linejoin="round" stroke-miterlimit="10" stroke-width=".14075922" d="M143.648 77.35h.088v-5.518h-.088zm0 0"/><path d="M143.648 77.35h.087v-5.518h-.087zm0 0"/><use xlink:href="#e" x="424.475" y="769.132" transform="translate(-5.94 -199.5)scale(.35278)"/><use xlink:href="#d" x="429.223" y="596.723" transform="translate(-5.94 -199.5)scale(.35278)"/><use xlink:href="#f" x="429.223" y="627.935" transform="translate(-5.94 -199.5)scale(.35278)"/><use xlink:href="#f" x="429.223" y="727.427" transform="translate(-5.94 -199.5)scale(.35278)"/><path fill="none" stroke="#222" stroke-linejoin="round" stroke-miterlimit="10" stroke-width=".14075922" d="M152.644 63.2h.087v-4.859h-.087zm0 0"/><path d="M152.644 63.2h.087v-4.859h-.087zm0 0"/><use xlink:href="#g" x="449.975" y="603.996" transform="translate(-5.94 -199.5)scale(.35278)"/><path fill="none" stroke="#222" stroke-linejoin="round" stroke-miterlimit="10" stroke-width=".14075922" d="M152.644 26.343h.087v-4.857h-.087zm0 0"/><path d="M152.644 26.345h.087v-4.86h-.087zm0 0"/><path fill="none" stroke="#222" stroke-linejoin="round" stroke-miterlimit="10" stroke-width=".14075922" d="M152.644 47.795h.087v-4.857h-.087zm0 0"/><path d="M152.644 47.795h.087v-4.857h-.087zm0 0"/><path fill="none" stroke="#222" stroke-linejoin="round" stroke-miterlimit="10" stroke-width=".14075922" d="M152.644 13.576h.087V7.839h-.087zm0 0"/><path d="M152.644 13.576h.087V7.839h-.087zm0 0"/><path fill="none" stroke="#222" stroke-linejoin="round" stroke-miterlimit="10" stroke-width=".14075922" d="M154.4 77.35h.088v-5.518h-.088zm0 0"/><path d="M154.4 77.35h.086v-5.518h-.086zm0 0"/><use xlink:href="#e" x="454.952" y="769.132" transform="translate(-5.94 -199.5)scale(.35278)"/><use xlink:href="#d" x="459.7" y="596.723" transform="translate(-5.94 -199.5)scale(.35278)"/><use xlink:href="#f" x="459.7" y="625.445" transform="translate(-5.94 -199.5)scale(.35278)"/><use xlink:href="#f" x="459.7" y="686.253" transform="translate(-5.94 -199.5)scale(.35278)"/><use xlink:href="#f" x="459.7" y="729.918" transform="translate(-5.94 -199.5)scale(.35278)"/><path fill="none" stroke="#222" stroke-linejoin="round" stroke-miterlimit="10" stroke-width=".14075922" d="M116.592 61.17h.088v-5.738h-.088zm0 0"/><path d="M116.592 61.17h.086v-5.738h-.086zm0 0"/><use xlink:href="#f" x="439.482" y="625.445" transform="translate(-5.94 -199.5)scale(.35278)"/><use xlink:href="#f" x="439.482" y="686.253" transform="translate(-5.94 -199.5)scale(.35278)"/><use xlink:href="#f" x="439.482" y="724.937" transform="translate(-5.94 -199.5)scale(.35278)"/><path fill="none" stroke="#222" stroke-linejoin="round" stroke-miterlimit="10" stroke-width=".14075922" d="M149.171 26.695h.087v-5.21h-.087zm0 0"/><path d="M149.171 26.695h.087v-5.21h-.087zm0 0"/><path fill="none" stroke="#222" stroke-linejoin="round" stroke-miterlimit="10" stroke-width=".14075922" d="M149.171 48.675h.087v-5.737h-.087zm0 0"/><path d="M149.171 48.675h.087v-5.737h-.087zm0 0"/><use xlink:href="#g" x="440.13" y="703.488" transform="translate(-5.94 -199.5)scale(.35278)"/><path fill="none" stroke="#222" stroke-linejoin="round" stroke-miterlimit="10" stroke-width=".14075922" d="M149.171 61.453h.087v-4.869h-.087zm0 0"/><path d="M149.171 61.453h.087v-4.869h-.087zm0 0"/><use xlink:href="#f" x="449.327" y="586.761" transform="translate(-5.94 -199.5)scale(.35278)"/><use xlink:href="#f" x="449.327" y="625.445" transform="translate(-5.94 -199.5)scale(.35278)"/><use xlink:href="#f" x="449.327" y="686.253" transform="translate(-5.94 -199.5)scale(.35278)"/><use xlink:href="#f" x="449.327" y="729.918" transform="translate(-5.94 -199.5)scale(.35278)"/><use xlink:href="#f" x="449.327" y="785.745" transform="translate(-5.94 -199.5)scale(.35278)"/><path fill="none" stroke="#222" stroke-linejoin="round" stroke-miterlimit="10" stroke-width=".14075922" d="M125.463 11.29h.089V6.082h-.089zm0 0"/><path d="M125.463 11.29h.089V6.082h-.089zm0 0"/><path fill="none" stroke="#222" stroke-linejoin="round" stroke-miterlimit="10" stroke-width=".14075922" d="M121.845 12.373h.087V6.96h-.087zm0 0"/><path d="M121.845 12.373h.087V6.96h-.087zm0 0"/><path fill="none" stroke="#222" stroke-linejoin="round" stroke-miterlimit="10" stroke-width=".14075922" d="M123.6 77.35h.087v-4.859h-.087zm0 0"/><path d="M123.6 77.35h.087v-4.859h-.087zm0 0"/><use xlink:href="#f" x="372.282" y="581.779" transform="translate(-5.94 -199.5)scale(.35278)"/><use xlink:href="#f" x="372.282" y="630.425" transform="translate(-5.94 -199.5)scale(.35278)"/><use xlink:href="#f" x="372.282" y="698.705" transform="translate(-5.94 -199.5)scale(.35278)"/><use xlink:href="#f" x="372.282" y="739.88" transform="translate(-5.94 -199.5)scale(.35278)"/><use xlink:href="#f" x="372.282" y="785.745" transform="translate(-5.94 -199.5)scale(.35278)"/><use xlink:href="#f" x="362.022" y="785.745" transform="translate(-5.94 -199.5)scale(.35278)"/><path fill="none" stroke="#222" stroke-linejoin="round" stroke-miterlimit="10" stroke-width=".14075922" d="M125.463 28.98h.089v-5.737h-.089zm0 0"/><path d="M125.463 28.98h.089v-5.737h-.089zm0 0"/><path fill="none" stroke="#222" stroke-linejoin="round" stroke-miterlimit="10" stroke-width=".14075922" d="M127.22 46.645h.087v-5.737h-.088zm0 0"/><path d="M127.22 46.645h.087v-5.737h-.088zm0 0"/><use xlink:href="#h" x="379.832" y="737.39" transform="translate(-5.94 -199.5)scale(.35278)"/><path fill="none" stroke="#222" stroke-linejoin="round" stroke-miterlimit="10" stroke-width=".14075922" d="M127.22 61.17h.087v-5.738h-.088zm0 0"/><path d="M127.22 61.17h.087v-5.738h-.088zm0 0"/><path fill="none" stroke="#222" stroke-linejoin="round" stroke-miterlimit="10" stroke-width=".14075922" d="M175.62 65.38h7.367v-.704h-7.367zm0 0"/><path d="M175.62 65.38h7.367v-.704h-7.367zm0 0"/><path fill="none" stroke="#222" stroke-linejoin="round" stroke-miterlimit="10" stroke-width=".14075922" d="M116.592 77.35h.088v-4.859h-.088zm0 0"/><path d="M116.592 77.35h.086v-4.859h-.086zm0 0"/><use xlink:href="#f" x="351.762" y="586.761" transform="translate(-5.94 -199.5)scale(.35278)"/><use xlink:href="#f" x="351.762" y="785.745" transform="translate(-5.94 -199.5)scale(.35278)"/><path fill="none" stroke="#222" stroke-linejoin="round" stroke-miterlimit="10" stroke-width=".14075922" d="M118.225 12.687h.088V7.84h-.088zm0 0"/><path d="M118.225 12.687h.088V7.84h-.088zm0 0"/><path fill="none" stroke="#222" stroke-linejoin="round" stroke-miterlimit="10" stroke-width=".14075922" d="M119.98 77.35h.088v-4.859h-.088zm0 0"/><path d="M119.98 77.35h.088v-4.859h-.088zm0 0"/><use xlink:href="#f" x="362.022" y="584.27" transform="translate(-5.94 -199.5)scale(.35278)"/><use xlink:href="#f" x="418.85" y="630.426" transform="translate(-5.94 -199.5)scale(.35278)"/><use xlink:href="#f" x="405.605" y="688.743" transform="translate(-5.94 -199.5)scale(.35278)"/><path fill="none" stroke="#222" stroke-linejoin="round" stroke-miterlimit="10" stroke-width=".14075922" d="M137.22 49.227h.088v-5.411h-.088zm0 0"/><path d="M137.22 49.227h.088v-5.411h-.088zm0 0"/><use xlink:href="#i" x="400.856" y="688.743" transform="translate(-5.94 -199.5)scale(.35278)"/><use xlink:href="#f" x="418.85" y="586.761" transform="translate(-5.94 -199.5)scale(.35278)"/><path fill="none" stroke="#222" stroke-linejoin="round" stroke-miterlimit="10" stroke-width=".14075922" d="M132.742 49.545h.088v-4.85h-.088zm0 0"/><path d="M132.742 49.545h.088v-4.85h-.088zm0 0"/><use xlink:href="#f" x="418.85" y="686.252" transform="translate(-5.94 -199.5)scale(.35278)"/><use xlink:href="#j" x="418.85" y="734.899" transform="translate(-5.94 -199.5)scale(.35278)"/><use xlink:href="#f" x="418.85" y="785.745" transform="translate(-5.94 -199.5)scale(.35278)"/><path fill="none" stroke="#222" stroke-linejoin="round" stroke-miterlimit="10" stroke-width=".14075922" d="M141.892 13.576h.089V7.839h-.089zm0 0"/><path d="M141.892 13.576h.087V7.839h-.087zm0 0"/><use xlink:href="#g" x="419.498" y="603.996" transform="translate(-5.94 -199.5)scale(.35278)"/><path fill="none" stroke="#222" stroke-linejoin="round" stroke-miterlimit="10" stroke-width=".14075922" d="M127.22 77.35h.087v-5.518h-.088zm0 0"/><path d="M127.22 77.35h.087v-5.518h-.088zm0 0"/><use xlink:href="#e" x="377.906" y="769.132" transform="translate(-5.94 -199.5)scale(.35278)"/><use xlink:href="#f" x="382.654" y="584.27" transform="translate(-5.94 -199.5)scale(.35278)"/><use xlink:href="#d" x="382.654" y="785.745" transform="translate(-5.94 -199.5)scale(.35278)"/><path fill="none" stroke="#222" stroke-linejoin="round" stroke-miterlimit="10" stroke-width=".14075922" d="M129.122 11.822h.088V6.96h-.088zm0 0"/><path d="M129.122 11.822h.088V6.96h-.088zm0 0"/><use xlink:href="#f" x="392.914" y="586.761" transform="translate(-5.94 -199.5)scale(.35278)"/><use xlink:href="#f" x="392.914" y="635.407" transform="translate(-5.94 -199.5)scale(.35278)"/><use xlink:href="#f" x="392.914" y="691.234" transform="translate(-5.94 -199.5)scale(.35278)"/><path fill="none" stroke="#222" stroke-linejoin="round" stroke-miterlimit="10" stroke-width=".14075922" d="M132.742 12.347h.088V7.839h-.088zm0 0"/><path d="M132.742 12.347h.088V7.839h-.088zm0 0"/><path fill="none" stroke="#222" stroke-linejoin="round" stroke-miterlimit="10" stroke-width=".14075922" d="M132.742 30.738h.088v-5.737h-.088zm0 0"/><path d="M132.742 30.738h.088v-5.737h-.088zm0 0"/><use xlink:href="#g" x="393.562" y="652.643" transform="translate(-5.94 -199.5)scale(.35278)"/><use xlink:href="#f" x="535.091" y="696.215" transform="translate(-5.94 -199.5)scale(.35278)"/><path fill="none" stroke="#222" stroke-linejoin="round" stroke-miterlimit="10" stroke-width=".14075922" d="M179.28 64.957h.087v-4.859h-.087zm0 0"/><path d="M179.28 64.957h.087v-4.859h-.087zm0 0"/><use xlink:href="#f" x="535.091" y="586.761" transform="translate(-5.94 -199.5)scale(.35278)"/><use xlink:href="#f" x="535.091" y="635.407" transform="translate(-5.94 -199.5)scale(.35278)"/><path fill="none" stroke="#222" stroke-linejoin="round" stroke-miterlimit="10" stroke-width=".14075922" d="M179.28 11.822h.087V6.96h-.087zm0 0"/><path d="M179.28 11.822h.087V6.96h-.087zm0 0"/><use xlink:href="#f" x="535.091" y="734.899" transform="translate(-5.94 -199.5)scale(.35278)"/><path fill="none" stroke="#222" stroke-linejoin="round" stroke-miterlimit="10" stroke-width=".14075922" d="M182.899 12.347h.088V7.839h-.088zm0 0"/><path d="M182.899 12.347h.088V7.839h-.088zm0 0"/><path fill="none" stroke="#222" stroke-linejoin="round" stroke-miterlimit="10" stroke-width=".14075922" d="M182.899 30.738h.088v-5.737h-.088zm0 0"/><path d="M182.899 30.738h.088v-5.737h-.088zm0 0"/><use xlink:href="#g" x="535.739" y="652.643" transform="translate(-5.94 -199.5)scale(.35278)"/><path fill="none" stroke="#222" stroke-linejoin="round" stroke-miterlimit="10" stroke-width=".14075922" d="M184.654 45.765h.089v-6.294h-.089zm0 0"/><path d="M184.654 45.765h.089v-6.293h-.089zm0 0"/><use xlink:href="#f" x="514.459" y="581.779" transform="translate(-5.94 -199.5)scale(.35278)"/><use xlink:href="#f" x="514.459" y="630.425" transform="translate(-5.94 -199.5)scale(.35278)"/><use xlink:href="#d" x="514.459" y="691.233" transform="translate(-5.94 -199.5)scale(.35278)"/><use xlink:href="#f" x="514.459" y="734.899" transform="translate(-5.94 -199.5)scale(.35278)"/><use xlink:href="#f" x="514.459" y="785.745" transform="translate(-5.94 -199.5)scale(.35278)"/><path fill="none" stroke="#222" stroke-linejoin="round" stroke-miterlimit="10" stroke-width=".14075922" d="M175.62 11.29h.088V6.082h-.088zm0 0"/><path d="M175.62 11.29h.088V6.082h-.088zm0 0"/><path fill="none" stroke="#222" stroke-linejoin="round" stroke-miterlimit="10" stroke-width=".14075922" d="M175.62 28.98h.088v-5.737h-.088zm0 0"/><path d="M175.62 28.98h.088v-5.737h-.088zm0 0"/><path fill="none" stroke="#222" stroke-linejoin="round" stroke-miterlimit="10" stroke-width=".14075922" d="M175.62 64.957h.088v-4.859h-.088zm0 0"/><path d="M175.62 64.957h.088v-4.859h-.088zm0 0"/><path fill="none" stroke="#222" stroke-linejoin="round" stroke-miterlimit="10" stroke-width=".14075922" d="M177.377 77.35h.087v-5.518h-.087zm0 0"/><path d="M177.377 77.35h.087v-5.518h-.087zm0 0"/><use xlink:href="#e" x="520.083" y="769.132" transform="translate(-5.94 -199.5)scale(.35278)"/><use xlink:href="#f" x="524.831" y="584.27" transform="translate(-5.94 -199.5)scale(.35278)"/><use xlink:href="#f" x="524.831" y="734.899" transform="translate(-5.94 -199.5)scale(.35278)"/><use xlink:href="#d" x="524.831" y="785.745" transform="translate(-5.94 -199.5)scale(.35278)"/><path fill="none" stroke="#222" stroke-linejoin="round" stroke-miterlimit="10" stroke-width=".14075922" d="M116.592 72.772h7.097v-.703h-7.097zm0 0"/><path d="M116.592 72.772h7.097v-.703h-7.097zm0 0"/><use xlink:href="#k" x="176.378" y="635.407" transform="translate(-5.94 -199.5)scale(.35278)"/><path fill="none" stroke="#222" stroke-linecap="round" stroke-linejoin="round" stroke-miterlimit="10" stroke-width=".14075922" d="M71.217 4.903c2.136-1.581 6.615-1.111 8.376.879-1.783-1.78-6.262-2.25-8.376-.88m0 0"/><path d="M71.217 4.903c2.136-1.581 6.615-1.111 8.376.879-1.783-1.78-6.262-2.25-8.376-.88"/><path fill="none" stroke="#222" stroke-linecap="round" stroke-linejoin="round" stroke-miterlimit="10" stroke-width=".14075922" d="M71.1 48.086c1.818 1.93 6.295 2.259 8.376.616-2.066 1.433-6.542 1.104-8.376-.616m0 0"/><path d="M71.1 48.086c1.818 1.93 6.295 2.259 8.376.616-2.066 1.433-6.542 1.104-8.376-.616"/><path fill="none" stroke="#222" stroke-linejoin="round" stroke-miterlimit="10" stroke-width=".14075922" d="M57.311 13.118h7.327v-.702h-7.327zm0 0"/><path d="M57.311 13.118h7.327v-.702h-7.327zm0 0"/><path fill="none" stroke="#222" stroke-linejoin="round" stroke-miterlimit="10" stroke-width=".14075922" d="M59.067 41.523h7.326v-.703h-7.326zm0 0"/><path d="M59.067 41.523h7.326v-.703h-7.326zm0 0"/><path fill="none" stroke="#222" stroke-linejoin="round" stroke-miterlimit="10" stroke-width=".14075922" d="M59.067 72.772h7.326v-.703h-7.326zm0 0"/><path d="M59.067 72.772h7.326v-.703h-7.326zm0 0"/><path fill="none" stroke="#222" stroke-linejoin="round" stroke-miterlimit="10" stroke-width=".14075922" d="M91.126 27.486v.704l7.365-1.09v-.703zm0 0"/><path d="M91.126 27.486v.704l7.365-1.09v-.703zm0 0"/><path fill="none" stroke="#222" stroke-linecap="round" stroke-linejoin="round" stroke-miterlimit="10" stroke-width=".14075922" d="M115.812 20.306c2.472-1.86 8.495-1.361 10.629.88-2.15-2.032-8.175-2.53-10.63-.88m0 0"/><path d="M115.812 20.306c2.472-1.86 8.495-1.361 10.629.88-2.15-2.032-8.175-2.53-10.63-.88"/><path fill="none" stroke="#222" stroke-linecap="round" stroke-linejoin="round" stroke-miterlimit="10" stroke-width=".14075922" d="M115.72 48.086c2.184 2.186 8.206 2.534 10.627.616-2.409 1.707-8.431 1.36-10.628-.616m0 0"/><path d="M115.72 48.086c2.184 2.186 8.206 2.534 10.627.616-2.409 1.707-8.431 1.36-10.628-.616"/><path fill="none" stroke="#222" stroke-linejoin="round" stroke-miterlimit="10" stroke-width=".14075922" d="M102.023 13.118h7.367v-.702h-7.367zm0 0"/><path d="M102.023 13.118h7.367v-.702h-7.367zm0 0"/><path fill="none" stroke="#222" stroke-linejoin="round" stroke-miterlimit="10" stroke-width=".14075922" d="M102.023 26.766h7.367v-.704h-7.367zm0 0"/><path d="M102.023 26.766h7.367v-.704h-7.367zm0 0"/><path fill="none" stroke="#222" stroke-linejoin="round" stroke-miterlimit="10" stroke-width=".14075922" d="M103.779 41.523h7.367v-.703h-7.367Zm0 0"/><path d="M103.779 41.523h7.367v-.703h-7.367Zm0 0"/><path fill="none" stroke="#222" stroke-linejoin="round" stroke-miterlimit="10" stroke-width=".14075922" d="M118.225 12.416v.702l3.707-.333v-.703zm0 0"/><path d="M118.225 12.416v.702l3.707-.333v-.703zm0 0"/><path fill="none" stroke="#222" stroke-linecap="round" stroke-linejoin="round" stroke-miterlimit="10" stroke-width=".14075922" d="M133.575 42.377c1.039-1.294 3.124-1.58 4.475-.615-1.324-.756-3.407-.47-4.475.615m0 0"/><path d="M133.575 42.377c1.039-1.294 3.124-1.58 4.475-.615-1.324-.756-3.407-.47-4.475.615"/><path fill="none" stroke="#222" stroke-linejoin="round" stroke-miterlimit="10" stroke-width=".14075922" d="M125.463 10.993v.702l7.367 1.09v-.703zm0 0"/><path d="M125.463 10.993v.702l7.367 1.09v-.703zm0 0"/><path fill="none" stroke="#222" stroke-linejoin="round" stroke-miterlimit="10" stroke-width=".14075922" d="M132.742 47.85v.702l4.566-.335v-.703zm0 0"/><path d="M132.742 47.85v.702l4.566-.335v-.703zm0 0"/><path fill="none" stroke="#222" stroke-linejoin="round" stroke-miterlimit="10" stroke-width=".14075922" d="M132.742 49.271v.704l4.566-.334v-.703zm0 0"/><path d="M132.742 49.271v.704l4.566-.334v-.703zm0 0"/><path fill="none" stroke="#222" stroke-linejoin="round" stroke-miterlimit="10" stroke-width=".14075922" d="M141.892 27.486v.704l7.366-1.09v-.703zm0 0"/><path d="M141.892 27.486v.704l7.366-1.09v-.703zm0 0"/><path fill="none" stroke="#222" stroke-linejoin="round" stroke-miterlimit="10" stroke-width=".14075922" d="M145.551 61.496v.703l3.707-.334v-.704zm0 0"/><path d="M145.551 61.496v.703l3.707-.334v-.704zm0 0"/><path fill="none" stroke="#222" stroke-linecap="round" stroke-linejoin="round" stroke-miterlimit="10" stroke-width=".14075922" d="M166.194 20.306c2.44-1.835 8.306-1.34 10.404.88-2.115-2.01-7.983-2.504-10.404-.88m0 0"/><path d="M166.194 20.306c2.44-1.835 8.306-1.34 10.404.88-2.115-2.01-7.983-2.504-10.404-.88"/><path fill="none" stroke="#222" stroke-linejoin="round" stroke-miterlimit="10" stroke-width=".14075922" d="M152.644 26.766h7.366v-.704h-7.366zm0 0"/><path d="M152.644 26.766h7.366v-.704h-7.366zm0 0"/><path fill="none" stroke="#222" stroke-linejoin="round" stroke-miterlimit="10" stroke-width=".14075922" d="M152.644 48.217h7.366v-.703h-7.366zm0 0"/><path d="M152.644 48.217h7.366v-.703h-7.366zm0 0"/><path fill="none" stroke="#222" stroke-linejoin="round" stroke-miterlimit="10" stroke-width=".14075922" d="M152.644 63.622h7.366v-.703h-7.366zm0 0"/><path d="M152.644 63.622h7.366v-.703h-7.366zm0 0"/><path fill="none" stroke="#222" stroke-linejoin="round" stroke-miterlimit="10" stroke-width=".14075922" d="M168.529 12.416v.702l3.706-.333v-.703zm0 0"/><path d="M168.529 12.416v.702l3.706-.333v-.703zm0 0"/><path fill="none" stroke="#222" stroke-linejoin="round" stroke-miterlimit="10" stroke-width=".14075922" d="M168.529 63.253v.703l3.706-.334v-.703zm0 0"/><path d="M168.529 63.253v.703l3.706-.334v-.703zm0 0"/><path fill="none" stroke="#222" stroke-linejoin="round" stroke-miterlimit="10" stroke-width=".14075922" d="M166.971 72.772h7.02v-.703h-7.02Zm0 0"/><path d="M166.971 72.772h7.02v-.703h-7.02Zm0 0"/><path fill="none" stroke="#222" stroke-linecap="round" stroke-linejoin="round" stroke-miterlimit="10" stroke-width=".14075922" d="M184.07 48.207c1.11.698 2.323.203 2.803-1.142-.558 1.15-1.774 1.645-2.803 1.142m0 0"/><path d="M184.07 48.207c1.11.698 2.323.203 2.803-1.142-.558 1.15-1.774 1.645-2.803 1.142"/><path fill="none" stroke="#222" stroke-linejoin="round" stroke-miterlimit="10" stroke-width=".14075922" d="M175.62 10.993v.702l7.367 1.09v-.703zm0 0"/><path d="M175.62 10.993v.702l7.367 1.09v-.703zm0 0"/><path fill="none" stroke="#222" stroke-linejoin="round" stroke-miterlimit="10" stroke-width=".14075922" d="M184.654 39.061v.705l2.89-.335v-.703zm0 0"/><path d="M184.654 39.061v.705l2.89-.335v-.703zm0 0"/><path fill="none" stroke="#222" stroke-linejoin="round" stroke-miterlimit="10" stroke-width=".14075922" d="M184.654 40.485v.703l2.89-.334v-.703zm0 0"/><path d="M184.654 40.485v.703l2.89-.334v-.703zm0 0"/><path fill="none" stroke="#222" stroke-linejoin="round" stroke-miterlimit="10" stroke-width=".14075922" d="M182.899 64.957h.088v-4.859h-.088zm0 0"/><path d="M182.899 64.957h.088v-4.859h-.088zm0 0"/><use xlink:href="#f" x="543.033" y="693.724" transform="translate(-5.94 -199.5)scale(.35278)"/><path fill="none" stroke="#222" stroke-linejoin="round" stroke-miterlimit="10" stroke-width=".14075922" d="M187.457 44.886h.087v-5.724h-.087zm0 0"/><path d="M187.457 44.886h.087v-5.724h-.087zm0 0"/><path fill="none" stroke="#222" stroke-linejoin="round" stroke-miterlimit="10" stroke-width=".14075922" d="M159.923 63.2h.087v-4.859h-.087zm0 0"/><path d="M159.921 63.2h.089v-4.859h-.089zm0 0"/><use xlink:href="#j" x="484.965" y="596.723" transform="translate(-5.94 -199.5)scale(.35278)"/><use xlink:href="#f" x="484.965" y="627.935" transform="translate(-5.94 -199.5)scale(.35278)"/><use xlink:href="#f" x="484.965" y="696.215" transform="translate(-5.94 -199.5)scale(.35278)"/><use xlink:href="#j" x="484.965" y="734.899" transform="translate(-5.94 -199.5)scale(.35278)"/><use xlink:href="#f" x="484.965" y="785.745" transform="translate(-5.94 -199.5)scale(.35278)"/><use xlink:href="#h" x="492.515" y="627.935" transform="translate(-5.94 -199.5)scale(.35278)"/><path fill="none" stroke="#222" stroke-linejoin="round" stroke-miterlimit="10" stroke-width=".14075922" d="M165.216 28.102h.088v-5.737h-.088zm0 0"/><path d="M165.216 28.102h.088v-5.737h-.088zm0 0"/><path fill="none" stroke="#222" stroke-linejoin="round" stroke-miterlimit="10" stroke-width=".14075922" d="M156.303 26.343h.088v-4.857h-.088zm0 0"/><path d="M156.303 26.345h.088v-4.86h-.088zm0 0"/><path fill="none" stroke="#222" stroke-linejoin="round" stroke-miterlimit="10" stroke-width=".14075922" d="M156.303 47.795h.088v-4.857h-.088zm0 0"/><path d="M156.303 47.795h.088v-4.857h-.088zm0 0"/><path fill="none" stroke="#222" stroke-linejoin="round" stroke-miterlimit="10" stroke-width=".14075922" d="M156.303 63.2h.088v-4.859h-.088zm0 0"/><path d="M156.303 63.2h.088v-4.859h-.088zm0 0"/><use xlink:href="#f" x="469.959" y="625.445" transform="translate(-5.94 -199.5)scale(.35278)"/><use xlink:href="#f" x="469.959" y="686.253" transform="translate(-5.94 -199.5)scale(.35278)"/><use xlink:href="#f" x="469.959" y="729.918" transform="translate(-5.94 -199.5)scale(.35278)"/><path fill="none" stroke="#222" stroke-linejoin="round" stroke-miterlimit="10" stroke-width=".14075922" d="M159.923 26.343h.087v-4.857h-.087zm0 0"/><path d="M159.921 26.345h.089v-4.86h-.089zm0 0"/><path fill="none" stroke="#222" stroke-linejoin="round" stroke-miterlimit="10" stroke-width=".14075922" d="M159.923 47.795h.087v-4.857h-.087zm0 0"/><path d="M159.921 47.795h.089v-4.857h-.089zm0 0"/><use xlink:href="#f" x="504.614" y="729.918" transform="translate(-5.94 -199.5)scale(.35278)"/><path fill="none" stroke="#222" stroke-linejoin="round" stroke-miterlimit="10" stroke-width=".14075922" d="M168.529 63.524h.086v-4.303h-.086zm0 0"/><path d="M168.529 63.524h.086v-4.303h-.086zm0 0"/><path fill="none" stroke="#222" stroke-linejoin="round" stroke-miterlimit="10" stroke-width=".14075922" d="M170.284 77.35h.087v-4.859h-.087zm0 0"/><path d="M170.284 77.35h.087v-4.859h-.087zm0 0"/><use xlink:href="#f" x="504.614" y="584.27" transform="translate(-5.94 -199.5)scale(.35278)"/><path fill="none" stroke="#222" stroke-linejoin="round" stroke-miterlimit="10" stroke-width=".14075922" d="M168.529 12.687h.086V7.84h-.086zm0 0"/><path d="M168.529 12.687h.086V7.84h-.086zm0 0"/><use xlink:href="#f" x="504.614" y="785.745" transform="translate(-5.94 -199.5)scale(.35278)"/><path fill="none" stroke="#222" stroke-linejoin="round" stroke-miterlimit="10" stroke-width=".14075922" d="M172.147 12.373h.088V6.96h-.088zm0 0"/><path d="M172.147 12.373h.088V6.96h-.088zm0 0"/><path fill="none" stroke="#222" stroke-linejoin="round" stroke-miterlimit="10" stroke-width=".14075922" d="M172.147 63.21h.088v-4.869h-.088zm0 0"/><path d="M172.147 63.21h.088v-4.869h-.088zm0 0"/><path fill="none" stroke="#222" stroke-linejoin="round" stroke-miterlimit="10" stroke-width=".14075922" d="M173.903 77.35h.088v-4.859h-.088zm0 0"/><path d="M173.903 77.35h.088v-4.859h-.088zm0 0"/><path fill="none" stroke="#222" stroke-linejoin="round" stroke-miterlimit="10" stroke-width=".14075922" d="M166.971 77.35h.089v-4.859h-.089zm0 0"/><path d="M166.971 77.35h.089v-4.859h-.089zm0 0"/><use xlink:href="#h" x="492.515" y="693.724" transform="translate(-5.94 -199.5)scale(.35278)"/><path fill="none" stroke="#222" stroke-linejoin="round" stroke-miterlimit="10" stroke-width=".14075922" d="M166.971 45.765h.089V40.03h-.089zm0 0"/><path d="M166.971 45.765h.089V40.03h-.089zm0 0"/><use xlink:href="#f" x="494.354" y="586.761" transform="translate(-5.94 -199.5)scale(.35278)"/><use xlink:href="#f" x="494.354" y="732.409" transform="translate(-5.94 -199.5)scale(.35278)"/><use xlink:href="#f" x="494.354" y="785.746" transform="translate(-5.94 -199.5)scale(.35278)"/><use xlink:href="#f" x="199.613" y="586.762" transform="translate(-5.94 -199.5)scale(.35278)"/><path fill="none" stroke="#222" stroke-linejoin="round" stroke-miterlimit="10" stroke-width=".14075922" d="M60.93 12.697h.088V7.839h-.088zm0 0"/><path d="M60.93 12.698h.088V7.84h-.088zm0 0"/><path fill="none" stroke="#222" stroke-linejoin="round" stroke-miterlimit="10" stroke-width=".14075922" d="M62.686 46.645h.088V41.24h-.088zm0 0"/><path d="M62.686 46.645h.088V41.24h-.088zm0 0"/><path fill="none" stroke="#222" stroke-linejoin="round" stroke-miterlimit="10" stroke-width=".14075922" d="M62.686 77.35h.088v-4.859h-.088zm0 0"/><path d="M62.686 77.35h.088v-4.859h-.088zm0 0"/><use xlink:href="#f" x="189.352" y="785.745" transform="translate(-5.94 -199.5)scale(.35278)"/><use xlink:href="#f" x="199.612" y="698.706" transform="translate(-5.94 -199.5)scale(.35278)"/><use xlink:href="#f" x="199.612" y="785.745" transform="translate(-5.94 -199.5)scale(.35278)"/><path fill="none" stroke="#222" stroke-linejoin="round" stroke-miterlimit="10" stroke-width=".14075922" d="M64.55 12.697h.088V7.839h-.088zm0 0"/><path d="M64.55 12.698h.087V7.84h-.087zm0 0"/><path fill="none" stroke="#222" stroke-linejoin="round" stroke-miterlimit="10" stroke-width=".14075922" d="M66.306 46.645h.088V41.24h-.088zm0 0"/><path d="M66.306 46.645h.087V41.24h-.087zm0 0"/><path fill="none" stroke="#222" stroke-linejoin="round" stroke-miterlimit="10" stroke-width=".14075922" d="M66.306 77.35h.088v-4.859h-.088zm0 0"/><path d="M66.306 77.35h.087v-4.859h-.087zm0 0"/><use xlink:href="#e" x="174.457" y="769.132" transform="translate(-5.94 -199.5)scale(.35278)"/><use xlink:href="#f" x="179.093" y="586.761" transform="translate(-5.94 -199.5)scale(.35278)"/><use xlink:href="#f" x="179.093" y="698.706" transform="translate(-5.94 -199.5)scale(.35278)"/><use xlink:href="#f" x="179.093" y="737.39" transform="translate(-5.94 -199.5)scale(.35278)"/><use xlink:href="#f" x="179.093" y="785.746" transform="translate(-5.94 -199.5)scale(.35278)"/><path fill="none" stroke="#222" stroke-linejoin="round" stroke-miterlimit="10" stroke-width=".14075922" d="M57.311 12.697h.087V7.839h-.087zm0 0"/><path d="M57.31 12.698h.088V7.84h-.088zm0 0"/><path fill="none" stroke="#222" stroke-linejoin="round" stroke-miterlimit="10" stroke-width=".14075922" d="M59.067 46.645h.087V41.24h-.087zm0 0"/><path d="M59.067 46.645h.087V41.24h-.087zm0 0"/><use xlink:href="#h" x="186.642" y="737.39" transform="translate(-5.94 -199.5)scale(.35278)"/><path fill="none" stroke="#222" stroke-linejoin="round" stroke-miterlimit="10" stroke-width=".14075922" d="M59.067 60.291h.087v-5.736h-.087zm0 0"/><path d="M59.067 60.291h.087v-5.736h-.087zm0 0"/><path fill="none" stroke="#222" stroke-linejoin="round" stroke-miterlimit="10" stroke-width=".14075922" d="M59.067 77.35h.087v-4.859h-.087zm0 0"/><path d="M59.067 77.35h.087v-4.859h-.087zm0 0"/><use xlink:href="#f" x="189.352" y="586.761" transform="translate(-5.94 -199.5)scale(.35278)"/><use xlink:href="#f" x="189.352" y="698.706" transform="translate(-5.94 -199.5)scale(.35278)"/><use xlink:href="#h" x="223.252" y="732.409" transform="translate(-5.94 -199.5)scale(.35278)"/><path fill="none" stroke="#222" stroke-linejoin="round" stroke-miterlimit="10" stroke-width=".14075922" d="M70.226 65.543h.087v-5.445h-.087zm0 0"/><path d="M70.226 65.543h.087V60.1h-.087zm0 0"/><path fill="none" stroke="#222" stroke-linejoin="round" stroke-miterlimit="10" stroke-width=".14075922" d="M71.982 77.35h.088v-5.518h-.088zm0 0"/><path d="M71.982 77.35h.087v-5.518h-.087zm0 0"/><use xlink:href="#e" x="221.326" y="769.132" transform="translate(-5.94 -199.5)scale(.35278)"/><use xlink:href="#d" x="226.074" y="785.745" transform="translate(-5.94 -199.5)scale(.35278)"/><use xlink:href="#f" x="239.446" y="586.761" transform="translate(-5.94 -199.5)scale(.35278)"/><use xlink:href="#f" x="239.446" y="698.706" transform="translate(-5.94 -199.5)scale(.35278)"/><use xlink:href="#f" x="239.446" y="739.881" transform="translate(-5.94 -199.5)scale(.35278)"/><use xlink:href="#f" x="239.446" y="785.746" transform="translate(-5.94 -199.5)scale(.35278)"/><use xlink:href="#f" x="215.701" y="584.271" transform="translate(-5.94 -199.5)scale(.35278)"/><use xlink:href="#l" x="215.701" y="640.389" transform="translate(-5.94 -199.5)scale(.35278)"/><use xlink:href="#f" x="215.701" y="696.216" transform="translate(-5.94 -199.5)scale(.35278)"/><use xlink:href="#f" x="215.701" y="734.9" transform="translate(-5.94 -199.5)scale(.35278)"/><use xlink:href="#f" x="215.701" y="785.746" transform="translate(-5.94 -199.5)scale(.35278)"/><path fill="none" stroke="#222" stroke-linejoin="round" stroke-miterlimit="10" stroke-width=".14075922" d="M55.447 77.35h.088v-5.518h-.088zm0 0"/><path d="M55.447 77.35h.088v-5.518h-.088zm0 0"/><use xlink:href="#h" x="223.252" y="584.27" transform="translate(-5.94 -199.5)scale(.35278)"/><path fill="none" stroke="#222" stroke-linejoin="round" stroke-miterlimit="10" stroke-width=".14075922" d="M70.226 12.697h.087V6.96h-.087zm0 0"/><path d="M70.226 12.698h.087V6.961h-.087zm0 0"/><use xlink:href="#h" x="223.252" y="693.724" transform="translate(-5.94 -199.5)scale(.35278)"/><path fill="none" stroke="#222" stroke-linejoin="round" stroke-miterlimit="10" stroke-width=".14075922" d="M71.982 45.765h.088V40.03h-.088zm0 0"/><path d="M71.982 45.765h.087V40.03h-.087zm0 0"/><use xlink:href="#m" x="121.855" y="734.899" transform="translate(-5.94 -199.5)scale(.35278)"/><use xlink:href="#n" x="121.685" y="743.533" transform="translate(-5.94 -199.5)scale(.35278)"/><use xlink:href="#f" x="137.94" y="785.745" transform="translate(-5.94 -199.5)scale(.35278)"/><use xlink:href="#o" x="89.024" y="785.745" transform="translate(-5.94 -199.5)scale(.35278)"/><use xlink:href="#m" x="121.855" y="785.745" transform="translate(-5.94 -199.5)scale(.35278)"/><use xlink:href="#n" x="121.685" y="794.379" transform="translate(-5.94 -199.5)scale(.35278)"/><use xlink:href="#p" x="121.685" y="580.952" transform="translate(-5.94 -199.5)scale(.35278)"/><use xlink:href="#q" x="128.323" y="580.952" transform="translate(-5.94 -199.5)scale(.35278)"/><use xlink:href="#q" x="132.92" y="580.952" transform="translate(-5.94 -199.5)scale(.35278)"/><use xlink:href="#r" x="137.517" y="580.952" transform="translate(-5.94 -199.5)scale(.35278)"/><use xlink:href="#s" x="142.454" y="580.952" transform="translate(-5.94 -199.5)scale(.35278)"/><use xlink:href="#r" x="145.01" y="580.952" transform="translate(-5.94 -199.5)scale(.35278)"/><use xlink:href="#t" x="149.947" y="580.952" transform="translate(-5.94 -199.5)scale(.35278)"/><use xlink:href="#u" x="153.694" y="580.952" transform="translate(-5.94 -199.5)scale(.35278)"/><use xlink:href="#v" x="158.626" y="580.952" transform="translate(-5.94 -199.5)scale(.35278)"/><use xlink:href="#w" x="164.073" y="580.952" transform="translate(-5.94 -199.5)scale(.35278)"/><use xlink:href="#x" x="169.686" y="580.952" transform="translate(-5.94 -199.5)scale(.35278)"/><use xlink:href="#b" x="175.26" y="580.952" transform="translate(-11.34 -199.5)scale(.35278)"/><use xlink:href="#y" x="177.136" y="580.952" transform="translate(-5.94 -199.5)scale(.35278)"/><path fill="none" stroke="#222" stroke-linejoin="round" stroke-miterlimit="10" stroke-width=".06773376" d="M59.404 4.43h.136V.034h-.136zm0 0"/><path d="M59.404 4.43h.136V.034h-.136zm0 0"/><use xlink:href="#z" x="180.703" y="578.826" transform="translate(-5.94 -199.5)scale(.35278)"/><use xlink:href="#b" x="185.707" y="580.951" transform="translate(-11.34 -199.5)scale(.35278)"/><use xlink:href="#A" x="187.582" y="580.951" transform="translate(-5.94 -199.5)scale(.35278)"/><use xlink:href="#b" x="193.025" y="580.951" transform="translate(-11.34 -199.5)scale(.35278)"/><use xlink:href="#B" x="194.9" y="580.951" transform="translate(-5.94 -199.5)scale(.35278)"/><use xlink:href="#C" x="198.987" y="580.951" transform="translate(-5.94 -199.5)scale(.35278)"/><use xlink:href="#D" x="204.264" y="580.951" transform="translate(-5.94 -199.5)scale(.35278)"/><use xlink:href="#E" x="210.221" y="580.951" transform="translate(-5.94 -199.5)scale(.35278)"/><path fill="none" stroke="#222" stroke-linejoin="round" stroke-miterlimit="10" stroke-width=".14075922" d="M42.794 15.333h.088V9.596h-.088zm0 0"/><path d="M42.794 15.333h.088V9.596h-.088zm0 0"/><use xlink:href="#g" x="138.588" y="608.977" transform="translate(-5.94 -199.5)scale(.35278)"/><use xlink:href="#F" x="106.459" y="729.917" transform="translate(-5.94 -199.5)scale(.35278)"/><use xlink:href="#F" x="111.208" y="737.389" transform="translate(-5.94 -199.5)scale(.35278)"/><path fill="none" stroke="#222" stroke-linejoin="round" stroke-miterlimit="10" stroke-width=".14075922" d="M44.55 48.402h.087v-5.737h-.088zm0 0"/><path d="M44.55 48.402h.087v-5.737h-.088zm0 0"/><use xlink:href="#e" x="143.565" y="686.452" transform="translate(-5.94 -199.5)scale(.35278)"/><path fill="none" stroke="#222" stroke-linejoin="round" stroke-miterlimit="10" stroke-width=".14075922" d="M44.55 77.35h.087v-5.518h-.088zm0 0"/><path d="M44.55 77.35h.087v-5.518h-.088zm0 0"/><use xlink:href="#e" x="143.565" y="769.132" transform="translate(-5.94 -199.5)scale(.35278)"/><use xlink:href="#G" x="44.704" y="600.194" transform="translate(-5.94 -199.5)scale(.35278)"/><use xlink:href="#H" x="50.151" y="600.194" transform="translate(-5.94 -199.5)scale(.35278)"/><use xlink:href="#I" x="52.533" y="600.194" transform="translate(-5.94 -199.5)scale(.35278)"/><use xlink:href="#J" x="58.15" y="600.194" transform="translate(-5.94 -199.5)scale(.35278)"/><use xlink:href="#K" x="61.892" y="600.194" transform="translate(-5.94 -199.5)scale(.35278)"/><use xlink:href="#L" x="34.329" y="643.859" transform="translate(-5.94 -199.5)scale(.35278)"/><use xlink:href="#H" x="40.622" y="643.859" transform="translate(-5.94 -199.5)scale(.35278)"/><use xlink:href="#M" x="43.004" y="643.859" transform="translate(-5.94 -199.5)scale(.35278)"/><use xlink:href="#N" x="47.936" y="643.859" transform="translate(-5.94 -199.5)scale(.35278)"/><use xlink:href="#O" x="51.683" y="643.859" transform="translate(-5.94 -199.5)scale(.35278)"/><use xlink:href="#P" x="54.064" y="643.859" transform="translate(-5.94 -199.5)scale(.35278)"/><use xlink:href="#K" x="59.507" y="643.859" transform="translate(-5.94 -199.5)scale(.35278)"/><use xlink:href="#J" x="64.444" y="643.859" transform="translate(-5.94 -199.5)scale(.35278)"/><use xlink:href="#J" x="68.355" y="643.859" transform="translate(-5.94 -199.5)scale(.35278)"/><use xlink:href="#K" x="72.098" y="643.859" transform="translate(-5.94 -199.5)scale(.35278)"/><use xlink:href="#Q" x="78.514" y="585.539" transform="translate(-5.94 -199.5)scale(.35278)"/><use xlink:href="#R" x="78.514" y="651.571" transform="translate(-5.94 -199.5)scale(.35278)"/><path fill="none" stroke="#222" stroke-linejoin="round" stroke-miterlimit="10" stroke-width=".79093276" d="M22.155 30.096V7.328"/><use xlink:href="#G" x="31.268" y="693.794" transform="translate(-5.94 -199.5)scale(.35278)"/><use xlink:href="#H" x="36.716" y="693.794" transform="translate(-5.94 -199.5)scale(.35278)"/><use xlink:href="#S" x="39.097" y="693.794" transform="translate(-5.94 -199.5)scale(.35278)"/><use xlink:href="#T" x="44.374" y="693.794" transform="translate(-5.94 -199.5)scale(.35278)"/><use xlink:href="#K" x="49.476" y="693.794" transform="translate(-5.94 -199.5)scale(.35278)"/><use xlink:href="#H" x="54.413" y="693.794" transform="translate(-5.94 -199.5)scale(.35278)"/><use xlink:href="#U" x="56.794" y="693.794" transform="translate(-5.94 -199.5)scale(.35278)"/><use xlink:href="#V" x="62.237" y="693.794" transform="translate(-5.94 -199.5)scale(.35278)"/><use xlink:href="#N" x="67.854" y="693.794" transform="translate(-5.94 -199.5)scale(.35278)"/><use xlink:href="#P" x="71.601" y="693.794" transform="translate(-5.94 -199.5)scale(.35278)"/><use xlink:href="#W" x="37.647" y="738.233" transform="translate(-5.94 -199.5)scale(.35278)"/><use xlink:href="#V" x="43.434" y="738.233" transform="translate(-5.94 -199.5)scale(.35278)"/><use xlink:href="#X" x="49.051" y="738.233" transform="translate(-5.94 -199.5)scale(.35278)"/><use xlink:href="#M" x="53.303" y="738.233" transform="translate(-5.94 -199.5)scale(.35278)"/><use xlink:href="#Y" x="58.236" y="738.233" transform="translate(-5.94 -199.5)scale(.35278)"/><use xlink:href="#P" x="63.513" y="738.233" transform="translate(-5.94 -199.5)scale(.35278)"/><use xlink:href="#K" x="68.955" y="738.233" transform="translate(-5.94 -199.5)scale(.35278)"/><use xlink:href="#Q" x="78.514" y="680.051" transform="translate(-5.94 -199.5)scale(.35278)"/><use xlink:href="#R" x="78.514" y="746.082" transform="translate(-5.94 -199.5)scale(.35278)"/><path fill="none" stroke="#222" stroke-linejoin="round" stroke-miterlimit="10" stroke-width=".79093276" d="M22.155 63.437V40.67"/><use xlink:href="#Z" x="36.541" y="789.216" transform="translate(-5.94 -199.5)scale(.35278)"/><use xlink:href="#N" x="41.813" y="789.216" transform="translate(-5.94 -199.5)scale(.35278)"/><use xlink:href="#V" x="45.389" y="789.216" transform="translate(-5.94 -199.5)scale(.35278)"/><use xlink:href="#aa" x="51.006" y="789.216" transform="translate(-5.94 -199.5)scale(.35278)"/><use xlink:href="#aa" x="59.345" y="789.216" transform="translate(-5.94 -199.5)scale(.35278)"/><use xlink:href="#K" x="67.683" y="789.216" transform="translate(-5.94 -199.5)scale(.35278)"/><use xlink:href="#H" x="72.621" y="789.216" transform="translate(-5.94 -199.5)scale(.35278)"/><path fill="none" stroke="#222" stroke-linejoin="round" stroke-miterlimit="10" stroke-width=".17568444" d="M24.043 77.693h.106V7.496h-.106zm0 0"/><path d="M24.043 77.693h.106V7.496h-.106zm0 0"/><use xlink:href="#f" x="137.941" y="591.742" transform="translate(-5.94 -199.5)scale(.35278)"/><use xlink:href="#ab" x="89.025" y="601.705" transform="translate(-5.94 -199.5)scale(.35278)"/><use xlink:href="#F" x="106.46" y="586.761" transform="translate(-5.94 -199.5)scale(.35278)"/><use xlink:href="#F" x="111.208" y="594.233" transform="translate(-5.94 -199.5)scale(.35278)"/><use xlink:href="#m" x="121.856" y="596.723" transform="translate(-5.94 -199.5)scale(.35278)"/><use xlink:href="#n" x="121.686" y="605.357" transform="translate(-5.94 -199.5)scale(.35278)"/><use xlink:href="#j" x="137.941" y="640.389" transform="translate(-5.94 -199.5)scale(.35278)"/><use xlink:href="#ab" x="89.025" y="645.37" transform="translate(-5.94 -199.5)scale(.35278)"/><use xlink:href="#F" x="106.46" y="630.426" transform="translate(-5.94 -199.5)scale(.35278)"/><use xlink:href="#F" x="111.208" y="637.898" transform="translate(-5.94 -199.5)scale(.35278)"/><use xlink:href="#m" x="121.856" y="640.389" transform="translate(-5.94 -199.5)scale(.35278)"/><use xlink:href="#n" x="121.686" y="649.023" transform="translate(-5.94 -199.5)scale(.35278)"/><use xlink:href="#f" x="137.941" y="703.688" transform="translate(-5.94 -199.5)scale(.35278)"/><use xlink:href="#ab" x="89.025" y="696.215" transform="translate(-5.94 -199.5)scale(.35278)"/><use xlink:href="#F" x="106.46" y="681.272" transform="translate(-5.94 -199.5)scale(.35278)"/><use xlink:href="#F" x="111.209" y="688.743" transform="translate(-5.94 -199.5)scale(.35278)"/><use xlink:href="#m" x="121.856" y="691.234" transform="translate(-5.94 -199.5)scale(.35278)"/><use xlink:href="#n" x="121.686" y="699.868" transform="translate(-5.94 -199.5)scale(.35278)"/><use xlink:href="#j" x="137.941" y="734.899" transform="translate(-5.94 -199.5)scale(.35278)"/><use xlink:href="#ac" x="89.025" y="729.918" transform="translate(-5.94 -199.5)scale(.35278)"/><use xlink:href="#h" x="161.487" y="732.409" transform="translate(-5.94 -199.5)scale(.35278)"/><path fill="none" stroke="#222" stroke-linejoin="round" stroke-miterlimit="10" stroke-width=".14075922" d="M48.437 65.543h.088v-5.445h-.088zm0 0"/><path d="M48.437 65.543h.088V60.1h-.088zm0 0"/><path fill="none" stroke="#222" stroke-linejoin="round" stroke-miterlimit="10" stroke-width=".14075922" d="M50.192 77.35h.088v-5.445h-.088zm0 0"/><path d="M50.192 77.35h.088v-5.445h-.088zm0 0"/><use xlink:href="#f" x="168.832" y="586.761" transform="translate(-5.94 -199.5)scale(.35278)"/><use xlink:href="#f" x="168.832" y="698.706" transform="translate(-5.94 -199.5)scale(.35278)"/><use xlink:href="#f" x="168.832" y="785.745" transform="translate(-5.94 -199.5)scale(.35278)"/><path fill="none" stroke="#222" stroke-linejoin="round" stroke-miterlimit="10" stroke-width=".14075922" d="M53.691 13.576h.088V7.839h-.088zm0 0"/><path d="M53.691 13.576h.088V7.839h-.088zm0 0"/><use xlink:href="#g" x="169.48" y="603.996" transform="translate(-5.94 -199.5)scale(.35278)"/><path fill="none" stroke="#222" stroke-linejoin="round" stroke-miterlimit="10" stroke-width=".14075922" d="M55.447 46.645h.088v-5.737h-.088zm0 0"/><path d="M55.447 46.645h.088v-5.737h-.088zm0 0"/><use xlink:href="#e" x="174.457" y="681.47" transform="translate(-5.94 -199.5)scale(.35278)"/><use xlink:href="#f" x="153.937" y="734.899" transform="translate(-5.94 -199.5)scale(.35278)"/><use xlink:href="#f" x="153.937" y="586.76" transform="translate(-5.94 -199.5)scale(.35278)"/><use xlink:href="#f" x="153.937" y="698.706" transform="translate(-5.94 -199.5)scale(.35278)"/><use xlink:href="#f" x="153.937" y="785.745" transform="translate(-5.94 -199.5)scale(.35278)"/><path fill="none" stroke="#222" stroke-linejoin="round" stroke-miterlimit="10" stroke-width=".14075922" d="M48.437 13.576h.088V7.839h-.088zm0 0"/><path d="M48.437 13.576h.088V7.839h-.088zm0 0"/><path fill="none" stroke="#222" stroke-linejoin="round" stroke-miterlimit="10" stroke-width=".14075922" d="M50.192 46.645h.088v-5.737h-.088zm0 0"/><path d="M50.192 46.645h.088v-5.737h-.088zm0 0"/><path fill="none" stroke="#222" stroke-linejoin="round" stroke-miterlimit="10" stroke-width=".14075922" d="M103.779 46.645h.088V41.24h-.088zm0 0"/><path d="M103.779 46.645h.088V41.24h-.088zm0 0"/><use xlink:href="#h" x="313.386" y="742.371" transform="translate(-5.94 -199.5)scale(.35278)"/><path fill="none" stroke="#222" stroke-linejoin="round" stroke-miterlimit="10" stroke-width=".14075922" d="M103.779 62.048h.088v-5.736h-.088zm0 0"/><path d="M103.779 62.048h.088v-5.736h-.088zm0 0"/><path fill="none" stroke="#222" stroke-linejoin="round" stroke-miterlimit="10" stroke-width=".14075922" d="M103.779 77.35h.088v-5.518h-.088zm0 0"/><path d="M103.779 77.35h.088v-5.518h-.088zm0 0"/><use xlink:href="#e" x="311.461" y="769.132" transform="translate(-5.94 -199.5)scale(.35278)"/><use xlink:href="#f" x="316.209" y="586.761" transform="translate(-5.94 -199.5)scale(.35278)"/><use xlink:href="#f" x="316.209" y="625.445" transform="translate(-5.94 -199.5)scale(.35278)"/><use xlink:href="#f" x="316.209" y="698.706" transform="translate(-5.94 -199.5)scale(.35278)"/><use xlink:href="#d" x="316.209" y="785.746" transform="translate(-5.94 -199.5)scale(.35278)"/><path fill="none" stroke="#222" stroke-linejoin="round" stroke-miterlimit="10" stroke-width=".14075922" d="M105.682 12.697h.088V7.839h-.088zm0 0"/><path d="M105.682 12.698h.088V7.84h-.088zm0 0"/><path fill="none" stroke="#222" stroke-linejoin="round" stroke-miterlimit="10" stroke-width=".14075922" d="M105.682 26.343h.088v-4.857h-.088zm0 0"/><path d="M105.682 26.345h.088v-4.86h-.088zm0 0"/><use xlink:href="#f" x="295.577" y="586.761" transform="translate(-5.94 -199.5)scale(.35278)"/><use xlink:href="#f" x="295.577" y="625.445" transform="translate(-5.94 -199.5)scale(.35278)"/><use xlink:href="#f" x="295.577" y="698.706" transform="translate(-5.94 -199.5)scale(.35278)"/><path fill="none" stroke="#222" stroke-linejoin="round" stroke-miterlimit="10" stroke-width=".14075922" d="M98.404 13.576h.087V7.839h-.087zm0 0"/><path d="M98.404 13.576h.087V7.839h-.087zm0 0"/><use xlink:href="#g" x="296.224" y="603.996" transform="translate(-5.94 -199.5)scale(.35278)"/><path fill="none" stroke="#222" stroke-linejoin="round" stroke-miterlimit="10" stroke-width=".14075922" d="M98.404 26.695h.087v-5.21h-.087zm0 0"/><path d="M98.404 26.695h.087v-5.21h-.087zm0 0"/><path fill="none" stroke="#222" stroke-linejoin="round" stroke-miterlimit="10" stroke-width=".14075922" d="M100.16 46.645h.088v-5.737h-.088zm0 0"/><path d="M100.16 46.645h.087v-5.737h-.087zm0 0"/><use xlink:href="#e" x="301.201" y="681.47" transform="translate(-5.94 -199.5)scale(.35278)"/><use xlink:href="#f" x="305.837" y="586.76" transform="translate(-5.94 -199.5)scale(.35278)"/><use xlink:href="#f" x="305.837" y="625.444" transform="translate(-5.94 -199.5)scale(.35278)"/><use xlink:href="#f" x="305.837" y="698.705" transform="translate(-5.94 -199.5)scale(.35278)"/><use xlink:href="#f" x="305.837" y="742.371" transform="translate(-5.94 -199.5)scale(.35278)"/><use xlink:href="#f" x="305.837" y="785.745" transform="translate(-5.94 -199.5)scale(.35278)"/><path fill="none" stroke="#222" stroke-linejoin="round" stroke-miterlimit="10" stroke-width=".14075922" d="M102.023 12.697h.088V7.839h-.088zm0 0"/><path d="M102.023 12.698h.088V7.84h-.088zm0 0"/><path fill="none" stroke="#222" stroke-linejoin="round" stroke-miterlimit="10" stroke-width=".14075922" d="M102.023 26.343h.088v-4.857h-.088zm0 0"/><path d="M102.023 26.345h.088v-4.86h-.088zm0 0"/><use xlink:href="#f" x="342.155" y="627.935" transform="translate(-5.94 -199.5)scale(.35278)"/><use xlink:href="#f" x="342.155" y="696.215" transform="translate(-5.94 -199.5)scale(.35278)"/><use xlink:href="#f" x="342.155" y="739.88" transform="translate(-5.94 -199.5)scale(.35278)"/><use xlink:href="#f" x="342.155" y="785.745" transform="translate(-5.94 -199.5)scale(.35278)"/><use xlink:href="#h" x="349.705" y="627.935" transform="translate(-5.94 -199.5)scale(.35278)"/><path fill="none" stroke="#222" stroke-linejoin="round" stroke-miterlimit="10" stroke-width=".14075922" d="M114.836 28.102h.088v-5.737h-.088zm0 0"/><path d="M114.836 28.102h.088v-5.737h-.088zm0 0"/><use xlink:href="#h" x="349.705" y="693.724" transform="translate(-5.94 -199.5)scale(.35278)"/><path fill="none" stroke="#222" stroke-linejoin="round" stroke-miterlimit="10" stroke-width=".14075922" d="M116.592 45.765h.088V40.03h-.088zm0 0"/><path d="M116.592 45.765h.086V40.03h-.086zm0 0"/><use xlink:href="#h" x="349.705" y="737.39" transform="translate(-5.94 -199.5)scale(.35278)"/><path fill="none" stroke="#222" stroke-linejoin="round" stroke-miterlimit="10" stroke-width=".14075922" d="M107.439 46.645h.087V41.24h-.087zm0 0"/><path d="M107.439 46.645h.087V41.24h-.087zm0 0"/><use xlink:href="#f" x="326.469" y="586.761" transform="translate(-5.94 -199.5)scale(.35278)"/><use xlink:href="#f" x="326.469" y="625.445" transform="translate(-5.94 -199.5)scale(.35278)"/><use xlink:href="#f" x="326.469" y="698.706" transform="translate(-5.94 -199.5)scale(.35278)"/><path fill="none" stroke="#222" stroke-linejoin="round" stroke-miterlimit="10" stroke-width=".14075922" d="M109.302 12.697h.088V7.839h-.088zm0 0"/><path d="M109.302 12.698h.088V7.84h-.088zm0 0"/><path fill="none" stroke="#222" stroke-linejoin="round" stroke-miterlimit="10" stroke-width=".14075922" d="M109.302 26.343h.088v-4.857h-.088zm0 0"/><path d="M109.302 26.345h.088v-4.86h-.088zm0 0"/><path fill="none" stroke="#222" stroke-linejoin="round" stroke-miterlimit="10" stroke-width=".14075922" d="M111.057 46.645h.089V41.24h-.089zm0 0"/><path d="M111.057 46.645h.089V41.24h-.089zm0 0"/><use xlink:href="#j" x="342.155" y="596.723" transform="translate(-5.94 -199.5)scale(.35278)"/><use xlink:href="#f" x="274.944" y="586.76" transform="translate(-5.94 -199.5)scale(.35278)"/><path fill="none" stroke="#222" stroke-linejoin="round" stroke-miterlimit="10" stroke-width=".14075922" d="M85.42 15.333h.087V9.596h-.088zm0 0"/><path d="M85.42 15.333h.087V9.596h-.088zm0 0"/><use xlink:href="#g" x="259.419" y="608.977" transform="translate(-5.94 -199.5)scale(.35278)"/><path fill="none" stroke="#222" stroke-linejoin="round" stroke-miterlimit="10" stroke-width=".14075922" d="M85.42 30.738h.087v-5.737h-.088zm0 0"/><path d="M85.42 30.738h.087v-5.737h-.088zm0 0"/><use xlink:href="#g" x="259.419" y="652.643" transform="translate(-5.94 -199.5)scale(.35278)"/><path fill="none" stroke="#222" stroke-linejoin="round" stroke-miterlimit="10" stroke-width=".14075922" d="M87.175 48.402h.088v-5.737h-.088zm0 0"/><path d="M87.175 48.402h.088v-5.737h-.088zm0 0"/><use xlink:href="#e" x="264.396" y="686.452" transform="translate(-5.94 -199.5)scale(.35278)"/><use xlink:href="#f" x="258.771" y="703.688" transform="translate(-5.94 -199.5)scale(.35278)"/><use xlink:href="#f" x="274.945" y="630.426" transform="translate(-5.94 -199.5)scale(.35278)"/><use xlink:href="#f" x="274.945" y="698.706" transform="translate(-5.94 -199.5)scale(.35278)"/><use xlink:href="#f" x="274.945" y="737.39" transform="translate(-5.94 -199.5)scale(.35278)"/><use xlink:href="#f" x="274.945" y="785.745" transform="translate(-5.94 -199.5)scale(.35278)"/><use xlink:href="#e" x="245.071" y="769.133" transform="translate(-5.94 -199.5)scale(.35278)"/><path fill="none" stroke="#222" stroke-linejoin="round" stroke-miterlimit="10" stroke-width=".14075922" d="M78.602 13.576h.088V7.839h-.088zm0 0"/><path d="M78.602 13.576h.088V7.839h-.088zm0 0"/><path fill="none" stroke="#222" stroke-linejoin="round" stroke-miterlimit="10" stroke-width=".14075922" d="M80.358 46.645h.088v-5.737h-.088zm0 0"/><path d="M80.358 46.645h.088v-5.737h-.088zm0 0"/><use xlink:href="#h" x="246.996" y="737.39" transform="translate(-5.94 -199.5)scale(.35278)"/><path fill="none" stroke="#222" stroke-linejoin="round" stroke-miterlimit="10" stroke-width=".14075922" d="M80.358 61.17h.088v-5.738h-.088zm0 0"/><path d="M80.358 61.17h.088v-5.738h-.088zm0 0"/><path fill="none" stroke="#222" stroke-linejoin="round" stroke-miterlimit="10" stroke-width=".14075922" d="M80.358 77.35h.088v-5.518h-.088zm0 0"/><path d="M80.358 77.35h.088v-5.518h-.088zm0 0"/><use xlink:href="#j" x="249.818" y="640.388" transform="translate(-5.94 -199.5)scale(.35278)"/><use xlink:href="#d" x="249.818" y="785.745" transform="translate(-5.94 -199.5)scale(.35278)"/><use xlink:href="#f" x="258.771" y="591.742" transform="translate(-5.94 -199.5)scale(.35278)"/><use xlink:href="#f" x="258.771" y="635.407" transform="translate(-5.94 -199.5)scale(.35278)"/><use xlink:href="#h" x="282.494" y="737.389" transform="translate(-5.94 -199.5)scale(.35278)"/><path fill="none" stroke="#222" stroke-linejoin="round" stroke-miterlimit="10" stroke-width=".14075922" d="M92.881 60.291h.088v-5.736h-.088zm0 0"/><path d="M92.881 60.291h.088v-5.736h-.088zm0 0"/><path fill="none" stroke="#222" stroke-linejoin="round" stroke-miterlimit="10" stroke-width=".14075922" d="M92.881 77.35h.088v-5.518h-.088zm0 0"/><path d="M92.881 77.35h.088v-5.518h-.088zm0 0"/><use xlink:href="#e" x="280.57" y="769.132" transform="translate(-5.94 -199.5)scale(.35278)"/><path fill="none" stroke="#222" stroke-linejoin="round" stroke-miterlimit="10" stroke-width=".14075922" d="M91.126 13.576h.088V7.839h-.088zm0 0"/><path d="M91.126 13.576h.088V7.839h-.088zm0 0"/><use xlink:href="#f" x="285.316" y="627.935" transform="translate(-5.94 -199.5)scale(.35278)"/><use xlink:href="#d" x="285.316" y="785.745" transform="translate(-5.94 -199.5)scale(.35278)"/><path fill="none" stroke="#222" stroke-linejoin="round" stroke-miterlimit="10" stroke-width=".14075922" d="M94.784 27.22h.088v-4.855h-.088zm0 0"/><path d="M94.784 27.22h.088v-4.855h-.088zm0 0"/><path fill="none" stroke="#222" stroke-linejoin="round" stroke-miterlimit="10" stroke-width=".14075922" d="M92.881 46.645h.088v-5.737h-.088zm0 0"/><path d="M92.881 46.645h.088v-5.737h-.088zm0 0"/><path fill="none" stroke="#222" stroke-linejoin="round" stroke-miterlimit="10" stroke-width=".14075922" d="M91.126 27.75h.088v-4.507h-.088zm0 0"/><path d="M91.126 27.75h.088v-4.507h-.088zm0 0"/></svg>