<?xml version="1.0" standalone="no"?>
<!DOCTYPE svg PUBLIC "-//W3C//DTD SVG 20010904//EN"
 "http://www.w3.org/TR/2001/REC-SVG-20010904/DTD/svg10.dtd">
<svg version="1.0" xmlns="http://www.w3.org/2000/svg"
 width="219.000000pt" height="219.000000pt" viewBox="0 0 219.000000 219.000000"
 preserveAspectRatio="xMidYMid meet">
<metadata>
Created by potrace 1.11, written by Peter Selinger 2001-2013
</metadata>
<g transform="translate(0.000000,219.000000) scale(0.100000,-0.100000)"
fill="#000000" stroke="none">
<path d="M426 2173 c-6 -15 -8 -15 -16 -3 -9 13 -10 13 -10 0 0 -11 -2 -12 -8
-3 -6 9 -17 10 -38 4 -18 -5 -37 -5 -47 0 -9 6 -18 5 -22 0 -3 -6 -13 -8 -23
-5 -9 3 -3 -5 13 -18 129 -99 198 -238 189 -378 -11 -176 -87 -305 -257 -437
l-57 -44 87 -68 c224 -173 303 -300 303 -486 0 -145 -52 -265 -160 -370 -75
-72 -189 -132 -290 -154 l-55 -11 3 -40 c2 -22 10 -44 18 -51 8 -6 14 -22 14
-34 0 -28 26 -32 177 -31 55 1 99 -2 96 -6 -2 -5 6 -8 19 -8 13 0 48 1 78 1
79 1 84 1 90 9 3 4 15 20 28 36 12 16 59 79 104 139 45 61 86 115 91 120 9 11
360 477 382 508 12 17 15 17 69 0 l56 -17 -6 -171 c-3 -93 -7 -275 -8 -403
l-3 -233 26 3 c14 1 31 0 36 -4 6 -3 19 -4 30 -2 45 7 141 16 172 16 19 0 30
4 27 10 -3 5 4 4 15 -4 18 -11 23 -11 31 2 5 8 10 10 10 4 0 -14 31 -14 49 0
12 9 13 8 7 -3 -7 -11 -2 -12 25 -5 19 5 120 8 224 7 105 -1 196 1 203 6 7 4
14 18 17 30 8 40 17 65 31 79 18 17 19 56 2 46 -7 -4 -4 3 7 15 11 13 15 25
10 29 -6 4 -11 45 -12 91 -2 55 -7 87 -15 93 -9 5 -9 8 -2 8 7 0 11 14 10 33
-1 17 1 49 5 70 4 24 3 37 -5 37 -6 0 -5 4 2 9 25 15 -38 24 -184 26 l-141 1
-39 -105 -40 -106 -35 1 c-20 1 -48 4 -63 8 l-27 7 6 77 c4 42 8 93 11 112 2
19 6 69 10 110 4 41 9 95 13 120 l6 45 227 0 c221 0 227 0 228 20 2 66 6 95
14 95 4 0 6 6 3 14 -3 7 0 19 6 26 7 8 7 10 1 7 -6 -3 -11 0 -11 8 0 8 5 13
11 12 5 -1 10 13 9 31 0 17 5 32 11 32 6 0 3 5 -7 11 -15 9 -16 13 -5 26 13
16 21 46 9 39 -8 -5 -10 17 -14 136 -1 43 -6 78 -10 78 -4 0 -3 9 3 21 20 36
7 45 -71 47 -197 7 -332 53 -413 142 -48 53 -68 96 -71 150 -4 84 33 137 119
171 80 32 93 32 101 1 11 -45 72 -165 105 -204 34 -41 98 -75 150 -79 19 -2
41 -8 49 -13 11 -8 13 -8 7 2 -5 8 1 12 21 12 22 0 25 2 13 10 -8 5 -10 10 -4
10 14 0 13 32 -1 42 -6 5 -5 8 4 8 11 0 11 3 0 17 -10 11 -10 14 -1 9 6 -4 12
-3 12 3 0 5 -6 12 -12 14 -10 4 -10 6 -1 6 9 1 10 8 3 25 -5 13 -7 26 -5 28 3
2 5 30 6 61 1 31 6 57 11 57 5 0 6 5 3 10 -3 6 0 10 7 10 8 1 6 6 -6 15 -17
13 -18 15 -3 15 9 0 17 5 17 11 0 5 -5 7 -11 3 -6 -3 -3 8 5 25 16 30 16 31
-6 32 -21 0 -21 1 -4 8 19 7 19 8 -2 13 -13 4 -22 2 -22 -5 0 -7 -5 -4 -11 6
-8 14 -14 15 -31 6 -15 -8 -19 -8 -14 0 4 6 0 11 -8 11 -9 0 -16 4 -16 9 0 5
-11 8 -25 6 -14 -1 -25 2 -25 7 0 5 -13 7 -30 4 -16 -2 -30 -1 -30 4 0 10 -20
8 -39 -4 -10 -6 -12 -5 -7 2 10 16 -26 15 -43 0 -11 -10 -13 -10 -7 0 5 8 -1
12 -19 12 -17 0 -24 -4 -19 -12 4 -7 3 -8 -5 -4 -6 4 -19 2 -27 -5 -17 -14
-133 -3 -165 16 -5 4 -48 6 -95 6 -113 -2 -117 -3 -129 -11 -5 -4 -31 -8 -57
-8 -27 0 -63 -1 -81 -1 l-32 -1 0 -374 0 -375 30 -5 c17 -3 44 -8 60 -11 17
-2 39 -7 50 -9 11 -2 40 -7 65 -11 123 -20 118 -16 109 -78 -4 -28 -8 -60 -8
-69 -1 -17 -30 -18 -457 -18 l-455 0 6 63 c4 34 10 65 13 68 4 3 71 23 150 44
l143 38 -3 381 -3 381 -33 -2 c-18 -1 -30 1 -28 5 3 4 -4 8 -15 8 -10 0 -19
-4 -19 -8 0 -4 -12 -3 -26 2 -21 8 -29 7 -40 -7 -10 -12 -13 -13 -12 -4 2 11
-12 14 -62 16 -36 1 -75 5 -87 9 -15 5 -23 3 -23 -4 0 -6 5 -8 12 -4 7 4 8 3
4 -5 -6 -9 -11 -9 -22 0 -17 14 -84 19 -84 6 0 -5 -7 -4 -15 3 -12 10 -15 10
-15 0 0 -9 -3 -10 -14 -1 -11 9 -15 8 -20 -6z m384 -17 c0 -3 -4 -8 -10 -11
-5 -3 -10 -1 -10 4 0 6 5 11 10 11 6 0 10 -2 10 -4z"/>
<path d="M75 2047 c-10 -8 -15 -19 -11 -25 3 -6 2 -22 -3 -35 -7 -18 -7 -27 2
-31 9 -3 9 -5 -1 -5 -9 -1 -10 -7 -4 -18 9 -20 8 -55 -2 -72 -4 -6 -3 -11 1
-11 5 0 9 -9 9 -19 0 -11 -4 -17 -8 -15 -10 7 -10 1 2 -31 7 -17 7 -24 0 -20
-6 4 -8 -17 -5 -57 2 -35 7 -126 10 -203 4 -77 8 -141 9 -143 6 -5 88 119 106
161 38 86 44 268 12 359 -22 61 -76 148 -94 148 -5 0 -8 7 -4 15 7 18 5 19
-19 2z"/>
<path d="M69 958 c0 -7 -2 -21 -4 -30 -2 -10 3 -37 10 -60 7 -24 11 -53 9 -66
-3 -17 0 -21 8 -16 10 6 10 4 2 -7 -5 -8 -10 -21 -9 -29 0 -8 -3 -18 -8 -21
-4 -3 -10 -19 -12 -35 -6 -36 -16 -91 -21 -122 -11 -56 -11 -102 0 -106 7 -3
7 -5 -1 -5 -9 -1 -13 -18 -13 -51 0 -46 2 -50 23 -50 38 0 144 58 176 96 55
68 77 193 47 275 -14 39 -89 141 -128 174 -12 11 -35 30 -50 43 -19 16 -28 19
-29 10z"/>
<path d="M2122 624 c10 -10 20 -16 22 -13 3 3 -5 11 -17 18 -21 13 -21 12 -5
-5z"/>
<path d="M900 245 c-22 -30 -58 -80 -80 -110 -22 -30 -37 -55 -33 -55 4 0 0
-5 -9 -11 -35 -20 -17 -26 76 -27 l94 -1 1 129 c1 72 -1 130 -3 130 -3 0 -24
-25 -46 -55z"/>
<path d="M43 95 c0 -8 4 -15 9 -15 10 0 10 17 0 24 -5 3 -9 -1 -9 -9z"/>
</g>
</svg>
