<?xml version="1.0" encoding="UTF-8" standalone="no"?>
<svg xmlns="http://www.w3.org/2000/svg" width="292" height="292" preserveAspectRatio="xMidYMid meet" version="1" viewBox="0 0 219 219">
  <path d="M26.2 2.4C35.3 14 47 27.7 46.4 42c-1.1 17.6-8.7 30.5-25.7 43.7L15 90.1l8.7 6.8c22.4 17.3 30.3 30 30.3 48.6 0 14.5-5.2 26.5-16 37a64.8 64.8 0 0 1-29 15.4L3.5 199c-1.5 4.4-.7 13.1-.7 16.3 7-.5 38.8 1 50.2-.3 2.1-2.2 1.5-2 2.8-3.6l10.4-13.9a8255.3 8255.3 0 0 0 47.3-62.8c1.2-1.7 1.5-1.7 6.9 0l5.6 1.7-.6 17.1c-.3 9.3-.7 27.5-.8 40.3l-.3 23.3c25.4-2.1 65.8.7 89.5-2 2-11.7-.1-50 1-56.6-3.6-1-3.8-.8-18.4-1l-14.1-.1-3.9 10.5-4 10.6-3.5-.1c-2-.1-4.8-.4-6.3-.8l-2.7-.7.6-7.7c.4-4.2.8-9.3 1.1-11.2l1-11c.4-4.1.9-9.5 1.3-12l.6-4.5h22.7c22.1 0 24.3 0 24.4-2 1.4-20.9.8-42.5.9-57.3-2-.4-3.6-.8-7.6-1-19.7-.7-33.2-5.3-41.3-14.2-4.8-5.3-6.8-9.6-7.1-15-.4-8.4 3.3-13.7 11.9-17.1 8-3.2 9.3-3.2 10.1-.1A79 79 0 0 0 191 44.2a24 24 0 0 0 15 7.9c2.8.4 5.2.8 8.3 0 2-16.6 1-41.8.8-46.6-26.6-1.7-56.8-1-92.6-.5v74.9l3 .5 6 1.1c1.7.2 3.9.7 5 .9l6.5 1.1c12.3 2 11.8 1.6 10.9 7.8-.4 2.8-.8 6-.8 6.9-.1 1.7-3 1.8-45.7 1.8H61.9l.6-6.3c.4-3.4 1-6.5 1.3-6.8.4-.3 7.1-2.3 15-4.4l14.3-3.8-.3-38.1-.3-38.1c-24.4-.8-45 .9-66.3-.1z"/>
  <path d="M7.4 82.8c.6.5 8.8-11.9 10.6-16.1a62.6 62.6 0 0 0 1.2-35.9c-2.3-9-7.9-14-11.7-16.3-.9 16.3-.7 44.5-.1 68.3zM6.9 123.2c-1.7 5.4-.2 11-.9 16.4 1.5 5-4.3 33.4-.7 43.4 3.8 0 14.4-5.8 17.6-9.6 5.5-6.8 6.4-19 4.7-27.5-2.4-12.6-14.7-20.5-20.7-22.7zM90 194.5l-8 11c-2.2 2-4.6 7-6.5 9 6.8 0 11.6.2 19.3.4l.1-12.9c.1-7.2-.1-13-.3-13-.3 0-2.4 2.5-4.6 5.5z"/>
</svg>
