<svg xmlns="http://www.w3.org/2000/svg" viewBox="0 0 750 75">
  <path fill="#f7f7f7" d="M0 0h107.143v75H0z"/>
  <path fill="#e3e3e3" d="M107.143 0h107.143v75H107.143z"/>
  <path fill="#b0b0b0" d="M214.286 0h107.143v75H214.286z"/>
  <path fill="#5c5c5c" d="M321.429 0h107.143v75H321.429z"/>
  <path fill="#212121" d="M428.571 0h107.143v75H428.571z"/>
  <path fill="#171717" d="M535.714 0h107.143v75H535.714z"/>
  <path fill="#030303" d="M642.857 0H750v75H642.857z"/>
  <path fill="#000" d="M54.656 27.723c-2.25 0-3.724 1.875-3.724 5.15 0 3.325 1.474 5.2 3.724 5.2 2.225 0 3.725-1.875 3.725-5.2 0-3.275-1.5-5.15-3.725-5.15zm9.526 0l-9.051 17h1.4l9.051-17h-1.4zm101.845 0c-2.25 0-3.724 1.875-3.724 5.15 0 3.325 1.474 5.2 3.724 5.2 2.225 0 3.725-1.875 3.725-5.2 0-3.275-1.5-5.15-3.725-5.15zm9.526 0l-9.051 17h1.4l9.051-17h-1.4zm99.845 0c-2.25 0-3.724 1.875-3.724 5.15 0 3.325 1.474 5.2 3.724 5.2 2.225 0 3.725-1.875 3.725-5.2 0-3.275-1.5-5.15-3.725-5.15zm9.526 0l-9.05 17h1.4l9.05-17h-1.4zm-241.445.45c-1.875 0-3.35.85-4.575 2l1.1 1.3c.95-.95 2.075-1.625 3.4-1.625 1.7 0 2.75.975 2.75 2.525 0 1.675-1.125 2.975-4.525 2.975v1.576c3.8 0 5.1 1.274 5.1 3.174 0 1.775-1.374 2.925-3.3 2.925-1.874 0-3.125-.9-4.075-1.9l-1.05 1.35c1.076 1.175 2.7 2.25 5.25 2.25 2.926 0 5.25-1.724 5.25-4.55 0-2.2-1.525-3.6-3.45-4.05v-.1c1.725-.65 2.9-1.875 2.9-3.8 0-2.575-2-4.05-4.775-4.05zm208.34 0c-1.876 0-3.35.85-4.575 2l1.1 1.3c.95-.95 2.075-1.625 3.4-1.625 1.7 0 2.75.975 2.75 2.525 0 1.675-1.125 2.975-4.525 2.975v1.576c3.8 0 5.1 1.274 5.1 3.174 0 1.775-1.374 2.925-3.3 2.925-1.874 0-3.126-.9-4.076-1.9l-1.048 1.35c1.075 1.175 2.7 2.25 5.25 2.25 2.925 0 5.25-1.724 5.25-4.55 0-2.2-1.527-3.6-3.452-4.05v-.1c1.725-.65 2.9-1.875 2.9-3.8 0-2.575-2-4.05-4.775-4.05zm-109.096.3c-.875.525-1.925.925-3.375 1.175v1.325h2.9v11.75h-3.65v1.7h9v-1.7h-3.301v-14.25h-1.574zm12.402 0c-.875.525-1.925.925-3.375 1.175v1.325h2.9v11.75H151v1.7h9v-1.7h-3.3v-14.25h-1.575zm109.371 0c-.875.525-1.925.925-3.375 1.175v1.325h2.9v11.75h-3.65v1.7h9v-1.7h-3.3v-14.25h-1.575zm-209.84.525c1.275 0 2.15 1.275 2.15 3.875s-.875 3.926-2.15 3.926c-1.3 0-2.176-1.326-2.176-3.926s.876-3.875 2.176-3.875zm111.371 0c1.275 0 2.15 1.275 2.15 3.875s-.875 3.926-2.15 3.926c-1.3 0-2.175-1.326-2.175-3.926s.875-3.875 2.175-3.875zm109.371 0c1.275 0 2.15 1.275 2.15 3.875s-.875 3.926-2.15 3.926c-1.3 0-2.175-1.326-2.175-3.926s.875-3.875 2.175-3.875zM66.082 34.373c-2.25 0-3.727 1.875-3.727 5.15 0 3.325 1.477 5.2 3.727 5.2 2.225 0 3.725-1.875 3.725-5.2 0-3.275-1.5-5.15-3.725-5.15zm111.371 0c-2.25 0-3.726 1.875-3.726 5.15 0 3.325 1.476 5.2 3.726 5.2 2.225 0 3.725-1.875 3.725-5.2 0-3.275-1.5-5.15-3.725-5.15zm109.371 0c-2.25 0-3.726 1.875-3.726 5.15 0 3.325 1.476 5.2 3.726 5.2 2.225 0 3.725-1.875 3.725-5.2 0-3.275-1.5-5.15-3.725-5.15zM66.082 35.648c1.275 0 2.148 1.275 2.148 3.875s-.873 3.924-2.148 3.924c-1.3 0-2.176-1.324-2.176-3.924 0-2.6.876-3.875 2.176-3.875zm111.371 0c1.275 0 2.149 1.275 2.149 3.875s-.874 3.924-2.149 3.924c-1.3 0-2.176-1.324-2.176-3.924 0-2.6.876-3.875 2.176-3.875zm109.371 0c1.275 0 2.149 1.275 2.149 3.875s-.874 3.924-2.149 3.924c-1.3 0-2.176-1.324-2.176-3.924 0-2.6.876-3.875 2.176-3.875z"/>
  <path fill="#fff" d="M384.77 27.723c-2.25 0-3.725 1.875-3.725 5.15 0 3.325 1.475 5.2 3.725 5.2 2.225 0 3.724-1.875 3.724-5.2 0-3.275-1.5-5.15-3.724-5.15zm9.525 0l-9.05 17h1.4l9.05-17h-1.4zm97.846 0c-2.25 0-3.725 1.875-3.725 5.15 0 3.325 1.475 5.2 3.725 5.2 2.225 0 3.724-1.875 3.724-5.2 0-3.275-1.5-5.15-3.724-5.15zm9.525 0l-9.05 17h1.4l9.05-17h-1.4zm93.846 0c-2.25 0-3.725 1.875-3.725 5.15 0 3.325 1.475 5.2 3.725 5.2 2.225 0 3.724-1.875 3.724-5.2 0-3.275-1.5-5.15-3.724-5.15zm9.525 0l-9.05 17h1.4l9.05-17h-1.4zm100.826 0c-2.25 0-3.724 1.875-3.724 5.15 0 3.325 1.474 5.2 3.724 5.2 2.225 0 3.725-1.875 3.725-5.2 0-3.275-1.5-5.15-3.725-5.15zm9.526 0l-9.051 17h1.4l9.051-17h-1.4zm-352.748.45c-3.175 0-6.077 2.476-6.077 8.876 0 5.125 2.375 7.674 5.5 7.674 2.575 0 4.725-2.075 4.725-5.125 0-3.275-1.799-4.924-4.549-4.924-1.3 0-2.724.775-3.724 2 .1-5.05 1.974-6.776 4.199-6.776 1 0 1.975.475 2.625 1.25l1.15-1.275c-.9-.975-2.124-1.7-3.85-1.7zm106.42 0c-2.575 0-4.526 1.65-4.526 4.1 0 1.675 1.052 2.85 2.227 3.674v.102c-1.5.8-3 2.224-3 4.299 0 2.525 2.224 4.375 5.224 4.375 3.1 0 5.15-1.875 5.15-4.25 0-2.15-1.35-3.275-2.775-4.1v-.1c.975-.75 2.2-2.174 2.2-3.85 0-2.474-1.725-4.25-4.5-4.25zm102.746 0c-2.55 0-4.7 2.076-4.7 5.126 0 3.275 1.776 4.924 4.526 4.924 1.325 0 2.75-.774 3.75-2.05-.075 5.1-1.977 6.85-4.227 6.85-1 0-1.975-.5-2.625-1.275l-1.148 1.3c.875.95 2.15 1.675 3.85 1.675 3.174 0 6.074-2.475 6.074-8.875 0-5.125-2.35-7.674-5.5-7.674zm13.978 0c-3.175 0-6.076 2.476-6.076 8.876 0 5.125 2.375 7.674 5.5 7.674 2.575 0 4.725-2.075 4.725-5.125 0-3.275-1.8-4.924-4.55-4.924-1.3 0-2.724.775-3.724 2 .1-5.05 1.974-6.776 4.2-6.776 1 0 1.974.475 2.624 1.25l1.15-1.275c-.9-.975-2.124-1.7-3.849-1.7zm91.393 0c-2.55 0-4.7 2.076-4.7 5.126 0 3.275 1.776 4.924 4.526 4.924 1.325 0 2.75-.774 3.75-2.05-.075 5.1-1.977 6.85-4.227 6.85-1 0-1.975-.5-2.625-1.275l-1.148 1.3c.875.95 2.15 1.675 3.85 1.675 3.175 0 6.074-2.475 6.074-8.875 0-5.125-2.35-7.674-5.5-7.674zm12.402 0c-2.55 0-4.7 2.076-4.7 5.126 0 3.275 1.776 4.924 4.526 4.924 1.325 0 2.75-.774 3.75-2.05-.075 5.1-1.976 6.85-4.226 6.85-1 0-1.975-.5-2.625-1.275l-1.149 1.3c.875.95 2.15 1.675 3.85 1.675 3.175 0 6.074-2.475 6.074-8.875 0-5.125-2.35-7.674-5.5-7.674zm-314.562.3l-6.827 10.2v1.35h7.176v4.4h1.95v-4.4h2.175v-1.65h-2.176v-9.9h-2.298zm101.22 0v1.775h7.95c-3.15 4.375-4.35 8.176-4.625 14.176h2.125c.274-6.225 1.05-9.851 4.826-14.676v-1.275h-10.276zm-91.468.525c1.275 0 2.15 1.275 2.15 3.875s-.875 3.926-2.15 3.926c-1.3 0-2.176-1.326-2.176-3.926s.876-3.875 2.176-3.875zm107.37 0c1.276 0 2.151 1.275 2.151 3.875s-.875 3.926-2.15 3.926c-1.3 0-2.176-1.326-2.176-3.926s.876-3.875 2.176-3.875zm103.372 0c1.275 0 2.15 1.275 2.15 3.875s-.875 3.926-2.15 3.926c-1.3 0-2.176-1.326-2.176-3.926s.876-3.875 2.176-3.875zm110.351 0c1.275 0 2.15 1.275 2.15 3.875s-.875 3.926-2.15 3.926c-1.3 0-2.176-1.326-2.176-3.926s.876-3.875 2.176-3.875zm-236.851.7c1.75 0 2.773 1.25 2.773 2.825 0 1.175-.599 2.25-1.674 3.2-1.925-.75-3.675-1.55-3.675-3.45 0-1.55 1.1-2.576 2.576-2.576zm102.795.1c2.025 0 3.25 1.65 3.525 4.75-1.025 1.5-2.3 2.126-3.35 2.126-1.975 0-2.95-1.3-2.95-3.375 0-2.1 1.225-3.5 2.775-3.5zm105.37 0c2.026 0 3.251 1.65 3.526 4.75-1.025 1.5-2.3 2.126-3.35 2.126-1.974 0-2.95-1.3-2.95-3.375 0-2.1 1.225-3.5 2.775-3.5zm12.403 0c2.025 0 3.25 1.65 3.525 4.75-1.025 1.5-2.3 2.126-3.35 2.126-1.974 0-2.95-1.3-2.95-3.375 0-2.1 1.225-3.5 2.775-3.5zm-314.187.876h.1c-.05.85-.126 2.224-.126 3.074v4.625h-5l3.725-5.45c.45-.774.9-1.474 1.3-2.25zm20.802 3.699c-2.25 0-3.726 1.875-3.726 5.15 0 3.325 1.476 5.2 3.726 5.2 2.225 0 3.725-1.875 3.725-5.2 0-3.275-1.5-5.15-3.725-5.15zm107.371 0c-2.25 0-3.726 1.875-3.726 5.15 0 3.325 1.476 5.2 3.726 5.2 2.225 0 3.725-1.875 3.725-5.2 0-3.275-1.5-5.15-3.725-5.15zm103.372 0c-2.25 0-3.727 1.875-3.727 5.15 0 3.325 1.476 5.2 3.726 5.2 2.226 0 3.725-1.875 3.725-5.2 0-3.275-1.5-5.15-3.725-5.15zm110.351 0c-2.25 0-3.726 1.875-3.726 5.15 0 3.325 1.476 5.2 3.726 5.2 2.225 0 3.725-1.875 3.725-5.2 0-3.275-1.5-5.15-3.725-5.15zm-321.094 1.275c1.275 0 2.149 1.275 2.149 3.875s-.874 3.924-2.149 3.924c-1.3 0-2.175-1.324-2.175-3.924 0-2.6.875-3.875 2.175-3.875zm107.371 0c1.275 0 2.149 1.275 2.149 3.875s-.874 3.924-2.149 3.924c-1.3 0-2.175-1.324-2.175-3.924 0-2.6.875-3.875 2.175-3.875zm103.372 0c1.274 0 2.148 1.275 2.148 3.875s-.874 3.924-2.149 3.924c-1.3 0-2.175-1.324-2.175-3.924 0-2.6.876-3.875 2.176-3.875zm110.351 0c1.275 0 2.149 1.275 2.149 3.875s-.874 3.924-2.149 3.924c-1.3 0-2.176-1.324-2.176-3.924 0-2.6.876-3.875 2.176-3.875zm-355.398.575c1.975 0 2.949 1.3 2.949 3.375 0 2.1-1.2 3.5-2.776 3.5-2.025 0-3.25-1.676-3.5-4.776 1-1.475 2.302-2.1 3.327-2.1zm223.144 0c1.975 0 2.95 1.3 2.95 3.375 0 2.1-1.201 3.5-2.776 3.5-2.025 0-3.25-1.676-3.5-4.776 1-1.475 2.301-2.1 3.326-2.1zm-117.2.45c2.3.926 4.325 1.675 4.325 3.725 0 1.65-1.275 2.8-3.125 2.8-1.95 0-3.424-1.275-3.424-3.05 0-1.45.95-2.624 2.225-3.474z"/>
</svg>
